<svg xmlns="http://www.w3.org/2000/svg" viewBox="0 0 600 600"><g fill="#CE242B"><path d="M478.353 116.28l14.55-14.55m-15.681 13.378l14.554-14.548 2.31 2.31-14.555 14.548zm-43.532 47.938l-12.933 12.933m-1.446-1.439l12.934-12.934 2.88 2.88-12.933 12.934z"/><path d="M481.093 97.615l-21.945 37.7 37.137-20.257h-16.881l1.689-17.443z"/><path d="M457.815 136.612l22.847-39.25.93.3-1.636 16.896h16.33l.239.939-38.71 21.115zm22.56-36.77l-19.895 34.176 33.844-18.46h-15.471l1.522-15.716zm-65.96 66.138l37.7-21.944-20.257 37.137v-16.881l-17.443 1.689z"/><path d="M432.296 181.413l-.938-.24v-16.33l-16.896 1.636-.3-.93 39.249-22.846-21.115 38.71zm.062-17.671v15.47l18.46-33.843-34.176 19.894 15.716-1.521z"/></g><path fill="none" d="M341.201 282.674a34.451 34.451 0 0 1-1.356 6.245c7.685-24.457-13.947-44.355-36.093-45.028-29.16-.887-50.431 25.929-49.959 53.796.623 36.77 34.652 63.571 70.142 61.93 44.373-2.053 76.357-43.381 73.503-86.489-3.441-51.974-52.114-89.166-102.836-85.076-59.575 4.805-101.992 60.85-96.649 119.183 6.152 67.176 69.586 114.828 135.529 108.223 74.778-7.49 127.671-78.323 119.796-151.876-8.82-82.38-87.062-140.52-168.223-131.369-89.982 10.145-153.373 95.8-142.942 184.569 11.466 97.584 104.54 166.228 200.916 154.515 105.187-12.784 179.087-113.28 166.089-217.263-14.099-112.79-122.02-191.948-233.61-177.662C155.116 91.783 70.7 207.131 86.274 326.327c14.584 111.621 111.095 197.293 222.85 202.646"/><path fill="#121212" d="M309.128 535.637c-.107 0-.215-.003-.323-.008-55.858-2.676-109.843-25.114-152.01-63.183-42.512-38.38-69.903-89.966-77.127-145.256-4-30.613-1.75-61.357 6.686-91.379 8.169-29.07 21.689-55.974 40.186-79.966 37.024-48.023 89.628-78.595 148.124-86.083 56.455-7.228 115.062 8.971 160.806 44.44 44.904 34.819 73.408 84.185 80.261 139.004 6.604 52.829-8.708 107.599-42.009 150.266-32.615 41.786-78.743 68.223-129.887 74.438-49.215 5.978-100.138-8.448-139.727-39.584-38.667-30.411-63.033-73.301-68.611-120.769-5.357-45.589 8.188-92.676 37.16-129.187 28.207-35.547 67.859-57.843 111.652-62.78 41.968-4.734 85.215 7.93 118.648 34.742 32.427 26.005 52.65 62.42 56.946 102.539 4.106 38.352-7.677 77.756-32.329 108.108-23.803 29.307-56.983 47.457-93.428 51.107-34.739 3.475-70.3-7.429-97.569-29.928-26.184-21.603-42.257-51.547-45.259-84.317-2.851-31.125 7.186-62.846 27.535-87.03 19.405-23.062 46.116-37.055 75.214-39.401 27.513-2.221 55.397 6.951 76.493 25.161 19.937 17.209 31.843 40.689 33.526 66.116 1.583 23.918-6.733 47.961-22.818 65.962-15.018 16.807-35.27 26.617-57.025 27.623-20.338.954-40.54-6.54-55.436-20.523-13.671-12.834-21.369-29.863-21.675-47.949-.283-16.672 6.555-33.538 18.292-45.117 10.54-10.399 24.238-15.887 38.531-15.451 14.546.442 28.688 7.901 36.909 19.466 5.645 7.94 8.028 17.131 6.98 26.49a6.836 6.836 0 0 1-.027.281 41.259 41.259 0 0 1-1.561 7.272v.001l-.01.031-.009.028v.001l-.036.115-12.713-3.996a.983.983 0 0 0 .024-.077l.001-.003.023-.075.002-.007.011-.035a27.97 27.97 0 0 0 1.036-4.844l.017-.125c.872-7.577-1.855-13.476-4.6-17.337-5.766-8.111-16.149-13.554-26.453-13.867-13.632-.424-23.164 6.089-28.768 11.617-9.193 9.07-14.549 22.306-14.327 35.406.245 14.453 6.45 28.112 17.473 38.459 12.285 11.531 28.935 17.69 45.7 16.928 18.149-.84 35.091-9.076 47.704-23.191 13.714-15.349 20.807-35.834 19.458-56.203-1.445-21.838-11.722-42.048-28.937-56.908-18.413-15.894-42.725-23.898-66.715-21.966-25.523 2.058-48.994 14.381-66.089 34.698-18.074 21.48-26.99 49.631-24.461 77.236 2.675 29.204 17.047 55.93 40.469 75.254 24.547 20.252 56.536 30.076 87.761 26.946 32.886-3.294 62.864-19.719 84.412-46.249 22.431-27.616 33.154-63.44 29.423-98.288-3.915-36.565-22.395-69.793-52.033-93.562-30.686-24.607-70.348-36.233-108.818-31.896-40.244 4.538-76.72 25.072-102.708 57.822-26.785 33.755-39.31 77.256-34.364 119.35 5.161 43.923 27.753 83.645 63.614 111.85 36.824 28.961 84.167 42.386 129.881 36.829 47.602-5.785 90.569-30.436 120.989-69.409 31.138-39.895 45.459-91.073 39.291-140.413-6.41-51.28-33.118-97.493-75.204-130.126-42.965-33.314-97.981-48.534-150.948-41.753-54.958 7.035-104.416 35.802-139.262 81.002-35.491 46.036-51.606 104.894-44.212 161.482 6.814 52.148 32.684 100.835 72.844 137.092 39.887 36.01 90.927 57.234 143.717 59.763a6.663 6.663 0 0 1 6.337 6.974 6.66 6.66 0 0 1-6.648 6.342z"/><g fill="#121212"><path d="M304.472 500.542h21.653v45.984h-21.653z"/><path d="M326.125 548.121h-21.653l-1.595-1.595v-45.984l1.595-1.595h21.653l1.595 1.595v45.984l-1.595 1.595zm-20.059-3.189h18.464v-42.795h-18.464v42.795z"/></g><g fill="#121212"><path d="M370.841 543.246v7.751l-34.781-.736-11.067 8.826H302.86l-56.185-11.768v-4.073h124.166z"/><path d="M325.046 559.237h-22.187l-56.334-11.796v-4.347h124.466v8.056l-.153-.004-34.728-.733-11.064 8.824zm-78.221-12.04l56.065 11.743 22.051-.004 11.068-8.826.054.002 34.628.731v-7.448H246.825v3.802z"/></g><path d="M306.96 276.957v49.456m-2.664-49.456h5.328v49.455h-5.328zm2.69-118.922v98.536m-2.691-98.536h5.381v98.536h-5.381zm2.691-139.63v98.536m-2.691-98.536h5.381v98.536h-5.381zm2.665 118.277v.378m-.232-.378h.465v.378h-.465zm.258 196.342V448.11m-2.908-115.086h5.814V448.11h-5.814zm3.125 121.572v81.857m-2.452-81.857h4.904v81.857h-4.904zM25.036 293.224h87.269m-87.269-2.166h87.269v4.334H25.036zm104.722 2.166h34.908m-34.908-2.166h34.908v4.334h-34.908zm52.362 2.166h87.269m-87.269-2.166h87.269v4.334H182.12z" fill="#121212"/><path d="M286.595 293.224h61.868m-61.868-2.039h61.868v4.079h-61.868zm87.516 2.039h104.722m-104.723-2.166h104.723v4.334H374.11zm122.177 2.166h34.907m-34.907-2.166h34.907v4.334h-34.907z" fill="#121212"/><g fill="#121212"><path d="M328.769 312.694c1.906-2.545 4.42-3.818 7.544-3.818 2.668 0 4.869.968 6.603 2.905 1.734 1.937 2.601 4.393 2.601 7.368 0 4.636-1.863 8.859-5.589 12.671-3.726 3.812-7.851 5.718-12.376 5.718-3.258 0-5.948-1.079-8.069-3.237s-3.182-4.891-3.182-8.198c0-3.59 1.208-6.683 3.624-9.277 2.417-2.595 5.365-3.972 8.844-4.132zm-1.401 2.011c-2.189.529-3.916 1.703-5.183 3.523s-1.9 4.058-1.9 6.714c0 2.963.861 5.407 2.582 7.332 1.721 1.924 3.916 2.887 6.585 2.887 3.197 0 6.019-1.512 8.466-4.537 2.447-3.025 3.67-6.523 3.67-10.495 0-2.312-.609-4.254-1.826-5.828-1.217-1.574-2.717-2.361-4.5-2.361-1.808 0-3.375.735-4.703 2.204-1.328 1.469-1.992 3.212-1.992 5.229 0 1.426.338 2.742 1.014 3.947-1.34-.246-2.235-.609-2.684-1.088-.449-.48-.673-1.328-.673-2.545 0-1.588.381-3.248 1.144-4.982z"/><path d="M327.552 338.039c-3.383 0-6.217-1.14-8.426-3.387-2.206-2.245-3.325-5.121-3.325-8.549 0-3.705 1.265-6.941 3.759-9.618 2.442-2.623 5.454-4.062 8.952-4.278 1.98-2.542 4.604-3.83 7.801-3.83 2.805 0 5.152 1.033 6.976 3.071 1.811 2.021 2.729 4.613 2.729 7.702 0 4.748-1.929 9.129-5.731 13.021-3.808 3.893-8.092 5.868-12.735 5.868zm8.76-28.662c-2.984 0-5.32 1.184-7.143 3.617l-.142.188-.235.011c-3.329.153-6.189 1.49-8.501 3.974-2.316 2.485-3.491 5.492-3.491 8.937 0 3.156 1.022 5.797 3.038 7.848 2.014 2.049 4.608 3.088 7.713 3.088 4.364 0 8.407-1.873 12.019-5.567 3.614-3.698 5.446-7.844 5.446-12.321 0-2.835-.832-5.202-2.473-7.036-1.648-1.844-3.687-2.739-6.231-2.739zm-6.86 26.282c-2.805 0-5.146-1.027-6.958-3.054-1.798-2.009-2.709-4.587-2.709-7.664 0-2.748.669-5.103 1.989-6.999 1.333-1.915 3.175-3.168 5.476-3.724l.981-.236-.406.924c-.731 1.663-1.102 3.271-1.102 4.778 0 1.065.187 1.828.539 2.204.19.204.589.471 1.419.71a8.537 8.537 0 0 1-.615-3.228c0-2.136.714-4.007 2.121-5.563 1.421-1.572 3.128-2.369 5.074-2.369 1.938 0 3.585.859 4.896 2.555 1.281 1.656 1.931 3.72 1.931 6.134 0 4.07-1.272 7.708-3.781 10.81-2.536 3.133-5.515 4.722-8.855 4.722zm-2.935-20.178c-1.609.584-2.926 1.601-3.922 3.032-1.2 1.726-1.81 3.888-1.81 6.428 0 2.823.826 5.178 2.455 6.998 1.637 1.83 3.669 2.72 6.212 2.72 3.023 0 5.74-1.464 8.077-4.352 2.361-2.919 3.559-6.345 3.559-10.181 0-2.188-.579-4.045-1.722-5.522-1.127-1.457-2.47-2.166-4.104-2.166-1.675 0-3.092.667-4.332 2.039-1.236 1.367-1.863 3.014-1.863 4.894 0 1.334.32 2.579.95 3.702l.522.93-1.048-.192c-1.463-.269-2.431-.674-2.959-1.238-.544-.581-.809-1.525-.809-2.888.001-1.346.267-2.756.794-4.204z"/></g><g fill="#121212"><path d="M339.735 517.208c-.354-.75-.532-1.459-.532-2.127 0-2.345 1.899-4.493 5.696-6.443 3.798-1.95 7.967-2.925 12.507-2.925 2.536 0 4.585.484 6.146 1.452s2.342 2.236 2.342 3.804c0 2.904-2.066 5.632-6.197 8.181 2.414.655 4.305 1.643 5.676 2.966 1.37 1.323 2.056 2.823 2.056 4.5 0 3.3-1.793 6.109-5.379 8.427-3.586 2.318-7.929 3.477-13.029 3.477-3.75 0-5.625-1.18-5.625-3.539 0-.559.204-1.868.614-3.927l2.884-14.502c.232-1.159.348-1.984.348-2.475 0-.477-.164-.914-.491-1.309 1.8-.682 3.061-1.023 3.784-1.023.845 0 1.268.484 1.268 1.452 0 .245-.225 1.445-.675 3.6l-2.679 13.438c-.3 1.554-.45 2.57-.45 3.048 0 1.718 1.636 2.577 4.909 2.577 2.686 0 4.987-.774 6.903-2.321 1.916-1.548 2.874-3.406 2.874-5.574 0-1.691-.532-3.013-1.595-3.968-1.064-.954-2.836-1.691-5.318-2.209-.886.354-1.854.532-2.904.532-.355 0-.798-.061-1.329-.184.395-1.459.89-2.441 1.483-2.945.593-.504 1.551-.757 2.874-.757.341 0 .798.021 1.37.061 2.904-2.127 4.357-4.234 4.357-6.32 0-2.468-1.882-3.702-5.645-3.702-6.098.002-11.511 2.913-16.243 8.735z"/><path d="M349.021 539.021c-4.063 0-6.124-1.358-6.124-4.038 0-.6.204-1.916.623-4.024l2.884-14.502c.225-1.119.338-1.918.338-2.377 0-.361-.123-.686-.376-.991l-.445-.538.654-.248c1.874-.71 3.169-1.055 3.96-1.055 1.124 0 1.769.712 1.769 1.952 0 .205-.081.806-.686 3.702l-2.679 13.434c-.364 1.888-.44 2.646-.44 2.95 0 1.378 1.483 2.077 4.409 2.077 2.556 0 4.772-.744 6.589-2.211 1.809-1.461 2.688-3.156 2.688-5.185 0-1.557-.468-2.733-1.429-3.596-.972-.873-2.634-1.565-4.942-2.062a8.327 8.327 0 0 1-2.946.512c-.394 0-.879-.066-1.442-.196l-.505-.117.136-.501c.425-1.571.962-2.616 1.641-3.195.692-.59 1.738-.876 3.198-.876.312 0 .72.017 1.221.05 2.658-1.98 4.006-3.935 4.006-5.809 0-.792 0-3.202-5.146-3.202-5.908 0-11.241 2.876-15.852 8.549l-.5.616-.34-.718c-.385-.814-.58-1.603-.58-2.341 0-2.537 2.008-4.854 5.968-6.888 3.851-1.977 8.136-2.979 12.736-2.98 2.621.001 4.777.516 6.409 1.528 1.711 1.061 2.579 2.483 2.579 4.229 0 2.848-1.855 5.54-5.519 8.015 1.998.666 3.624 1.597 4.844 2.772 1.465 1.414 2.208 3.049 2.208 4.86 0 3.465-1.887 6.441-5.607 8.847-3.652 2.36-8.127 3.557-13.302 3.557zm-1.516-25.998c.157.331.236.685.236 1.056 0 .532-.117 1.373-.357 2.573l-2.884 14.501c-.499 2.51-.604 3.468-.604 3.829 0 .751 0 3.038 5.124 3.038 4.979 0 9.271-1.143 12.758-3.396 3.466-2.24 5.15-4.859 5.15-8.007 0-1.551-.622-2.905-1.902-4.141-1.304-1.258-3.142-2.214-5.46-2.843l-1.114-.302.982-.606c3.955-2.44 5.961-5.05 5.961-7.756 0-1.396-.688-2.5-2.106-3.379-1.472-.913-3.45-1.377-5.882-1.378-4.44.001-8.572.967-12.279 2.87-3.6 1.848-5.425 3.866-5.425 5.998 0 .367.063.755.188 1.159 4.685-5.485 10.092-8.266 16.083-8.266 5.079 0 6.146 2.285 6.146 4.202 0 2.245-1.534 4.507-4.561 6.724l-.148.108-.184-.013a19.709 19.709 0 0 0-1.334-.061c-1.195 0-2.053.215-2.55.638-.445.379-.84 1.111-1.175 2.182.266.044.499.066.697.066.981 0 1.896-.167 2.719-.495l.14-.057.148.031c2.594.541 4.409 1.302 5.55 2.326 1.168 1.048 1.761 2.509 1.761 4.34 0 2.316-1.029 4.322-3.059 5.962-1.999 1.615-4.428 2.434-7.218 2.434-3.589 0-5.409-1.035-5.409-3.077 0-.512.15-1.54.459-3.143l2.681-13.441c.574-2.753.663-3.376.665-3.503 0-.878-.38-.951-.769-.951-.409.002-1.263.143-3.028.778z"/></g><path d="M538.753 293.224h34.907m-34.907-2.166h34.907v4.334h-34.907zM324.087 546.994l-22.124 35.963m-1.563-.933l22.125-35.962 3.105 1.91-22.125 35.962zm17.221-35.03l-22.124 35.963m-1.562-.978l22.125-35.963 3.105 1.91-22.126 35.963zm17.219-34.985l-22.124 35.963m-1.561-.978l22.124-35.961 3.105 1.91-22.125 35.96zm43.085-34.985l-22.124 35.963m-1.54-.974l22.121-35.965 3.106 1.91-22.12 35.966zm30.131-34.989l-22.124 35.963m-1.54-.974l22.121-35.965 3.106 1.91-22.12 35.965zm30.227-34.18l-22.124 35.963m-1.54-.974l22.12-35.966 3.106 1.91-22.12 35.966zm30.131-34.989l-22.124 35.963m-1.54-.975l22.12-35.965 3.106 1.91-22.12 35.965zm30.131-34.988l-22.124 35.963m-1.54-.976l22.12-35.965 3.106 1.91-22.12 35.966zm30.033-35.796l-22.124 35.963m-1.54-.974l22.122-35.967 3.105 1.91-22.121 35.967zm30.131-34.989l-22.124 35.963m-1.54-.975l22.12-35.966 3.106 1.91-22.12 35.966zm-41.002-34.988l-22.124 35.963m-1.562-.977l22.125-35.962 3.104 1.91-22.125 35.961zm10.752-34.986c-18.245 29.796-18.941 30.592-18.941 30.592m1.372 1.2l-1.372-1.2-1.463-1.087c.143-.199 1.883-2.748 18.85-30.457l3.108 1.904c-11.645 19.02-18.616 30.26-19.123 30.84zm11.103-31.792c-17.151 26.812-17.549 27.608-17.549 27.608m1.589.892l-3.219-1.708c.276-.552 6.872-10.935 17.644-27.774l3.07 1.965c-16.054 25.097-17.395 27.343-17.495 27.517zm9.095-28.202l-15.559 24.524m-1.512-.966l15.56-24.524 3.079 1.953-15.561 24.524zm36.869-23.856c-19.837 32.183-20.632 33.278-20.632 33.278m1.473 1.072l-2.947-2.145c.027-.042 1.497-2.242 20.554-33.161l3.104 1.912c-19.316 31.339-20.625 33.277-20.711 33.394z" fill="#121212"/><g fill="#121212"><path d="M512.447 92.536c0 3.995 1.691 5.993 5.072 5.993 2.932 0 6.163-1.398 9.695-4.193s6.716-6.477 9.552-11.045l1.739.961c-2.673 4.991-6.146 9.122-10.421 12.395-4.275 3.273-8.328 4.909-12.16 4.909-2.454 0-4.394-.791-5.819-2.373-1.425-1.582-2.137-3.743-2.137-6.484 0-3.954 1.292-7.336 3.876-10.145 2.584-2.809 5.696-4.213 9.337-4.213 1.759 0 3.167.443 4.224 1.329 1.057.886 1.585 2.073 1.585 3.559 0 2.441-1.469 4.602-4.408 6.484-2.939 1.883-6.317 2.823-10.135 2.823zm.164-1.963c2.85-.15 5.294-.968 7.333-2.454 2.039-1.486 3.058-3.204 3.058-5.154 0-1.745-.777-2.618-2.332-2.618-1.854 0-3.566.995-5.134 2.986-1.569 1.99-2.544 4.404-2.925 7.24z"/><path d="M515.924 102.057c-2.59 0-4.673-.854-6.189-2.538-1.504-1.668-2.267-3.962-2.267-6.818 0-4.065 1.349-7.592 4.008-10.483 2.671-2.903 5.936-4.375 9.705-4.375 1.872 0 3.401.487 4.545 1.447 1.17.981 1.764 2.308 1.764 3.941 0 2.611-1.561 4.934-4.638 6.905-2.875 1.841-6.201 2.814-9.895 2.896.13 3.362 1.626 4.998 4.562 4.998 2.803 0 5.96-1.375 9.385-4.085 3.469-2.746 6.645-6.419 9.438-10.917l.251-.404 2.586 1.43-.233.435c-2.693 5.031-6.246 9.255-10.558 12.556-4.344 3.325-8.538 5.012-12.464 5.012zm5.257-23.215c-3.479 0-6.496 1.363-8.969 4.052-2.484 2.701-3.744 6-3.744 9.807 0 2.601.676 4.67 2.009 6.149 1.339 1.485 3.12 2.208 5.447 2.208 3.701 0 7.69-1.617 11.856-4.806 4.073-3.119 7.452-7.087 10.049-11.8l-.891-.492c-2.793 4.414-5.958 8.036-9.413 10.771-3.606 2.854-6.973 4.301-10.006 4.301-2.542 0-5.572-1.126-5.572-6.493v-.5h.5c3.703 0 7.022-.923 9.865-2.744 2.771-1.775 4.177-3.815 4.177-6.063 0-1.343-.46-2.382-1.406-3.175-.959-.807-2.271-1.215-3.902-1.215zm-9.147 12.262l.081-.598c.392-2.912 1.41-5.429 3.027-7.482 1.66-2.108 3.52-3.177 5.526-3.177 1.826 0 2.832 1.107 2.832 3.118 0 2.109-1.098 3.979-3.263 5.558-2.109 1.538-4.667 2.396-7.602 2.55l-.601.031zm8.635-10.258c-1.685 0-3.279.94-4.741 2.796-1.392 1.767-2.308 3.914-2.729 6.388 2.48-.224 4.648-1.001 6.45-2.315 1.92-1.399 2.853-2.953 2.853-4.75-.001-1.878-.981-2.119-1.833-2.119z"/></g><path d="M262.222 544.297c-11.222 18.801-11.824 19.629-11.824 19.629m1.476 1.071l-2.95-2.141c.01-.017 1.049-1.593 11.734-19.493l3.13 1.869c-10.723 17.961-11.806 19.616-11.914 19.765z" fill="#121212"/><g fill="#121212"><path d="M378.855 544.134c-22.124 35.963-23.02 37.754-23.02 37.754l-.696.895"/><path d="M356.578 583.902l-2.877-2.238.61-.787c.558-.984 3.83-6.55 22.99-37.697l3.106 1.91c-21.312 34.643-22.902 37.54-22.96 37.646l-.174.271-.695.895z"/><path d="M377.273 543.686h3.382l-1.194 2.014-1.194-.199"/><path d="M379.717 546.251l-1.531-.256.164-.986.855.142.573-.965h-2.505v-1h4.259z"/></g><g fill="#121212"><path d="M347.894 291.494l-49.263.79 7.24 13.305 42.023-14.095z"/><path d="M305.639 306.18l-7.819-14.368 50.066-.803.162.947-42.409 14.224zm-6.197-13.422l6.662 12.24 38.662-12.968-45.324.728z"/></g><g fill="#121212"><path d="M335.969 285.864c-.654 5.05-7.218 8.08-15.539 12.405m.961 1.847l-1.92-3.692 1.749-.905c6.826-3.526 12.219-6.31 12.686-9.92l4.127.533c-.747 5.772-6.994 9-14.903 13.084l-1.739.9zm21.56-10.479c-.36.581-.608 1.33-.993 1.788l3.106.387c.424-.172.546-.64.714-1.066l-2.827-1.109z"/><path d="M345.121 292.254l-4.003-.499.509-.608c.191-.229.356-.569.53-.929.134-.277.271-.558.427-.81l.189-.306 3.564 1.4-.22.561c-.154.413-.347.928-.894 1.148l-.102.043zm-2.43-1.173l2.289.285c.095-.072.165-.198.239-.375l-2.077-.815c-.071.137-.14.28-.208.42-.078.161-.158.326-.243.485z"/></g><path d="M266.522 547.016c-11.222 18.801-11.824 19.629-11.824 19.629m1.475 1.071l-2.949-2.143c.009-.017 1.05-1.594 11.733-19.492l3.13 1.869c-8.306 13.914-11.6 19.334-11.914 19.766zm14.925-18.313c-11.222 18.801-11.824 19.629-11.824 19.629m1.475 1.071l-2.95-2.141c.01-.017 1.049-1.593 11.734-19.493l3.13 1.869c-10.722 17.961-11.806 19.615-11.914 19.765z" fill="#121212"/><path fill="none" d="M309.633 288.139c-8.331 3.455-.376 13.832 4.755 15.637 8.248 2.9 15.91-.828 21.017-6.997 3.349-4.046 5.599-9.142 6.193-14.105 2.577-21.516-17.222-38.169-37.449-38.783-29.16-.887-50.828 25.929-50.356 53.796.623 36.77 34.652 63.571 70.142 61.93 44.373-2.053 76.357-43.381 73.503-86.489-3.441-51.974-52.114-89.166-102.836-85.076-59.575 4.805-101.992 60.85-96.649 119.183 6.152 67.176 69.586 114.828 135.529 108.223 74.778-7.49 127.671-78.323 119.796-151.876-8.82-82.38-87.062-140.52-168.223-131.369-89.982 10.145-153.373 95.8-142.942 184.569 11.466 97.584 104.54 166.228 200.916 154.515 105.187-12.784 179.087-113.28 166.089-217.263-14.099-112.79-122.02-191.948-233.61-177.662C155.116 91.783 70.7 207.131 86.274 326.327c14.584 111.621 111.095 197.293 222.85 202.646"/><path fill="#0075B2" d="M309.125 531.562l-.126-.003c-54.92-2.631-108.004-24.698-149.474-62.137-41.794-37.731-68.72-88.431-75.818-142.761-7.71-59.007 9.078-120.361 46.059-168.329 36.358-47.16 88-77.18 145.415-84.53 55.385-7.09 112.899 8.808 157.792 43.619 44.043 34.15 71.998 82.553 78.715 136.29 6.472 51.762-8.538 105.434-41.178 147.253-31.943 40.927-77.105 66.816-127.166 72.901-48.147 5.848-97.973-8.271-136.717-38.742-37.809-29.736-61.633-71.657-67.083-118.042-5.231-44.52 8.001-90.511 36.306-126.179 27.528-34.692 66.209-56.449 108.917-61.264 40.9-4.614 83.05 7.734 115.643 33.872 31.574 25.321 51.265 60.762 55.444 99.794 3.992 37.28-7.468 75.59-31.44 105.104-23.114 28.458-55.315 46.081-90.672 49.623-33.661 3.373-68.133-7.204-94.57-29.017-25.34-20.906-40.893-49.866-43.794-81.546-2.752-30.049 6.941-60.679 26.595-84.036 18.699-22.223 44.419-35.705 72.424-37.963 26.439-2.128 53.229 6.683 73.503 24.185 19.104 16.491 30.513 38.972 32.123 63.301 1.512 22.833-6.431 45.788-21.791 62.978-14.282 15.984-33.522 25.313-54.175 26.269-19.244.889-38.362-6.188-52.46-19.425-12.862-12.073-20.103-28.071-20.391-45.047-.262-15.443 6.136-31.13 17.114-41.961 9.865-9.732 22.61-14.878 35.91-14.466 11.991.364 23.771 5.951 31.509 14.943 6.585 7.652 9.579 17.146 8.431 26.735-.647 5.403-3.114 11.034-6.77 15.448-6.498 7.849-15.425 10.758-23.869 7.788-4.551-1.6-9.956-7.643-10.104-13.036-.093-3.36 1.76-6 5.216-7.434a2.589 2.589 0 0 1 1.985 4.782c-1.824.757-2.047 1.693-2.024 2.509.082 2.984 3.936 7.341 6.646 8.293 9.104 3.205 15.736-3.272 18.164-6.205 3.038-3.669 5.085-8.321 5.617-12.763 1.248-10.418-3.234-18.117-7.214-22.742-6.808-7.911-17.179-12.825-27.743-13.146-11.854-.373-23.269 4.248-32.116 12.977-9.99 9.856-15.812 24.132-15.574 38.188.264 15.563 6.925 30.253 18.757 41.36 13.083 12.282 30.832 18.846 48.676 18.027 19.253-.891 37.206-9.608 50.555-24.547 14.438-16.159 21.905-37.731 20.485-59.186-1.519-22.935-12.293-44.145-30.34-59.723-19.232-16.602-44.63-24.967-69.705-22.943-26.616 2.146-51.077 14.979-68.878 36.136-18.77 22.307-28.028 51.549-25.401 80.23 2.774 30.295 17.667 58.005 41.933 78.025 25.379 20.938 58.451 31.091 90.76 27.857 33.974-3.402 64.931-20.355 87.169-47.734 23.109-28.452 34.157-65.371 30.311-101.29-4.031-37.651-23.044-71.854-53.535-96.306-31.525-25.282-72.286-37.223-111.823-32.766-41.329 4.66-78.776 25.733-105.442 59.338-27.454 34.597-40.291 79.195-35.219 122.357 5.288 45.007 28.423 85.697 65.142 114.576 37.669 29.626 86.106 43.36 132.891 37.671 48.685-5.917 92.619-31.112 123.71-70.946 31.799-40.742 46.423-93.019 40.122-143.425-6.546-52.362-33.803-99.539-76.75-132.841-43.815-33.974-99.935-49.49-153.962-42.574-56.04 7.174-106.459 36.493-141.971 82.556C97.722 208.379 81.31 268.335 88.844 325.99c6.939 53.108 33.274 102.682 74.154 139.588 40.584 36.639 92.524 58.234 146.252 60.808a2.589 2.589 0 0 1-.125 5.176z"/></svg>