<?xml version="1.0" encoding="UTF-8"?><!DOCTYPE svg PUBLIC "-//W3C//DTD SVG 1.1//EN" "http://www.w3.org/Graphics/SVG/1.1/DTD/svg11.dtd"><svg xmlns="http://www.w3.org/2000/svg"><symbol id="angle-double-left" viewBox="0 0 1792 1792"><path d="M1011 1376q0 13-10 23l-50 50q-10 10-23 10t-23-10L439 983q-10-10-10-23t10-23l466-466q10-10 23-10t23 10l50 50q10 10 10 23t-10 23L608 960l393 393q10 10 10 23zm384 0q0 13-10 23l-50 50q-10 10-23 10t-23-10L823 983q-10-10-10-23t10-23l466-466q10-10 23-10t23 10l50 50q10 10 10 23t-10 23L992 960l393 393q10 10 10 23z"/></symbol><symbol id="angle-double-right" viewBox="0 0 1792 1792"><path d="M979 960q0 13-10 23l-466 466q-10 10-23 10t-23-10l-50-50q-10-10-10-23t10-23l393-393-393-393q-10-10-10-23t10-23l50-50q10-10 23-10t23 10l466 466q10 10 10 23zm384 0q0 13-10 23l-466 466q-10 10-23 10t-23-10l-50-50q-10-10-10-23t10-23l393-393-393-393q-10-10-10-23t10-23l50-50q10-10 23-10t23 10l466 466q10 10 10 23z"/></symbol><symbol id="angle-left" viewBox="0 0 1792 1792"><path d="M1203 544q0 13-10 23L800 960l393 393q10 10 10 23t-10 23l-50 50q-10 10-23 10t-23-10L631 983q-10-10-10-23t10-23l466-466q10-10 23-10t23 10l50 50q10 10 10 23z"/></symbol><symbol id="angle-right" viewBox="0 0 1792 1792"><path d="M1171 960q0 13-10 23l-466 466q-10 10-23 10t-23-10l-50-50q-10-10-10-23t10-23l393-393-393-393q-10-10-10-23t10-23l50-50q10-10 23-10t23 10l466 466q10 10 10 23z"/></symbol><symbol id="arrow-down" viewBox="-1 0 19 19"><path d="M16.549 2.555c0 .08-.02.16-.061.233l-7.56 13.891a.49.49 0 0 1-.858 0L.51 2.788a.49.49 0 0 1 .43-.72h15.121c.172 0 .332.091.42.237a.508.508 0 0 1 .068.25zM8.5 15.425l6.738-12.381H1.761L8.5 15.425z"/></symbol><symbol id="arrow-left" viewBox="0 0 17 19"><path d="M15.831 17.097c-.08 0-.16-.02-.233-.06l-13.89-7.56a.49.49 0 0 1 0-.858l13.89-7.56a.487.487 0 0 1 .721.429v15.12a.49.49 0 0 1-.488.489zM2.963 9.048l12.38 6.739V2.31L2.963 9.048z"/></symbol><symbol id="arrow-right" viewBox="0 0 17 19"><path d="M1.941 1c.08 0 .16.02.233.06l13.89 7.561a.49.49 0 0 1 0 .858l-13.89 7.56a.487.487 0 0 1-.721-.429V1.488A.49.49 0 0 1 1.941 1zM14.81 9.049L2.43 2.31v13.478l12.38-6.739z"/></symbol><symbol id="arrow462" viewBox="0 0 216 146"><path d="M165.316 60.412c-1.766-2.037-4.06-3.055-6.885-3.055h-57.355l23.871-23.872c2.064-2.063 3.096-4.535 3.096-7.414 0-2.878-1.031-5.35-3.096-7.414l-6.11-6.029c-2.063-2.063-4.508-3.096-7.332-3.096-2.879 0-5.351 1.032-7.414 3.096L51.052 65.586c-2.01 2.118-3.015 4.59-3.015 7.414 0 2.879 1.005 5.323 3.015 7.332l53.039 53.121c2.118 2.01 4.589 3.016 7.414 3.016 2.878 0 5.322-1.006 7.332-3.016l6.11-6.191c2.064-1.955 3.096-4.399 3.096-7.332 0-2.934-1.031-5.379-3.096-7.334l-23.871-23.953h57.355c2.825 0 5.119-1.018 6.885-3.055 1.765-2.037 2.647-4.494 2.647-7.373V67.786c.001-2.879-.882-5.337-2.647-7.374z"/></symbol><symbol id="arrow465" viewBox="0 0 216 146"><path d="M164.95 65.668l-53.039-53.039c-2.063-2.064-4.535-3.096-7.414-3.096-2.825 0-5.269 1.032-7.333 3.096l-6.11 6.11c-2.064 1.956-3.096 4.4-3.096 7.333s1.032 5.377 3.096 7.333l23.872 23.953H57.568c-2.824 0-5.119 1.018-6.884 3.055s-2.648 4.495-2.648 7.373v10.429c0 2.879.883 5.336 2.648 7.373s4.06 3.055 6.884 3.055h57.357l-23.872 23.873c-2.064 2.062-3.096 4.534-3.096 7.413s1.032 5.351 3.096 7.414l6.11 6.11c2.119 2.01 4.563 3.015 7.333 3.015 2.825 0 5.297-1.005 7.414-3.015l53.039-53.039c2.01-2.01 3.016-4.48 3.016-7.414 0-2.987-1.006-5.432-3.015-7.332z"/></symbol><symbol id="arrow466" viewBox="0 0 216 146"><path d="M168.452 62.53l-6.109-6.11c-2.118-2.01-4.59-3.015-7.413-3.015-2.88 0-5.324 1.005-7.334 3.015l-23.953 23.953V23.017c0-2.825-1.033-5.269-3.097-7.333s-4.508-3.096-7.332-3.096h-10.429c-2.824 0-5.269 1.033-7.332 3.096-2.065 2.064-3.096 4.508-3.096 7.333v57.356L68.404 56.42c-2.01-2.01-4.454-3.015-7.333-3.015-2.824 0-5.296 1.005-7.414 3.015l-6.029 6.11c-2.064 2.063-3.096 4.536-3.096 7.414 0 2.934 1.033 5.378 3.096 7.333l53.039 53.119c2.01 2.011 4.454 3.016 7.333 3.016 2.824 0 5.296-1.005 7.413-3.016l53.039-53.119c2.01-2.01 3.016-4.454 3.016-7.333 0-2.824-1.006-5.295-3.016-7.414z"/></symbol><symbol id="arrow467" viewBox="0 0 216 146"><path d="M168.452 69.089L115.413 16.05c-2.009-2.01-4.479-3.015-7.413-3.015-2.987 0-5.432 1.005-7.333 3.015L47.628 69.089c-2.064 2.064-3.096 4.536-3.096 7.415 0 2.824 1.033 5.268 3.096 7.332l6.11 6.11c1.956 2.063 4.4 3.097 7.333 3.097s5.377-1.034 7.333-3.097l23.953-23.872v57.357c0 2.823 1.018 5.119 3.055 6.885 2.037 1.765 4.495 2.647 7.373 2.647h10.429c2.879 0 5.336-.882 7.373-2.647s3.056-4.062 3.056-6.885V66.074l23.953 23.872c1.955 2.063 4.399 3.097 7.334 3.097 2.877 0 5.35-1.034 7.413-3.097l6.109-6.11c2.01-2.119 3.016-4.562 3.016-7.332 0-2.825-1.006-5.296-3.016-7.415z"/></symbol><symbol id="circle-arrow-down" viewBox="0 0 48 48"><path d="M24.088 46.291c-12.424 0-22.531-10.107-22.531-22.531S11.664 1.229 24.088 1.229 46.619 11.336 46.619 23.76 36.512 46.291 24.088 46.291zm0-44.062c-11.873 0-21.531 9.659-21.531 21.531s9.659 21.531 21.531 21.531c11.872 0 21.531-9.658 21.531-21.531S35.96 2.229 24.088 2.229z"/><path d="M24.088 33.869a.502.502 0 0 1-.397-.195L11.239 17.438a.5.5 0 0 1 .794-.608l12.055 15.718L36.145 16.83a.5.5 0 0 1 .793.608L24.484 33.674a.499.499 0 0 1-.396.195z"/></symbol><symbol id="circle-arrow-up" viewBox="0 0 48 48"><path d="M24.088 1.229c12.424 0 22.531 10.107 22.531 22.531S36.512 46.291 24.088 46.291 1.557 36.184 1.557 23.76 11.664 1.229 24.088 1.229zm0 44.062c11.873 0 21.531-9.658 21.531-21.531S35.961 2.229 24.088 2.229c-11.872 0-21.531 9.658-21.531 21.531 0 11.872 9.659 21.531 21.531 21.531z"/><path d="M24.088 13.651c.155 0 .302.072.397.195l12.453 16.236a.5.5 0 1 1-.795.608L24.088 14.972 12.031 30.69a.5.5 0 0 1-.793-.608l12.453-16.236a.502.502 0 0 1 .397-.195z"/></symbol><symbol id="close" viewBox="0 0 26 26"><path d="M1 1l23.891 23.892m0-23.892L1 24.892"/></symbol><symbol id="delete" viewBox="0 0 32 32"><circle cx="16" cy="16" r="15"/><path d="M24.418 23.5L8.501 7.583M8.5 23.5L24.418 7.583"/></symbol><symbol id="menu" viewBox="0 0 36 27"><path d="M.84 1h34.32v5H.84zm0 10h34.32v5H.84zm0 10h34.32v5H.84z"/></symbol><symbol id="minus" viewBox="0 0 32 32"><circle cx="16" cy="16" r="15"/><path d="M24.938 16H7.062"/></symbol><symbol id="plus" viewBox="0 0 32 32"><circle cx="16" cy="16" r="15"/><path d="M16 7.063v17.875M24.938 16H7.062"/></symbol><symbol id="quote-left" viewBox="0 0 1792 1792"><path d="M832 960v384q0 80-56 136t-136 56H256q-80 0-136-56t-56-136V640q0-104 40.5-198.5T214 278t163.5-109.5T576 128h64q26 0 45 19t19 45v128q0 26-19 45t-45 19h-64q-106 0-181 75t-75 181v32q0 40 28 68t68 28h224q80 0 136 56t56 136zm896 0v384q0 80-56 136t-136 56h-384q-80 0-136-56t-56-136V640q0-104 40.5-198.5T1110 278t163.5-109.5T1472 128h64q26 0 45 19t19 45v128q0 26-19 45t-45 19h-64q-106 0-181 75t-75 181v32q0 40 28 68t68 28h224q80 0 136 56t56 136z"/></symbol><symbol id="quote-right" viewBox="0 0 1792 1792"><path d="M832 320v704q0 104-40.5 198.5T682 1386t-163.5 109.5T320 1536h-64q-26 0-45-19t-19-45v-128q0-26 19-45t45-19h64q106 0 181-75t75-181v-32q0-40-28-68t-68-28H256q-80 0-136-56T64 704V320q0-80 56-136t136-56h384q80 0 136 56t56 136zm896 0v704q0 104-40.5 198.5T1578 1386t-163.5 109.5T1216 1536h-64q-26 0-45-19t-19-45v-128q0-26 19-45t45-19h64q106 0 181-75t75-181v-32q0-40-28-68t-68-28h-224q-80 0-136-56t-56-136V320q0-80 56-136t136-56h384q80 0 136 56t56 136z"/></symbol></svg>