<?xml version="1.0" encoding="UTF-8"?><!DOCTYPE svg PUBLIC "-//W3C//DTD SVG 1.1//EN" "http://www.w3.org/Graphics/SVG/1.1/DTD/svg11.dtd"><svg xmlns="http://www.w3.org/2000/svg"><symbol id="facebook" viewBox="-463 265 32 32"><path d="M-436.3 265h-21.3c-2.9 0-5.3 2.4-5.3 5.3v21.3c0 2.9 2.4 5.3 5.3 5.3h10.7v-14h-4v-4h4v-3c0-2.8 2.2-5 5-5h5v4h-5c-.6 0-1 .4-1 1v3h5.5l-1 4h-4.5v14h6.7c2.9 0 5.3-2.4 5.3-5.3v-21.3c-.1-2.9-2.5-5.3-5.4-5.3z"/></symbol><symbol id="instagram" viewBox="-422 224.6 113.4 113.4"><path d="M-321.9 272.5h-9.9c.7 2.8 1.1 5.7 1.1 8.7 0 19.2-15.6 34.8-34.8 34.8-19.2 0-34.8-15.6-34.8-34.8 0-3 .4-5.9 1.1-8.7h-9.9v47.9c0 2.4 2 4.4 4.4 4.4h78.4c2.4 0 4.4-1.9 4.4-4.4v-47.9zm0-30.5c0-2.4-1.9-4.4-4.4-4.4h-13.1c-2.4 0-4.4 1.9-4.4 4.4v13.1c0 2.4 1.9 4.4 4.4 4.4h13.1c2.4 0 4.4-2 4.4-4.4V242zm-43.5 17.4c-12 0-21.8 9.7-21.8 21.8 0 12 9.7 21.8 21.8 21.8s21.8-9.8 21.8-21.8-9.8-21.8-21.8-21.8m43.5 78.4H-409c-7.2 0-13.1-5.9-13.1-13.1v-87.1c0-7.2 5.8-13.1 13.1-13.1h87.1c7.2 0 13.1 5.8 13.1 13.1v87.1c0 7.3-5.9 13.1-13.1 13.1"/></symbol><symbol id="twitter" viewBox="-463 265 32 32"><path d="M-431 271.1c-1.2.5-2.4.9-3.8 1 1.4-.8 2.4-2.1 2.9-3.6-1.3.8-2.7 1.3-4.2 1.6-1.2-1.3-2.9-2.1-4.8-2.1-3.6 0-6.6 2.9-6.6 6.6 0 .5.1 1 .2 1.5-5.5-.3-10.3-2.9-13.5-6.9-.6 1-.9 2.1-.9 3.3 0 2.3 1.2 4.3 2.9 5.5-1.1 0-2.1-.3-3-.8v.1c0 3.2 2.3 5.8 5.3 6.4-.5.1-1.1.2-1.7.2-.4 0-.8 0-1.2-.1.8 2.6 3.3 4.5 6.1 4.6-2.2 1.8-5.1 2.8-8.2 2.8-.5 0-1.1 0-1.6-.1 2.9 1.9 6.4 3 10.1 3 12.1 0 18.7-10 18.7-18.7v-.9c1.3-1 2.4-2.1 3.3-3.4z"/></symbol></svg>