<?xml version="1.0" encoding="utf-8"?>
<!-- Generator: Adobe Illustrator 19.1.0, SVG Export Plug-In . SVG Version: 6.00 Build 0)  -->
<svg version="1.1" id="Layer_1" xmlns="http://www.w3.org/2000/svg" xmlns:xlink="http://www.w3.org/1999/xlink" x="0px" y="0px"
	 viewBox="-422 224.6 113.4 113.4" style="enable-background:new -422 224.6 113.4 113.4;" xml:space="preserve">
<path d="M-321.9,272.5h-9.9c0.7,2.8,1.1,5.7,1.1,8.7c0,19.2-15.6,34.8-34.8,34.8c-19.2,0-34.8-15.6-34.8-34.8c0-3,0.4-5.9,1.1-8.7
	h-9.9v47.9c0,2.4,2,4.4,4.4,4.4h78.4c2.4,0,4.4-1.9,4.4-4.4L-321.9,272.5L-321.9,272.5z M-321.9,242c0-2.4-1.9-4.4-4.4-4.4h-13.1
	c-2.4,0-4.4,1.9-4.4,4.4v13.1c0,2.4,1.9,4.4,4.4,4.4h13.1c2.4,0,4.4-2,4.4-4.4V242L-321.9,242z M-365.4,259.4
	c-12,0-21.8,9.7-21.8,21.8c0,12,9.7,21.8,21.8,21.8s21.8-9.8,21.8-21.8C-343.6,269.2-353.4,259.4-365.4,259.4 M-321.9,337.8h-87.1
	c-7.2,0-13.1-5.9-13.1-13.1v-87.1c0-7.2,5.8-13.1,13.1-13.1h87.1c7.2,0,13.1,5.8,13.1,13.1v87.1C-308.8,332-314.7,337.8-321.9,337.8
	"/>
</svg>
