<svg class="emulsify-logo" xmlns="http://www.w3.org/2000/svg" xmlns:xlink="http://www.w3.org/1999/xlink" width="221" height="76" viewBox="0 0 221 76" version="1.1">
  <g stroke="none" stroke-width="1" fill="none" fill-rule="evenodd">
    <g transform="translate(-119.000000, -263.000000)">
      <g transform="translate(97.000000, 263.000000)">
        <g transform="translate(22.000000, 0.000000)">
          <path class="emulsify-logo--pattern-lab-and-drupal" d="M2.88 75L2.88 66.95 6.33 66.95C8.37 66.95 9.68 68 9.68 69.78L9.68 69.8C9.68 71.7 8.22 72.7 6.22 72.7L5.11 72.7 5.11 75 2.88 75ZM5.11 70.95L6.17 70.95C6.96 70.95 7.45 70.54 7.45 69.91L7.45 69.88C7.45 69.19 6.96 68.82 6.16 68.82L5.11 68.82 5.11 70.95ZM10.13 75L13.56 66.89 15.71 66.89 19.13 75 16.74 75 16.16 73.56 13.05 73.56 12.48 75 10.13 75ZM13.71 71.83L15.51 71.83 14.61 69.54 13.71 71.83ZM21.81 75L24.04 75 24.04 68.91 26.45 68.91 26.45 66.95 19.39 66.95 19.39 68.91 21.81 68.91 21.81 75ZM30.35 75L32.59 75 32.59 68.91 35 68.91 35 66.95 27.94 66.95 27.94 68.91 30.35 68.91 30.35 75ZM36.94 75L43.47 75 43.47 73.1 39.14 73.1 39.14 71.83 43.01 71.83 43.01 70.07 39.14 70.07 39.14 68.85 43.41 68.85 43.41 66.95 36.94 66.95 36.94 75ZM45.56 75L45.56 66.95 49.37 66.95C50.6 66.95 51.45 67.27 51.99 67.82 52.46 68.28 52.71 68.91 52.71 69.7L52.71 69.72C52.71 70.95 52.05 71.77 51.05 72.19L52.97 75 50.39 75 48.77 72.56 47.8 72.56 47.8 75 45.56 75ZM47.8 70.81L49.27 70.81C50.03 70.81 50.46 70.45 50.46 69.86L50.46 69.84C50.46 69.2 50 68.88 49.26 68.88L47.8 68.88 47.8 70.81ZM54.79 75L57 75 57 70.58 60.44 75 62.39 75 62.39 66.95 60.19 66.95 60.19 71.21 56.87 66.95 54.79 66.95 54.79 75ZM68.92 75L75.05 75 75.05 73.05 71.15 73.05 71.15 66.95 68.92 66.95 68.92 75ZM76.32 75L79.75 66.89 81.9 66.89 85.32 75 82.93 75 82.35 73.56 79.24 73.56 78.67 75 76.32 75ZM79.9 71.83L81.7 71.83 80.8 69.54 79.9 71.83ZM87.06 75L87.06 66.95 91.19 66.95C92.21 66.95 92.92 67.2 93.39 67.67 93.71 68 93.91 68.42 93.91 68.97L93.91 69C93.91 69.93 93.38 70.48 92.67 70.79 93.64 71.11 94.26 71.67 94.26 72.76L94.26 72.78C94.26 74.16 93.14 75 91.22 75L87.06 75ZM89.24 70.16L90.64 70.16C91.32 70.16 91.7 69.93 91.7 69.46L91.7 69.43C91.7 69 91.35 68.74 90.69 68.74L89.24 68.74 89.24 70.16ZM89.24 73.21L90.96 73.21C91.64 73.21 92.03 72.94 92.03 72.47L92.03 72.45C92.03 72.01 91.69 71.72 90.94 71.72L89.24 71.72 89.24 73.21ZM102.36 73.9L104.36 73.9 104.36 71.92 106.3 71.92 106.3 69.99 104.36 69.99 104.36 68.01 102.36 68.01 102.36 69.99 100.41 69.99 100.41 71.92 102.36 71.92 102.36 73.9ZM112.85 75L112.85 66.95 115.96 66.95C118.83 66.95 120.5 68.61 120.5 70.93L120.5 70.95C120.5 73.28 118.81 75 115.91 75L112.85 75ZM115.08 73.02L115.99 73.02C117.32 73.02 118.21 72.29 118.21 70.99L118.21 70.96C118.21 69.68 117.32 68.93 115.99 68.93L115.08 68.93 115.08 73.02ZM122.61 75L122.61 66.95 126.41 66.95C127.64 66.95 128.5 67.27 129.04 67.82 129.51 68.28 129.75 68.91 129.75 69.7L129.75 69.72C129.75 70.95 129.09 71.77 128.09 72.19L130.01 75 127.44 75 125.82 72.56 124.84 72.56 124.84 75 122.61 75ZM124.84 70.81L126.31 70.81C127.07 70.81 127.51 70.45 127.51 69.86L127.51 69.84C127.51 69.2 127.05 68.88 126.3 68.88L124.84 68.88 124.84 70.81ZM135.46 75.15C137.75 75.15 139.23 74.01 139.23 71.41L139.23 66.95 136.96 66.95 136.96 71.48C136.96 72.61 136.38 73.14 135.48 73.14 134.58 73.14 134 72.58 134 71.42L134 66.95 131.73 66.95 131.73 71.47C131.73 73.99 133.17 75.15 135.46 75.15ZM141.51 75L141.51 66.95 144.96 66.95C146.99 66.95 148.31 68 148.31 69.78L148.31 69.8C148.31 71.7 146.85 72.7 144.84 72.7L143.74 72.7 143.74 75 141.51 75ZM143.74 70.95L144.8 70.95C145.59 70.95 146.07 70.54 146.07 69.91L146.07 69.88C146.07 69.19 145.59 68.82 144.79 68.82L143.74 68.82 143.74 70.95ZM148.76 75L152.19 66.89 154.34 66.89 157.76 75 155.37 75 154.78 73.56 151.68 73.56 151.1 75 148.76 75ZM152.33 71.83L154.14 71.83 153.24 69.54 152.33 71.83ZM159.5 75L165.63 75 165.63 73.05 161.73 73.05 161.73 66.95 159.5 66.95 159.5 75Z" fill="#676665"/>
          <path class="emulsify-logo--emulsify" d="M121.01 0.79C123.17 0.79 128.57 3.17 128.28 4.46 125.04 19.66 122.02 36.08 120.8 51.77 120.65 53.72 120.44 55.66 120.36 57.61 119.36 58.83 112.08 55.88 111.65 54.65 111.43 54.26 111.37 53.53 111.39 52.66 109.69 54.08 107.61 55.08 105.32 55.08 98.48 55.08 97.47 49.47 97.76 45.36L97.18 45.29C96.03 48.6 92.86 55.88 88.69 55.88 86.58 55.88 83.99 54.48 81.99 52.45 80.41 55.02 77.5 57.32 73.28 57.32 66.37 57.32 64.28 52.35 64.49 46.52 64.57 43.64 65.94 36.72 66.73 33.27L65.94 33.27C62.98 39.24 59.6 51.77 59.45 58.04 59.45 58.04 58.09 59.05 56.14 59.05 51.46 59.05 49.66 55.88 49.73 50.76 49.81 45.22 50.24 38.74 50.81 33.41L50.24 33.41C48.01 39.39 44.62 49.54 44.48 55.81 44.48 55.81 43.04 56.96 41.24 56.96 37.74 56.96 35.44 54.96 34.54 51.41 28.68 51.8 21.74 52.94 12.87 54.65L12.73 57.53C12.58 59.19 7.33 57.32 4.95 56.16L4.52 56.31C2.14 56.74-1.17 51.34 0.41 50.91L4.3 49.9C4.66 45.22 5.31 40.03 6.1 34.78L5.89 34.78C3.51 35.21 0.63 30.6 1.85 29.74 2.65 29.23 4.73 28.59 7.18 27.94 8.05 23.47 8.98 19.08 10.06 15.05 8.98 15.27 7.83 15.55 6.61 15.77 4.66 16.13 1.06 10.87 2.57 10.37 5.67 9.36 9.13 8.43 12.44 7.63 13.23 5.69 14.02 3.96 14.89 2.45 17.41 2.74 20.72 3.38 22.09 4.46L21.58 5.83C25.11 5.18 28.14 4.82 30.08 4.61 32.74 4.32 35.62 3.67 37.5 5.47 37.86 5.83 39.44 9.15 39.44 9.72 39.44 10.23 34.76 13.47 33.9 13.97 32.1 14.76 29.79 14.91 29.86 14.11 29.86 13.25 30.44 11.88 30.44 11.88 26.55 12.17 23.24 12.67 19.28 13.32 18.13 17.57 17.12 21.89 16.33 26.21L19.93 25.85C23.31 25.63 25.83 25.35 26.7 26.14 27.99 27.36 29.5 29.67 29.5 30.24 29.5 30.75 29.43 31.75 28.21 31.75 24.1 31.83 19.28 32.48 15.1 33.12 14.38 37.8 13.88 42.63 13.45 47.67 22.62 45.49 29.68 44.28 34.2 44.33 34.8 32.26 38.46 17.35 40.37 17.35 43.25 17.35 46.78 19.15 46.49 20.31 44.91 26.93 42.75 35.57 42.61 39.89L42.89 39.89C45.7 32.48 48.22 24.84 50.45 19.8 50.74 19.23 52.04 19.08 52.83 19.08 56.57 19.08 60.25 20.88 59.96 23.04 59.45 27.79 58.23 35.28 57.94 40.61L58.23 40.61C60.97 33.12 63.34 24.48 67.3 17.21 67.59 16.63 68.82 16.35 69.9 16.35 73.42 16.35 77.96 18.36 77.67 20.67 76.66 27.94 72.63 38.88 72.63 46.37 72.63 49.83 73.5 51.48 75.37 51.48 76.97 51.48 78.24 49.46 79.05 47.59 78.91 47.02 78.82 46.44 78.82 45.87 78.82 37.44 83.28 18.86 86.67 18.86 89.62 18.86 92.21 20.31 92.79 21.24 90.13 29.52 87.32 40.83 87.82 48.03L88.76 48.32C93.51 41.98 98.26 26.21 99.49 19.01 99.56 18.36 100.42 18.07 101.57 18.07 104.24 18.07 108.05 20.31 107.98 21.53 107.7 24.55 104.74 39.1 104.6 44.14 104.45 46.3 105.1 49.47 107.33 49.47 110.36 49.47 111.94 42.41 111.94 42.41 112.02 42.41 112.13 42.41 112.28 42.41 113.69 30.28 116.95 11.91 119.64 1.44 119.86 0.86 120.58 0.79 121.01 0.79ZM144.99 28.08C144.05 28.08 143.84 26.14 142.9 26.14 140.53 26.21 135.41 28.3 134.76 28.87L134.84 29.16C134.84 29.16 149.53 34.85 149.53 47.38 149.53 55.66 143.98 58.76 137.72 58.76 130.08 58.76 122.52 51.56 122.52 45.87 122.52 42.48 124.68 37.3 127.92 37.3 130.44 37.3 133.11 39.75 133.11 40.32 133.04 42.48 129.87 48.03 129.87 48.6 129.8 49.25 130.8 52.28 134.55 52.28 138.65 52.28 140.74 49.18 140.74 44.64 140.74 37.73 133.18 32.62 128.21 31.97 127.06 30.96 125.76 26.93 125.98 25.06 126.34 22.03 147.87 16.56 149.24 16.56 150.1 16.56 152.69 20.09 152.69 21.39 152.69 24.12 147.29 28.08 144.99 28.08ZM162.7 14.69C161.12 14.69 158.45 13.25 158.45 9.65 158.45 7.49 159.75 0.79 164.86 0.79 167.38 0.79 168.89 1.3 168.17 3.82 169.68 4.46 171.2 5.33 171.2 7.49 171.2 10.01 169.11 14.69 162.7 14.69ZM213.24 17.79C216.77 17.79 220.8 19.37 220.8 20.95 220.8 27.79 217.13 36 216.34 41.04 214.97 48.32 212.6 63.22 212.09 70.06 211.87 71.57 211.3 71.65 210.51 71.65 209.36 71.65 205.47 70.28 204.03 69.63 203.31 69.27 203.09 68.98 203.09 67.83 203.09 65.09 205.54 55.88 206.19 50.4 205.03 52.64 202.8 54.94 199.71 54.94 193.15 54.94 191.78 48.82 191.78 44.57 191.78 37.6 193.27 30.45 195.3 24.22 191.46 24.65 186.83 25.25 182.72 25.85L182.64 26.21C187.47 31.25 189.7 35.5 189.7 43.71 189.7 58.68 178.76 68.05 174.29 68.05 169.83 68.05 167.88 64.73 167.88 60.05 167.88 58.37 168.05 56.46 168.28 54.48 166.09 56.32 163.24 57.6 159.82 57.6 154.35 57.6 151.11 54.51 151.11 48.1 151.11 41.26 155.14 25.2 156.94 20.09 157.23 19.3 157.95 19.15 158.6 19.15 159.6 19.15 167.16 20.23 166.3 23.19 164.36 29.88 160.9 42.92 160.83 48.17 160.76 50.69 161.62 51.84 162.7 51.84 166.73 51.84 168.39 44.57 168.6 41.84 168.6 41.84 169.37 41.77 170.26 41.95 171.35 36.55 172.49 31.97 172.92 28.8L170.4 26.79C169.18 25.85 168.17 23.33 168.17 21.96 168.17 20.45 167.81 20.59 174.72 19.37 175.95 13.1 177.68 3.74 178.39 0.29 178.39 0.29 179.4 0 180.84 0 184.73 0 187.25 1.3 187.25 3.82 187.25 7.35 185.31 13.68 184.16 18.43 190.35 17.57 194.6 16.56 197.19 16.56 198.17 16.56 199.02 17.21 199.7 18.1 199.89 18.08 200.08 18.07 200.28 18.07 202.87 18.07 205.83 19.66 205.97 21.39 203.52 29.23 201 37.59 200.71 45.72 200.71 47.52 200.93 49.18 202.15 49.18 204.31 49.18 207.2 42.56 207.99 39.53 208.63 36.87 211.16 17.79 213.24 17.79ZM183.01 45.87C183.16 41.62 182.72 36.36 179.84 32.55 179.34 36.51 177.68 45.08 176.53 53.72 176.31 55.44 176.03 57.53 175.95 59.19 175.88 60.77 176.1 61.93 176.96 61.93 177.9 61.93 182.72 56.96 183.01 45.87Z" fill="#FFFFFF"/>
        </g>
      </g>
    </g>
  </g>
</svg>
