<?xml version="1.0" encoding="utf-8"?><svg width="33" height="35" viewBox="0 0 33 35" xmlns="http://www.w3.org/2000/svg" xmlns:xlink="http://www.w3.org/1999/xlink"><svg width="32.85" height="35" viewBox="-200 -200 657 700" id="menu" xmlns="http://www.w3.org/2000/svg"><title>bars</title><path d="M257.143 225v21.429c0 5.859-4.855 10.714-10.714 10.714H10.715c-5.859 0-10.714-4.855-10.714-10.714V225c0-5.859 4.855-10.714 10.714-10.714h235.714c5.859 0 10.714 4.855 10.714 10.714zm0-85.714v21.429c0 5.859-4.855 10.714-10.714 10.714H10.715c-5.859 0-10.714-4.855-10.714-10.714v-21.429c0-5.859 4.855-10.714 10.714-10.714h235.714c5.859 0 10.714 4.855 10.714 10.714zm0-85.715V75c0 5.859-4.855 10.714-10.714 10.714H10.715C4.856 85.714.001 80.859.001 75V53.571c0-5.859 4.855-10.714 10.714-10.714h235.714c5.859 0 10.714 4.855 10.714 10.714z"/></svg></svg>