<svg xmlns="http://www.w3.org/2000/svg" viewBox="-422 224.6 113.4 113.4"><path d="M-321.9 272.5h-9.9c.7 2.8 1.1 5.7 1.1 8.7 0 19.2-15.6 34.8-34.8 34.8-19.2 0-34.8-15.6-34.8-34.8 0-3 .4-5.9 1.1-8.7h-9.9v47.9c0 2.4 2 4.4 4.4 4.4h78.4c2.4 0 4.4-1.9 4.4-4.4v-47.9zm0-30.5c0-2.4-1.9-4.4-4.4-4.4h-13.1c-2.4 0-4.4 1.9-4.4 4.4v13.1c0 2.4 1.9 4.4 4.4 4.4h13.1c2.4 0 4.4-2 4.4-4.4V242zm-43.5 17.4c-12 0-21.8 9.7-21.8 21.8 0 12 9.7 21.8 21.8 21.8s21.8-9.8 21.8-21.8-9.8-21.8-21.8-21.8m43.5 78.4H-409c-7.2 0-13.1-5.9-13.1-13.1v-87.1c0-7.2 5.8-13.1 13.1-13.1h87.1c7.2 0 13.1 5.8 13.1 13.1v87.1c0 7.3-5.9 13.1-13.1 13.1"/></svg>