<svg xmlns="http://www.w3.org/2000/svg" width="1792" height="1792" viewBox="0 0 1792 1792"><path d="M192 1664h288v-288H192v288zm352 0h320v-288H544v288zm-352-352h288V992H192v320zm352 0h320V992H544v320zM192 928h288V640H192v288zm736 736h320v-288H928v288zM544 928h320V640H544v288zm768 736h288v-288h-288v288zm-384-352h320V992H928v320zM576 448V160c0-8.667-3.167-16.167-9.5-22.5S552.667 128 544 128h-64c-8.667 0-16.167 3.167-22.5 9.5S448 151.333 448 160v288c0 8.667 3.167 16.167 9.5 22.5s13.833 9.5 22.5 9.5h64c8.667 0 16.167-3.167 22.5-9.5s9.5-13.833 9.5-22.5zm736 864h288V992h-288v320zM928 928h320V640H928v288zm384 0h288V640h-288v288zm32-480V160c0-8.667-3.167-16.167-9.5-22.5s-13.833-9.5-22.5-9.5h-64c-8.667 0-16.167 3.167-22.5 9.5s-9.5 13.833-9.5 22.5v288c0 8.667 3.167 16.167 9.5 22.5s13.833 9.5 22.5 9.5h64c8.667 0 16.167-3.167 22.5-9.5s9.5-13.833 9.5-22.5zm384-64v1280c0 34.667-12.667 64.667-38 90s-55.333 38-90 38H192c-34.667 0-64.667-12.667-90-38s-38-55.333-38-90V384c0-34.667 12.667-64.667 38-90s55.333-38 90-38h128v-96c0-44 15.667-81.667 47-113S436 0 480 0h64c44 0 81.667 15.667 113 47s47 69 47 113v96h384v-96c0-44 15.667-81.667 47-113s69-47 113-47h64c44 0 81.667 15.667 113 47s47 69 47 113v96h128c34.667 0 64.667 12.667 90 38s38 55.333 38 90z"/></svg>