<svg xmlns="http://www.w3.org/2000/svg" width="48" height="48" viewBox="0 0 48 48"><path d="M24.088 46.291c-12.424 0-22.531-10.107-22.531-22.531S11.664 1.229 24.088 1.229 46.619 11.336 46.619 23.76 36.512 46.291 24.088 46.291zm0-44.062c-11.873 0-21.531 9.659-21.531 21.531s9.659 21.531 21.531 21.531c11.872 0 21.531-9.658 21.531-21.531S35.96 2.229 24.088 2.229z"/><path d="M24.088 33.869a.502.502 0 0 1-.397-.195L11.239 17.438a.5.5 0 0 1 .794-.608l12.055 15.718L36.145 16.83a.5.5 0 0 1 .793.608L24.484 33.674a.499.499 0 0 1-.396.195z"/></svg>