<svg xmlns="http://www.w3.org/2000/svg" width="48" height="48" viewBox="0 0 48 48"><path d="M24.088 1.229c12.424 0 22.531 10.107 22.531 22.531S36.512 46.291 24.088 46.291 1.557 36.184 1.557 23.76 11.664 1.229 24.088 1.229zm0 44.062c11.873 0 21.531-9.658 21.531-21.531S35.961 2.229 24.088 2.229c-11.872 0-21.531 9.658-21.531 21.531 0 11.872 9.659 21.531 21.531 21.531z"/><path d="M24.088 13.651c.155 0 .302.072.397.195l12.453 16.236a.5.5 0 1 1-.795.608L24.088 14.972 12.031 30.69a.5.5 0 0 1-.793-.608l12.453-16.236a.502.502 0 0 1 .397-.195z"/></svg>