<?xml version="1.0" encoding="utf-8"?>
<!-- Generated by IcoMoon.io -->
<!DOCTYPE svg PUBLIC "-//W3C//DTD SVG 1.1//EN" "http://www.w3.org/Graphics/SVG/1.1/DTD/svg11.dtd">
<svg version="1.1" xmlns="http://www.w3.org/2000/svg" xmlns:xlink="http://www.w3.org/1999/xlink" width="41" height="32" viewBox="0 0 41 32">
<path d="M31.679 14.929l0.321 5.643q0.071 1.232-1.464 2.286t-4.196 1.67-5.768 0.616-5.768-0.616-4.196-1.67-1.464-2.286l0.321-5.643 10.25 3.232q0.393 0.125 0.857 0.125t0.857-0.125zM41.143 9.143q0 0.411-0.393 0.554l-20 6.286q-0.071 0.018-0.179 0.018t-0.179-0.018l-11.643-3.679q-0.768 0.607-1.268 1.991t-0.607 3.188q1.125 0.643 1.125 1.946 0 1.232-1.036 1.911l1.036 7.732q0.036 0.25-0.143 0.446-0.161 0.196-0.429 0.196h-3.429q-0.268 0-0.429-0.196-0.179-0.196-0.143-0.446l1.036-7.732q-1.036-0.679-1.036-1.911 0-1.304 1.161-1.982 0.196-3.696 1.75-5.893l-5.946-1.857q-0.393-0.143-0.393-0.554t0.393-0.554l20-6.286q0.071-0.018 0.179-0.018t0.179 0.018l20 6.286q0.393 0.143 0.393 0.554z"></path>
</svg>
