<!-- Generated by IcoMoon.io -->
<svg version="1.1" xmlns="http://www.w3.org/2000/svg" width="257" height="300" viewBox="0 0 257 300">
<title>bars</title>
<path d="M257.143 225v21.429c0 5.859-4.855 10.714-10.714 10.714h-235.714c-5.859 0-10.714-4.855-10.714-10.714v-21.429c0-5.859 4.855-10.714 10.714-10.714h235.714c5.859 0 10.714 4.855 10.714 10.714zM257.143 139.286v21.429c0 5.859-4.855 10.714-10.714 10.714h-235.714c-5.859 0-10.714-4.855-10.714-10.714v-21.429c0-5.859 4.855-10.714 10.714-10.714h235.714c5.859 0 10.714 4.855 10.714 10.714zM257.143 53.571v21.429c0 5.859-4.855 10.714-10.714 10.714h-235.714c-5.859 0-10.714-4.855-10.714-10.714v-21.429c0-5.859 4.855-10.714 10.714-10.714h235.714c5.859 0 10.714 4.855 10.714 10.714z"></path>
</svg>
