<?xml version="1.0" encoding="utf-8"?>
<!-- Generated by IcoMoon.io -->
<!DOCTYPE svg PUBLIC "-//W3C//DTD SVG 1.1//EN" "http://www.w3.org/Graphics/SVG/1.1/DTD/svg11.dtd">
<svg version="1.1" xmlns="http://www.w3.org/2000/svg" xmlns:xlink="http://www.w3.org/1999/xlink" width="25" height="32" viewBox="0 0 25 32">
<path d="M25.143 22.143q0 0.482-0.179 1.259t-0.375 1.223q-0.375 0.893-2.179 1.893-1.679 0.911-3.321 0.911-0.482 0-0.938-0.063t-1.027-0.223-0.848-0.259-0.991-0.366-0.875-0.321q-1.75-0.625-3.125-1.482-2.286-1.411-4.723-3.848t-3.848-4.723q-0.857-1.375-1.482-3.125-0.054-0.161-0.321-0.875t-0.366-0.991-0.259-0.848-0.223-1.027-0.063-0.938q0-1.643 0.911-3.321 1-1.804 1.893-2.179 0.446-0.196 1.223-0.375t1.259-0.179q0.25 0 0.375 0.054 0.321 0.107 0.946 1.357 0.196 0.339 0.536 0.964t0.625 1.134 0.554 0.955q0.054 0.071 0.313 0.446t0.384 0.634 0.125 0.509q0 0.357-0.509 0.893t-1.107 0.982-1.107 0.946-0.509 0.821q0 0.161 0.089 0.402t0.152 0.366 0.25 0.429 0.205 0.339q1.357 2.446 3.107 4.196t4.196 3.107q0.036 0.018 0.339 0.205t0.429 0.25 0.366 0.152 0.402 0.089q0.321 0 0.821-0.509t0.946-1.107 0.982-1.107 0.893-0.509q0.25 0 0.509 0.125t0.634 0.384 0.446 0.313q0.446 0.268 0.955 0.554t1.134 0.625 0.964 0.536q1.25 0.625 1.357 0.946 0.054 0.125 0.054 0.375z"></path>
</svg>
