<?xml version="1.0" encoding="utf-8"?>
<!-- Generated by IcoMoon.io -->
<!DOCTYPE svg PUBLIC "-//W3C//DTD SVG 1.1//EN" "http://www.w3.org/Graphics/SVG/1.1/DTD/svg11.dtd">
<svg version="1.1" xmlns="http://www.w3.org/2000/svg" xmlns:xlink="http://www.w3.org/1999/xlink" width="30" height="32" viewBox="0 0 30 32">
<path d="M18.286 14.286v1.143q0 0.232-0.17 0.402t-0.402 0.17h-4v4q0 0.232-0.17 0.402t-0.402 0.17h-1.143q-0.232 0-0.402-0.17t-0.17-0.402v-4h-4q-0.232 0-0.402-0.17t-0.17-0.402v-1.143q0-0.232 0.17-0.402t0.402-0.17h4v-4q0-0.232 0.17-0.402t0.402-0.17h1.143q0.232 0 0.402 0.17t0.17 0.402v4h4q0.232 0 0.402 0.17t0.17 0.402zM20.571 14.857q0-3.304-2.348-5.652t-5.652-2.348-5.652 2.348-2.348 5.652 2.348 5.652 5.652 2.348 5.652-2.348 2.348-5.652zM29.714 29.714q0 0.946-0.67 1.616t-1.616 0.67q-0.964 0-1.607-0.679l-6.125-6.107q-3.196 2.214-7.125 2.214-2.554 0-4.884-0.991t-4.018-2.679-2.679-4.018-0.991-4.884 0.991-4.884 2.679-4.018 4.018-2.679 4.884-0.991 4.884 0.991 4.018 2.679 2.679 4.018 0.991 4.884q0 3.929-2.214 7.125l6.125 6.125q0.661 0.661 0.661 1.607z"></path>
</svg>
