<?xml version="1.0" encoding="utf-8"?>
<!-- Generator: Adobe Illustrator 16.0.4, SVG Export Plug-In . SVG Version: 6.00 Build 0)  -->
<!DOCTYPE svg PUBLIC "-//W3C//DTD SVG 1.1//EN" "http://www.w3.org/Graphics/SVG/1.1/DTD/svg11.dtd">
<svg version="1.1" id="Capa_1" xmlns="http://www.w3.org/2000/svg" xmlns:xlink="http://www.w3.org/1999/xlink" x="0px" y="0px"
	 width="216px" height="146px" viewBox="0 0 216 146" enable-background="new 0 0 216 146" xml:space="preserve">
<path d="M168.452,69.089L115.413,16.05c-2.009-2.01-4.479-3.015-7.413-3.015c-2.987,0-5.432,1.005-7.333,3.015L47.628,69.089
	c-2.064,2.064-3.096,4.536-3.096,7.415c0,2.824,1.033,5.268,3.096,7.332l6.11,6.11c1.956,2.063,4.4,3.097,7.333,3.097
	c2.933,0,5.377-1.034,7.333-3.097l23.953-23.872v57.357c0,2.823,1.018,5.119,3.055,6.885c2.037,1.765,4.495,2.647,7.373,2.647
	h10.429c2.879,0,5.336-0.882,7.373-2.647s3.056-4.062,3.056-6.885V66.074l23.953,23.872c1.955,2.063,4.399,3.097,7.334,3.097
	c2.877,0,5.35-1.034,7.413-3.097l6.109-6.11c2.01-2.119,3.016-4.562,3.016-7.332C171.468,73.679,170.462,71.208,168.452,69.089z"/>
</svg>
