<?xml version="1.0" encoding="utf-8"?>
<!-- Generator: Adobe Illustrator 16.0.4, SVG Export Plug-In . SVG Version: 6.00 Build 0)  -->
<!DOCTYPE svg PUBLIC "-//W3C//DTD SVG 1.1//EN" "http://www.w3.org/Graphics/SVG/1.1/DTD/svg11.dtd">
<svg version="1.1" id="Capa_1" xmlns="http://www.w3.org/2000/svg" xmlns:xlink="http://www.w3.org/1999/xlink" x="0px" y="0px"
	 width="216px" height="146px" viewBox="0 0 216 146" enable-background="new 0 0 216 146" xml:space="preserve">
<path d="M164.95,65.668l-53.039-53.039c-2.063-2.064-4.535-3.096-7.414-3.096c-2.825,0-5.269,1.032-7.333,3.096l-6.11,6.11
	c-2.064,1.956-3.096,4.4-3.096,7.333s1.032,5.377,3.096,7.333l23.872,23.953H57.568c-2.824,0-5.119,1.018-6.884,3.055
	s-2.648,4.495-2.648,7.373v10.429c0,2.879,0.883,5.336,2.648,7.373s4.06,3.055,6.884,3.055h57.357l-23.872,23.873
	c-2.064,2.062-3.096,4.534-3.096,7.413s1.032,5.351,3.096,7.414l6.11,6.11c2.119,2.01,4.563,3.015,7.333,3.015
	c2.825,0,5.297-1.005,7.414-3.015l53.039-53.039c2.01-2.01,3.016-4.48,3.016-7.414C167.965,70.013,166.959,67.568,164.95,65.668z"/>
</svg>
