<?xml version="1.0" encoding="utf-8"?>
<!-- Generator: Adobe Illustrator 16.0.4, SVG Export Plug-In . SVG Version: 6.00 Build 0)  -->
<!DOCTYPE svg PUBLIC "-//W3C//DTD SVG 1.1//EN" "http://www.w3.org/Graphics/SVG/1.1/DTD/svg11.dtd">
<svg version="1.1" id="Capa_1" xmlns="http://www.w3.org/2000/svg" xmlns:xlink="http://www.w3.org/1999/xlink" x="0px" y="0px"
	 width="216px" height="146px" viewBox="0 0 216 146" enable-background="new 0 0 216 146" xml:space="preserve">
<path d="M165.316,60.412c-1.766-2.037-4.06-3.055-6.885-3.055h-57.355l23.871-23.872c2.064-2.063,3.096-4.535,3.096-7.414
	c0-2.878-1.031-5.35-3.096-7.414l-6.11-6.029c-2.063-2.063-4.508-3.096-7.332-3.096c-2.879,0-5.351,1.032-7.414,3.096L51.052,65.586
	c-2.01,2.118-3.015,4.59-3.015,7.414c0,2.879,1.005,5.323,3.015,7.332l53.039,53.121c2.118,2.01,4.589,3.016,7.414,3.016
	c2.878,0,5.322-1.006,7.332-3.016l6.11-6.191c2.064-1.955,3.096-4.399,3.096-7.332c0-2.934-1.031-5.379-3.096-7.334l-23.871-23.953
	h57.355c2.825,0,5.119-1.018,6.885-3.055c1.765-2.037,2.647-4.494,2.647-7.373V67.786C167.964,64.907,167.081,62.449,165.316,60.412
	z"/>
</svg>
