<?xml version="1.0" encoding="utf-8"?>
<!-- Generator: Adobe Illustrator 16.0.0, SVG Export Plug-In . SVG Version: 6.00 Build 0)  -->
<!DOCTYPE svg PUBLIC "-//W3C//DTD SVG 1.1//EN" "http://www.w3.org/Graphics/SVG/1.1/DTD/svg11.dtd">
<svg version="1.1" id="Layer_1" xmlns="http://www.w3.org/2000/svg" xmlns:xlink="http://www.w3.org/1999/xlink" x="0px" y="0px"
	 width="19px" height="19px" viewBox="-1 0 19 19" enable-background="new -1 0 19 19" xml:space="preserve">
<g>
	<path d="M16.549,2.555c0,0.08-0.02,0.16-0.061,0.233l-7.56,13.891c-0.085,0.156-0.25,0.254-0.429,0.254
		c-0.179,0-0.343-0.098-0.429-0.254L0.51,2.788C0.427,2.637,0.431,2.453,0.52,2.305c0.088-0.146,0.246-0.237,0.42-0.237h15.121
		c0.172,0,0.332,0.091,0.42,0.237C16.525,2.383,16.549,2.468,16.549,2.555z M8.5,15.425l6.738-12.381H1.761L8.5,15.425z"/>
</g>
</svg>
