<?xml version="1.0" encoding="utf-8"?>
<!-- Generator: Adobe Illustrator 16.0.4, SVG Export Plug-In . SVG Version: 6.00 Build 0)  -->
<!DOCTYPE svg PUBLIC "-//W3C//DTD SVG 1.1//EN" "http://www.w3.org/Graphics/SVG/1.1/DTD/svg11.dtd">
<svg version="1.1" id="Capa_1" xmlns="http://www.w3.org/2000/svg" xmlns:xlink="http://www.w3.org/1999/xlink" x="0px" y="0px"
	 width="216px" height="146px" viewBox="0 0 216 146" enable-background="new 0 0 216 146" xml:space="preserve">
<path d="M168.452,62.53l-6.109-6.11c-2.118-2.01-4.59-3.015-7.413-3.015c-2.88,0-5.324,1.005-7.334,3.015l-23.953,23.953V23.017
	c0-2.825-1.033-5.269-3.097-7.333s-4.508-3.096-7.332-3.096h-10.429c-2.824,0-5.269,1.033-7.332,3.096
	c-2.065,2.064-3.096,4.508-3.096,7.333v57.356L68.404,56.42c-2.01-2.01-4.454-3.015-7.333-3.015c-2.824,0-5.296,1.005-7.414,3.015
	l-6.029,6.11c-2.064,2.063-3.096,4.536-3.096,7.414c0,2.934,1.033,5.378,3.096,7.333l53.039,53.119
	c2.01,2.011,4.454,3.016,7.333,3.016c2.824,0,5.296-1.005,7.413-3.016l53.039-53.119c2.01-2.01,3.016-4.454,3.016-7.333
	C171.468,67.12,170.462,64.649,168.452,62.53z"/>
</svg>
