<?xml version="1.0" encoding="utf-8"?>
<!-- Generator: Adobe Illustrator 16.0.0, SVG Export Plug-In . SVG Version: 6.00 Build 0)  -->
<!DOCTYPE svg PUBLIC "-//W3C//DTD SVG 1.1//EN" "http://www.w3.org/Graphics/SVG/1.1/DTD/svg11.dtd">
<svg version="1.1" id="Layer_1" xmlns="http://www.w3.org/2000/svg" xmlns:xlink="http://www.w3.org/1999/xlink" x="0px" y="0px"
	 width="1792px" height="1792px" viewBox="0 0 1792 1792" enable-background="new 0 0 1792 1792" xml:space="preserve">
<path fill="#001F4E" d="M192,1664h288v-288H192V1664z M544,1664h320v-288H544V1664z M192,1312h288V992H192V1312z M544,1312h320V992
	H544V1312z M192,928h288V640H192V928z M928,1664h320v-288H928V1664z M544,928h320V640H544V928z M1312,1664h288v-288h-288V1664z
	 M928,1312h320V992H928V1312z M576,448V160c0-8.667-3.167-16.167-9.5-22.5S552.667,128,544,128h-64c-8.667,0-16.167,3.167-22.5,9.5
	S448,151.333,448,160v288c0,8.667,3.167,16.167,9.5,22.5s13.833,9.5,22.5,9.5h64c8.667,0,16.167-3.167,22.5-9.5S576,456.667,576,448
	z M1312,1312h288V992h-288V1312z M928,928h320V640H928V928z M1312,928h288V640h-288V928z M1344,448V160
	c0-8.667-3.167-16.167-9.5-22.5s-13.833-9.5-22.5-9.5h-64c-8.667,0-16.167,3.167-22.5,9.5s-9.5,13.833-9.5,22.5v288
	c0,8.667,3.167,16.167,9.5,22.5s13.833,9.5,22.5,9.5h64c8.667,0,16.167-3.167,22.5-9.5S1344,456.667,1344,448z M1728,384v1280
	c0,34.667-12.667,64.667-38,90s-55.333,38-90,38H192c-34.667,0-64.667-12.667-90-38s-38-55.333-38-90V384
	c0-34.667,12.667-64.667,38-90s55.333-38,90-38h128v-96c0-44,15.667-81.667,47-113S436,0,480,0h64c44,0,81.667,15.667,113,47
	s47,69,47,113v96h384v-96c0-44,15.667-81.667,47-113s69-47,113-47h64c44,0,81.667,15.667,113,47s47,69,47,113v96h128
	c34.667,0,64.667,12.667,90,38S1728,349.333,1728,384z"/>
</svg>
