<?xml version="1.0" encoding="utf-8"?>
<!-- Generator: Adobe Illustrator 16.0.0, SVG Export Plug-In . SVG Version: 6.00 Build 0)  -->
<!DOCTYPE svg PUBLIC "-//W3C//DTD SVG 1.1//EN" "http://www.w3.org/Graphics/SVG/1.1/DTD/svg11.dtd">
<svg version="1.1" id="Layer_1" xmlns="http://www.w3.org/2000/svg" xmlns:xlink="http://www.w3.org/1999/xlink" x="0px" y="0px"
	 width="32px" height="32px" viewBox="0 0 32 32" enable-background="new 0 0 32 32" xml:space="preserve">
<path fill="#0B80A5" d="M28.48,4.277c-0.371-0.368-0.807-0.554-1.311-0.554c-0.502,0-0.939,0.186-1.309,0.554L12.278,17.862
	l-6.14-6.137c-0.368-0.368-0.803-0.555-1.309-0.555c-0.503,0-0.94,0.187-1.31,0.555l-2.967,2.968C0.185,15.06,0,15.498,0,16
	c0,0.505,0.186,0.941,0.553,1.31l10.416,10.414c0.369,0.369,0.803,0.553,1.31,0.553c0.502,0,0.939-0.184,1.31-0.553l17.86-17.859
	C31.814,9.496,32,9.06,32,8.555c0-0.506-0.186-0.939-0.553-1.309L28.48,4.277z"/>
</svg>
