<?xml version="1.0" encoding="utf-8"?>
<!-- Generator: Adobe Illustrator 16.0.3, SVG Export Plug-In . SVG Version: 6.00 Build 0)  -->
<!DOCTYPE svg PUBLIC "-//W3C//DTD SVG 1.1//EN" "http://www.w3.org/Graphics/SVG/1.1/DTD/svg11.dtd">
<svg version="1.1" id="Layer_1" xmlns="http://www.w3.org/2000/svg" xmlns:xlink="http://www.w3.org/1999/xlink" x="0px" y="0px"
	 width="48px" height="48px" viewBox="0 0 48 48" enable-background="new 0 0 48 48" xml:space="preserve">
<g>
	<path d="M24.088,1.229c12.424,0,22.531,10.107,22.531,22.531c0,12.424-10.107,22.531-22.531,22.531
		S1.557,36.184,1.557,23.76C1.557,11.336,11.664,1.229,24.088,1.229z M24.088,45.291c11.873,0,21.531-9.658,21.531-21.531
		c0-11.873-9.658-21.531-21.531-21.531c-11.872,0-21.531,9.658-21.531,21.531C2.557,35.632,12.216,45.291,24.088,45.291z"/>
	<path d="M24.088,13.651c0.155,0,0.302,0.072,0.397,0.195l12.453,16.236c0.168,0.219,0.126,0.532-0.094,0.701
		c-0.221,0.167-0.533,0.125-0.701-0.093L24.088,14.972L12.031,30.69c-0.169,0.219-0.483,0.259-0.701,0.093
		c-0.219-0.169-0.26-0.482-0.092-0.701l12.453-16.236C23.786,13.723,23.933,13.651,24.088,13.651z"/>
</g>
</svg>
