<?xml version="1.0" encoding="utf-8"?>
<!-- Generator: Adobe Illustrator 16.0.3, SVG Export Plug-In . SVG Version: 6.00 Build 0)  -->
<!DOCTYPE svg PUBLIC "-//W3C//DTD SVG 1.1//EN" "http://www.w3.org/Graphics/SVG/1.1/DTD/svg11.dtd">
<svg version="1.1" id="Layer_1" xmlns="http://www.w3.org/2000/svg" xmlns:xlink="http://www.w3.org/1999/xlink" x="0px" y="0px"
	 width="48px" height="48px" viewBox="0 0 48 48" enable-background="new 0 0 48 48" xml:space="preserve">
<g>
	<path d="M24.088,46.291c-12.424,0-22.531-10.107-22.531-22.531c0-12.424,10.107-22.531,22.531-22.531
		S46.619,11.336,46.619,23.76C46.619,36.184,36.512,46.291,24.088,46.291z M24.088,2.229c-11.873,0-21.531,9.659-21.531,21.531
		s9.659,21.531,21.531,21.531c11.872,0,21.531-9.658,21.531-21.531S35.96,2.229,24.088,2.229z"/>
	<path d="M24.088,33.869c-0.155,0-0.302-0.072-0.397-0.195L11.239,17.438c-0.168-0.219-0.126-0.533,0.093-0.701
		c0.221-0.167,0.534-0.125,0.701,0.093l12.055,15.718L36.145,16.83c0.169-0.219,0.483-0.259,0.701-0.093
		c0.219,0.168,0.26,0.482,0.092,0.701L24.484,33.674C24.39,33.797,24.243,33.869,24.088,33.869z"/>
</g>
</svg>
