<?xml version="1.0" encoding="utf-8"?>
<!-- Generator: Adobe Illustrator 19.2.1, SVG Export Plug-In . SVG Version: 6.00 Build 0)  -->
<svg version="1.1"
	 id="svg2298" inkscape:output_extension="org.inkscape.output.svg.inkscape" inkscape:version="0.45.1" sodipodi:docbase="C:\Users\Ben\Pictures" sodipodi:docname="ressort spirale4.svg" sodipodi:version="0.32" xmlns:cc="http://web.resource.org/cc/" xmlns:dc="http://purl.org/dc/elements/1.1/" xmlns:inkscape="http://www.inkscape.org/namespaces/inkscape" xmlns:rdf="http://www.w3.org/1999/02/22-rdf-syntax-ns#" xmlns:sodipodi="http://sodipodi.sourceforge.net/DTD/sodipodi-0.dtd" xmlns:svg="http://www.w3.org/2000/svg"
	 xmlns="http://www.w3.org/2000/svg" xmlns:xlink="http://www.w3.org/1999/xlink" x="0px" y="0px" viewBox="0 0 600 600"
	 enable-background="new 0 0 600 600" xml:space="preserve">
<g id="g3307" transform="translate(-2.2533729,-1.0333175)">
	<g>
		<path id="path14386_1_" fill="#CE242B" d="M480.606,117.314c14.55-14.55,14.55-14.55,14.55-14.55"/>

			<rect x="477.593" y="108.406" transform="matrix(0.7073 -0.707 0.707 0.7073 65.031 377.1241)" fill="#CE242B" width="20.577" height="3.266"/>
	</g>
	<g>
		<path id="path14384_1_" fill="#CE242B" d="M435.943,164.079c-12.933,12.933-12.933,12.933-12.933,12.933"/>

			<rect x="420.331" y="168.508" transform="matrix(0.7071 -0.7071 0.7071 0.7071 5.1967 353.6371)" fill="#CE242B" width="18.291" height="4.074"/>
	</g>
	<g>
		<path id="path2320_1_" fill="#CE242B" d="M483.346,98.648l-21.945,37.7l37.137-20.257h-16.881L483.346,98.648z"/>
		<path fill="#CE242B" d="M460.068,137.645l22.847-39.249l0.93,0.3l-1.636,16.895h16.33l0.239,0.939L460.068,137.645z
			 M482.628,100.875l-19.895,34.176l33.844-18.46h-15.471L482.628,100.875z"/>
	</g>
	<g>
		<path id="path3305_1_" fill="#CE242B" d="M416.668,167.014l37.7-21.945l-20.257,37.137v-16.881L416.668,167.014z"/>
		<path fill="#CE242B" d="M434.549,182.446l-0.938-0.239v-16.33l-16.896,1.635l-0.3-0.93l39.249-22.846L434.549,182.446z
			 M434.611,164.775v15.47l18.46-33.843l-34.176,19.894L434.611,164.775z"/>
	</g>
</g>
<sodipodi:namedview  bordercolor="#666666" borderopacity="1.0" gridtolerance="10.0" guidetolerance="10.0" id="base" inkscape:current-layer="svg2298" inkscape:cx="309.30264" inkscape:cy="505.91493" inkscape:pageopacity="0.0" inkscape:pageshadow="2" inkscape:window-height="750" inkscape:window-width="860" inkscape:window-x="416" inkscape:window-y="14" inkscape:zoom="1.2566667" objecttolerance="10.0" pagecolor="#ffffff">
	</sodipodi:namedview>
<g>
	<path id="path3218_1_" sodipodi:nodetypes="cssssscsccccsscsc" fill="#121212" fill-opacity="0" d="M341.201,282.674
		c-0.244,2.041-0.69,4.126-1.356,6.245c7.685-24.457-13.947-44.355-36.093-45.028c-29.16-0.887-50.431,25.929-49.959,53.796
		c0.623,36.77,34.652,63.571,70.142,61.93c44.373-2.053,76.357-43.381,73.503-86.489c-3.441-51.974-52.114-89.166-102.836-85.076
		c-59.575,4.805-101.992,60.85-96.649,119.183c6.152,67.176,69.586,114.828,135.529,108.223
		c74.778-7.49,127.671-78.323,119.796-151.876c-8.82-82.38-87.062-140.52-168.223-131.369
		c-89.982,10.145-153.373,95.8-142.942,184.569c11.466,97.584,104.54,166.228,200.916,154.515
		c105.187-12.784,179.087-113.28,166.089-217.263c-14.099-112.79-122.02-191.948-233.61-177.662
		C155.116,91.783,70.7,207.131,86.274,326.327c14.584,111.621,111.095,197.293,222.85,202.646"/>
	<path fill="#121212" d="M309.128,535.637c-0.107,0-0.215-0.003-0.323-0.008c-55.858-2.676-109.843-25.114-152.01-63.183
		c-42.512-38.38-69.903-89.966-77.127-145.256c-4-30.613-1.75-61.357,6.686-91.379c8.169-29.07,21.689-55.974,40.186-79.966
		c37.024-48.023,89.628-78.595,148.124-86.083c56.455-7.228,115.062,8.971,160.806,44.44
		c44.904,34.819,73.408,84.185,80.261,139.004c6.604,52.829-8.708,107.599-42.009,150.266
		c-32.615,41.786-78.743,68.223-129.887,74.438c-49.215,5.978-100.138-8.448-139.727-39.584
		c-38.667-30.411-63.033-73.301-68.611-120.769c-5.357-45.589,8.188-92.676,37.16-129.187
		c28.207-35.547,67.859-57.843,111.652-62.78c41.968-4.734,85.215,7.93,118.648,34.742c32.427,26.005,52.65,62.42,56.946,102.539
		c4.106,38.352-7.677,77.756-32.329,108.108c-23.803,29.307-56.983,47.457-93.428,51.107c-34.739,3.475-70.3-7.429-97.569-29.928
		c-26.184-21.603-42.257-51.547-45.259-84.317c-2.851-31.125,7.186-62.846,27.535-87.03c19.405-23.062,46.116-37.055,75.214-39.401
		c27.513-2.221,55.397,6.951,76.493,25.161c19.937,17.209,31.843,40.689,33.526,66.116c1.583,23.918-6.733,47.961-22.818,65.962
		c-15.018,16.807-35.27,26.617-57.025,27.623c-20.338,0.954-40.54-6.54-55.436-20.523c-13.671-12.834-21.369-29.863-21.675-47.949
		c-0.283-16.672,6.555-33.538,18.292-45.117c10.54-10.399,24.238-15.887,38.531-15.451c14.546,0.442,28.688,7.901,36.909,19.466
		c5.645,7.94,8.028,17.131,6.98,26.49c-0.007,0.093-0.016,0.187-0.027,0.281c-0.291,2.42-0.815,4.866-1.561,7.272
		c0,0,0,0.001,0,0.001c-0.004,0.01-0.007,0.021-0.01,0.031c-0.003,0.01-0.006,0.019-0.009,0.028c0,0,0,0.001,0,0.001
		c-0.012,0.038-0.024,0.077-0.036,0.115v0l-12.713-3.996c0.009-0.025,0.017-0.051,0.024-0.077c0-0.001,0.001-0.002,0.001-0.003
		c0.008-0.025,0.016-0.05,0.023-0.075c0-0.002,0.001-0.004,0.002-0.007c0.004-0.012,0.007-0.023,0.011-0.035v0
		c0.495-1.616,0.844-3.244,1.036-4.844c0.005-0.042,0.011-0.083,0.017-0.125c0.872-7.577-1.855-13.476-4.6-17.337
		c-5.766-8.111-16.149-13.554-26.453-13.867c-13.632-0.424-23.164,6.089-28.768,11.617c-9.193,9.07-14.549,22.306-14.327,35.406
		c0.245,14.453,6.45,28.112,17.473,38.459c12.285,11.531,28.935,17.69,45.7,16.928c18.149-0.84,35.091-9.076,47.704-23.191
		c13.714-15.349,20.807-35.834,19.458-56.203c-1.445-21.838-11.722-42.048-28.937-56.908
		c-18.413-15.894-42.725-23.898-66.715-21.966c-25.523,2.058-48.994,14.381-66.089,34.698c-18.074,21.48-26.99,49.631-24.461,77.236
		c2.675,29.204,17.047,55.93,40.469,75.254c24.547,20.252,56.536,30.076,87.761,26.946c32.886-3.294,62.864-19.719,84.412-46.249
		c22.431-27.616,33.154-63.44,29.423-98.288c-3.915-36.565-22.395-69.793-52.033-93.562
		c-30.686-24.607-70.348-36.233-108.818-31.896c-40.244,4.538-76.72,25.072-102.708,57.822
		c-26.785,33.755-39.31,77.256-34.364,119.35c5.161,43.923,27.753,83.645,63.614,111.85c36.824,28.961,84.167,42.386,129.881,36.829
		c47.602-5.785,90.569-30.436,120.989-69.409c31.138-39.895,45.459-91.073,39.291-140.413c-6.41-51.28-33.118-97.493-75.204-130.126
		c-42.965-33.314-97.981-48.534-150.948-41.753c-54.958,7.035-104.416,35.802-139.262,81.002
		c-35.491,46.036-51.606,104.894-44.212,161.482c6.814,52.148,32.684,100.835,72.844,137.092
		c39.887,36.01,90.927,57.234,143.717,59.763c3.676,0.176,6.513,3.299,6.337,6.974C315.607,532.859,312.661,535.637,309.128,535.637
		z"/>
</g>
<g>
	<rect id="rect6315_1_" x="304.472" y="500.542" fill="#121212" width="21.653" height="45.984"/>
	<path fill="#121212" d="M326.125,548.121h-21.653l-1.595-1.595v-45.984l1.595-1.595h21.653l1.595,1.595v45.984L326.125,548.121z
		 M306.066,544.932h18.464v-42.795h-18.464V544.932z"/>
</g>
<g>
	<path id="path16354_1_" fill="#121212" d="M370.841,543.246v7.751l-34.781-0.736l-11.067,8.826H302.86l-56.185-11.768v-4.073
		H370.841z"/>
	<path fill="#121212" d="M325.046,559.237h-22.187l-56.334-11.796v-4.347h124.466v8.056l-0.153-0.004l-34.728-0.733L325.046,559.237
		z M246.825,547.197l56.065,11.743l22.051-0.004l11.068-8.826l0.054,0.002l34.628,0.731v-7.448H246.825V547.197z"/>
</g>
<g>
	<path id="path5233_1_" fill="#121212" d="M306.96,276.957c0,49.456,0,49.456,0,49.456"/>
	<rect x="304.296" y="276.957" fill="#121212" width="5.328" height="49.455"/>
</g>
<g>
	<path id="path5235_1_" fill="#121212" d="M306.986,158.035c0,98.536,0,98.536,0,98.536"/>
	<rect x="304.295" y="158.035" fill="#121212" width="5.381" height="98.536"/>
</g>
<g>
	<path id="path5237_1_" fill="#121212" d="M306.986,18.405c0,98.536,0,98.536,0,98.536"/>
	<rect x="304.295" y="18.405" fill="#121212" width="5.381" height="98.536"/>
</g>
<g>
	<path id="path5241_1_" fill="#121212" d="M306.96,136.682c0,0.378,0,0.378,0,0.378"/>
	<rect x="306.728" y="136.682" fill="#121212" width="0.465" height="0.378"/>
</g>
<g>
	<path id="path5243_1_" fill="#121212" d="M306.986,333.024c0,115.086,0,115.086,0,115.086"/>
	<rect x="304.078" y="333.024" fill="#121212" width="5.814" height="115.086"/>
</g>
<g>
	<path id="path5245_1_" fill="#121212" d="M307.203,454.596c0,81.857,0,81.857,0,81.857"/>
	<rect x="304.751" y="454.596" fill="#121212" width="4.904" height="81.857"/>
</g>
<g>
	<path id="path5247_1_" fill="#121212" d="M25.036,293.224c87.269,0,87.269,0,87.269,0"/>
	<rect x="25.036" y="291.058" fill="#121212" width="87.269" height="4.334"/>
</g>
<g>
	<path id="path5249_1_" fill="#121212" d="M129.758,293.224c34.908,0,34.908,0,34.908,0"/>
	<rect x="129.758" y="291.058" fill="#121212" width="34.908" height="4.334"/>
</g>
<g>
	<path id="path5251_1_" fill="#121212" d="M182.12,293.224c87.269,0,87.269,0,87.269,0"/>
	<rect x="182.12" y="291.058" fill="#121212" width="87.269" height="4.334"/>
</g>
<g>
	<path id="path5253_1_" fill="#121212" d="M286.595,293.224c61.868,0,61.868,0,61.868,0"/>
	<rect x="286.595" y="291.185" fill="#121212" width="61.868" height="4.079"/>
</g>
<g>
	<path id="path5255_1_" fill="#121212" d="M374.111,293.224c104.722,0,104.722,0,104.722,0"/>
	<rect x="374.11" y="291.058" fill="#121212" width="104.723" height="4.334"/>
</g>
<g>
	<path id="path5257_1_" fill="#121212" d="M496.287,293.224c34.907,0,34.907,0,34.907,0"/>
	<rect x="496.287" y="291.058" fill="#121212" width="34.907" height="4.334"/>
</g>
<g>
	<path id="flowRoot6289_1_" fill="#121212" d="M328.769,312.694c1.906-2.545,4.42-3.818,7.544-3.818
		c2.668,0,4.869,0.968,6.603,2.905c1.734,1.937,2.601,4.393,2.601,7.368c0,4.636-1.863,8.859-5.589,12.671
		c-3.726,3.812-7.851,5.718-12.376,5.718c-3.258,0-5.948-1.079-8.069-3.237s-3.182-4.891-3.182-8.198
		c0-3.59,1.208-6.683,3.624-9.277C322.342,314.231,325.29,312.854,328.769,312.694L328.769,312.694z M327.368,314.705
		c-2.189,0.529-3.916,1.703-5.183,3.523c-1.267,1.82-1.9,4.058-1.9,6.714c0,2.963,0.861,5.407,2.582,7.332
		c1.721,1.924,3.916,2.887,6.585,2.887c3.197,0,6.019-1.512,8.466-4.537c2.447-3.025,3.67-6.523,3.67-10.495
		c0-2.312-0.609-4.254-1.826-5.828c-1.217-1.574-2.717-2.361-4.5-2.361c-1.808,0-3.375,0.735-4.703,2.204
		c-1.328,1.469-1.992,3.212-1.992,5.229c0,1.426,0.338,2.742,1.014,3.947c-1.34-0.246-2.235-0.609-2.684-1.088
		c-0.449-0.48-0.673-1.328-0.673-2.545C326.224,318.099,326.605,316.439,327.368,314.705L327.368,314.705z"/>
	<path fill="#121212" d="M327.552,338.039c-3.383,0-6.217-1.14-8.426-3.387c-2.206-2.245-3.325-5.121-3.325-8.549
		c0-3.705,1.265-6.941,3.759-9.618c2.442-2.623,5.454-4.062,8.952-4.278c1.98-2.542,4.604-3.83,7.801-3.83
		c2.805,0,5.152,1.033,6.976,3.071c1.811,2.021,2.729,4.613,2.729,7.702c0,4.748-1.929,9.129-5.731,13.021
		C336.479,336.064,332.195,338.039,327.552,338.039z M336.312,309.377c-2.984,0-5.32,1.184-7.143,3.617l-0.142,0.188l-0.235,0.011
		c-3.329,0.153-6.189,1.49-8.501,3.974c-2.316,2.485-3.491,5.492-3.491,8.937c0,3.156,1.022,5.797,3.038,7.848
		c2.014,2.049,4.608,3.088,7.713,3.088c4.364,0,8.407-1.873,12.019-5.567c3.614-3.698,5.446-7.844,5.446-12.321
		c0-2.835-0.832-5.202-2.473-7.036C340.895,310.272,338.856,309.377,336.312,309.377z M329.452,335.659
		c-2.805,0-5.146-1.027-6.958-3.054c-1.798-2.009-2.709-4.587-2.709-7.664c0-2.748,0.669-5.103,1.989-6.999
		c1.333-1.915,3.175-3.168,5.476-3.724l0.981-0.236l-0.406,0.924c-0.731,1.663-1.102,3.271-1.102,4.778
		c0,1.065,0.187,1.828,0.539,2.204c0.19,0.204,0.589,0.471,1.419,0.71c-0.409-1.01-0.615-2.091-0.615-3.228
		c0-2.136,0.714-4.007,2.121-5.563c1.421-1.572,3.128-2.369,5.074-2.369c1.938,0,3.585,0.859,4.896,2.555
		c1.281,1.656,1.931,3.72,1.931,6.134c0,4.07-1.272,7.708-3.781,10.81C335.771,334.07,332.792,335.659,329.452,335.659z
		 M326.517,315.481c-1.609,0.584-2.926,1.601-3.922,3.032c-1.2,1.726-1.81,3.888-1.81,6.428c0,2.823,0.826,5.178,2.455,6.998
		c1.637,1.83,3.669,2.72,6.212,2.72c3.023,0,5.74-1.464,8.077-4.352c2.361-2.919,3.559-6.345,3.559-10.181
		c0-2.188-0.579-4.045-1.722-5.522c-1.127-1.457-2.47-2.166-4.104-2.166c-1.675,0-3.092,0.667-4.332,2.039
		c-1.236,1.367-1.863,3.014-1.863,4.894c0,1.334,0.32,2.579,0.95,3.702l0.522,0.93l-1.048-0.192
		c-1.463-0.269-2.431-0.674-2.959-1.238c-0.544-0.581-0.809-1.525-0.809-2.888C325.724,318.339,325.99,316.929,326.517,315.481z"/>
</g>
<g>
	<path id="flowRoot6301_1_" fill="#121212" d="M339.735,517.208c-0.354-0.75-0.532-1.459-0.532-2.127
		c0-2.345,1.899-4.493,5.696-6.443c3.798-1.95,7.967-2.925,12.507-2.925c2.536,0,4.585,0.484,6.146,1.452
		c1.561,0.968,2.342,2.236,2.342,3.804c0,2.904-2.066,5.632-6.197,8.181c2.414,0.655,4.305,1.643,5.676,2.966
		c1.37,1.323,2.056,2.823,2.056,4.5c0,3.3-1.793,6.109-5.379,8.427c-3.586,2.318-7.929,3.477-13.029,3.477
		c-3.75,0-5.625-1.18-5.625-3.539c0-0.559,0.204-1.868,0.614-3.927l2.884-14.502c0.232-1.159,0.348-1.984,0.348-2.475
		c0-0.477-0.164-0.914-0.491-1.309c1.8-0.682,3.061-1.023,3.784-1.023c0.845,0,1.268,0.484,1.268,1.452
		c0,0.245-0.225,1.445-0.675,3.6l-2.679,13.438c-0.3,1.554-0.45,2.57-0.45,3.048c0,1.718,1.636,2.577,4.909,2.577
		c2.686,0,4.987-0.774,6.903-2.321c1.916-1.548,2.874-3.406,2.874-5.574c0-1.691-0.532-3.013-1.595-3.968
		c-1.064-0.954-2.836-1.691-5.318-2.209c-0.886,0.354-1.854,0.532-2.904,0.532c-0.355,0-0.798-0.061-1.329-0.184
		c0.395-1.459,0.89-2.441,1.483-2.945c0.593-0.504,1.551-0.757,2.874-0.757c0.341,0,0.798,0.021,1.37,0.061
		c2.904-2.127,4.357-4.234,4.357-6.32c0-2.468-1.882-3.702-5.645-3.702C349.88,508.475,344.467,511.386,339.735,517.208
		L339.735,517.208z"/>
	<path fill="#121212" d="M349.021,539.021c-4.063,0-6.124-1.358-6.124-4.038c0-0.6,0.204-1.916,0.623-4.024l2.884-14.502
		c0.225-1.119,0.338-1.918,0.338-2.377c0-0.361-0.123-0.686-0.376-0.991l-0.445-0.538l0.654-0.248
		c1.874-0.71,3.169-1.055,3.96-1.055c1.124,0,1.769,0.712,1.769,1.952c0,0.205-0.081,0.806-0.686,3.702l-2.679,13.434
		c-0.364,1.888-0.44,2.646-0.44,2.95c0,1.378,1.483,2.077,4.409,2.077c2.556,0,4.772-0.744,6.589-2.211
		c1.809-1.461,2.688-3.156,2.688-5.185c0-1.557-0.468-2.733-1.429-3.596c-0.972-0.873-2.634-1.565-4.942-2.062
		c-0.902,0.34-1.894,0.512-2.946,0.512c-0.394,0-0.879-0.066-1.442-0.196l-0.505-0.117l0.136-0.501
		c0.425-1.571,0.962-2.616,1.641-3.195c0.692-0.59,1.738-0.876,3.198-0.876c0.312,0,0.72,0.017,1.221,0.05
		c2.658-1.98,4.006-3.935,4.006-5.809c0-0.792,0-3.202-5.146-3.202c-5.908,0-11.241,2.876-15.852,8.549l-0.5,0.616l-0.34-0.718
		c-0.385-0.814-0.58-1.603-0.58-2.341c0-2.537,2.008-4.854,5.968-6.888c3.851-1.977,8.136-2.979,12.736-2.98
		c2.621,0.001,4.777,0.516,6.409,1.528c1.711,1.061,2.579,2.483,2.579,4.229c0,2.848-1.855,5.54-5.519,8.015
		c1.998,0.666,3.624,1.597,4.844,2.772c1.465,1.414,2.208,3.049,2.208,4.86c0,3.465-1.887,6.441-5.607,8.847
		C358.671,537.824,354.196,539.021,349.021,539.021z M347.505,513.023c0.157,0.331,0.236,0.685,0.236,1.056
		c0,0.532-0.117,1.373-0.357,2.573l-2.884,14.501c-0.499,2.51-0.604,3.468-0.604,3.829c0,0.751,0,3.038,5.124,3.038
		c4.979,0,9.271-1.143,12.758-3.396c3.466-2.24,5.15-4.859,5.15-8.007c0-1.551-0.622-2.905-1.902-4.141
		c-1.304-1.258-3.142-2.214-5.46-2.843l-1.114-0.302l0.982-0.606c3.955-2.44,5.961-5.05,5.961-7.756c0-1.396-0.688-2.5-2.106-3.379
		c-1.472-0.913-3.45-1.377-5.882-1.378c-4.44,0.001-8.572,0.967-12.279,2.87c-3.6,1.848-5.425,3.866-5.425,5.998
		c0,0.367,0.063,0.755,0.188,1.159c4.685-5.485,10.092-8.266,16.083-8.266c5.079,0,6.146,2.285,6.146,4.202
		c0,2.245-1.534,4.507-4.561,6.724l-0.148,0.108l-0.184-0.013c-0.557-0.04-1.002-0.061-1.334-0.061c-1.195,0-2.053,0.215-2.55,0.638
		c-0.445,0.379-0.84,1.111-1.175,2.182c0.266,0.044,0.499,0.066,0.697,0.066c0.981,0,1.896-0.167,2.719-0.495l0.14-0.057
		l0.148,0.031c2.594,0.541,4.409,1.302,5.55,2.326c1.168,1.048,1.761,2.509,1.761,4.34c0,2.316-1.029,4.322-3.059,5.962
		c-1.999,1.615-4.428,2.434-7.218,2.434c-3.589,0-5.409-1.035-5.409-3.077c0-0.512,0.15-1.54,0.459-3.143l2.681-13.441
		c0.574-2.753,0.663-3.376,0.665-3.503c0-0.878-0.38-0.951-0.769-0.951C350.124,512.247,349.27,512.388,347.505,513.023z"/>
</g>
<g>
	<path id="path12237_1_" fill="#121212" d="M538.753,293.224c34.907,0,34.907,0,34.907,0"/>
	<rect x="538.753" y="291.058" fill="#121212" width="34.907" height="4.334"/>
</g>
<g>
	<path id="path15363_1_" fill="#121212" d="M324.087,546.994c-22.124,35.963-22.124,35.963-22.124,35.963l0,0"/>

		<rect x="291.914" y="563.153" transform="matrix(0.524 -0.8517 0.8517 0.524 -332.2007 535.5547)" fill="#121212" width="42.224" height="3.646"/>
</g>
<g>
	<path id="path15365_1_" fill="#121212" d="M317.621,546.994c-22.124,35.963-22.124,35.963-22.124,35.963l0,0"/>

		<rect x="285.447" y="563.153" transform="matrix(0.524 -0.8517 0.8517 0.524 -335.2766 530.0016)" fill="#121212" width="42.224" height="3.645"/>
</g>
<g>
	<path id="path15367_1_" fill="#121212" d="M311.154,546.994c-22.124,35.963-22.124,35.963-22.124,35.963l0,0"/>

		<rect x="278.98" y="563.153" transform="matrix(0.524 -0.8517 0.8517 0.524 -338.3544 524.494)" fill="#121212" width="42.223" height="3.645"/>
</g>
<g>
	<path id="path15373_1_" fill="#121212" d="M330.554,546.994c-22.124,35.963-22.124,35.963-22.124,35.963l0,0"/>

		<rect x="298.38" y="563.153" transform="matrix(0.5239 -0.8518 0.8518 0.5239 -329.1243 541.1077)" fill="#121212" width="42.223" height="3.646"/>
</g>
<g>
	<path id="path16356_1_" fill="#121212" d="M337.021,546.994c-22.124,35.963-22.124,35.963-22.124,35.963l0,0"/>

		<rect x="304.847" y="563.153" transform="matrix(0.5239 -0.8518 0.8518 0.5239 -326.0456 546.6159)" fill="#121212" width="42.223" height="3.646"/>
</g>
<g>
	<path id="path16358_1_" fill="#121212" d="M343.584,547.803c-22.124,35.963-22.124,35.963-22.124,35.963l0,0"/>

		<rect x="311.41" y="563.961" transform="matrix(0.5239 -0.8518 0.8518 0.5239 -323.6095 552.5914)" fill="#121212" width="42.223" height="3.646"/>
</g>
<g>
	<path id="path16360_1_" fill="#121212" d="M350.051,547.803c-22.124,35.963-22.124,35.963-22.124,35.963l0,0"/>

		<rect x="317.877" y="563.961" transform="matrix(0.5239 -0.8518 0.8518 0.5239 -320.5308 558.0996)" fill="#121212" width="42.223" height="3.646"/>
</g>
<g>
	<path id="path16362_1_" fill="#121212" d="M356.518,547.803c-22.124,35.963-22.124,35.963-22.124,35.963l0,0"/>

		<rect x="324.344" y="563.961" transform="matrix(0.5239 -0.8518 0.8518 0.5239 -317.4521 563.6078)" fill="#121212" width="42.223" height="3.646"/>
</g>
<g>
	<path id="path16364_1_" fill="#121212" d="M362.887,546.994c-22.124,35.963-22.124,35.963-22.124,35.963l0,0"/>

		<rect x="330.713" y="563.153" transform="matrix(0.5239 -0.8518 0.8518 0.5239 -313.7309 568.6483)" fill="#121212" width="42.224" height="3.646"/>
</g>
<g>
	<path id="path16366_1_" fill="#121212" d="M369.354,546.994c-22.124,35.963-22.124,35.963-22.124,35.963l0,0"/>

		<rect x="337.18" y="563.153" transform="matrix(0.5239 -0.8518 0.8518 0.5239 -310.6524 574.1561)" fill="#121212" width="42.223" height="3.646"/>
</g>
<g>
	<path id="path16370_1_" fill="#121212" d="M304.688,546.994c-22.124,35.963-22.124,35.963-22.124,35.963l0,0"/>

		<rect x="272.513" y="563.153" transform="matrix(0.524 -0.8517 0.8517 0.524 -341.4324 518.9863)" fill="#121212" width="42.223" height="3.645"/>
</g>
<g>
	<path id="path17363_1_" fill="#121212" d="M291.754,546.994c-18.245,29.796-18.941,30.592-18.941,30.592"/>
	<path fill="#121212" d="M274.185,578.786l-1.372-1.2l-1.463-1.087c0.143-0.199,1.883-2.748,18.85-30.457l3.108,1.904
		C281.663,566.966,274.692,578.206,274.185,578.786z"/>
</g>
<g>
	<path id="path17365_1_" fill="#121212" d="M285.288,546.994c-17.151,26.812-17.549,27.608-17.549,27.608"/>
	<path fill="#121212" d="M269.328,575.494l-3.219-1.708c0.276-0.552,6.872-10.935,17.644-27.774l3.07,1.965
		C270.769,573.074,269.428,575.32,269.328,575.494z"/>
</g>
<g>
	<path id="path17367_1_" fill="#121212" d="M278.423,547.292l-15.559,24.524"/>

		<rect x="256.122" y="557.732" transform="matrix(0.5358 -0.8444 0.8444 0.5358 -346.8274 488.2867)" fill="#121212" width="29.043" height="3.645"/>
</g>
<g>
	<path id="path17371_1_" fill="#121212" d="M298.221,546.994c-19.837,32.183-20.632,33.278-20.632,33.278"/>
	<path fill="#121212" d="M279.062,581.344l-2.947-2.145c0.027-0.042,1.497-2.242,20.554-33.161l3.104,1.912
		C280.457,579.289,279.148,581.227,279.062,581.344z"/>
</g>
<g>
	<path id="flowRoot6236_1_" fill="#121212" d="M512.447,92.536c0,3.995,1.691,5.993,5.072,5.993c2.932,0,6.163-1.398,9.695-4.193
		c3.532-2.795,6.716-6.477,9.552-11.045l1.739,0.961c-2.673,4.991-6.146,9.122-10.421,12.395c-4.275,3.273-8.328,4.909-12.16,4.909
		c-2.454,0-4.394-0.791-5.819-2.373c-1.425-1.582-2.137-3.743-2.137-6.484c0-3.954,1.292-7.336,3.876-10.145
		c2.584-2.809,5.696-4.213,9.337-4.213c1.759,0,3.167,0.443,4.224,1.329c1.057,0.886,1.585,2.073,1.585,3.559
		c0,2.441-1.469,4.602-4.408,6.484C519.643,91.596,516.265,92.536,512.447,92.536L512.447,92.536z M512.611,90.573
		c2.85-0.15,5.294-0.968,7.333-2.454c2.039-1.486,3.058-3.204,3.058-5.154c0-1.745-0.777-2.618-2.332-2.618
		c-1.854,0-3.566,0.995-5.134,2.986C513.967,85.323,512.992,87.737,512.611,90.573L512.611,90.573z"/>
	<path fill="#121212" d="M515.924,102.057c-2.59,0-4.673-0.854-6.189-2.538c-1.504-1.668-2.267-3.962-2.267-6.818
		c0-4.065,1.349-7.592,4.008-10.483c2.671-2.903,5.936-4.375,9.705-4.375c1.872,0,3.401,0.487,4.545,1.447
		c1.17,0.981,1.764,2.308,1.764,3.941c0,2.611-1.561,4.934-4.638,6.905c-2.875,1.841-6.201,2.814-9.895,2.896
		c0.13,3.362,1.626,4.998,4.562,4.998c2.803,0,5.96-1.375,9.385-4.085c3.469-2.746,6.645-6.419,9.438-10.917l0.251-0.404l2.586,1.43
		l-0.233,0.435c-2.693,5.031-6.246,9.255-10.558,12.556C524.044,100.37,519.85,102.057,515.924,102.057z M521.181,78.842
		c-3.479,0-6.496,1.363-8.969,4.052c-2.484,2.701-3.744,6-3.744,9.807c0,2.601,0.676,4.67,2.009,6.149
		c1.339,1.485,3.12,2.208,5.447,2.208c3.701,0,7.69-1.617,11.856-4.806c4.073-3.119,7.452-7.087,10.049-11.8l-0.891-0.492
		c-2.793,4.414-5.958,8.036-9.413,10.771c-3.606,2.854-6.973,4.301-10.006,4.301c-2.542,0-5.572-1.126-5.572-6.493v-0.5h0.5
		c3.703,0,7.022-0.923,9.865-2.744c2.771-1.775,4.177-3.815,4.177-6.063c0-1.343-0.46-2.382-1.406-3.175
		C524.124,79.25,522.812,78.842,521.181,78.842z M512.034,91.104l0.081-0.598c0.392-2.912,1.41-5.429,3.027-7.482
		c1.66-2.108,3.52-3.177,5.526-3.177c1.826,0,2.832,1.107,2.832,3.118c0,2.109-1.098,3.979-3.263,5.558
		c-2.109,1.538-4.667,2.396-7.602,2.55L512.034,91.104z M520.669,80.846c-1.685,0-3.279,0.94-4.741,2.796
		c-1.392,1.767-2.308,3.914-2.729,6.388c2.48-0.224,4.648-1.001,6.45-2.315c1.92-1.399,2.853-2.953,2.853-4.75
		C522.501,81.087,521.521,80.846,520.669,80.846z"/>
</g>
<g>
	<path id="path8266_1_" fill="#121212" d="M262.222,544.297c-11.222,18.801-11.824,19.629-11.824,19.629"/>
	<path fill="#121212" d="M251.874,564.997l-2.95-2.141c0.01-0.017,1.049-1.593,11.734-19.493l3.13,1.869
		C253.065,563.193,251.982,564.848,251.874,564.997z"/>
</g>
<g id="g2269" transform="translate(1.392573,-0.198939)">
	<g>
		<path id="path17343_1_" fill="#121212" d="M377.462,544.333c-22.124,35.963-23.02,37.754-23.02,37.754l-0.696,0.895"/>
		<path fill="#121212" d="M355.185,584.101l-2.877-2.238l0.611-0.787c0.557-0.984,3.829-6.551,22.99-37.697l3.105,1.91
			c-21.312,34.643-22.902,37.54-22.959,37.646l-0.175,0.271L355.185,584.101z"/>
	</g>
	<g>
		<path id="path8268_1_" fill="#121212" d="M375.88,543.885h3.382l-1.194,2.014l-1.194-0.199"/>
		<polygon fill="#121212" points="378.324,546.45 376.793,546.194 376.957,545.208 377.812,545.35 378.385,544.385 375.88,544.385
			375.88,543.385 380.139,543.385 		"/>
	</g>
</g>
<g>
	<path id="path2428_1_" fill="#121212" d="M347.894,291.494l-49.263,0.79l7.24,13.305L347.894,291.494z"/>
	<path fill="#121212" d="M305.639,306.18l-7.819-14.368l50.066-0.803l0.162,0.947L305.639,306.18z M299.442,292.758l6.662,12.24
		l38.662-12.968L299.442,292.758z"/>
</g>
<g id="g3419" transform="translate(0,6.7522133)">
	<g>
		<path id="path3413_1_" sodipodi:nodetypes="ccc" fill="#121212" d="M335.969,279.112c-0.654,5.049-7.218,8.08-15.539,12.405l0,0"
			/>
		<path fill="#121212" d="M321.391,293.364l-1.92-3.692l1.749-0.905c6.826-3.526,12.219-6.311,12.686-9.921l4.127,0.534
			c-0.747,5.772-6.994,8.999-14.903,13.084L321.391,293.364z"/>
	</g>
	<g>
		<path id="path3417_1_" sodipodi:nodetypes="ccccc" fill="#121212" d="M342.951,282.885c-0.36,0.581-0.608,1.329-0.993,1.788
			l3.106,0.387c0.424-0.172,0.546-0.641,0.714-1.066L342.951,282.885z"/>
		<path fill="#121212" d="M345.121,285.502l-4.003-0.499l0.509-0.608c0.191-0.229,0.356-0.569,0.53-0.929
			c0.134-0.277,0.271-0.558,0.427-0.81l0.189-0.306l3.564,1.399l-0.22,0.562c-0.154,0.413-0.347,0.928-0.894,1.148L345.121,285.502z
			 M342.691,284.329l2.289,0.285c0.095-0.072,0.165-0.198,0.239-0.375l-2.077-0.815c-0.071,0.137-0.14,0.279-0.208,0.419
			C342.856,284.005,342.776,284.17,342.691,284.329z"/>
	</g>
</g>
<g>
	<path id="path2264_1_" fill="#121212" d="M266.522,547.016c-11.222,18.801-11.824,19.629-11.824,19.629"/>
	<path fill="#121212" d="M256.173,567.716l-2.949-2.143c0.009-0.017,1.05-1.594,11.733-19.492l3.13,1.869
		C259.781,561.864,256.487,567.284,256.173,567.716z"/>
</g>
<g>
	<path id="path2266_1_" fill="#121212" d="M271.098,549.403c-11.222,18.801-11.824,19.629-11.824,19.629"/>
	<path fill="#121212" d="M260.749,570.103l-2.95-2.141c0.01-0.017,1.049-1.593,11.734-19.493l3.13,1.869
		C261.941,568.299,260.857,569.953,260.749,570.103z"/>
</g>
<g>
	<path id="path11266_1_" sodipodi:nodetypes="cssssssscsccccsscsc" fill="#0075B2" fill-opacity="0" d="M309.633,288.139
		c-8.331,3.455-0.376,13.832,4.755,15.637c8.248,2.9,15.91-0.828,21.017-6.997c3.349-4.046,5.599-9.142,6.193-14.105
		c2.577-21.516-17.222-38.169-37.449-38.783c-29.16-0.887-50.828,25.929-50.356,53.796c0.623,36.77,34.652,63.571,70.142,61.93
		c44.373-2.053,76.357-43.381,73.503-86.489c-3.441-51.974-52.114-89.166-102.836-85.076
		c-59.575,4.805-101.992,60.85-96.649,119.183c6.152,67.176,69.586,114.828,135.529,108.223
		c74.778-7.49,127.671-78.323,119.796-151.876c-8.82-82.38-87.062-140.52-168.223-131.369
		c-89.982,10.145-153.373,95.8-142.942,184.569c11.466,97.584,104.54,166.228,200.916,154.515
		c105.187-12.784,179.087-113.28,166.089-217.263c-14.099-112.79-122.02-191.948-233.61-177.662
		C155.116,91.783,70.7,207.131,86.274,326.327c14.584,111.621,111.095,197.293,222.85,202.646"/>
	<path fill="#0075B2" d="M309.125,531.562c-0.042,0-0.084-0.001-0.126-0.003c-54.92-2.631-108.004-24.698-149.474-62.137
		c-41.794-37.731-68.72-88.431-75.818-142.761c-7.71-59.007,9.078-120.361,46.059-168.329c36.358-47.16,88-77.18,145.415-84.53
		c55.385-7.09,112.899,8.808,157.792,43.619c44.043,34.15,71.998,82.553,78.715,136.29c6.472,51.762-8.538,105.434-41.178,147.253
		c-31.943,40.927-77.105,66.816-127.166,72.901c-48.147,5.848-97.973-8.271-136.717-38.742
		c-37.809-29.736-61.633-71.657-67.083-118.042c-5.231-44.52,8.001-90.511,36.306-126.179
		c27.528-34.692,66.209-56.449,108.917-61.264c40.9-4.614,83.05,7.734,115.643,33.872c31.574,25.321,51.265,60.762,55.444,99.794
		c3.992,37.28-7.468,75.59-31.44,105.104c-23.114,28.458-55.315,46.081-90.672,49.623c-33.661,3.373-68.133-7.204-94.57-29.017
		c-25.34-20.906-40.893-49.866-43.794-81.546c-2.752-30.049,6.941-60.679,26.595-84.036c18.699-22.223,44.419-35.705,72.424-37.963
		c26.439-2.128,53.229,6.683,73.503,24.185c19.104,16.491,30.513,38.972,32.123,63.301c1.512,22.833-6.431,45.788-21.791,62.978
		c-14.282,15.984-33.522,25.313-54.175,26.269c-19.244,0.889-38.362-6.188-52.46-19.425c-12.862-12.073-20.103-28.071-20.391-45.047
		c-0.262-15.443,6.136-31.13,17.114-41.961c9.865-9.732,22.61-14.878,35.91-14.466c11.991,0.364,23.771,5.951,31.509,14.943
		c6.585,7.652,9.579,17.146,8.431,26.735c-0.647,5.403-3.114,11.034-6.77,15.448c-6.498,7.849-15.425,10.758-23.869,7.788
		c-4.551-1.6-9.956-7.643-10.104-13.036c-0.093-3.36,1.76-6,5.216-7.434c1.322-0.551,2.835,0.079,3.384,1.399
		c0.548,1.321-0.079,2.835-1.399,3.383c-1.824,0.757-2.047,1.693-2.024,2.509c0.082,2.984,3.936,7.341,6.646,8.293
		c9.104,3.205,15.736-3.272,18.164-6.205c3.038-3.669,5.085-8.321,5.617-12.763c1.248-10.418-3.234-18.117-7.214-22.742
		c-6.808-7.911-17.179-12.825-27.743-13.146c-11.854-0.373-23.269,4.248-32.116,12.977c-9.99,9.856-15.812,24.132-15.574,38.188
		c0.264,15.563,6.925,30.253,18.757,41.36c13.083,12.282,30.832,18.846,48.676,18.027c19.253-0.891,37.206-9.608,50.555-24.547
		c14.438-16.159,21.905-37.731,20.485-59.186c-1.519-22.935-12.293-44.145-30.34-59.723c-19.232-16.602-44.63-24.967-69.705-22.943
		c-26.616,2.146-51.077,14.979-68.878,36.136c-18.77,22.307-28.028,51.549-25.401,80.23c2.774,30.295,17.667,58.005,41.933,78.025
		c25.379,20.938,58.451,31.091,90.76,27.857c33.974-3.402,64.931-20.355,87.169-47.734c23.109-28.452,34.157-65.371,30.311-101.29
		c-4.031-37.651-23.044-71.854-53.535-96.306c-31.525-25.282-72.286-37.223-111.823-32.766
		c-41.329,4.66-78.776,25.733-105.442,59.338c-27.454,34.597-40.291,79.195-35.219,122.357
		c5.288,45.007,28.423,85.697,65.142,114.576c37.669,29.626,86.106,43.36,132.891,37.671c48.685-5.917,92.619-31.112,123.71-70.946
		c31.799-40.742,46.423-93.019,40.122-143.425c-6.546-52.362-33.803-99.539-76.75-132.841
		c-43.815-33.974-99.935-49.49-153.962-42.574c-56.04,7.174-106.459,36.493-141.971,82.556
		c-36.147,46.887-52.559,106.843-45.025,164.498c6.939,53.108,33.274,102.682,74.154,139.588
		c40.584,36.639,92.524,58.234,146.252,60.808c1.428,0.068,2.53,1.281,2.462,2.71C311.643,530.483,310.498,531.562,309.125,531.562z
		"/>
</g>
</svg>
