<svg xmlns="http://www.w3.org/2000/svg" width="195.8" height="27" viewBox="0 0 195.8 27"><path fill="#FFF" d="M86.3 0h.6v27h-.6zM2.9.7h21.8v25.4H2.9z"/><g fill="#FFF"><path d="M34 5.9h3.1l7.2 9.4V5.9h3.3v15.3h-2.9l-7.4-9.7v9.7H34V5.9zM55.2 15.2l-5.9-9.3h3.9l3.7 6.2 3.7-6.2h3.8l-5.9 9.2v6.1h-3.4v-6zM65.9 14.7V5.9h3.4v8.7c0 2.5 1.2 3.8 3.3 3.8 2.1 0 3.3-1.2 3.3-3.7V5.9h3.4v8.7c0 4.6-2.6 6.9-6.7 6.9-4.2 0-6.7-2.3-6.7-6.8zM27 27H0V0h27v27zm-14.4-3.2c0 .2.4.3.5 0l.9-7.5h-2.3l.9 7.5zm2.2-8v-1.1h-3.9v1.1h3.9zm-1.1-1.7c4.9.2 5.3-4.3 5.3-6 0-.1 0-.1 0 0-.1.4-.8 1.6-2.6 2.4-1.6.6-2.6 2.2-2.7 3.6zm-.5-.3c.8-3.7 3.8-3.8 4.1-4.5.4-1.1-.4-3.1-.6-3.3h-.1c-.4.9-1.1 1.8-1.6 2.2-.6.5-3.2 2.5-1.8 5.6-.1.1 0 0 0 0zm-.6.2c-1.7-3.5 1.7-5.8 2.2-6.3.1-.1.1-.1.1-.2 0-1.1-.6-2.9-.8-3.2H14c-.3 1.1-1.8 2.7-2.1 3.1-2.6 3-2 4.9.7 6.6 0 0 .1 0 0 0zm-.7.1c-2.8-1.7-2.5-4-1.3-5.7v-.2c0-.4-.5-1.5-.7-1.7 0-.1-.1-.1-.1 0 0 .5-.6 1.7-1.4 3-.8 1.4-.9 4.5 3.5 4.6 0 .1 0 0 0 0z"/></g><g fill="#FFF"><path d="M93.3 5.9h2.9c.8 0 1.4.2 1.8.6.4.4.5.8.5 1.4 0 1-.5 1.7-1.4 2l1.5 2.3H97l-1.3-2h-1.1v2h-1.4V5.9zM96.1 9c.7 0 1.1-.4 1.1-.9 0-.6-.4-.9-1.1-.9h-1.4V9h1.4zM99.4 9.1c0-1.8 1.4-3.3 3.4-3.3 1.9 0 3.3 1.4 3.3 3.2 0 1.8-1.4 3.3-3.4 3.3-1.9.1-3.3-1.4-3.3-3.2zm5.2 0c0-1.1-.8-2-1.9-2-1.1 0-1.9.9-1.9 2s.8 2 1.9 2c1.2 0 1.9-.9 1.9-2zM107.1 5.9h2.9c.8 0 1.4.2 1.8.6.4.4.5.8.5 1.4 0 1-.5 1.7-1.4 2l1.5 2.3H111l-1.3-2h-1.1v2h-1.4V5.9zm2.8 3.1c.7 0 1.1-.4 1.1-.9 0-.6-.4-.9-1.1-.9h-1.4V9h1.4zM115.2 9.8L112.8 6h1.6l1.5 2.5 1.5-2.5h1.6l-2.4 3.8v2.5h-1.4V9.8zM122.3 5.9h1.5l1.7 2.7 1.7-2.7h1.5v6.3h-1.4V8.1l-1.8 2.7-1.8-2.7v4.1h-1.4V5.9zM129.9 5.9h4.8v1.2h-3.4v1.3h3v1.2h-3V11h3.4v1.2h-4.8V5.9zM137.5 9.8L135.1 6h1.6l1.5 2.5 1.5-2.5h1.6l-2.4 3.8v2.5h-1.4V9.8zM142 5.9h4.8v1.2h-3.4v1.3h3v1.2h-3V11h3.4v1.2H142V5.9zM147.8 5.9h2.9c.8 0 1.4.2 1.8.6.4.4.5.8.5 1.4 0 1-.5 1.7-1.4 2l1.5 2.3h-1.6l-1.3-2h-1.1v2h-1.4V5.9zm2.8 3.1c.7 0 1.1-.4 1.1-.9 0-.6-.4-.9-1.1-.9h-1.4V9h1.4zM153.7 11.3l.8-1c.6.5 1.2.8 1.9.8.6 0 .9-.2.9-.6 0-.4-.2-.5-1.3-.8-1.2-.3-2-.7-2-1.9 0-1.1.9-1.9 2.2-1.9.9 0 1.7.3 2.3.8l-.7 1c-.6-.4-1.1-.6-1.6-.6s-.8.2-.8.5c0 .4.3.5 1.4.8 1.3.3 2 .8 2 1.9 0 1.3-1 2-2.3 2-1 0-2-.3-2.8-1zM93.1 18.1c0-1.8 1.3-3.3 3.3-3.3 1.2 0 1.9.4 2.5 1l-.9 1c-.5-.4-1-.7-1.6-.7-1.1 0-1.8.9-1.8 2s.7 2 1.8 2c.7 0 1.2-.3 1.7-.7l.9.9c-.6.7-1.4 1.1-2.6 1.1-2 0-3.3-1.5-3.3-3.3zM99.5 18.1c0-1.8 1.4-3.3 3.4-3.3 1.9 0 3.3 1.4 3.3 3.2 0 1.8-1.4 3.3-3.4 3.3-1.9.1-3.3-1.4-3.3-3.2zm5.3 0c0-1.1-.8-2-1.9-2-1.1 0-1.9.9-1.9 2s.8 2 1.9 2c1.1 0 1.9-.9 1.9-2zM107.3 14.9h1.4v5h3.1v1.3h-4.5v-6.3zM112.7 14.9h1.4v5h3.1v1.3h-4.5v-6.3zM118.1 14.9h4.8v1.2h-3.4v1.3h3v1.2h-3V20h3.4v1.2h-4.8v-6.3zM123.6 18.1c0-1.8 1.4-3.3 3.3-3.3 1.1 0 1.8.3 2.5.9l-.9 1.1c-.5-.4-.9-.6-1.6-.6-1 0-1.8.9-1.8 2 0 1.2.8 2 1.9 2 .5 0 1-.1 1.3-.4v-.9h-1.4v-1.2h2.7v2.7c-.6.5-1.5 1-2.7 1-1.9 0-3.3-1.4-3.3-3.3zM130.8 14.9h4.8v1.2h-3.4v1.3h3v1.2h-3V20h3.4v1.2h-4.8v-6.3zM138.9 18.1c0-1.8 1.4-3.3 3.4-3.3 1.9 0 3.3 1.4 3.3 3.2 0 1.8-1.4 3.3-3.4 3.3-1.9.1-3.3-1.4-3.3-3.2zm5.2 0c0-1.1-.8-2-1.9-2s-1.9.9-1.9 2 .8 2 1.9 2 1.9-.9 1.9-2zM146.6 14.9h4.8v1.3H148v1.3h3v1.3h-3v2.4h-1.4v-6.3zM154.9 14.9h1.3l3 3.9v-3.9h1.4v6.3h-1.2l-3.1-4v4h-1.4v-6.3zM161.7 18.5v-3.6h1.4v3.6c0 1 .5 1.6 1.4 1.6.8 0 1.4-.5 1.4-1.5V15h1.4v3.6c0 1.9-1.1 2.8-2.8 2.8-1.8-.1-2.8-1-2.8-2.9zM168.4 14.9h2.9c.8 0 1.4.2 1.8.6.4.4.5.8.5 1.4 0 1-.5 1.7-1.4 2l1.5 2.3h-1.6l-1.3-2h-1.1v2h-1.4v-6.3zm2.8 3.1c.7 0 1.1-.4 1.1-.9 0-.6-.4-.9-1.1-.9h-1.4V18h1.4zM174.3 20.3l.8-1c.6.5 1.2.8 1.9.8.6 0 .9-.2.9-.6 0-.4-.2-.5-1.3-.8-1.3-.3-2.1-.7-2.1-1.9 0-1.1.9-1.9 2.2-1.9.9 0 1.7.3 2.3.8l-.7 1c-.6-.4-1.1-.6-1.6-.6s-.8.2-.8.5c0 .4.3.5 1.4.8 1.3.3 2 .8 2 1.9 0 1.3-1 2-2.3 2-1 0-1.9-.3-2.7-1zM180.4 14.9h1.4v6.3h-1.4v-6.3zM183.2 14.9h1.3l3 3.9v-3.9h1.4v6.3h-1.2l-3.1-4v4h-1.4v-6.3zM189.8 18.1c0-1.8 1.4-3.3 3.3-3.3 1.1 0 1.8.3 2.5.9l-.9 1.1c-.5-.4-.9-.6-1.6-.6-1 0-1.8.9-1.8 2 0 1.2.8 2 1.9 2 .5 0 1-.1 1.3-.4v-.9h-1.4v-1.2h2.7v2.7c-.6.5-1.5 1-2.7 1-1.9 0-3.3-1.4-3.3-3.3z"/></g><path d="M294.5 409.6c-.1-7.7-.9-19.3 0-27v27z"/><path fill="#FFF" d="M232.4 408.6c-45.3-4.3-3.2-52.4 0 0z"/><path d="M241.7 388.5c4.4.7 8.2 4.9 10.3 9.4-4 3.3 5-15 3.3-9.4v15.3c-6.9.2-4.6-8.1-10.3-9.8-.6 5.9 2.3 8.7-3.3 9.8v-15.3zM262.9 397.8c1-5.7-11.7-8.3-1.9-9.3 10.5 6.2-.5.2 11.2 0-6.4 17.9-7.9 9.1-9.3 9.3zM273.6 397.3c3.6-4.9-4.7-8.1 3.4-8.8 2 .2-3.4 12.5 3.3 12.5 6.4 0 1.6-10.4 3.3-12.5 5.9 11.6-10 16.5-10 8.8zM234.7 409.6c-73.2 16.3 19.4-71.3 0 0zm-14.5-3.2c-.9-5.9.9-12.3 0 0 .1.2 0 0 0 0zm2.3-8c-.5-.1-8.9-1.9 0 0zm-1.1-1.7c7.2.3 4.2.2 0 0 4.9.2 0 0 0 0zm-.6-.3c1.4-6.3 3.6-12.8 0 0 .8-3.8 0 0 0 0zm-.5.1c-2-4.3-6.3-13.8 0 0-1.6-3.5 0 .1 0 0zm-.7.2c-3.9-2.4-8.9-5.3 0 0-2.8-1.7 0 0 0 0z"/><g><path d="M301 388.5c2.5 3.3 8.8.6 3.8 6.3-5.5-1 .5-.5-3.8-6.3zm2.8 3.1c.8 0-.6-4.3 0 0 .7 0 0 0 0 0z"/><path d="M307.1 391.7c14.2-.5 0 1.7 0 0 0 0 0 1.8 0 0zm5.2 0c-8-.3 0 1 0 0 0 0 0 1.1 0 0zM314.8 388.5c2.5 3.3 8.8.6 3.8 6.3-5.5-1 .5-.5-3.8-6.3zm2.8 3.1c.8 0-.6-4.3 0 0 .7 0 0 0 0 0zM322.9 392.3c3.9-7-.3.6 0 0zM329.9 388.5c4.5 4 7.3-5 6.3 6.3-6.5-.5-1.6-2.1-6.3-6.3zM337.6 388.5c3.3 3.9 3.6 1.1 4.8 5.1-5.8 4.7-2.3-2.1-4.8-5.1zM345.2 392.3c3.9-7-.3.6 0 0zM349.7 388.5c3.3 3.9 3.6 1.1 4.8 5.1-5.8 4.7-2.3-2.1-4.8-5.1zM355.5 388.5c2.5 3.3 8.8.6 3.8 6.3-5.5-1 .5-.5-3.8-6.3zm2.8 3.1c.8 0-.6-4.3 0 0 .7 0 0 0 0 0zM361.4 393.9c.8-.8 2.5-6.5 4.8-4.7.1-.2-1.5 7.6-4.8 4.7zM300.7 400.7c9.9-.2 0 1.6 0 0 0 0 0 1.8 0 0zM307.2 400.7c14.2-.5 0 1.7 0 0 0 0 0 1.8 0 0zm5.3 0c-8.1-.3 0 1 0 0 0 0 0 1.1 0 0zM315 397.5c3.3 5.8 5.8 10.2 0 0zM320.3 397.5c3.3 5.8 5.8 10.2 0 0zM325.7 397.5c3.3 3.9 3.6 1.1 4.8 5.1-5.7 4.7-2.2-2.1-4.8-5.1zM331.3 400.7c10 .2 1.4-5.4 1.4 0 1.4.5 1.2 3.1 3.2 1.6 1.5-.4-3.3-1.6-1.4-2.1 6.6 5.9-3.2 2.6-3.2.5zM338.5 397.5c3.3 3.9 3.6 1.1 4.8 5.1-5.8 4.7-2.3-2.1-4.8-5.1zM346.6 400.7c14.1-.5 0 1.7 0 0 0 0 0 1.8 0 0zm5.2 0c-8.1-.3 0 1 0 0 0 0 0 1.1 0 0zM354.3 397.5c3.7 4 4-1.6 4.4 3.9-6.3 5.7-1.3-.5-4.4-3.9zM362.5 397.5c4.8 5.3 6.8-5 5.6 6.3-8.6 1.8-1.3-1.7-5.6-6.3zM369.4 401.1c4-1.4-.1 2 4.1-3.6 1.9 4.3-4.1 8.5-4.1 3.6zM376.1 397.5c2.5 3.3 8.8.6 3.8 6.3-5.5-1 .5-.5-3.8-6.3zm2.8 3.1c.7 0-.6-4.3 0 0 .7 0 0 0 0 0zM382 402.9c.8-.8 2.5-6.5 4.8-4.7 0-.2-1.5 7.6-4.8 4.7zM388.1 397.5c.1.7 2.2 15 0 0zM390.8 397.5c4.8 5.3 6.8-5 5.6 6.3-8.6 1.8-1.3-1.7-5.6-6.3zM397.5 400.7c10 .2 1.4-5.4 1.4 0 1.4.5 1.2 3.1 3.2 1.6 1.5-.4-3.3-1.6-1.4-2.1 6.6 5.9-3.2 2.6-3.2.5z"/></g><g fill="#572C86"><path d="M12.7 23.3c0 .2.4.3.5 0l.9-7.5h-2.3l.9 7.5zM15 15.3v-1.1h-3.9v1.1H15M13.9 13.6c4.9.2 5.3-4.3 5.3-6 0-.1 0-.1-.1 0-.1.4-.8 1.6-2.6 2.4-1.5.6-2.5 2.2-2.6 3.6-.1 0 0 0 0 0z"/><path d="M13.4 13.3c.8-3.7 3.8-3.8 4.1-4.5.4-1.1-.4-3.1-.6-3.3h-.1c-.4.9-1.1 1.8-1.6 2.2-.6.5-3.3 2.4-1.8 5.6-.1 0-.1 0 0 0z"/><path d="M12.8 13.4c-1.7-3.5 1.7-5.8 2.2-6.3.1-.1.1-.1.1-.2 0-1.1-.6-2.9-.8-3.2h-.1c-.3 1.1-1.8 2.7-2.1 3.1-2.6 3.1-2 4.9.7 6.6 0 .1 0 .1 0 0z"/><path d="M12.1 13.6c-2.8-1.7-2.5-4-1.3-5.7v-.2c0-.4-.5-1.5-.7-1.7 0-.1-.1-.1-.1 0 0 .5-.6 1.7-1.4 3-.9 1.4-.9 4.5 3.5 4.6z"/></g></svg>