<svg xmlns="http://www.w3.org/2000/svg" viewBox="0 0 300 80"><g fill="#3fa9f5"><path d="M63.73 33.73l-.13-.39c-.92-2.88-2.4-5.56-4.29-7.88-.13-.17-.27-.33-.42-.49a22.7 22.7 0 0 0-1.5-1.6c-.16-.16-.33-.32-.49-.47-2.16-2-4.69-3.6-7.45-4.7-.01-.01-.01-.01-.02-.01-.07-.03-.14-.05-.2-.08l-.39-.15c-.01 0-.02-.01-.03-.01-.04-.01-.09 0-.12.03a.17.17 0 0 0-.07.13l.01.42v.07c.11 5.13 2.63 9.65 6.52 12.43.5.36 1.03.69 1.57.99a15.698 15.698 0 0 0 6.43 1.89l.41.03h.01c.05 0 .09-.02.12-.06l.01-.01c.04-.05.04-.09.03-.14zM49.02 18.36c-.01.01-.03.01-.04.02l-.03.03v-.09l.07.04zM62.9 33.28c-.05-.01-.1-.01-.16-.02-.07-.01-.15-.02-.22-.02-.03-.01-.06-.01-.09-.01-.47-.06-.93-.14-1.38-.24-.49-.11-.97-.24-1.44-.39a15.35 15.35 0 0 1-3.36-1.59c-.25-.16-.49-.32-.73-.5a15.177 15.177 0 0 1-5.11-6.41c-.51-1.22-.87-2.52-1.05-3.88-.03-.19-.05-.38-.07-.57 0-.03-.01-.07-.01-.1-.01-.07-.01-.14-.02-.21-.01-.06-.01-.12-.01-.18 0-.05-.01-.1-.01-.15 0-.08-.01-.15-.01-.23v-.04c.07.03.14.05.21.08.04.02.07.03.11.04.06.03.13.05.19.08.09.04.17.08.26.12.13.05.25.11.37.17.05.02.1.05.15.07 2.09.98 4.02 2.27 5.72 3.79.18.16.36.33.54.49.63.6 1.24 1.24 1.8 1.91a23.898 23.898 0 0 1 3.7 5.97c0 .01.01.01.01.02.07.15.13.31.19.46.03.07.05.13.08.2a3119782891144400 3119782891144400 0 0 1 .32.9c.03.09.06.17.09.26-.03-.01-.05-.01-.07-.02zm.37.32c.01 0 .01-.01 0 0 .01-.01.02-.02.03-.02l.01-.01c0-.01.01-.01.01-.01.01-.01.01-.02.01-.02v-.01l.03.08-.09-.01zm-9.76 12.89c-.01-.07-.06-.13-.13-.14-.07-.01-.14.02-.17.08l-.44.83a14.04 14.04 0 0 1-6.44 6.1l-.85.39c-.06.03-.1.1-.09.16.01.07.06.12.13.13l8.61 1.28h.02c.04 0 .08-.02.11-.04.04-.03.05-.08.05-.13l-.8-8.66zm-.27.55l.03.32c-.02-.02-.05-.04-.08-.04-.01 0-.02-.01-.03-.01h-.02c-.01 0-.03.01-.04.01l.14-.28zm-7.15 6.77l.29-.13v.01c-.01.03-.02.05-.01.09 0 .03.02.06.04.08 0 0 0 .01.01.01l-.33-.06zm.95-.14c.01-.01.03-.02.04-.02.06-.03.12-.06.18-.1.1-.05.2-.1.3-.16.08-.04.16-.09.25-.14.07-.04.15-.09.22-.13.1-.06.19-.12.29-.18.05-.03.1-.07.16-.1.11-.07.22-.14.32-.22.03-.02.07-.04.1-.07.12-.09.24-.17.36-.26.01-.01.02-.01.02-.02.82-.62 1.57-1.33 2.24-2.12.01-.02.03-.03.04-.04l.27-.33c.03-.04.06-.07.09-.11.08-.1.15-.19.22-.29.04-.06.09-.11.13-.17.06-.08.12-.17.18-.26.05-.08.11-.16.16-.24.04-.07.09-.14.14-.21.07-.11.13-.22.2-.32.03-.05.06-.1.09-.14.01-.02.02-.03.03-.05l.63 6.69-6.66-1.01zm6.89 1.31c.01-.01.02-.02.03-.02.01-.01.01-.02.02-.02v-.01l.01.06-.06-.01zM40.5 38.89c-1.02 0-1.85.83-1.85 1.85a1.852 1.852 0 0 0 3.16 1.31 1.852 1.852 0 0 0-1.31-3.16zm1.16 2.34c-.19.45-.64.77-1.16.77a1.261 1.261 0 0 1 0-2.52 1.264 1.264 0 0 1 1.26 1.26c0 .17-.04.34-.1.49zm7.85-11.48l-.09-.22-.33-.85-.24-.61-.31-.78-.88-2.23-.32-.8-1.03-2.62c-.02-.04-.06-.08-.1-.09-.05-.01-.1-.01-.14.02l-.5.36L44 23.04l-5.04 3.57c-.06.04-.08.11-.06.18.02.07.08.11.15.1l.95-.03c.16-.01.32-.01.5-.01 2.89 0 5.66.88 8.01 2.54l.24.17.52.37.01.01c.03.02.06.03.09.03s.07-.01.1-.03c.05-.06.07-.13.04-.19zm-9.94-3.19l.26-.19c-.01.03-.01.06 0 .09s.03.06.06.08l-.32.02zm6.53-4.62l.02.06c-.01 0-.01-.01-.01-.01-.01-.01-.02-.01-.02-.01h-.01c-.01 0-.02-.01-.03-.01l.05-.03zm2.31 6.66c-.02-.01-.04-.03-.07-.04-.13-.08-.26-.16-.39-.25-.02-.01-.03-.02-.05-.03l-.42-.24c-.01-.01-.03-.01-.04-.02-.08-.04-.15-.08-.23-.12-.07-.04-.14-.08-.21-.11-.01-.01-.02-.01-.03-.02-.12-.06-.25-.12-.38-.18 0 0-.01 0-.01-.01a.488.488 0 0 0-.07-.03c-.01-.01-.02-.01-.03-.01-.13-.06-.26-.12-.4-.17-.02-.01-.05-.02-.07-.03-.01-.01-.02-.01-.04-.02-.16-.06-.31-.12-.47-.18-.02-.01-.03-.01-.05-.02-.15-.05-.31-.11-.46-.16a.185.185 0 0 0-.07-.02c-.15-.05-.3-.09-.45-.14l-.09-.03c-.14-.04-.28-.08-.43-.11l-.12-.03-.41-.09c-.04-.01-.09-.02-.14-.03-.13-.03-.26-.05-.39-.07-.05-.01-.1-.02-.16-.03-.13-.02-.25-.04-.38-.05-.06-.01-.11-.02-.17-.02-.13-.02-.25-.03-.38-.04-.06-.01-.12-.01-.18-.02-.13-.01-.26-.02-.39-.02-.06 0-.11-.01-.16-.01-.19-.01-.37-.01-.56-.01h-.01l3.73-2.65.51-.37 1.23-.87.5 1.27.44 1.12.09.24.29.74.62 1.56.24.61.28.72c-.01 0-.01 0-.02-.01zm.46.66l-.1-.07c.02 0 .03 0 .04-.01.02-.01.03-.02.04-.03.03-.02.04-.05.06-.08l.01.03.11.27-.16-.11zm-1.96-4.5l.09.22.01-.02c-.03-.07-.07-.13-.1-.2zm-.86-7.57a.144.144 0 0 0-.11-.09l-.41-.09-.43-.09-.14-.03c-.21-.04-.43-.08-.65-.11-.47-.08-.95-.14-1.42-.18a23.955 23.955 0 0 0-5.34.06c-.72.09-1.44.21-2.15.36-.02 0-.03.01-.05.01a24.433 24.433 0 0 0-7.38 2.93c-.15.09-.3.18-.45.28-.48.3-.95.62-1.41.96-.14.1-.28.21-.43.32-.14.1-.27.21-.4.32l-.32.26c-.04.03-.06.08-.06.14.01.05.03.1.08.12l.2.11.16.09c.5.28 1.02.53 1.56.74.63.26 1.28.48 1.94.66.19.05.38.1.57.14a15.692 15.692 0 0 0 14.39-4.07c.17-.16.33-.33.49-.5.01-.01.01-.02.02-.02.11-.12.22-.24.32-.36.41-.46.79-.95 1.15-1.47l.24-.35c.05-.03.06-.09.03-.14zm-20.7 5.01l.07-.05c0 .02-.01.03-.01.05 0 .02.01.03.01.05l-.07-.05zm19.75-4.55c-.03.05-.07.09-.1.14l-.17.23-.1.13c-.06.07-.12.15-.17.22 0 .01-.01.01-.01.01-.03.04-.06.08-.1.12l-.2.23c-.03.04-.07.07-.1.11-.07.08-.13.15-.2.22-.04.04-.07.08-.1.11-.06.06-.11.12-.17.18l-.03.03-.12.12-.05.05c-.05.04-.09.09-.14.14-.04.04-.09.09-.14.13-.01.01-.02.02-.03.02-.05.05-.1.1-.15.14-.06.05-.11.1-.17.15-.05.05-.1.09-.16.14-.07.06-.14.12-.21.17-.04.03-.08.07-.12.1-.08.07-.17.14-.25.2-.03.02-.05.04-.08.06-.1.08-.2.15-.31.23l-.03.03a15.005 15.005 0 0 1-7.44 2.77h-.03l-.42.03-.16.01c-.1.01-.19.01-.29.01-.16.01-.31.01-.47.01h-.01c-.15 0-.31 0-.46-.01-.1 0-.21-.01-.31-.02-.05 0-.1 0-.15-.01l-.43-.03h-.02c-.76-.07-1.51-.2-2.25-.38-.2-.05-.39-.1-.59-.16-.53-.15-1.04-.33-1.55-.54-.02-.01-.04-.02-.05-.02-.11-.05-.23-.09-.34-.15l-.07-.03c-.01-.01-.02-.01-.04-.02-.09-.04-.19-.09-.28-.14-.05-.02-.1-.05-.15-.07-.07-.03-.14-.07-.21-.1-.01-.01-.03-.01-.04-.02a.3.3 0 0 0-.08-.04c.02-.02.04-.03.06-.05l.01-.01c.09-.07.17-.14.26-.21a.7.7 0 0 0 .1-.08c.02-.02.04-.03.06-.04.09-.07.17-.13.26-.19.02-.01.03-.02.05-.04.36-.26.73-.51 1.1-.74.15-.1.3-.19.45-.28a23.83 23.83 0 0 1 5.66-2.49c.45-.13.91-.25 1.36-.35.72-.17 1.45-.3 2.19-.39.67-.09 1.34-.15 2.02-.18h.06c.16-.01.33-.01.49-.02.16 0 .32-.01.48-.01h.02c.2 0 .41 0 .61.01.08 0 .16.01.25.01.12 0 .24.01.36.01.1.01.2.01.31.02.1.01.2.01.29.02l.33.03.27.03c.06.01.11.01.16.02h.03c.04.01.09.01.13.02l.27.03c.1.01.21.03.31.04.1.02.19.03.29.04.01 0 .02 0 .02.01.09.01.18.03.26.04.01 0 .02 0 .03.01.1.02.19.03.28.05l.18.03c.03.01.06.01.09.02.07.01.13.03.19.04.01.03-.02.06-.04.1zm.5-.22c0-.02-.01-.03-.01-.04v-.01s0-.01-.01-.01c-.01-.01-.01-.02-.02-.03 0 0 0-.01-.01-.01l.09.02-.04.08zm-1.28-.64c-.47-.08-.95-.14-1.42-.18a23.955 23.955 0 0 0-5.34.06c-.72.09-1.44.21-2.15.36-.02 0-.03.01-.05.01a24.433 24.433 0 0 0-7.38 2.93c-.15.09-.3.18-.45.28-.48.3-.95.62-1.41.96.08.19.16.38.23.57.09-.07.17-.13.26-.19.02-.01.03-.02.05-.04.36-.26.73-.51 1.1-.74.15-.1.3-.19.45-.28a23.83 23.83 0 0 1 5.66-2.49c.45-.13.91-.25 1.36-.35.72-.17 1.45-.3 2.19-.39.67-.09 1.34-.15 2.02-.18h.06c.16-.01.33-.01.49-.02.16 0 .32-.01.48-.01h.02c.2 0 .41 0 .61.01.08 0 .16.01.25.01.12 0 .24.01.36.01.1.01.2.01.31.02.1.01.2.01.29.02l.33.03.27.03c.06.01.11.01.16.02h.03c.04.01.09.01.13.02l.27.03c.1.01.21.03.31.04.1.02.19.03.29.04.01 0 .02 0 .02.01l.24-.23c0-.14-.02-.25-.04-.36zm-2.22 37.9a.139.139 0 0 0-.15-.1l-.95.03c-.16.01-.32.01-.5.01-2.89 0-5.66-.88-8.01-2.54l-.77-.54c-.05-.04-.13-.04-.19.01-.05.04-.07.12-.05.18l3.19 8.11c.02.04.05.08.1.09.02.01.03.01.04.01.03 0 .07-.01.09-.03l7.11-5.05c.08-.04.11-.11.09-.18zm-9.89-2.39h-.02l-.01.01c-.01.01-.02.01-.03.02l-.03.03c-.01.01-.01.02-.01.03 0 .01-.01.01-.01.02l-.12-.3.26.18c-.01 0-.02.01-.03.01zm2.69 7.25l-.02-.06c.01.01.02.01.04.02.01 0 .02.01.04.01l-.06.03zm.14-.44l-2.46-6.25c.01 0 .01.01.01.01.06.04.12.07.17.11.1.06.19.12.29.18.04.02.09.05.13.07.12.07.23.14.34.2.03.02.06.03.09.05l.39.21c.02.01.05.02.07.03a7.99 7.99 0 0 0 .49.23c.14.07.29.13.43.19.02.01.05.02.07.03.14.06.29.12.44.17.03.01.05.02.08.03.14.05.29.1.43.15l.09.03c.14.04.28.09.42.13l.12.03c.13.04.27.07.41.1l.13.03.39.09.16.03c.13.02.25.04.38.07.06.01.12.02.17.03.12.02.24.04.36.05.06.01.13.02.19.02l.36.03c.07.01.13.01.19.02.13.01.25.02.38.02.06 0 .12.01.17.01.19.01.37.01.55.01h.02l-5.46 3.89zm6.13-4.01c.01-.03.01-.06 0-.09a.156.156 0 0 0-.06-.08l.32-.01-.26.18zm18.81-19.01a.147.147 0 0 0-.09-.1l-5.09-2.34-.57-.26-2-.92-.27-.12a.153.153 0 0 0-.18.04c-.04.05-.05.13-.01.19l.32.52.17.27c.11.17.21.35.31.53.11.18.21.37.3.55A13.812 13.812 0 0 1 54.31 42l-.08.93c-.01.07.03.13.1.16.02.01.04.01.06.01.05 0 .09-.02.12-.06l3.87-4.87.57-.72.98-1.24c.05-.02.06-.07.05-.12zm-7.39-3.1a.21.21 0 0 0-.06.04c-.02.02-.03.05-.03.08v.01l-.17-.27.29.13c-.01.01-.02.01-.03.01zm2.02 9.45l.03-.32.03.03c.01.01.03.02.04.02.01 0 .02.01.03.01.01 0 .02.01.02.01h.04l-.19.25zm4.3-5.86l-.57.72-3.38 4.25v-.09c.01-.05.01-.11.01-.16 0-.07.01-.14.01-.21v-.34c0-.17 0-.34-.01-.52 0-.02 0-.05-.01-.07-.01-.14-.01-.28-.02-.42-.01-.06-.01-.12-.02-.17l-.03-.32c-.01-.07-.02-.15-.02-.22l-.03-.26c-.01-.08-.02-.17-.04-.25-.01-.07-.02-.15-.04-.22-.02-.09-.03-.18-.05-.27-.01-.07-.03-.13-.04-.2l-.06-.28c-.01-.06-.03-.12-.04-.18-.02-.1-.05-.2-.07-.3-.02-.06-.03-.12-.05-.17-.03-.1-.06-.2-.08-.3a.845.845 0 0 1-.05-.17c-.03-.1-.06-.2-.09-.29a3.25 3.25 0 0 0-.06-.17c-.03-.09-.07-.19-.1-.28-.02-.06-.05-.12-.07-.18-.03-.09-.07-.17-.1-.26l-.09-.21c-.03-.08-.06-.15-.1-.22-.04-.1-.09-.2-.14-.3a.914.914 0 0 0-.07-.14c-.01-.02-.02-.04-.04-.07-.09-.19-.19-.37-.29-.55-.04-.08-.08-.15-.13-.23l.35.16.84.39.17.08 1.07.49 3.67 1.68-.23.25zm.64-.35v-.04c-.01-.01-.01-.03-.02-.04l.06.03-.04.05zm-5.26-2.21l-.06.02.17.08a.996.996 0 0 0-.11-.1zm9.65 9.99a23.13 23.13 0 0 1-.94 4.05c-.28.86-.61 1.71-.99 2.54l.55.23c.82-1.79 1.42-3.69 1.78-5.63l-.4-1.19zm.8-3.91l-.03-.8c-.05-.83-.14-1.66-.27-2.48l-.07-.41c-.01-.05-.04-.1-.09-.12a.16.16 0 0 0-.15.01l-.36.22c-.66.4-1.28.85-1.86 1.33-.18.15-.35.3-.52.45-3.24 2.94-5.11 7.1-5.11 11.59 0 2.42.54 4.74 1.59 6.89l.18.37c.01.02.03.04.05.06.02.02.04.03.07.03h.02c.04 0 .09-.02.12-.05l.01-.01.27-.3a24.23 24.23 0 0 0 2.63-3.54c.1-.17.21-.34.31-.52.28-.49.54-.98.79-1.48l.24-.51a24.112 24.112 0 0 0 1.97-6.82c.1-.7.16-1.41.19-2.12l.03-.74v-.42c.01-.2 0-.41-.01-.63zm-.64-3.41l.02.09h-.01c-.01-.01-.02-.02-.03-.02h-.02c-.01-.01-.03-.01-.04-.01h-.01l.09-.06zm-5.89 20.05c.02.01.03.01.05.01h.06l-.06.07-.05-.08zm5.93-14.88c0 .04-.01.09-.01.13-.01.14-.02.27-.02.4-.01.1-.02.2-.02.3v.01c-.01.07-.01.14-.02.21-.01.14-.03.28-.04.42 0 .03-.01.07-.01.1l-.06.51c0 .02-.01.05-.01.07a23.13 23.13 0 0 1-.94 4.05c-.28.86-.61 1.71-.99 2.54l-.24.51c-.14.28-.28.56-.43.83-.07.13-.14.25-.21.38l-.03.06c-.01.02-.02.04-.03.05-.07.13-.15.26-.22.38-.01.01-.01.02-.02.03a.3.3 0 0 0-.04.08l-.21.33c-.03.05-.06.09-.09.14-.06.09-.12.19-.19.29-.04.06-.08.12-.12.17-.06.08-.11.17-.17.25-.05.07-.09.14-.14.21l-.15.21c-.06.08-.11.15-.16.23-.05.06-.09.13-.14.19-.06.08-.12.16-.19.24-.04.06-.09.11-.13.17-.07.08-.13.16-.2.25l-.13.16c-.07.08-.14.17-.21.25-.04.05-.09.1-.13.16-.04.04-.08.09-.12.13l-.03-.06c-.03-.07-.07-.15-.1-.22-.03-.06-.05-.12-.08-.18s-.05-.12-.08-.18c-.03-.08-.06-.15-.09-.23a.694.694 0 0 1-.05-.13c-.04-.1-.07-.19-.11-.29-.01-.03-.02-.05-.03-.08-.04-.12-.08-.23-.12-.35 0-.01-.01-.02-.01-.03-.26-.8-.45-1.63-.58-2.48v-.01c-.02-.13-.03-.26-.05-.39 0-.02-.01-.04-.01-.05l-.03-.33c0-.04-.01-.08-.01-.12-.01-.08-.01-.17-.02-.25 0-.07-.01-.13-.01-.19 0-.05 0-.1-.01-.15a12.068 12.068 0 0 1 .01-1.56c0-.04 0-.09.01-.13.01-.08.01-.16.02-.25s.01-.17.02-.26c.01-.05.01-.1.02-.16.01-.12.03-.23.04-.35 0-.02.01-.05.01-.07.5-3.68 2.33-6.94 4.99-9.28.17-.15.35-.3.53-.44.12-.09.23-.18.35-.27.01-.01.02-.02.04-.03.1-.07.2-.15.3-.22.04-.03.09-.07.14-.1.07-.05.15-.1.22-.15.07-.05.14-.09.21-.14l.09-.06.03.17c.01.04.01.08.02.12.02.11.03.22.04.33.01.05.01.09.02.14.01.11.03.21.04.32.01.05.01.1.02.15l.03.32c.01.05.01.1.01.14.01.11.02.23.02.35 0 .04.01.08.01.11.01.14.02.28.02.42v.08c.01.27.02.54.02.8v.12c0 .21 0 .43-.01.64-.02.22-.02.38-.03.54zm-.2 2.15a23.13 23.13 0 0 1-.94 4.05c-.28.86-.61 1.71-.99 2.54l.55.23c.82-1.79 1.42-3.69 1.78-5.63l-.4-1.19zM52 61.42c-.06.03-.12.07-.18.1l.2.22-.02-.32zm-2.77 1.31l.28.25-.06-.33c-.07.02-.15.05-.22.08zm-3.13 1l.63.45c.1-.03.21-.05.31-.08l-.17-.57c-.26.07-.52.14-.77.2zm9.91-4.61l-.37-.2-.45-.24c-.15-.08-.3-.15-.45-.22a15.679 15.679 0 0 0-19.53 5.34l-.24.34a.16.16 0 0 0-.02.15c.02.05.06.08.11.09l.41.09c1.64.35 3.34.52 5.03.52.62 0 1.24-.02 1.85-.07.07-.01.15-.01.22-.02.59-.05 1.16-.12 1.74-.22.16-.02.31-.05.46-.08.45-.08.91-.17 1.35-.28.2-.04.39-.09.58-.15.1-.03.21-.05.31-.08.15-.04.29-.08.44-.13.6-.18 1.19-.38 1.77-.61l.75-.3c.62-.26 1.22-.55 1.81-.86.23-.12.45-.24.68-.37.55-.31 1.09-.65 1.62-1 .13-.08.25-.17.38-.26.06-.04.12-.08.18-.13.16-.11.32-.23.47-.35.19-.14.38-.29.57-.44l.33-.26c.04-.03.06-.08.06-.14.01-.05-.01-.1-.06-.12zm-20.57 5.03l-.09-.02.05-.07c0 .02.01.03.01.05.01.01.02.02.03.04zm19.59-4.73c-.06.04-.11.08-.16.13-.06.04-.12.09-.18.14-.01.01-.02.02-.03.02-.07.05-.14.1-.21.16-.05.04-.1.08-.15.11-.05.04-.1.07-.15.11-.04.03-.09.07-.14.1-.02.02-.05.03-.07.05-.05.04-.11.08-.16.11-.43.29-.87.57-1.32.83-.15.08-.3.17-.44.25-.06.03-.12.07-.18.1-.14.08-.28.15-.42.22-.5.26-1 .5-1.51.72-.14.06-.29.12-.44.18-.07.03-.15.06-.22.09-.16.07-.32.13-.48.19-.47.18-.96.34-1.44.48-.15.04-.29.09-.44.13-.26.07-.51.14-.77.2-.2.05-.4.09-.6.14-.32.07-.63.13-.95.18-.15.03-.31.05-.46.08-1.02.16-2.04.25-3.08.27-.17 0-.34.01-.5.01h-.01c-.2 0-.4 0-.6-.01-.09 0-.18-.01-.27-.01-.11-.01-.22-.01-.33-.01-.11-.01-.22-.01-.33-.02-.09-.01-.18-.01-.27-.02l-.35-.03c-.08-.01-.17-.02-.25-.02-.11-.01-.23-.03-.34-.04l-.26-.03c-.11-.02-.22-.03-.33-.05-.09-.01-.18-.02-.27-.04-.1-.02-.21-.03-.31-.05-.1-.02-.19-.03-.29-.05-.1-.02-.19-.04-.29-.05-.06-.01-.12-.02-.18-.04.02-.02.03-.04.04-.06.05-.08.11-.15.17-.23.04-.04.07-.09.11-.14.05-.07.11-.14.17-.22l.11-.14c.06-.07.12-.14.17-.21.04-.05.08-.09.12-.14.06-.07.12-.14.18-.2.04-.04.08-.09.12-.13.07-.07.13-.14.19-.2.04-.04.08-.08.11-.12l.21-.21.1-.1c.08-.08.16-.15.24-.22.03-.02.05-.05.08-.08l.27-.24c.02-.02.04-.03.05-.04.1-.09.21-.18.31-.26.01-.01.01-.01.02-.01 2.43-1.97 5.43-3.16 8.6-3.36.04 0 .09 0 .13-.01.11-.01.21-.01.32-.02.15-.01.3-.01.45-.01h.01c.16 0 .31 0 .47.01.1 0 .2.01.3.01.05 0 .1.01.16.01l.42.03h.03c1.36.13 2.7.43 3.97.91.01.01.02.01.04.01.12.05.24.09.36.14.03.01.07.03.1.04.1.04.2.08.29.13.05.02.1.05.15.07.08.04.16.07.23.11.02.01.04.02.07.03.05.02.09.04.14.07.07.03.13.06.19.1.04.02.07.04.1.06l-.12.09zm.55-.09v-.07c0-.01-.01-.02-.01-.03v-.01l.08.04-.07.07zm-8.71 4.2c-.26.07-.51.14-.77.2l.63.45c.1-.03.21-.05.31-.08l-.17-.57zm2.58-.89c-.07.03-.15.06-.22.09l.28.25-.06-.34zM52 61.42c-.06.03-.12.07-.18.1l.2.22-.02-.32z"/><path d="M68.08 41.9l-.33-.09h-.01l-.36-.1c0-.09.01-.17.01-.25-.03 0-.06-.01-.09-.01l-.27-.72-.1.02a.16.16 0 0 0-.12.15l-.01.22c0 .21-.01.43-.02.68v.02l-.01.2c0 .07.04.14.11.16l1.8.49c.13-.17.25-.34.38-.51l-.98-.26zm-.39 1.94l.23-.03c.14-.22.29-.43.44-.65l-1.25.14.58.54zm-5.75 14.21l-.77-.4-.25-.13a.156.156 0 0 0-.19.04l-.02.02-.13.15c-.14.16-.28.33-.45.51l-.13.17c-.05.05-.05.13-.01.19l.33.48.35.49.23.33.75.03-.78-1.11-.2-.28c.1-.12.2-.23.3-.34l.06.03 1.16.6.57.3-.24-.79-.58-.29zm-2.32 1.67l-.43-.28a.151.151 0 0 0-.19.02l-.16.15c-.06.06-.12.12-.19.18-.1.09-.2.19-.31.28l-.16.15c-.05.05-.07.13-.03.19l.18.32.45.78.25.43c.21-.03.43-.05.64-.07l-.25-.43-.04-.08-.54-.94.03-.03-.07-.04.1.01c.09-.08.17-.16.26-.25l.43.28.33.01.52.02.04-.16-.66-.43-.2-.11zm-2.36 1.47c-.06-.05-.14-.05-.19 0l-.17.14c-.13.1-.33.26-.54.42l-.18.13c-.05.04-.07.1-.06.17 0 .01.01.02.01.02l.18.4c.19-.05.39-.1.58-.14l-.08-.19c.12-.1.25-.19.36-.28l.41.32c.26-.05.52-.09.78-.13l-.49-.39-.61-.47zm-2.28 1.52l-.19.12c-.07.05-.14.09-.21.14.21-.07.42-.14.63-.2l-.04-.04c-.05-.05-.13-.05-.19-.02zm-7 3.26l-.21.06c-.01 0-.02.01-.04.01-.22.06-.43.12-.62.17l-.22.05c-.07.02-.12.08-.11.16l.01.36.02.59.57-.48v-.14c.09-.02.18-.05.27-.08.2-.15.4-.31.61-.46l-.1-.18c-.03-.05-.11-.08-.18-.06zm-2.22.98l-.11-.27c-.03-.07-.1-.1-.17-.09l-.22.04c-.13.02-.26.05-.4.07-.09.01-.19.03-.28.04l-.22.04c-.07.01-.13.07-.13.14l-.12 1.59-.04.63c.07.03.14.05.2.08.14-.15.28-.31.42-.46v-.03l.1-1.43c.15-.02.3-.05.45-.08l.3.68.19.45c.15-.15.3-.29.46-.43l-.19-.44-.24-.53zm-2.42.91l-.26-.81c-.02-.07-.09-.11-.16-.11l-.09.01-.13.01-.37.03c-.1.01-.2.01-.31.02l-.22.01c-.07 0-.13.06-.15.13l-.08.46-.01.05-.07.41.56.23.08-.46v-.02l.04-.24c.07 0 .15-.01.22-.01h.01c.08-.01.15-.01.22-.02l.15.47.03.1.18.57.52.22c.06.02.12.04.17.07h.01l-.23-.73-.11-.39zm-2.72-.06l-.02-.09-.11-.54c0-.01 0-.01-.01-.01a.163.163 0 0 0-.15-.11h-.22c-.22 0-.44-.01-.68-.02l-.22-.01h-.01c-.07 0-.13.05-.15.11l-.37 1.35-.16.59-.22.8c.04-.06.08-.13.13-.2.04-.06.11-.08.17-.06l.35.1.15-.54.16-.59.27-.97c.07 0 .14.01.21.01h.24l.23 1.05.07.33.02.09v.01l.07.34h.01c.07.02.13-.01.17-.07.01-.01.01-.01.01-.02l.21-.46.06-.14-.21-.95zm-2.86-.89l-.22-.02c-.2-.02-.44-.05-.68-.09l-.03-.01h-.02l-.17-.02h-.04c-.06.01-.1.04-.12.1l-.19.49c.2.02.41.03.61.06v-.01l.21.03c.01 0 .03 0 .04.01.07.01.13.02.2.02v.01c.13.01.25.03.38.04l.06 1.32c0 .08.06.14.13.15l.2.03-.22-1.96a.17.17 0 0 0-.14-.15zm-2.43-.24c0-.07-.05-.14-.12-.15l-.22-.05c-.25-.05-.47-.11-.67-.15l-.22-.05c-.07-.02-.14.02-.17.08l-.16.31-.31.61c.2-.01.41-.01.61-.01h.05l.17-.34c.14.03.28.07.44.1l.01.25c.2.01.39.01.59.02l-.01-.61v-.01zm-2.62-.79l-.21-.07c-.19-.06-.39-.13-.58-.19l-.28-.1c-.07-.03-.15 0-.18.06l-1.63 2.58.55-3c.01-.07-.02-.14-.09-.17l-.2-.09c-.2-.09-.41-.18-.63-.28l-.2-.09a.168.168 0 0 0-.19.04l-1.87 2.41.84-2.94c.02-.07-.01-.14-.08-.18l-.19-.11c-.19-.1-.38-.21-.6-.34l-.19-.11a.142.142 0 0 0-.19.03l-1.15 1.22-.4.42-.04.03-.52.55.31-.79v-.01l.12-.3.4-1.01.11-.29.17-.44c.03-.07.01-.14-.05-.19l-.18-.13c-.15-.1-.29-.2-.43-.31-.04-.03-.08-.06-.13-.09l-.18-.13a.166.166 0 0 0-.2.01l-.04.04-.2.17-.52.45-.01.01-.58.5-.2.17-.24.21c.1.17.2.35.29.53l.24-.21.47-.4.32-.28.01-.01.03-.03.29-.25.26-.23c.12.09.25.17.37.26l-.19.48-.13.32-.12.3v.01l-.41 1.03.53.1-.3.5c-.01.01-.01.02-.02.03-.01.04-.01.08.01.11.02.05.06.08.11.09l.55.12.25-.27v-.01l.25-.26 1.3-1.37c.14.08.27.15.39.22l-.85 2.97-.08.28c-.02.07.01.15.08.18l.06.03c.01.01.03.01.04.02.14.08.29.15.43.22.02.01.03.01.05.02.05.01.11-.02.14-.06l.36-.47 1.72-2.2c.14.07.28.13.41.19l-.57 3.15-.03.19c-.01.07.03.14.1.17.14.06.28.12.43.17l.34-.06.43-.68.56-.89.42-.66.38-.6c.14.05.28.1.43.14l-.03.39-.05.61c.2-.02.4-.03.6-.03l.05-.61.05-.65c.02-.05-.03-.12-.09-.14zm-9.68-3.37l.16-.3.07-.13.46-.9c.01-.01.01-.02.01-.02.02-.06.01-.13-.04-.17l-.17-.14-.2-.17c-.11-.09-.22-.19-.32-.27l-.06-.06-.1-.09c-.05-.05-.14-.05-.2-.01l-.41.29-.04.03-.4.29-.15.1-.25.18c.11.16.22.32.33.49l.25-.18.51-.36.22-.15c.04.04.09.08.13.12h.01l.2.17-.11.21v.01l-.16.3-.26.51-.17.33c.13.2.24.4.36.6l.17-.33.16-.35zm-1.31-2.96l.08-.13c.03-.05.03-.1.01-.15 0-.01-.01-.02-.01-.02 0-.01-.01-.01-.01-.02l-.12-.12-.01-.01-.03-.03c-.16-.17-.31-.32-.44-.46l-.01-.01-.03-.03-.1-.11-.05-.05c-.02-.02-.04-.03-.06-.04 0 0-.01 0-.01-.01a.118.118 0 0 0-.1.01c-.01 0-.01.01-.02.01l-.4.23-.22.13c.02.01.04.01.06.01l.15-.01c-.02.16-.05.31-.08.47.03.03.05.07.08.1l.32-.18.09-.05c.04.04.08.09.13.14.06.06.12.13.18.19l-.03.05-.25.39-.02.04c-.02.11-.05.23-.08.34 0 .01 0 .02-.01.03l.3.39.01-.02.18-.28.11-.16.39-.6v-.04zm-1.78-2.38l-.03-.03c-.05-.06-.1-.13-.15-.19l-.01-.01c-.09-.11-.18-.23-.26-.34l-.14-.18c-.02-.02-.04-.04-.06-.05-.01-.01-.02-.01-.03-.01a.118.118 0 0 0-.1.01l-.75.33.51-.09-.1.55.26-.12c.07.09.14.19.21.28l.27-.04-.12.57c-.01.05 0 .1.04.14.03.03.07.05.12.05l.27-.34.04-.05.12-.15c.04-.05.04-.14 0-.19l-.09-.14zm-1.4-1.92c0-.01-.01-.02-.01-.03l-.12-.19c-.03-.04-.06-.09-.09-.14a.55.55 0 0 0-.07-.09c-.05-.09-.11-.17-.16-.26-.02-.03-.03-.05-.05-.08v-.01l-.12-.19a.162.162 0 0 0-.18-.07l-.23.08-.32.11-.06.02-1.05.35c.01.04.02.08.06.1.04.03.09.04.14.03l.57-.16-.03.41.32-.11.06-.02.1-.03.31-.1.06.1.01.01c.05.08.1.17.16.26 0 .01.01.01.01.02l-.31.32-.04.34c-.01.05.01.1.05.13s.09.05.14.04l.23-.05.39-.4.01-.01.2-.2c.04-.06.05-.13.02-.18zm-2.1-1.43l.33-.28.41-.34c.05-.05.07-.13.04-.19l-.1-.2c-.08-.15-.15-.31-.23-.46-.02-.05-.05-.1-.07-.15l-.1-.2c-.02-.05-.07-.08-.12-.09a.064.064 0 0 0-.06 0l-1.4.32-.45.1-.27.06-.31.07h-.01l.02.43.55-.22c.05-.02.1-.01.14.01.04.03.07.08.07.13v.07h.01l.31-.07.66-.15.46-.1c.01.01.01.02.02.03.05.1.1.2.15.31.01.02.02.05.03.07l-.54.46-.32.27h-.01l-.32.27v.2c0 .05.02.1.06.13.04.03.09.04.14.02l.48-.15.38-.32.05-.03zM67.4 41.26l.5-.11.97-.21.83-.18.54-.12.02-.01.56-.12c.02 0 .03-.01.05-.02.05-.03.08-.08.08-.13 0-.19-.01-.37-.01-.56a.16.16 0 0 0-.13-.15l-.52-.09-.56-.1-2.38-.41-.03-.45 2.44-.78.56-.18.25-.08h.01l.07-.02c.07-.02.11-.09.11-.16-.01-.14-.03-.28-.05-.42-.01-.04-.01-.09-.02-.13a.17.17 0 0 0-.14-.14l-.21-.02-.56-.04-2.73-.19c-.02-.15-.05-.29-.07-.43v-.02l.93-.4 1.91-.83.38-.16c.07-.03.1-.1.09-.17l-.12-.54c-.01-.02-.01-.03-.02-.05a.17.17 0 0 0-.13-.07l-.17.01-.49.01-2.61.07-.22.01c-.03-.14-.08-.28-.12-.44L68.97 32l.48-.27c.07-.04.09-.12.07-.19l-.01-.02c-.03-.08-.06-.17-.08-.25-.03-.09-.06-.17-.08-.26a.157.157 0 0 0-.11-.1h-.05l-.27.03-3.19.4c-.05-.14-.1-.28-.16-.42l2.87-1.99c.06-.04.08-.12.06-.19l-.04-.09c-.01-.03-.02-.06-.04-.08-.03-.07-.06-.15-.1-.22-.02-.04-.03-.08-.05-.12a.15.15 0 0 0-.14-.09h-.04l-3.4.77c-.08-.15-.14-.28-.2-.41l2.66-2.25c.06-.05.07-.13.04-.2l-.03-.05c-.08-.15-.16-.3-.25-.44a.156.156 0 0 0-.19-.07l-3.3 1.1c-.07-.12-.15-.24-.24-.38l2.42-2.49c.05-.05.06-.14.02-.2-.11-.15-.21-.31-.33-.46a.146.146 0 0 0-.09-.06.118.118 0 0 0-.1.01l-3.17 1.42c-.1-.13-.19-.24-.28-.36l.83-1.05.61-.77.71-.9c.05-.06.04-.14 0-.2l-.36-.42c-.01 0-.01-.01-.01-.01-.02-.03-.06-.04-.09-.05-.03-.01-.07 0-.1.02l-.14.08-2.87 1.63c-.11-.12-.21-.22-.31-.33l1.88-2.91c.04-.06.03-.14-.02-.2-.14-.13-.28-.27-.42-.4a.128.128 0 0 0-.1-.04c-.04 0-.07.01-.1.03l-.08.06-.74.53-2 1.41c-.12-.1-.23-.2-.34-.29l1.58-3.07c.03-.07.02-.15-.04-.19-.15-.12-.3-.24-.45-.35a.193.193 0 0 0-.1-.03c-.04 0-.07.01-.1.04l-2.61 2.26c-.12-.09-.24-.17-.37-.26l1.27-3.2c.03-.07 0-.15-.06-.19-.16-.1-.33-.21-.49-.31-.03-.02-.07-.03-.1-.02-.03.01-.07.02-.09.05l-2.37 2.49c-.12-.07-.25-.14-.39-.22l.21-.73.08-.27.66-2.3c.02-.07-.01-.15-.08-.18-.13-.07-.25-.13-.38-.19l-.14-.07c-.02-.01-.03-.01-.05-.02-.05-.01-.1.02-.14.06l-.3.38-.43.55-.87 1.11-.51.66c-.13-.06-.27-.12-.41-.19l.21-1.14.15-.8.18-.97.08-.45a.162.162 0 0 0-.1-.17c-.03-.01-.07-.03-.1-.04-.15-.06-.29-.12-.44-.17-.02-.01-.03-.01-.05-.01-.05 0-.1.03-.13.07l-1.03 1.63-.01.01-.5.8-.16.25-.13.2c-.08-.03-.15-.05-.22-.08-.07-.02-.14-.05-.21-.07l.18-2.15.07-.84.02-.2.02-.22c.01-.07-.04-.14-.11-.16a.292.292 0 0 0-.09-.02c-.16-.05-.32-.09-.48-.13-.02-.01-.04-.01-.05 0-.05 0-.1.03-.13.08l-.08.15-.27.54-.02.04-.18.36-.85 1.7-.13.25c-.14-.03-.29-.07-.44-.1l-.05-3.4c0-.08-.06-.14-.13-.15-.19-.04-.39-.07-.59-.1h-.02c-.07 0-.13.04-.15.1l-.03.09-.36.93-.36.93-.01.03-.23.61-.01.04-.21.56c-.14-.02-.29-.04-.45-.06l-.01-.05-.04-.33-.04-.37-.03-.24-.13-1.11-.09-.79-.05-.47a.17.17 0 0 0-.14-.14c-.16-.01-.33-.03-.49-.04-.04 0-.07-.01-.11-.01a.16.16 0 0 0-.16.12l-.15.55-.57 2.1-.17.62c-.15-.01-.3-.01-.45-.01l-.12-.56-.59-2.74c-.02-.07-.08-.13-.16-.12-.2 0-.4.01-.6.02a.16.16 0 0 0-.15.13l-.46 2.72-.1.61c-.03 0-.06.01-.09.01l-.36.03-.01-.04-.21-.64-.81-2.53a.157.157 0 0 0-.11-.1h-.05c-.2.02-.4.04-.6.07a.17.17 0 0 0-.14.14l-.16 2.2-.05.64-.04.52c-.05.01-.12.02-.17.03-.03.01-.06.01-.09.01l-.18.03-.32-.73-.31-.72-.71-1.64c-.02-.05-.07-.09-.12-.09h-.05l-.41.09c-.06.01-.12.03-.18.04-.07.02-.12.08-.12.16l.02.55.01.51.02.68.04 1.62c-.16.04-.3.08-.44.12l-1.63-2.94a.178.178 0 0 0-.08-.07c-.02-.01-.03-.01-.05-.01-.02 0-.04 0-.05.01l-.54.18c-.01 0-.03.01-.04.01-.05.02-.09.06-.1.11-.01.02-.01.04-.01.06l.4 3.13.02.2c-.14.05-.28.1-.42.16l-.05-.08-.41-.58-1.45-2.09a.146.146 0 0 0-.09-.06.118.118 0 0 0-.1.01c-.19.08-.38.16-.56.25-.07.03-.1.1-.09.17l.19.83.17.76.38 1.67c-.13.07-.27.13-.4.2l-1.77-2.09-.39-.46c-.04-.04-.09-.06-.14-.05-.02 0-.03.01-.05.02-.01 0-.02.01-.02.01l-.5.28c-.01.01-.02.01-.02.01-.06.04-.09.12-.07.18l.37 1.12.07.22.61 1.84c-.01.01-.02.01-.03.02-.12.08-.23.15-.35.22l-2.39-2.32a.122.122 0 0 0-.09-.04c-.04 0-.07.01-.1.03-.01.01-.02.01-.02.02-.08.06-.17.12-.25.18-.07.04-.13.09-.19.13-.02.01-.03.02-.05.03-.06.04-.08.12-.05.19l.07.34 1.2 2.69c-.11.08-.22.17-.36.28l-2.6-2.07c-.03-.03-.08-.03-.12-.03-.03 0-.05.01-.08.03-.01.01-.03.02-.04.04l-.4.34c-.01.01-.02.02-.04.03-.05.05-.07.13-.03.2l1.65 2.89c-.12.11-.23.21-.33.31l-2.79-1.8c-.03-.02-.07-.03-.1-.02a.19.19 0 0 0-.1.05l-.05.05c-.12.13-.24.25-.36.38l-.02.02c-.05.05-.05.14-.01.2l1.27 1.79.65.91c-.04.05-.09.09-.13.14-.06.06-.12.13-.17.19l-1.86-.95-.87-.45-.22-.12c-.02-.01-.03-.02-.05-.02a.147.147 0 0 0-.14.05c-.13.16-.26.33-.39.5-.05.06-.04.14.01.2l2.17 2.5c-.09.13-.18.25-.26.37l-3.08-1.22c-.02-.01-.03-.01-.05-.01-.05 0-.1.03-.14.07-.11.17-.23.35-.34.53-.04.06-.03.15.02.2l2.4 2.28c-.02.04-.05.09-.07.13l-.15.27-3.18-.91h-.02a.148.148 0 0 0-.16.08c-.1.19-.19.37-.28.56-.03.07-.01.15.04.19l2.61 2.03-.19.41-3.25-.59a.168.168 0 0 0-.17.09c-.03.09-.07.17-.1.26-.04.11-.09.22-.13.32-.03.07 0 .15.06.19l.99.63 1.81 1.14c-.02.04-.03.09-.04.13l-.06.18c-.01.04-.03.08-.04.12l-.4-.03-.27-.02-.32-.03-.32-.03-1.65-.14-.33-.03h-.02a.15.15 0 0 0-.15.11l-.03.1c-.05.17-.09.33-.14.5-.02.07.01.15.08.18l.98.49.86.43 1.12.56c-.04.15-.07.3-.1.44l-.52.01-.56.02-2.23.03c-.07 0-.13.05-.15.11 0 .01-.01.01-.01.02-.04.21-.07.41-.11.62v.02c0 .06.04.12.1.15l.24.09 1.89.73.96.37c-.02.15-.04.3-.05.45h-.01l-.79.09-2.49.28a.16.16 0 0 0-.14.14c-.02.21-.03.42-.05.63 0 .08.04.14.12.16l3.19.87v.11c0 .07 0 .13-.01.2v.15l-3.24.7c-.07.02-.13.08-.13.15 0 .21.01.42.01.63 0 .07.05.14.13.15l3.26.56.03.45-3.16 1.01c-.07.02-.12.09-.11.16.02.21.05.42.07.62.01.07.07.13.14.14l3.31.24c.01.05.02.1.03.16.02.1.03.19.05.29l-.81.35-2.23.97c-.07.03-.11.1-.09.17.03.13.05.26.08.38.02.08.03.15.05.23.01.05.04.08.09.1.01 0 .01.01.01.01h.03c.01 0 .02.01.03.01h.01l.23-.01 3.08-.08c.04.16.08.3.12.44l-.69.39-2.21 1.23c-.06.03-.09.1-.08.17v.01c.05.14.09.29.14.43.02.05.03.11.05.16.01.03.03.05.05.07.02.02.04.03.06.03h.05l1.76-.22.59-.07.81-.1.14-.02c.05.14.1.26.15.39.01.01.01.02.01.03l-.57.39-.43.3-.84.58-.3.21-.01.01-.3.2-.29.2c-.06.04-.08.12-.05.19.01.02.02.03.02.05.07.16.14.32.21.49 0 .01.01.02.01.03 0 .01.01.01.01.01.02.04.07.07.12.08h.05l.43-.1.31-.07 1.07-.24h.01l.31-.07.66-.15.46-.1c.01.01.01.02.02.03.05.1.1.2.15.31.01.02.02.05.03.07l-.54.46-.32.27h-.01l-.32.27-.31.26-.25.21-.02.02-.26.22-.09.08-.44.37c-.06.05-.07.13-.04.2l.3.54c.03.05.08.08.13.08.02 0 .04 0 .05-.01l1.2-.4.37-.12.03-.01.35-.12.42-.14.32-.11.06-.02.1-.03.31-.1.06.1.01.01c.05.08.1.17.16.26 0 .01.01.01.01.02l-.31.32-.36.37-.22.22-.02.02-.23.24-1.19 1.23c-.05.05-.06.14-.02.2.12.17.23.34.35.51.02.03.05.05.09.06.03.01.07.01.1-.01l1.89-.84.32-.14.03-.01.3-.14.25-.11.26-.12c.07.09.14.19.21.28.02.03.04.05.06.08l-.31.38-.2.25-.02.02-.21.26-1.36 1.71c-.05.06-.04.14 0 .2.13.16.26.31.4.47.02.03.05.04.09.05.03.01.07 0 .1-.02l1.92-1.09.29-.16.02-.01.16-.09.11-.06.32-.18.09-.05c.04.04.08.09.13.14.06.06.12.13.18.19l-.03.05-.25.39-.02.04-.15.24-.02.02-.19.29-.66 1.02-.49.77c-.04.06-.03.15.02.2l.13.13c.1.1.21.2.31.3.04.04.1.05.15.04.02-.01.03-.01.05-.02l.03-.02 1.44-1.02.27-.19.02-.01.25-.18.51-.36.22-.15c.04.04.09.08.13.12h.01l.2.17-.11.21v.01l-.16.3-.26.51-.17.33-.01.02-.18.34-.54 1.2c-.03.07-.02.15.04.19.16.13.32.25.48.38.03.02.07.03.1.03.04 0 .07-.01.1-.04l.65-.56.26-.22.02-.02.24-.21.47-.4.32-.28.01-.01.03-.03.29-.25.26-.23c.12.09.25.17.37.26l-.19.48-.13.32-.12.3v.01l-.41 1.03-.14.34-.16.4-.01.04-.09.22c-.03.07 0 .15.06.19l.28.19c.01.01.03.02.04.03l.18.12c.03.02.07.03.1.02.04 0 .07-.02.09-.05l.52-.55.25-.27v-.01l.25-.26 1.3-1.37c.14.08.27.15.39.22l-.85 2.97-.08.28c-.02.07.01.15.08.18l.06.03c.01.01.03.01.04.02.14.08.29.15.43.22.02.01.03.01.05.02.05.01.11-.02.14-.06l.36-.47 1.72-2.2c.14.07.28.13.41.19l-.57 3.15-.03.19c-.01.07.03.14.1.17.14.06.28.12.43.17.04.02.08.03.13.05.02.01.04.01.05.01.05 0 .11-.03.14-.07l.03-.04.43-.68.56-.89.42-.66.38-.6c.14.05.28.1.43.14l-.03.39-.05.61-.2 2.39c-.01.07.04.14.11.16.19.05.38.11.57.16h.01c.07.01.14-.02.17-.08l1.35-2.7.17-.34c.14.03.28.07.44.1l.01.25.04 2.76.01.4c0 .07.05.14.13.15.14.03.28.05.42.08.05.01.11.02.17.03h.02c.02 0 .05-.01.07-.02.04-.02.06-.04.08-.08l.2-.51 1.02-2.67v-.01l.21.03c.01 0 .03 0 .04.01.07.01.13.02.2.02v.01l.32 2.81.07.58c0 .02.01.03.01.05.02.05.07.08.13.09h.01l.33.03c.09.01.17.01.25.02h.01c.02 0 .03 0 .04-.01h.01c.05-.02.09-.05.1-.11l.03-.1.1-.37.08-.29.12-.44.15-.54.16-.59.27-.97c.07 0 .14.01.21.01h.24l.23 1.05.07.33.02.09v.01l.07.34.15.72.11.51.04.2.02.09c.01.05.04.09.09.11.01 0 .01 0 .01.01.01 0 .02 0 .03.01h.09c.13 0 .25 0 .38-.01h.14c.07 0 .13-.05.15-.13l.13-.74.31-1.8.02-.12.08-.46v-.02l.04-.24c.07 0 .15-.01.22-.01h.01c.08-.01.15-.01.22-.02l.15.47.03.1.18.57v.05l.45 1.42.17.53.05.14c.02.07.09.12.16.11.19-.02.38-.04.57-.07.05-.01.09-.03.11-.08.02-.02.02-.04.02-.07l.07-.95.02-.3.01-.13.04-.61v-.03l.1-1.43c.15-.02.3-.05.45-.08l.3.68.19.45.44 1.02.37.86.07.16c.03.07.1.1.17.09h.01c.01 0 .02-.01.03-.01.16-.03.31-.07.47-.1l.06-.01c.07-.02.13-.08.12-.16l-.01-.18-.09-3.14v-.14c.09-.02.18-.05.27-.08.05-.01.11-.03.16-.04l1.68 3.03c.03.05.09.08.15.08.01 0 .02 0 .03-.01.18-.05.36-.11.54-.17.07-.02.11-.09.1-.17l-.43-3.44c.14-.05.28-.1.42-.16l1.97 2.85c.02.03.05.05.09.06.03.01.07.01.1-.01.17-.08.35-.15.52-.23.07-.03.1-.1.09-.18l-.32-1.4-.45-1.99c.11-.05.23-.11.34-.17l.06-.03 2.25 2.65c.04.04.09.06.14.05.02 0 .03-.01.05-.02.16-.09.33-.18.49-.27a.17.17 0 0 0 .07-.19l-1.1-3.3c.12-.07.24-.15.38-.24l2.5 2.42c.03.03.06.04.1.04.03 0 .07-.01.1-.03.16-.11.31-.21.46-.32.06-.04.08-.12.05-.19l-1.33-3-.08-.19c.12-.1.25-.19.36-.28l.41.32 2.32 1.84c.03.02.06.03.1.03.03 0 .07-.01.1-.04.14-.12.29-.24.43-.36.06-.05.07-.13.03-.2l-.9-1.58-.25-.43-.04-.08-.54-.94.03-.03c.01-.01.02-.02.04-.03.09-.08.17-.16.26-.25l.43.28.45.29.24.15.75.49.69.44.38.24c.02.01.03.02.05.02.05.01.11 0 .15-.04.07-.07.14-.14.21-.22.06-.06.12-.12.17-.19.05-.05.06-.14.01-.2l-.05-.07-.58-.82-.41-.58-.78-1.11-.2-.28c.1-.12.2-.23.3-.34l.06.03 1.16.6.57.3.34.18.41.21.57.29c.02.01.03.01.05.02.05.01.09-.01.13-.05.01 0 .01-.01.01-.01l.03-.04c.1-.13.21-.26.31-.39.05-.06.04-.14-.01-.2l-.47-.54-.19-.22-.34-.39-1.29-1.49c.09-.12.17-.24.26-.37l1.29.51.77.3 1.19.47c.02.01.03.01.05.01.05 0 .1-.02.14-.07.1-.15.2-.31.29-.46l.01-.01c.04-.07.03-.15-.03-.2l-2.54-2.41c.09-.15.16-.27.22-.39l3.37.96c.02 0 .04.01.06 0 .05 0 .1-.03.13-.08.08-.16.17-.33.25-.49.03-.07.01-.15-.04-.19l-2.61-2.03-.16-.12c.06-.14.12-.27.19-.42l.09.02 3.36.61h.05c.05-.01.1-.04.12-.09.07-.17.14-.34.2-.51.03-.07 0-.15-.06-.19l-2.97-1.87c.05-.14.09-.28.14-.43l3.5.29h.06c.05-.01.09-.05.11-.11l.15-.53c.02-.07-.01-.15-.08-.18l-3.14-1.57c.03-.15.07-.3.1-.44l3.51-.05c.08 0 .14-.05.15-.13.03-.18.06-.36.09-.55.01-.07-.03-.15-.1-.17l-2.4-.92-.48-.18-.4-.15.03-.19.03-.26.46-.05.23-.03.73-.08 2.06-.23a.17.17 0 0 0 .14-.14c.02-.19.03-.37.04-.55.01-.08-.04-.14-.11-.16l-1.1-.3-.59-.16-1-.27-.33-.09h-.01l-.36-.1c0-.09.01-.17.01-.25.08-.01.08-.07.08-.14zm1.3 1.42l.58.16.57.16-.74.09-.75.08-1.25.14-.3.03a.17.17 0 0 0-.14.14l-.02.18-.01.04c-.03.24-.06.46-.09.68l-.03.22c-.01.07.03.14.1.17l2.85 1.09-3.06.05a.15.15 0 0 0-.15.13l-.05.22c-.05.23-.1.45-.15.67l-.05.21c-.02.07.02.14.08.18l2.73 1.37-2.8-.23-.25-.02c-.07-.01-.14.04-.16.11l-.07.21c-.07.23-.14.45-.21.65l-.07.21c-.02.07 0 .15.06.19l.32.2 2.26 1.43-2.53-.46-.47-.09c-.03-.01-.07 0-.1.02-.03.01-.06.04-.07.08l-.09.2c-.07.15-.13.3-.2.45-.03.06-.05.12-.08.18l-.07.18c-.03.06-.01.13.04.18 0 .01.01.01.01.01l2.41 1.87-2.93-.84c-.07-.02-.14.01-.18.08l-.11.19c-.1.18-.21.37-.34.6l-.11.19c-.04.06-.03.14.03.19l2.22 2.1-1.13-.45-1.06-.42-.65-.26c-.07-.03-.14-.01-.19.05l-.12.18c-.14.2-.27.38-.4.56l-.13.18c-.04.06-.04.14.01.19l.29.34.24.27 1.19 1.37.28.32-.33-.17-.8-.41-.57-.29-.77-.4-.25-.13a.156.156 0 0 0-.19.04l-.02.02-.13.15c-.14.16-.28.33-.45.51l-.15.19c-.05.05-.05.13-.01.19l.33.48.35.49.23.33.41.58.44.62-1-.65-.27-.17-.66-.43-.2-.13-.43-.28a.151.151 0 0 0-.19.02l-.16.15c-.06.06-.12.12-.19.18-.1.09-.2.19-.31.28l-.16.15c-.05.05-.07.13-.03.19l.18.32.45.78.25.43.64 1.12-1.3-1.03-.49-.39-.61-.48c-.06-.05-.14-.05-.19 0l-.17.14c-.13.1-.33.26-.54.42l-.18.13c-.05.04-.07.1-.06.17 0 .01.01.02.01.02l.18.4 1.07 2.39-2.16-2.09-.04-.04a.151.151 0 0 0-.19-.02l-.19.12c-.07.05-.14.09-.21.14-.13.08-.25.16-.37.23l-.19.12c-.06.04-.09.11-.07.18l.96 2.9-1.97-2.33c-.05-.05-.13-.07-.19-.04l-.2.1c-.05.03-.1.05-.16.08-.16.08-.31.15-.46.23l-.2.1c-.03.02-.06.04-.07.08-.01.03-.02.06-.01.1l.67 2.97-1.73-2.51a.154.154 0 0 0-.19-.05l-.21.08c-.21.08-.43.16-.64.25l-.21.08c-.07.02-.11.09-.1.16l.38 3.03-1.38-2.49-.1-.18a.162.162 0 0 0-.18-.07l-.21.06c-.01 0-.02.01-.04.01-.22.06-.43.12-.62.17l-.22.05c-.07.02-.12.08-.11.16l.01.36.02.59.06 2.1-.67-1.55-.19-.44-.24-.53-.11-.27c-.03-.07-.1-.1-.17-.09l-.22.04c-.13.02-.26.05-.4.07-.09.01-.19.03-.28.04l-.22.04c-.07.01-.13.07-.13.14l-.12 1.59-.04.63-.02.33-.04.49-.1-.32-.22-.63-.23-.73-.13-.4-.26-.81c-.02-.07-.09-.11-.16-.11l-.09.01-.13.01-.37.03c-.1.01-.2.01-.31.02l-.22.01c-.07 0-.13.06-.15.13l-.08.46-.01.05-.07.41-.03.19-.22 1.29-.1.6-.23-1.06-.07-.32-.21-.98-.02-.09-.11-.54c0-.01 0-.01-.01-.01a.163.163 0 0 0-.15-.11h-.22c-.22 0-.44-.01-.68-.02l-.22-.01h-.02c-.07 0-.13.05-.15.11l-.37 1.35-.16.59-.22.8-.05.2-.01-.1-.11-.97-.22-1.96a.17.17 0 0 0-.14-.14l-.22-.02c-.2-.02-.44-.05-.68-.09l-.03-.01h-.02l-.17-.02h-.04c-.06.01-.1.04-.12.1l-.19.49-.91 2.36-.04-2.42-.01-.61v-.02c0-.07-.05-.14-.12-.15l-.22-.05c-.25-.05-.47-.11-.67-.15l-.22-.05c-.07-.02-.14.02-.17.08l-.16.31-.31.61-.9 1.8.15-1.77.05-.61.05-.65c.01-.07-.04-.14-.11-.16l-.21-.07c-.19-.06-.39-.13-.58-.19l-.28-.1c-.07-.03-.15 0-.18.06l-1.63 2.58.55-3c.01-.07-.02-.14-.09-.17l-.2-.09c-.2-.09-.41-.18-.63-.28l-.2-.09a.168.168 0 0 0-.19.04l-1.87 2.41.84-2.94c.02-.07-.01-.14-.08-.18l-.19-.11c-.19-.1-.38-.21-.6-.34l-.19-.11a.142.142 0 0 0-.19.03l-1.15 1.22-.4.42-.04.04-.52.55.31-.79v-.01l.12-.3.4-1.01.11-.29.17-.44c.03-.07.01-.14-.05-.19l-.18-.13c-.15-.1-.29-.2-.43-.31-.04-.03-.08-.06-.13-.09l-.18-.13a.166.166 0 0 0-.2.01l-.04.04-.2.17-.52.45-.01.01-.58.5-.2.17-.24.21-.02.02-.25.22-.25.21.17-.34.18-.35.01-.03.17-.33.17-.33.16-.3.07-.13.46-.9c.01-.01.01-.02.01-.02.02-.06.01-.13-.04-.17l-.17-.14-.2-.17c-.11-.09-.22-.19-.32-.27l-.06-.06-.1-.09c-.05-.05-.14-.05-.2-.01l-.41.29-.04.03-.4.29-.15.1-.25.18-.02.01-.27.19-.8.57-.15.11.22-.34.46-.72.19-.3.01-.02.18-.28.11-.16.39-.6.01-.02.08-.13c.03-.05.03-.1.01-.15 0-.01-.01-.02-.01-.02 0-.01-.01-.01-.01-.02l-.12-.12-.01-.01-.03-.03c-.16-.17-.31-.32-.44-.46l-.01-.01-.03-.03-.1-.11-.03-.06c-.02-.02-.04-.03-.06-.04 0 0-.01 0-.01-.01a.118.118 0 0 0-.1.01c-.01 0-.01.01-.02.01l-.4.23-.22.13-.18.1-.27.16-.02.01-.29.16-1.27.72.9-1.14.21-.26.02-.02.2-.25.14-.18.27-.34.04-.05.12-.15c.04-.05.04-.14 0-.19l-.12-.14-.01-.01-.02-.03c-.05-.06-.1-.13-.15-.19l-.01-.01c-.09-.11-.18-.23-.26-.34l-.14-.18c-.02-.02-.04-.04-.06-.05-.01-.01-.02-.01-.03-.01a.118.118 0 0 0-.1.01l-.75.33h-.01l-.29.13-.31.14-.03.01-.32.14-1.09.49.77-.79.23-.23.02-.02.22-.22.3-.31.39-.4.01-.01.2-.2a.15.15 0 0 0 .03-.17c0-.01-.01-.02-.01-.03l-.12-.19c-.03-.04-.06-.09-.09-.14a.55.55 0 0 0-.07-.09c-.05-.09-.11-.17-.16-.26-.02-.03-.03-.05-.05-.08v-.01l-.12-.19a.162.162 0 0 0-.18-.07l-.23.08-.32.11-.06.02-1.05.35-.24.08-.36.12-.03.01-.38.13-.23.08.16-.13.26-.22.02-.02.25-.21.5-.43.38-.32.03-.03.33-.28.41-.34c.05-.05.07-.13.04-.19l-.1-.2c-.08-.15-.15-.31-.23-.46-.02-.05-.05-.1-.07-.15l-.1-.2c-.02-.05-.07-.08-.12-.09a.064.064 0 0 0-.06 0l-1.4.32-.45.1-.27.06-.31.07h-.01l-.54.12.51-.36.02-.01.32-.2.46-.32.45-.31.63-.44.12-.08c.06-.04.08-.12.06-.19l-.08-.21c-.01-.02-.02-.04-.02-.06a8.08 8.08 0 0 1-.22-.59l-.08-.21c-.01-.02-.02-.04-.03-.05-.02-.02-.03-.03-.05-.04-.03-.01-.05-.02-.08-.01l-.22.03-.59.07-.8.1-.56.07-.85.11.72-.4.47-.26.54-.3.47-.26.13-.08.34-.19c.05-.03.08-.08.08-.13 0-.02 0-.03-.01-.05l-.08-.23c-.03-.09-.05-.18-.08-.28l-.09-.36-.05-.22c-.01-.05-.05-.09-.11-.11-.01-.01-.03-.01-.04-.01h-.01l-2.44.07-.61.02 1.47-.64 1.33-.58c.07-.03.1-.1.09-.17l-.04-.22-.03-.17c-.03-.17-.05-.34-.08-.5l-.02-.12-.02-.11c-.01-.07-.07-.13-.14-.13l-3.05-.22 2.91-.93c.07-.02.11-.09.11-.16l-.02-.22c-.02-.21-.03-.44-.05-.68l-.01-.22a.183.183 0 0 0-.13-.15l-3.01-.51 2.99-.65a.16.16 0 0 0 .12-.15v-.22c0-.21.01-.42.02-.68l.01-.22a.16.16 0 0 0-.12-.16l-2.95-.81 2.39-.27.64-.07c.04-.01.07-.02.09-.04.02-.02.04-.05.04-.09v-.03l.02-.19c.03-.24.06-.46.09-.68l.03-.21v-.01a.162.162 0 0 0-.06-.15c-.01-.01-.02-.02-.04-.02l-.62-.23-2.24-.86 1.88-.03.56-.01.62-.01c.07 0 .13-.05.15-.12l.05-.22c.03-.17.07-.33.11-.5.01-.05.03-.11.04-.17l.05-.22c.02-.07-.02-.14-.08-.17l-.37-.19-1.91-.95-.45-.22.31.03 1.5.12.64.05.2.02.41.03c.03 0 .07-.01.09-.02.03-.02.05-.05.07-.09l.07-.21c.08-.24.15-.46.22-.65l.08-.21c.02-.07 0-.14-.07-.18l-2.58-1.63 3 .55c.07.02.14-.02.17-.09l.09-.2c.11-.25.2-.45.28-.63l.09-.2c.03-.07.01-.14-.04-.19l-2.41-1.87 2.93.84c.07.02.14-.01.18-.07l.11-.2c.1-.18.22-.39.34-.6l.11-.19c.04-.06.03-.14-.03-.19l-2.22-2.1 2.84 1.12c.07.03.15 0 .19-.05l.13-.18.22-.31c.06-.08.12-.16.18-.25l.13-.18c.04-.06.04-.14-.01-.19l-1.07-1.23-.93-1.08.51.26.8.41 1.41.72c.07.03.14.02.19-.04l.14-.17c.02-.02.04-.05.06-.07.12-.14.25-.29.38-.43 0 0 0-.01.01-.01l.15-.16c.05-.05.05-.14.01-.2l-1.25-1.77-.52-.73.12.08 2.45 1.58c.06.04.14.03.19-.02l.16-.16c.15-.14.31-.29.5-.47l.16-.15c.05-.05.07-.13.03-.19l-1.51-2.66 2.39 1.9c.06.04.14.04.19 0l.17-.14c.21-.16.38-.3.54-.42l.15-.11.03-.02c.06-.04.08-.12.05-.19l-1.2-2.69-.04-.1 2.19 2.13c.05.05.13.06.19.02l.19-.12c.14-.09.28-.18.42-.26.05-.03.11-.07.16-.1l.19-.12c.04-.02.07-.06.07-.1 0-.03 0-.05-.01-.08l-.89-2.67-.08-.22.12.14 1.85 2.19c.05.05.13.07.19.04l.2-.1c.21-.11.41-.21.61-.31l.2-.1c.07-.03.1-.1.08-.17l-.01-.04-.35-1.54-.17-.74-.15-.65.57.83 1.16 1.68c.04.06.12.08.19.06l.21-.08c.02-.01.04-.02.06-.02.17-.07.33-.13.5-.19.03-.01.05-.02.08-.03l.21-.08c.07-.03.11-.09.1-.17l-.03-.26-.35-2.76 1.48 2.67c.04.07.11.09.18.08l.21-.06c.2-.06.41-.11.66-.18l.21-.06a.16.16 0 0 0 .12-.15l-.05-1.8-.02-.67-.02-.58.28.64.32.74.62 1.42c.03.07.1.1.17.09l.22-.04c.24-.04.48-.08.68-.11l.22-.03c.07-.01.13-.07.13-.14l.06-.83.04-.63.11-1.58.53 1.66.21.65.19.6c.02.07.09.11.16.11l.22-.02c.22-.02.44-.03.68-.05l.22-.01c.07-.01.13-.06.15-.13l.07-.41.1-.62.34-1.98.43 1.98.13.62.08.39c.02.07.08.12.15.13h.22c.22.01.45.01.68.02l.22.01c.07 0 .14-.04.16-.12l.14-.52.17-.64.47-1.71.02-.08.01.1.19 1.61.06.55.01.06.07.64.01.08c.01.07.07.13.14.14l.22.03c.22.03.45.05.68.09l.22.03c.07.01.14-.03.17-.1l.53-1.3.57-1.49.05-.14.01.32.02 1.16.02 1.57c0 .07.05.13.12.15l.22.05c.24.05.46.1.67.15l.22.05c.06.01.11 0 .15-.04.01-.01.02-.03.03-.04l.83-1.67.53-1.06-.03.32L48.3 14l-.12 1.43c0 .02 0 .03.01.05.01.05.05.1.1.12l.21.07c.19.06.38.13.58.19.01 0 .02.01.03.01.01.01.03.01.04.01l.21.07c.07.02.14 0 .18-.07l.14-.22.59-.94.89-1.41-.08.43-.13.69-.14.79-.2 1.1c-.01.07.02.14.09.17l.2.09c.23.1.43.19.63.28l.2.09c.07.03.15.01.19-.04l.55-.71.86-1.11.46-.59-.28.97-.4 1.42-.16.55c-.02.07.01.14.08.18l.19.11c.25.13.43.24.6.34l.19.11c.06.04.14.03.19-.03l2.1-2.21-1.12 2.84c-.03.07-.01.14.05.19l.18.13c.18.13.37.26.56.4l.18.13c.06.04.14.04.2-.01l2.31-2-1.4 2.72c-.03.07-.02.14.04.19l.17.14c.16.14.33.28.51.45l.16.15c.06.05.14.05.19.01l1.56-1.1.92-.65.01-.01-.02.03-1.64 2.54c-.02.03-.03.08-.02.12a.3.3 0 0 0 .04.08l.15.16c.14.15.29.31.47.49l.2.13c.05.05.13.07.19.03l2.66-1.51-.71.9-.82 1.03-.38.47c-.04.05-.04.14 0 .19l.14.17c.14.17.27.34.42.54l.13.18c.04.06.12.08.19.05l2.79-1.24-2.12 2.19c-.05.05-.06.13-.02.19l.12.19c.15.23.26.41.37.58l.12.19c.04.06.11.09.18.07l2.9-.96-2.33 1.97c-.06.05-.07.13-.04.19l.1.2c.09.17.19.36.31.61l.1.2c.03.07.1.1.17.08l2.98-.68-2.51 1.74c-.06.04-.08.12-.06.19l.08.21c.09.22.17.44.25.64l.08.21c.02.07.09.11.16.1l3.03-.38-2.66 1.47c-.06.03-.09.1-.08.17l.05.21c.01.02.01.04.02.06.01.02.01.04.02.06.06.2.11.4.15.56l.01.04.04.18c.02.07.08.12.16.12l2.46-.07.59-.02-1.99.86-.35.15-.46.2c-.07.03-.1.1-.09.17l.04.22c.01.07.03.15.04.23.01.03.01.07.02.1.02.11.04.22.06.34l.04.22c.01.05.04.09.08.11.02.01.04.02.06.02h.04l3.01.21-.62.2-2.29.73c-.07.02-.11.09-.11.16l.02.22c.02.22.03.44.05.68l.01.22c0 .07.06.13.13.15l1.99.34.82.14.21.04-.21.04-1.21.26-1.47.32-.1.02a.16.16 0 0 0-.12.15l-.01.22c0 .21-.01.43-.02.68v.02l-.01.2c0 .07.04.14.11.16l1.79.51zm-54.29-5.95c.02.05.04.11.06.16v-.01a.162.162 0 0 0-.06-.15zm.01 15.66v.04l.26-.1-.26.06zm.47-18.22l-.37-.19-1.91-.95c.22.31.42.63.59.96l1.12.56c-.04.15-.07.3-.1.44l-.52.01h-.56c.09.19.17.38.26.57 0 .01.01.01.01.02l.56-.01.62-.01c.07 0 .13-.05.15-.12l.05-.22c.03-.17.07-.33.11-.5.01-.05.03-.11.04-.17l.05-.22c0-.07-.03-.14-.1-.17zm.14 13.18l-.05-.22c-.01-.05-.05-.09-.11-.11-.02.02-.05.04-.07.06-.05.04-.07.12-.04.19l.17.36c.03.07.1.1.17.08h.02l-.09-.36zm.24.9a.603.603 0 0 0-.82-.05c-.14.1-.22.25-.24.4-.01.11 0 .22.04.32l.47-.26.13-.08.34-.19c.05-.03.08-.08.08-.13.01 0 0 0 0-.01zm.85 2.41l-.08-.21c-.01-.02-.02-.04-.02-.06a8.08 8.08 0 0 1-.22-.59l-.08-.21c-.01-.02-.02-.04-.03-.05-.02-.02-.03-.03-.05-.04-.03-.01-.05-.02-.08-.01l-.22.03-.59.07-.8.1-.56.07c.08.15.2.33.37.55l.59-.07.81-.1.14-.02c.05.14.1.26.15.39.01.01.01.02.01.03l-.57.39-.43.3-.84.58.01.1.56-.24c.05-.02.1-.02.14.01a.2.2 0 0 1 .08.12l-.01.2.46-.32.45-.31.63-.44.12-.08c.07-.05.09-.12.06-.19zm1.1 2.34l-.1-.2c-.08-.15-.15-.31-.23-.46-.02-.05-.05-.1-.07-.15l-.1-.2c-.02-.05-.07-.08-.12-.09a.064.064 0 0 0-.06 0l-1.4.32c.01.01.02.02.03.02.02.03.04.06.04.1l.01.46.66-.15.46-.1c.01.01.01.02.02.03.05.1.1.2.15.31.01.02.02.05.03.07l-.54.46v.09l.58-.19c.05-.02.1-.01.14.03.04.03.06.08.06.13v.05l.41-.34a.18.18 0 0 0 .03-.19zm.83 1.46s-.01 0 0 0l-.12-.2a.162.162 0 0 0-.18-.07l-.23.08-.03.42.35-.09.24-.06h.02a.218.218 0 0 1-.05-.08zm.48.76l-.12-.19c-.03-.04-.06-.09-.09-.14a.55.55 0 0 0-.07-.09l-.02.15-.04.37.34-.08c.01 0 .01-.01 0-.02zm2.3 3.15l.1-.01c-.03 0-.07 0-.1.01zm.82.73l-.03-.03c-.16-.17-.31-.32-.44-.46l-.01-.01-.15.53.6-.03h.03zm.15.17c0-.01-.01-.02-.01-.02v.03c0 .01 0 .02-.01.03l-.08.26.01-.02.08-.13c.04-.05.04-.1.01-.15zm1.88 1.7l-.17-.14-.2-.17c-.11-.09-.22-.19-.32-.27l-.06-.06-.1-.09c-.05-.05-.14-.05-.2-.01l-.41.29-.04.03-.03.09.59.01c.05 0 .1.03.13.07.02.03.03.07.02.11 0 .01 0 .02-.01.04l-.07.17h.01l.2.17-.11.21v.01l.35.02c.05 0 .1.03.13.07.02.03.03.07.02.11 0 .01-.01.03-.01.04l-.23.55h.01l.07-.13.46-.9c.01-.01.01-.02.01-.02.03-.09.01-.15-.04-.2zm1.2-41.55l-1.2-2.69c-.18-.26-.36-.52-.55-.78-.07.04-.13.09-.19.13-.02.01-.03.02-.05.03-.06.04-.08.12-.05.19l.16.36 1.2 2.69c-.11.08-.22.17-.36.28l-2.6-2.07c-.03-.03-.08-.03-.12-.03-.03 0-.05.01-.08.03-.01.01-.03.02-.04.04l-.4.34c-.01.01-.02.02-.04.03-.05.05-.07.13-.03.2l1.65 2.89c-.12.11-.23.21-.33.31l-2.79-1.8c-.03-.02-.07-.03-.1-.02a.19.19 0 0 0-.1.05l-.05.05c-.12.13-.24.25-.36.38.45.65.86 1.32 1.23 2.02l.65.91c-.04.05-.09.09-.13.14.09.2.18.39.26.6.12-.14.25-.29.38-.43 0 0 0-.01.01-.01l.15-.16c.05-.05.05-.14.01-.2l-1.25-1.77-.52-.73.12.08 2.45 1.58c.06.04.14.03.19-.02l.16-.16c.15-.14.31-.29.5-.47l.16-.15c.05-.05.07-.13.03-.19l-1.51-2.66 2.39 1.9c.06.04.14.04.19 0l.17-.14c.21-.16.38-.3.54-.42l.15-.11.03-.02c.08-.06.09-.14.07-.2zm.87 43.11l-.18-.13c-.15-.1-.29-.2-.43-.31-.04-.03-.08-.06-.13-.09l-.18-.13a.166.166 0 0 0-.2.01l-.04.04-.2.17-.52.45-.12.26c-.02.05-.02.1.01.14.02.04.07.07.12.08l.3.03.03-.03.29-.25.26-.23c.12.09.25.17.37.26l-.19.48-.13.32.37.05a.2.2 0 0 1 .12.08c.02.05.02.1 0 .15l-.3.56.11.02.4-1.01.11-.29.17-.44a.14.14 0 0 0-.04-.19zm16.57 4.46c-.1.01-.2.01-.31.02l-.22.01c-.07 0-.13.06-.15.13l-.08.46.42.17.14.06v-.02l.04-.24c.07 0 .15-.01.22-.01h.01c.08-.01.15-.01.22-.02l.15.47c.05.02.11.03.16.05l-.6-1.08zm.76.06c-.02-.07-.09-.11-.16-.11l-.09.01.51.91-.26-.81zm2.56-.37c-.03-.07-.1-.1-.17-.09l-.22.04c-.13.02-.26.05-.4.07l.67.37c.06.03.13.02.18-.02.02-.01.03-.03.03-.05.01-.01.01-.02.01-.03 0-.01.01-.02.01-.03l-.11-.26zm1.81-52.34c-.03-.37-.06-.75-.08-1.12l-.54 1.09-.13.25c-.14-.03-.29-.07-.44-.1l-.05-3.4c0-.08-.06-.14-.13-.15-.19-.04-.39-.07-.59-.1h-.02c-.07 0-.13.04-.15.1l-.03.09-.36.93-.36.93-.01.03-.23.61-.01.04-.21.56c-.14-.02-.29-.04-.45-.06l-.01-.05-.04-.33-.04-.37-.03-.24-.13-1.11-.09-.79-.05-.47a.17.17 0 0 0-.14-.14c-.16-.01-.33-.03-.49-.04-.04 0-.07-.01-.11-.01a.16.16 0 0 0-.16.12l-.15.55-.57 2.1-.17.62c-.15-.01-.3-.01-.45-.01l-.12-.56-.59-2.74c-.02-.07-.08-.13-.16-.12-.2 0-.4.01-.6.02a.16.16 0 0 0-.15.13l-.46 2.72-.1.61c-.03 0-.06.01-.09.01l-.36.03-.01-.04-.21-.64-.81-2.53a.157.157 0 0 0-.11-.1h-.05c-.2.02-.4.04-.6.07a.17.17 0 0 0-.14.14l-.16 2.2-.05.64-.04.52c-.05.01-.12.02-.17.03-.03.01-.06.01-.09.01l-.18.03-.32-.73-.31-.72-.71-1.64c-.02-.05-.07-.09-.12-.09h-.05l-.41.09c-.06.01-.12.03-.18.04-.07.02-.12.08-.12.16l.02.55.01.51.02.68.04 1.62c-.16.04-.3.08-.44.12l-1.63-2.94a.178.178 0 0 0-.08-.07c-.02-.01-.03-.01-.05-.01-.02 0-.04 0-.05.01l-.54.18c-.01 0-.03.01-.04.01-.05.02-.09.06-.1.11-.01.02-.01.04-.01.06l.4 3.13.02.2c-.14.05-.28.1-.42.16l-.05-.08-.41-.58-1.45-2.09a.146.146 0 0 0-.09-.06.118.118 0 0 0-.1.01c-.19.08-.38.16-.56.25-.07.03-.1.1-.09.17l.19.83.17.76.38 1.67c-.13.07-.27.13-.4.2l-1.77-2.09-.39-.46c-.04-.04-.09-.06-.14-.05-.02 0-.03.01-.05.02-.01 0-.02.01-.02.01l-.5.28c-.01.01-.02.01-.02.01-.06.04-.09.12-.07.18l.37 1.12.07.22.61 1.84c-.01.01-.02.01-.03.02.1.17.19.35.28.52.05-.03.11-.07.16-.1l.19-.12c.04-.02.07-.06.07-.1 0-.03 0-.05-.01-.08l-.89-2.67-.08-.22.12.14 1.85 2.19c.05.05.13.07.19.04l.2-.1c.21-.11.41-.21.61-.31l.2-.1c.07-.03.1-.1.08-.17l-.01-.04-.35-1.54-.17-.74-.15-.65.57.83 1.16 1.68c.04.06.12.08.19.06l.21-.08c.02-.01.04-.02.06-.02.17-.07.33-.13.5-.19.03-.01.05-.02.08-.03l.21-.08c.07-.03.11-.09.1-.17l-.03-.26-.35-2.76 1.48 2.67c.04.07.11.09.18.08l.21-.06c.2-.06.41-.11.66-.18l.21-.06a.16.16 0 0 0 .12-.15l-.05-1.8-.02-.67-.02-.58.28.64.32.74.62 1.42c.03.07.1.1.17.09l.22-.04c.24-.04.48-.08.68-.11l.22-.03c.07-.01.13-.07.13-.14l.06-.83.04-.63.11-1.58.53 1.66.21.65.19.6c.02.07.09.11.16.11l.22-.02c.22-.02.44-.03.68-.05l.22-.01c.07-.01.13-.06.15-.13l.07-.41.1-.62.34-1.98.43 1.98.13.62.08.39c.02.07.08.12.15.13h.22c.22.01.45.01.68.02l.22.01c.07 0 .14-.04.16-.12l.14-.52.17-.64.47-1.71.02-.08.01.1.19 1.61.06.55.01.06.07.64.01.08c.01.07.07.13.14.14l.22.03c.22.03.45.05.68.09l.22.03c.07.01.14-.03.17-.1l.51-1.34.57-1.49.05-.14.01.32.02 1.16.02 1.57c0 .07.05.13.12.15l.22.05c.24.05.46.1.67.15l.22.05c.06.01.11 0 .15-.04.01-.01.02-.03.03-.04l.83-1.67c-.17.29-.32.58-.46.88zm1.96.73c-.01.01-.03.01-.04.02l-.13.2c-.08-.03-.15-.05-.22-.08-.07.03-.14.05-.21.07-.16.06-.33.11-.5.16l-.11.04c.01.05.05.1.1.12l.21.07c.19.06.38.13.58.19.01 0 .02.01.03.01.01.01.03.01.04.01l.21.07c.07.02.14 0 .18-.07l.14-.22.59-.94c-.28.13-.58.25-.87.35zm2.79.54l-.51.66c-.13-.06-.27-.12-.41-.19l.21-1.14c-.22.1-.43.19-.65.28l-.2 1.1c-.01.07.02.14.09.17l.2.09c.23.1.43.19.63.28l.2.09c.07.03.15.01.19-.04l.55-.71-.3-.59zm2.98 47.12a.151.151 0 0 0-.19-.02l-.19.12c-.07.05-.14.09-.21.14.21-.07.42-.14.63-.2l-.04-.04zm2.69-1.06l-.61-.48c-.06-.05-.14-.05-.19 0l-.17.14c-.13.1-.33.26-.54.42l-.18.13c-.05.04-.07.1-.06.17 0 .01.01.02.01.02l.18.4c.19-.05.39-.1.58-.14l-.08-.19c.12-.1.25-.19.36-.28l.41.32c.26-.05.52-.09.78-.13l-.49-.38zm1.49-.29l-1.04-.63.45.78c.21-.03.42-.05.64-.08l-.05-.07zm2.77-4.31a.15.15 0 0 0-.15-.11h-.04l.24.27-.05-.16zm4.48-20.08c.02.01.04.02.06.02h.04c-.03 0-.06-.01-.1-.02zm.43 3.75l.27.72c.03.01.06.01.09.01 0-.07.01-.14.01-.2l.5-.11.61-.74-1.48.32z"/><path d="M32.47 63c-.06-4.31-1.91-8.25-4.83-11.07-.12-.11-.23-.22-.35-.32a.7.7 0 0 0-.1-.08c-.11-.1-.22-.19-.33-.29-.51-.43-1.04-.82-1.6-1.18-.12-.08-.24-.15-.36-.23-.24-.15-.49-.3-.75-.43-.15-.08-.31-.16-.47-.24-.52-.26-1.05-.49-1.6-.69-.17-.06-.35-.12-.52-.18a15.636 15.636 0 0 0-2.02-.51c-.56-.1-1.12-.17-1.7-.21l-.41-.03c-.05 0-.1.02-.13.06-.03.04-.04.09-.03.14l.13.39c.18.57.39 1.14.62 1.69.26.63.54 1.26.85 1.86.26.51.53 1.01.83 1.5a25.315 25.315 0 0 0 .99 1.52c.19.27.39.55.6.81 1.1 1.43 2.36 2.73 3.74 3.88.09.08.19.15.28.23 1.96 1.59 4.18 2.87 6.56 3.78l.38.15c.02.01.04.01.05.01.03 0 .06-.01.09-.03a.17.17 0 0 0 .07-.13l.01-.4zM17.72 47.88c-.01.01-.03.02-.03.03-.01.01-.02.03-.02.04l-.03-.08.08.01zM31.69 62.7c-.11-.04-.23-.09-.34-.14-.07-.03-.15-.07-.22-.1l-.42-.18c-.04-.02-.07-.03-.11-.05-1.87-.87-3.61-1.97-5.18-3.28-.1-.08-.19-.16-.28-.24a23.744 23.744 0 0 1-3.84-4.17c-.22-.31-.44-.62-.64-.94-.08-.12-.15-.24-.23-.36-.09-.15-.18-.29-.27-.44-.3-.49-.57-.99-.83-1.5l-.24-.48c-.22-.45-.42-.91-.6-1.38-.01-.02-.01-.04-.02-.06-.06-.15-.12-.31-.18-.47-.02-.06-.04-.12-.07-.18-.05-.13-.09-.26-.14-.39a.983.983 0 0 1-.05-.16c.02 0 .04.01.07.01.06.01.12.01.18.02.05.01.11.01.16.02l.22.03c.04.01.08.01.12.02.09.01.19.03.28.04.02 0 .03.01.05.01.21.03.42.07.63.11l.68.15c.24.06.48.13.72.2.18.05.36.11.53.17.56.19 1.1.42 1.63.67.16.08.32.16.47.24.43.23.86.48 1.26.75.12.08.23.16.35.24.21.15.41.3.61.46.12.09.24.19.36.28.35.29.69.59 1.01.91.11.12.23.23.34.35 2.25 2.37 3.74 5.45 4.09 8.84 0 .02 0 .04.01.06.01.09.02.17.02.26 0 .05.01.1.01.16.01.06.01.12.01.17 0 .08.01.15.01.22 0 .04 0 .08.01.12v.09c-.05-.03-.11-.05-.17-.08zm.47.49l-.08-.03h.01c.01 0 .02-.01.03-.02h.01l.01-.01c.01-.01.02-.02.03-.02l.01-.01v.09zm3.32-35.75L30 26.62l-.54-.08-1.76-.26-.54-.08-.29-.04c-.05-.01-.09.01-.13.04a.19.19 0 0 0-.05.13l.8 8.6.01.08c.01.07.06.13.13.14h.03c.05 0 .11-.03.14-.08l.27-.5.17-.32c.46-.87 1.03-1.7 1.67-2.45.16-.2.34-.39.52-.57 1.21-1.28 2.66-2.33 4.26-3.07l.85-.39c.06-.03.1-.1.09-.16-.03-.11-.09-.16-.15-.17zm-8.43-.92l-.03.03-.01-.06.06.01c-.01.01-.02.01-.02.02zm.71 7.92l-.03-.31.03.03h.01c.01.01.03.01.04.01.02.01.03.01.05 0 .01 0 .03-.01.04-.01l-.14.28zm6.18-6.61c-.09.04-.17.09-.26.14-.08.04-.15.08-.22.12-.1.06-.2.11-.3.17-.06.03-.11.06-.16.09-.12.07-.23.14-.34.21-.03.02-.07.04-.1.07-.13.08-.25.17-.37.25-.01.01-.03.02-.04.03-.63.44-1.21.93-1.76 1.47-.17.16-.34.33-.5.51-.26.28-.51.57-.74.87-.01.01-.02.02-.02.03l-.28.37c-.02.03-.04.05-.06.08-.08.11-.16.23-.24.34-.03.04-.06.09-.09.13-.07.1-.14.21-.21.31-.02.04-.05.08-.07.11-.02.02-.03.04-.04.06-.06.1-.12.19-.17.29-.01.01-.01.01-.01.02l-.25-2.7-.31-3.35-.06-.63.49.07 1.74.26.53.08 3.88.58c-.02.01-.03.01-.04.02zm.69-.02c.01-.03.02-.06.02-.09-.01-.03-.02-.06-.04-.09l.31.05-.29.13zM23.2 43.33c.02.04.03.08.05.12l.18-.22-.23.1zm6.02 5.58l-.5-.79a13.82 13.82 0 0 1-1.53-3.37c-.08-.25-.14-.5-.2-.76-.25-1.06-.38-2.14-.38-3.25 0-.42.02-.84.05-1.26l.01-.12.07-.81c.01-.07-.03-.13-.1-.16s-.14-.01-.18.05l-.07.08-.32.41-.95 1.2-.34.43-.44.56-.43.54-.47.59-.24.31-2.14 2.7c-.03.04-.04.09-.03.14.01.04.04.08.09.1l1.92.88.48.22.69.32.38.17.48.22.48.22 3.49 1.6c.02.01.04.02.07.02.04 0 .09-.02.11-.05.03-.06.04-.14 0-.19zm-2.89-9.79l.06-.07-.01.11-.02.2a.134.134 0 0 0-.07-.06h-.01c-.02-.01-.03-.01-.05-.01h-.05l.15-.17zm-4.91 6.18l.04-.05v.04c0 .01.01.03.01.04l-.05-.03zm4.45 1.73l-.48-.22-1.03-.48-.39-.18-.12-.05-.48-.22-1.51-.69 1.17-1.47.22-.28.18-.22.28-.36.8-1.01.21-.27.66-.83.34-.43.31-.39v.02c-.01.12-.01.25-.01.37v.1c0 .11-.01.21-.01.32 0 .09 0 .19.01.28v.21c.01.1.01.21.02.31.01.06.01.12.01.18.01.1.02.19.02.29v.05c.01.05.01.1.02.15.01.12.03.24.04.35.01.04.01.09.02.13.02.12.04.24.05.37.01.03.01.07.02.11.02.13.04.25.07.38.01.03.01.06.02.09.03.13.05.26.08.39.01.02.01.05.02.07.03.14.07.27.1.4.01.02.01.04.02.05.02.08.04.16.07.24.02.05.03.11.05.17.01.01.01.03.01.04.04.14.09.28.13.42 0 .01.01.02.01.03.01.01.01.03.01.04.04.13.09.25.14.38v.01c.28.74.62 1.45 1.01 2.13l-2.09-.98zm2.52 1.47c.03-.01.06-.02.08-.05.02-.03.04-.06.04-.09l.17.27-.29-.13zm-5.19-5.17c.02.04.03.08.05.12l.18-.22-.23.1zm-5.86-8.24c-.06.06-.06.16 0 .22l.11.11c.04-.2.09-.39.14-.58l-.25.25zm6.68-8.41c-.05-.16-.1-.33-.16-.49-.08-.22-.16-.44-.25-.66-.06-.16-.13-.32-.2-.48-.03-.06-.05-.12-.08-.18l-.12-.27-.18-.38a.137.137 0 0 0-.1-.08c-.01 0-.01-.01-.02-.01-.05-.01-.1.01-.14.05l-.28.31c-.04.04-.08.09-.12.13-.22.24-.43.49-.64.74-.56.69-1.09 1.4-1.57 2.14-.14.21-.27.42-.4.64-.98 1.62-1.77 3.34-2.35 5.14-.1.29-.18.58-.26.88a.75.75 0 0 0-.04.16c-.05.18-.1.36-.14.54-.15.58-.27 1.18-.37 1.77-.04.21-.07.42-.1.64-.11.72-.18 1.46-.22 2.19-.01.19-.02.39-.02.58 0 .1-.01.19-.01.29v.41c0 .2 0 .4.01.61.01.44.03.88.07 1.31.02.25.04.5.07.75.03.33.08.66.13.98l.06.42c.01.05.04.1.09.12.02.01.04.02.07.02.03 0 .06-.01.08-.02l.36-.22c.02-.01.05-.03.07-.04.26-.16.51-.32.75-.5.17-.11.33-.24.49-.36.07-.05.13-.1.19-.15a15.43 15.43 0 0 0 3.04-3.14c.1-.13.19-.27.28-.4l.3-.45c.21-.32.4-.66.57-.99.22-.41.42-.83.59-1.25.04-.09.08-.19.12-.29.07-.16.13-.33.19-.49.61-1.68.92-3.48.92-5.34.01-1.61-.22-3.15-.68-4.63zm-1.17-2.12l.04.08h-.01c-.01-.01-.02-.01-.04-.01h-.05l.06-.07zm-5.99 19.96l-.02-.09c.01.01.03.02.04.03.02.01.03.01.04.01h.01l-.07.05zm6.35-8.08c-.25.7-.56 1.38-.91 2.03-.12.21-.24.42-.36.62-.09.16-.19.31-.29.46-.08.13-.17.26-.26.38a14.498 14.498 0 0 1-1.49 1.81c-.44.47-.93.91-1.43 1.31-.09.07-.17.14-.26.2-.16.13-.32.25-.49.36-.01.01-.01.01-.02.01-.02.02-.04.03-.07.05l-.29.2c-.05.03-.1.06-.14.09-.04.03-.08.05-.13.08 0-.02-.01-.03-.01-.05-.01-.1-.03-.2-.04-.31-.01-.04-.01-.07-.01-.11-.01-.11-.03-.21-.04-.32-.01-.03-.01-.06-.01-.09l-.03-.34c0-.02-.01-.04-.01-.06 0-.02 0-.04-.01-.06-.01-.1-.02-.2-.02-.3v-.04c0-.04-.01-.08-.01-.12-.01-.09-.01-.18-.02-.27v-.09c-.02-.26-.02-.52-.03-.78-.01-.13-.01-.25-.01-.38 0-.16 0-.31.01-.47 0-.19.01-.37.02-.55.03-.66.08-1.32.16-1.97.03-.21.05-.42.09-.62.09-.57.2-1.14.33-1.71a22.735 22.735 0 0 1 .68-2.36c.04-.11.07-.21.11-.32.46-1.27 1.02-2.5 1.69-3.68l.03-.06c.01-.01.01-.01.01-.02.08-.14.16-.28.25-.42l.03-.06c.03-.05.06-.09.09-.14l.15-.24.06-.09c.07-.12.15-.23.23-.35.02-.04.05-.08.08-.12.07-.11.14-.21.22-.32.03-.04.06-.09.09-.13l.21-.3c.03-.04.07-.09.1-.14l.01-.01c.07-.09.14-.19.21-.28l.12-.15c.02-.03.05-.06.07-.09.05-.06.09-.12.14-.17l.1-.13.02-.02c.07-.09.14-.17.22-.26.04-.05.08-.1.13-.15.03-.03.05-.06.08-.09.05-.05.09-.11.14-.16.02-.03.05-.05.07-.08.02.03.03.07.05.1l.03.06c.01.02.01.03.02.05.04.09.08.19.12.28.01.02.02.04.03.07.01.03.02.05.03.08.03.08.07.17.1.25 0 .01.01.02.01.02.05.13.09.26.14.39.06.16.11.33.16.49.43 1.4.66 2.88.66 4.42 0 1.83-.32 3.56-.91 5.17zm-5.87-1.35c-.06.06-.06.16 0 .22l.11.11c.04-.2.09-.39.14-.58l-.25.25zm5.87-10.49l-.18-.38a.137.137 0 0 0-.1-.08c-.01 0-.01-.01-.02-.01-.05-.01-.1.01-.14.05l-.28.31c-.04.04-.08.09-.12.13-.22.24-.43.49-.64.74-.56.69-1.09 1.4-1.57 2.14-.14.21-.27.42-.4.64.06.3.11.61.15.91l.03-.06c.01-.01.01-.01.01-.02.08-.14.16-.28.25-.42l.03-.06c.03-.05.06-.09.09-.14l.15-.24.06-.09c.07-.12.15-.23.23-.35.02-.04.05-.08.08-.12.07-.11.14-.21.22-.32.03-.04.06-.09.09-.13l.21-.3c.03-.04.07-.09.1-.14l.01-.01c.07-.09.14-.19.21-.28l.12-.15c.02-.03.05-.06.07-.09.05-.06.09-.12.14-.17l.1-.13.02-.02c.07-.09.14-.17.22-.26.04-.05.08-.1.13-.15.03-.03.05-.06.08-.09-.02.01-.04.01-.05.01-.1.02-.17.03-.2.03h-.02c-.01 0-.02-.01-.03-.02v-.01c0-.01-.01-.02-.01-.03-.01-.01-.01-.02-.01-.03v-.03s.01-.01.03-.02c.02-.01.03-.02.05-.03.02-.01.05-.02.08-.03.01-.01.03-.01.04-.02l.01-.01c.01 0 .02-.01.03-.01l.02-.01.02-.01c.01-.01.02-.01.03-.01.02-.01.04-.01.05-.02l.71-.22a.879.879 0 0 0-.1-.24zm-.32.04c-.01-.01-.02-.01-.04-.01h-.05l.06-.07.03.08zm28.45 16.04c0-.06-.04-.11-.1-.14l-3.07-1.1c-.04-.26-.1-.52-.17-.77l2.32-2.3c.05-.05.06-.12.03-.18-.08-.18-.17-.36-.26-.53a.148.148 0 0 0-.16-.08l-3.26.45c-.16-.2-.32-.39-.49-.57l.99-3.15c.02-.06 0-.13-.05-.17-.15-.12-.32-.24-.49-.35-.05-.04-.12-.04-.18 0l-2.72 1.95c-.21-.1-.43-.18-.65-.26l-.59-3.3a.15.15 0 0 0-.12-.13c-.19-.03-.39-.06-.59-.08-.06-.01-.13.03-.16.08l-1.53 3.03c-.21.02-.42.04-.63.07l-2.09-2.69c-.04-.05-.11-.07-.17-.05-.2.06-.39.13-.56.2-.06.02-.1.08-.1.15l.06 3.44c-.16.1-.33.21-.49.33l-3.14-1.43a.153.153 0 0 0-.18.03c-.14.15-.28.29-.41.44-.04.05-.05.12-.02.18l1.67 3.05c-.1.16-.19.32-.27.49l-3.47.2c-.07 0-.12.05-.14.11-.05.16-.09.32-.13.48l-.03.1c0 .02-.01.03 0 .05 0 .05.03.09.07.12l2.9 1.93c-.01.18-.02.33-.02.48v.08l-2.98 1.79c-.05.03-.09.1-.07.16l.03.14c.03.15.06.29.1.44.02.07.07.11.14.12l3.44.36c.08.18.16.36.26.53l-1.79 2.94a.15.15 0 0 0 .01.18c.07.08.13.16.2.24l.19.22c.03.04.08.05.13.05.02 0 .03-.01.05-.01l3.17-1.26c.16.13.33.26.51.38l-.22 3.4c-.01.07.03.13.09.15.2.09.38.16.55.22.02.01.03.01.05.01.05 0 .09-.02.13-.05l2.19-2.55c.1.02.21.04.32.06.12.02.24.04.36.05l1.36 3.06c.02.06.08.09.14.09h.01c.2-.01.4-.03.59-.06.07-.01.12-.05.13-.12l.74-3.23c.24-.07.48-.15.71-.24l2.59 2.05c.05.04.12.04.18.01.17-.1.33-.21.5-.33.05-.04.08-.1.06-.17l-.84-3.16c.19-.18.37-.38.54-.57l3.21.6c.07.01.13-.02.16-.07.1-.17.2-.35.29-.52.03-.06.02-.13-.02-.18l-2.2-2.4c.09-.26.16-.52.21-.77l3.1-.96c.06-.02.11-.08.11-.14.01-.19.01-.37.01-.55-.04-.03-.04-.05-.04-.07zm-3.65 1.22c-.06.02-.1.06-.11.12l-.03.16c-.06.28-.14.58-.24.88l-.05.16c-.02.05-.01.12.03.16l2.12 2.31-3.09-.58a.165.165 0 0 0-.15.05l-.1.13c-.19.22-.39.44-.61.65l-.12.12c-.04.04-.06.1-.04.15l.81 3.05-2.49-1.97a.176.176 0 0 0-.16-.02l-.15.06c-.26.11-.53.2-.81.28l-.16.04c-.06.01-.1.06-.11.12l-.71 3.11-1.31-2.95a.142.142 0 0 0-.13-.09l-.16-.02c-.26-.03-.53-.07-.8-.13l-.16-.04h-.03c-.05 0-.09.02-.12.05l-2.11 2.47.21-3.28c0-.05-.02-.11-.07-.14l-.14-.09c-.21-.14-.41-.29-.6-.45l-.13-.1c-.04-.04-.1-.05-.16-.03l-3.06 1.22 1.73-2.84c.03-.05.03-.11 0-.16l-.08-.14c-.12-.21-.22-.42-.31-.64l-.09-.13a.142.142 0 0 0-.13-.09l-3.32-.34 2.88-1.73a.16.16 0 0 0 .08-.14l-.01-.21v-.11c0-.16.01-.32.02-.52l.01-.16c0-.05-.02-.11-.07-.14l-2.8-1.86 3.35-.19c.06-.01.11-.04.13-.09l.07-.15c.1-.21.22-.41.33-.6l.09-.14c.03-.05.03-.11.01-.16l-1.61-2.94 3.03 1.38c.05.02.11.02.16-.02l.13-.1c.2-.14.4-.28.6-.4l.14-.08a.16.16 0 0 0 .08-.14l-.06-3.32 2.02 2.6c.03.04.09.07.15.06l.16-.03c.26-.04.51-.07.75-.08l.16-.01c.05 0 .11-.04.13-.09l1.47-2.93.57 3.19c.01.06.05.1.1.12l.16.05c.26.08.51.18.76.3l.15.07c.05.02.11.02.16-.02l2.62-1.88-.96 3.04c-.02.05-.01.11.04.16l.12.12c.2.2.39.42.56.65l.1.13c.03.04.09.07.14.06l3.14-.44-2.24 2.22c-.04.04-.06.1-.04.16l.05.16c.09.28.15.58.2.88l.03.16c.01.06.05.1.1.12l2.96 1.06-2.98.93z"/></g><path d="M84.92 29.18c.03-.26.22-.48.58-.48h.5c.26 0 .45.13.54.32l7.04 15.1h.1l7.04-15.1c.1-.19.26-.32.54-.32h.51c.35 0 .54.22.58.48l3.78 21.5c.1.45-.16.74-.58.74h-2.91c-.29 0-.54-.26-.61-.48l-1.89-12.13h-.1l-5.6 12.58c-.06.19-.26.35-.54.35h-.58c-.29 0-.45-.16-.54-.35l-5.66-12.58h-.1l-1.86 12.13c-.03.22-.29.48-.58.48H81.7c-.42 0-.67-.29-.61-.74l3.83-21.5zm22.68 21.41l9.95-21.53c.1-.19.26-.35.54-.35h.32c.32 0 .45.16.54.35l9.86 21.53c.19.42-.06.83-.54.83h-2.78c-.48 0-.7-.19-.93-.64l-1.57-3.46h-9.57l-1.57 3.46c-.13.32-.42.64-.93.64h-2.78c-.47 0-.73-.42-.54-.83zm13.83-6.82l-3.2-7.04h-.1l-3.14 7.04h6.44zm10.3-14.14c0-.32.29-.61.61-.61h2.98c.32 0 .61.29.61.61v21.18c0 .32-.29.61-.61.61h-2.98c-.32 0-.61-.29-.61-.61V29.63zm10.02-.35c0-.32.29-.58.61-.58h.8l13.31 14.14h.03V29.63c0-.32.26-.61.61-.61h2.94c.32 0 .61.29.61.61v21.53c0 .32-.29.58-.61.58h-.77L145.9 37.05h-.03v13.76c0 .32-.26.61-.61.61h-2.91c-.32 0-.61-.29-.61-.61V29.28zm30.49 19l1.15-1.98c.26-.45.8-.45 1.09-.22.16.1 2.75 1.98 4.83 1.98 1.66 0 2.91-1.09 2.91-2.46 0-1.63-1.38-2.75-4.06-3.84-3.01-1.22-6.02-3.14-6.02-6.91 0-2.85 2.11-6.14 7.2-6.14 3.26 0 5.76 1.66 6.4 2.14.32.19.42.74.19 1.06l-1.22 1.82c-.26.38-.74.64-1.12.38-.26-.16-2.69-1.76-4.45-1.76-1.82 0-2.82 1.22-2.82 2.24 0 1.5 1.18 2.53 3.78 3.58 3.1 1.25 6.69 3.1 6.69 7.23 0 3.3-2.85 6.34-7.36 6.34-4.03 0-6.4-1.89-7.04-2.5-.28-.28-.44-.44-.15-.96zm18.66-18.65c0-.32.26-.61.61-.61h7.52c3.94 0 7.17 3.2 7.17 7.07 0 3.97-3.23 7.2-7.14 7.2h-4v7.52c0 .32-.29.61-.61.61h-2.94c-.35 0-.61-.29-.61-.61V29.63zm7.87 9.76c1.79 0 3.3-1.44 3.3-3.33 0-1.76-1.5-3.1-3.3-3.1h-3.71v6.43h3.71zm11.07-9.76c0-.32.26-.61.61-.61h9.15c3.84 0 6.98 3.07 6.98 6.88 0 2.94-1.95 5.34-4.74 6.46l4.38 8.13c.22.42 0 .93-.54.93h-3.36c-.29 0-.45-.16-.51-.29l-4.26-8.48H214v8.16c0 .32-.29.61-.61.61h-2.94c-.35 0-.61-.29-.61-.61V29.63zm9.41 9.6c1.7 0 3.17-1.47 3.17-3.26 0-1.7-1.47-3.1-3.17-3.1h-5.22v6.37h5.22zm11.9-9.6c0-.32.29-.61.61-.61h2.98c.32 0 .61.29.61.61v21.18c0 .32-.29.61-.61.61h-2.98c-.32 0-.61-.29-.61-.61V29.63zm10.02-.35c0-.32.29-.58.61-.58h.8l13.31 14.14h.03V29.63c0-.32.26-.61.61-.61h2.94c.32 0 .61.29.61.61v21.53c0 .32-.29.58-.61.58h-.77l-13.38-14.69h-.03v13.76c0 .32-.26.61-.61.61h-2.91c-.32 0-.61-.29-.61-.61V29.28zm34.62-.58c2.88 0 5.63 1.12 7.81 2.98.26.26.29.64.03.9l-1.98 2.08c-.26.26-.54.26-.83 0-1.38-1.22-3.07-1.86-4.83-1.86-4 0-7.17 3.42-7.17 7.42 0 3.97 3.17 7.33 7.2 7.33 1.79 0 3.17-.54 3.81-.8v-2.72h-2.56c-.35 0-.61-.26-.61-.58v-2.53c0-.35.26-.61.61-.61h6.14c.32 0 .58.29.58.61v8.19c0 .26-.13.42-.26.51 0 0-3.3 2.08-7.94 2.08-6.37 0-11.49-5.06-11.49-11.46s5.12-11.54 11.49-11.54z" fill="#4d4d4d"/></svg>