<?xml version="1.0" encoding="utf-8"?>
<!-- Generator: Adobe Illustrator 19.2.1, SVG Export Plug-In . SVG Version: 6.00 Build 0)  -->
<svg version="1.1" id="Layer_1" xmlns="http://www.w3.org/2000/svg" xmlns:xlink="http://www.w3.org/1999/xlink" x="0px" y="0px"
	 viewBox="0 0 300 80" style="enable-background:new 0 0 300 80;" xml:space="preserve">
<g>
	<path style="fill:#3FA9F5;" d="M63.73,33.73l-0.13-0.39c-0.92-2.88-2.4-5.56-4.29-7.88c-0.13-0.17-0.27-0.33-0.42-0.49
		c-0.47-0.56-0.98-1.09-1.5-1.6c-0.16-0.16-0.33-0.32-0.49-0.47c-2.16-2-4.69-3.6-7.45-4.7c-0.01-0.01-0.01-0.01-0.02-0.01
		c-0.07-0.03-0.14-0.05-0.2-0.08l-0.39-0.15c-0.01,0-0.02-0.01-0.03-0.01c-0.04-0.01-0.09,0-0.12,0.03
		c-0.04,0.03-0.07,0.08-0.07,0.13l0.01,0.42c0,0.02,0,0.05,0,0.07c0.11,5.13,2.63,9.65,6.52,12.43c0.5,0.36,1.03,0.69,1.57,0.99
		c1.24,0.68,2.59,1.2,4.02,1.53c0.78,0.18,1.58,0.3,2.41,0.36l0.41,0.03h0.01c0.05,0,0.09-0.02,0.12-0.06c0,0,0.01-0.01,0.01-0.01
		C63.74,33.82,63.74,33.78,63.73,33.73z M49.02,18.36c-0.01,0.01-0.03,0.01-0.04,0.02c-0.01,0.01-0.02,0.02-0.03,0.03l0,0v-0.09
		L49.02,18.36C49.02,18.36,49.02,18.36,49.02,18.36z M62.9,33.28c-0.05-0.01-0.1-0.01-0.16-0.02c-0.07-0.01-0.15-0.02-0.22-0.02
		c-0.03-0.01-0.06-0.01-0.09-0.01c-0.47-0.06-0.93-0.14-1.38-0.24c-0.49-0.11-0.97-0.24-1.44-0.39c-0.87-0.29-1.7-0.65-2.49-1.08
		c-0.3-0.16-0.59-0.33-0.87-0.51c-0.25-0.16-0.49-0.32-0.73-0.5c-2.24-1.61-4.02-3.83-5.11-6.41c-0.51-1.22-0.87-2.52-1.05-3.88
		c-0.03-0.19-0.05-0.38-0.07-0.57c0-0.03-0.01-0.07-0.01-0.1c-0.01-0.07-0.01-0.14-0.02-0.21c-0.01-0.06-0.01-0.12-0.01-0.18
		c0-0.05-0.01-0.1-0.01-0.15c0-0.08-0.01-0.15-0.01-0.23c0-0.01,0-0.03,0-0.04c0.07,0.03,0.14,0.05,0.21,0.08
		c0.04,0.02,0.07,0.03,0.11,0.04c0.06,0.03,0.13,0.05,0.19,0.08c0.09,0.04,0.17,0.08,0.26,0.12c0.13,0.05,0.25,0.11,0.37,0.17
		c0.05,0.02,0.1,0.05,0.15,0.07c2.09,0.98,4.02,2.27,5.72,3.79c0.18,0.16,0.36,0.33,0.54,0.49c0.63,0.6,1.24,1.24,1.8,1.91
		c0.15,0.17,0.29,0.34,0.43,0.52c1.32,1.66,2.43,3.49,3.27,5.45c0,0.01,0.01,0.01,0.01,0.02c0.07,0.15,0.13,0.31,0.19,0.46
		c0.03,0.07,0.05,0.13,0.08,0.2c0.04,0.11,0.08,0.22,0.12,0.33c0.04,0.11,0.08,0.22,0.12,0.33c0.03,0.08,0.06,0.16,0.08,0.24
		c0.03,0.09,0.06,0.17,0.09,0.26C62.94,33.29,62.92,33.29,62.9,33.28z M63.27,33.6C63.28,33.6,63.28,33.59,63.27,33.6
		c0.01-0.01,0.02-0.02,0.03-0.02c0,0,0.01-0.01,0.01-0.01c0-0.01,0.01-0.01,0.01-0.01c0.01-0.01,0.01-0.02,0.01-0.02
		c0,0,0-0.01,0-0.01l0.03,0.08L63.27,33.6z"/>
	<path style="fill:#3FA9F5;" d="M53.51,46.49c-0.01-0.07-0.06-0.13-0.13-0.14c-0.07-0.01-0.14,0.02-0.17,0.08l-0.44,0.83
		c-1.42,2.67-3.71,4.83-6.44,6.1l-0.85,0.39c-0.06,0.03-0.1,0.1-0.09,0.16c0.01,0.07,0.06,0.12,0.13,0.13l8.61,1.28l0.02,0
		c0.04,0,0.08-0.02,0.11-0.04c0.04-0.03,0.05-0.08,0.05-0.13L53.51,46.49z M53.24,47.04l0.03,0.32c-0.02-0.02-0.05-0.04-0.08-0.04
		c-0.01,0-0.02-0.01-0.03-0.01c-0.01,0-0.01,0-0.01,0h-0.01c-0.01,0-0.03,0.01-0.04,0.01L53.24,47.04z M46.09,53.81l0.29-0.13
		c0,0,0,0.01,0,0.01c-0.01,0.03-0.02,0.05-0.01,0.09c0,0.03,0.02,0.06,0.04,0.08c0,0,0,0.01,0.01,0.01L46.09,53.81z M47.04,53.67
		c0.01-0.01,0.03-0.02,0.04-0.02c0.06-0.03,0.12-0.06,0.18-0.1c0.1-0.05,0.2-0.1,0.3-0.16c0.08-0.04,0.16-0.09,0.25-0.14
		c0.07-0.04,0.15-0.09,0.22-0.13c0.1-0.06,0.19-0.12,0.29-0.18c0.05-0.03,0.1-0.07,0.16-0.1c0.11-0.07,0.22-0.14,0.32-0.22
		c0.03-0.02,0.07-0.04,0.1-0.07c0.12-0.09,0.24-0.17,0.36-0.26c0.01-0.01,0.02-0.01,0.02-0.02c0.82-0.62,1.57-1.33,2.24-2.12
		c0.01-0.02,0.03-0.03,0.04-0.04c0.09-0.11,0.18-0.22,0.27-0.33c0.03-0.04,0.06-0.07,0.09-0.11c0.08-0.1,0.15-0.19,0.22-0.29
		c0.04-0.06,0.09-0.11,0.13-0.17c0.06-0.08,0.12-0.17,0.18-0.26c0.05-0.08,0.11-0.16,0.16-0.24c0.04-0.07,0.09-0.14,0.14-0.21
		c0.07-0.11,0.13-0.22,0.2-0.32c0.03-0.05,0.06-0.1,0.09-0.14c0.01-0.02,0.02-0.03,0.03-0.05l0.63,6.69L47.04,53.67z M53.93,54.98
		C53.93,54.98,53.93,54.98,53.93,54.98c0.01-0.01,0.02-0.02,0.03-0.02c0.01-0.01,0.01-0.02,0.02-0.02c0,0,0,0,0-0.01l0.01,0.06
		L53.93,54.98z"/>
	<path style="fill:#3FA9F5;" d="M40.5,38.89c-1.02,0-1.85,0.83-1.85,1.85c0,1.02,0.83,1.85,1.85,1.85c0.51,0,0.97-0.21,1.31-0.54
		c0.33-0.33,0.54-0.8,0.54-1.31C42.35,39.72,41.52,38.89,40.5,38.89z M41.66,41.23C41.47,41.68,41.02,42,40.5,42
		c-0.69,0-1.26-0.56-1.26-1.26c0-0.69,0.56-1.26,1.26-1.26c0.52,0,0.97,0.32,1.16,0.77c0.06,0.15,0.1,0.32,0.1,0.49
		C41.76,40.91,41.72,41.08,41.66,41.23z"/>
	<path style="fill:#3FA9F5;" d="M49.51,29.75l-0.09-0.22l-0.33-0.85l-0.24-0.61l-0.31-0.78l-0.88-2.23l-0.32-0.8l-1.03-2.62
		c-0.02-0.04-0.06-0.08-0.1-0.09c-0.05-0.01-0.1-0.01-0.14,0.02l-0.5,0.36L44,23.04l-5.04,3.57c-0.06,0.04-0.08,0.11-0.06,0.18
		c0.02,0.07,0.08,0.11,0.15,0.1L40,26.86c0.16-0.01,0.32-0.01,0.5-0.01c2.89,0,5.66,0.88,8.01,2.54l0.24,0.17l0.52,0.37l0.01,0.01
		c0.03,0.02,0.06,0.03,0.09,0.03c0.03,0,0.07-0.01,0.1-0.03C49.52,29.88,49.54,29.81,49.51,29.75z M39.57,26.56l0.26-0.19
		c-0.01,0.03-0.01,0.06,0,0.09c0.01,0.03,0.03,0.06,0.06,0.08L39.57,26.56z M46.1,21.94l0.02,0.06c0,0,0,0,0,0
		c-0.01,0-0.01-0.01-0.01-0.01c-0.01-0.01-0.02-0.01-0.02-0.01h-0.01c-0.01,0-0.02-0.01-0.03-0.01L46.1,21.94z M48.41,28.6
		c-0.02-0.01-0.04-0.03-0.07-0.04c-0.13-0.08-0.26-0.16-0.39-0.25c-0.02-0.01-0.03-0.02-0.05-0.03c-0.14-0.08-0.28-0.16-0.42-0.24
		c-0.01-0.01-0.03-0.01-0.04-0.02c-0.08-0.04-0.15-0.08-0.23-0.12c-0.07-0.04-0.14-0.08-0.21-0.11c-0.01-0.01-0.02-0.01-0.03-0.02
		c-0.12-0.06-0.25-0.12-0.38-0.18c0,0-0.01,0-0.01-0.01c-0.02-0.01-0.04-0.02-0.07-0.03c-0.01-0.01-0.02-0.01-0.03-0.01
		c-0.13-0.06-0.26-0.12-0.4-0.17c-0.02-0.01-0.05-0.02-0.07-0.03c-0.01-0.01-0.02-0.01-0.04-0.02c-0.16-0.06-0.31-0.12-0.47-0.18
		c-0.02-0.01-0.03-0.01-0.05-0.02c-0.15-0.05-0.31-0.11-0.46-0.16c-0.02-0.01-0.05-0.02-0.07-0.02c-0.15-0.05-0.3-0.09-0.45-0.14
		c-0.03-0.01-0.06-0.02-0.09-0.03c-0.14-0.04-0.28-0.08-0.43-0.11c-0.04-0.01-0.08-0.02-0.12-0.03c-0.14-0.03-0.27-0.06-0.41-0.09
		c-0.04-0.01-0.09-0.02-0.14-0.03c-0.13-0.03-0.26-0.05-0.39-0.07c-0.05-0.01-0.1-0.02-0.16-0.03c-0.13-0.02-0.25-0.04-0.38-0.05
		c-0.06-0.01-0.11-0.02-0.17-0.02c-0.13-0.02-0.25-0.03-0.38-0.04c-0.06-0.01-0.12-0.01-0.18-0.02c-0.13-0.01-0.26-0.02-0.39-0.02
		c-0.06,0-0.11-0.01-0.16-0.01c-0.19-0.01-0.37-0.01-0.56-0.01h-0.01l3.73-2.65l0.51-0.37l1.23-0.87l0.5,1.27l0.44,1.12L47,24.98
		l0.29,0.74l0.62,1.56l0.24,0.61l0.28,0.72C48.42,28.61,48.42,28.61,48.41,28.6z M48.87,29.26l-0.1-0.07c0.02,0,0.03,0,0.04-0.01
		c0,0,0,0,0,0c0.02-0.01,0.03-0.02,0.04-0.03c0.03-0.02,0.04-0.05,0.06-0.08l0.01,0.03l0.11,0.27L48.87,29.26z M46.91,24.76
		L47,24.98l0.01-0.02C46.98,24.89,46.94,24.83,46.91,24.76z"/>
	<path style="fill:#3FA9F5;" d="M46.05,17.19c-0.02-0.05-0.06-0.08-0.11-0.09l-0.41-0.09c-0.14-0.03-0.29-0.06-0.43-0.09
		c-0.05-0.01-0.09-0.02-0.14-0.03c-0.21-0.04-0.43-0.08-0.65-0.11c-0.47-0.08-0.95-0.14-1.42-0.18c-0.79-0.08-1.6-0.12-2.4-0.12
		c-0.98,0-1.97,0.06-2.94,0.18c-0.72,0.09-1.44,0.21-2.15,0.36c-0.02,0-0.03,0.01-0.05,0.01c-0.46,0.1-0.92,0.21-1.37,0.34
		c-2.11,0.59-4.13,1.46-6.01,2.59c-0.15,0.09-0.3,0.18-0.45,0.28c-0.48,0.3-0.95,0.62-1.41,0.96c-0.14,0.1-0.28,0.21-0.43,0.32
		c-0.14,0.1-0.27,0.21-0.4,0.32l-0.32,0.26c-0.04,0.03-0.06,0.08-0.06,0.14c0.01,0.05,0.03,0.1,0.08,0.12l0.2,0.11l0.16,0.09
		c0.5,0.28,1.02,0.53,1.56,0.74c0.63,0.26,1.28,0.48,1.94,0.66c0.19,0.05,0.38,0.1,0.57,0.14c1.13,0.25,2.28,0.38,3.44,0.38
		c4.13,0,8.04-1.62,10.95-4.45c0.17-0.16,0.33-0.33,0.49-0.5c0.01-0.01,0.01-0.02,0.02-0.02c0.11-0.12,0.22-0.24,0.32-0.36
		c0.41-0.46,0.79-0.95,1.15-1.47l0.24-0.35C46.07,17.3,46.08,17.24,46.05,17.19z M25.35,22.2l0.07-0.05c0,0.02-0.01,0.03-0.01,0.05
		c0,0.02,0.01,0.03,0.01,0.05L25.35,22.2z M45.1,17.65c-0.03,0.05-0.07,0.09-0.1,0.14c-0.06,0.08-0.11,0.15-0.17,0.23
		c-0.03,0.04-0.07,0.09-0.1,0.13c-0.06,0.07-0.12,0.15-0.17,0.22c0,0.01-0.01,0.01-0.01,0.01c-0.03,0.04-0.06,0.08-0.1,0.12
		c-0.07,0.08-0.13,0.15-0.2,0.23c-0.03,0.04-0.07,0.07-0.1,0.11c-0.07,0.08-0.13,0.15-0.2,0.22c-0.04,0.04-0.07,0.08-0.1,0.11
		c-0.06,0.06-0.11,0.12-0.17,0.18c-0.01,0.01-0.02,0.02-0.03,0.03c-0.04,0.04-0.08,0.08-0.12,0.12l-0.05,0.05
		c-0.05,0.04-0.09,0.09-0.14,0.14c-0.04,0.04-0.09,0.09-0.14,0.13c-0.01,0.01-0.02,0.02-0.03,0.02c-0.05,0.05-0.1,0.1-0.15,0.14
		c-0.06,0.05-0.11,0.1-0.17,0.15c-0.05,0.05-0.1,0.09-0.16,0.14c-0.07,0.06-0.14,0.12-0.21,0.17c-0.04,0.03-0.08,0.07-0.12,0.1
		c-0.08,0.07-0.17,0.14-0.25,0.2c-0.03,0.02-0.05,0.04-0.08,0.06c-0.1,0.08-0.2,0.15-0.31,0.23c-0.01,0.01-0.02,0.02-0.03,0.03
		c-2.17,1.56-4.73,2.53-7.44,2.77c-0.01,0-0.02,0-0.03,0c-0.14,0.01-0.28,0.02-0.42,0.03l-0.16,0.01c-0.1,0.01-0.19,0.01-0.29,0.01
		c-0.16,0.01-0.31,0.01-0.47,0.01h-0.01c-0.15,0-0.31,0-0.46-0.01c-0.1,0-0.21-0.01-0.31-0.02c-0.05,0-0.1,0-0.15-0.01
		c-0.14-0.01-0.29-0.02-0.43-0.03H31.5c-0.76-0.07-1.51-0.2-2.25-0.38c-0.2-0.05-0.39-0.1-0.59-0.16c-0.53-0.15-1.04-0.33-1.55-0.54
		c-0.02-0.01-0.04-0.02-0.05-0.02c-0.11-0.05-0.23-0.09-0.34-0.15l-0.07-0.03c-0.01-0.01-0.02-0.01-0.04-0.02
		c-0.09-0.04-0.19-0.09-0.28-0.14c-0.05-0.02-0.1-0.05-0.15-0.07c-0.07-0.03-0.14-0.07-0.21-0.1c-0.01-0.01-0.03-0.01-0.04-0.02
		c-0.03-0.02-0.05-0.03-0.08-0.04c0.02-0.02,0.04-0.03,0.06-0.05c0,0,0.01-0.01,0.01-0.01c0.09-0.07,0.17-0.14,0.26-0.21
		c0.03-0.02,0.07-0.05,0.1-0.08c0.02-0.02,0.04-0.03,0.06-0.04c0.09-0.07,0.17-0.13,0.26-0.19c0.02-0.01,0.03-0.02,0.05-0.04
		c0.36-0.26,0.73-0.51,1.1-0.74c0.15-0.1,0.3-0.19,0.45-0.28c1.77-1.07,3.67-1.91,5.66-2.49c0.45-0.13,0.91-0.25,1.36-0.35
		c0.72-0.17,1.45-0.3,2.19-0.39c0.67-0.09,1.34-0.15,2.02-0.18c0.02,0,0.04,0,0.06,0c0.16-0.01,0.33-0.01,0.49-0.02
		c0.16,0,0.32-0.01,0.48-0.01h0.02c0.2,0,0.41,0,0.61,0.01c0.08,0,0.16,0.01,0.25,0.01c0.12,0,0.24,0.01,0.36,0.01
		c0.1,0.01,0.2,0.01,0.31,0.02c0.1,0.01,0.2,0.01,0.29,0.02c0.11,0.01,0.22,0.02,0.33,0.03c0.09,0.01,0.18,0.02,0.27,0.03
		c0.06,0.01,0.11,0.01,0.16,0.02c0.01,0,0.02,0,0.03,0c0.04,0.01,0.09,0.01,0.13,0.02c0.09,0.01,0.18,0.02,0.27,0.03
		c0.1,0.01,0.21,0.03,0.31,0.04c0.1,0.02,0.19,0.03,0.29,0.04c0.01,0,0.02,0,0.02,0.01c0.09,0.01,0.18,0.03,0.26,0.04
		c0.01,0,0.02,0,0.03,0.01c0.1,0.02,0.19,0.03,0.28,0.05c0.06,0.01,0.12,0.02,0.18,0.03c0.03,0.01,0.06,0.01,0.09,0.02
		c0.07,0.01,0.13,0.03,0.19,0.04C45.15,17.58,45.12,17.61,45.1,17.65z M45.6,17.43L45.6,17.43c0-0.02-0.01-0.03-0.01-0.04
		c0-0.01,0-0.01,0-0.01c0,0,0-0.01-0.01-0.01c-0.01-0.01-0.01-0.02-0.02-0.03c0,0,0-0.01-0.01-0.01l0.09,0.02L45.6,17.43z
		 M44.32,16.79c-0.47-0.08-0.95-0.14-1.42-0.18c-0.79-0.08-1.6-0.12-2.4-0.12c-0.98,0-1.97,0.06-2.94,0.18
		c-0.72,0.09-1.44,0.21-2.15,0.36c-0.02,0-0.03,0.01-0.05,0.01c-0.46,0.1-0.92,0.21-1.37,0.34c-2.11,0.59-4.13,1.46-6.01,2.59
		c-0.15,0.09-0.3,0.18-0.45,0.28c-0.48,0.3-0.95,0.62-1.41,0.96c0.08,0.19,0.16,0.38,0.23,0.57c0.09-0.07,0.17-0.13,0.26-0.19
		c0.02-0.01,0.03-0.02,0.05-0.04c0.36-0.26,0.73-0.51,1.1-0.74c0.15-0.1,0.3-0.19,0.45-0.28c1.77-1.07,3.67-1.91,5.66-2.49
		c0.45-0.13,0.91-0.25,1.36-0.35c0.72-0.17,1.45-0.3,2.19-0.39c0.67-0.09,1.34-0.15,2.02-0.18c0.02,0,0.04,0,0.06,0
		c0.16-0.01,0.33-0.01,0.49-0.02c0.16,0,0.32-0.01,0.48-0.01h0.02c0.2,0,0.41,0,0.61,0.01c0.08,0,0.16,0.01,0.25,0.01
		c0.12,0,0.24,0.01,0.36,0.01c0.1,0.01,0.2,0.01,0.31,0.02c0.1,0.01,0.2,0.01,0.29,0.02c0.11,0.01,0.22,0.02,0.33,0.03
		c0.09,0.01,0.18,0.02,0.27,0.03c0.06,0.01,0.11,0.01,0.16,0.02c0.01,0,0.02,0,0.03,0c0.04,0.01,0.09,0.01,0.13,0.02
		c0.09,0.01,0.18,0.02,0.27,0.03c0.1,0.01,0.21,0.03,0.31,0.04c0.1,0.02,0.19,0.03,0.29,0.04c0.01,0,0.02,0,0.02,0.01l0.24-0.23
		C44.36,17.01,44.34,16.9,44.32,16.79z"/>
	<path style="fill:#3FA9F5;" d="M42.1,54.69c-0.02-0.07-0.09-0.11-0.15-0.1L41,54.62c-0.16,0.01-0.32,0.01-0.5,0.01
		c-2.89,0-5.66-0.88-8.01-2.54l-0.77-0.54c-0.05-0.04-0.13-0.04-0.19,0.01c-0.05,0.04-0.07,0.12-0.05,0.18l3.19,8.11
		c0.02,0.04,0.05,0.08,0.1,0.09c0.02,0.01,0.03,0.01,0.04,0.01c0.03,0,0.07-0.01,0.09-0.03l7.11-5.05
		C42.09,54.83,42.12,54.76,42.1,54.69z M32.21,52.3c-0.01,0-0.01,0-0.02,0c0,0-0.01,0.01-0.01,0.01c-0.01,0.01-0.02,0.01-0.03,0.02
		c-0.01,0.01-0.02,0.02-0.03,0.03c0,0,0,0,0,0c-0.01,0.01-0.01,0.02-0.01,0.03c0,0.01-0.01,0.01-0.01,0.02l-0.12-0.3l0.26,0.18
		C32.23,52.29,32.22,52.3,32.21,52.3z M34.9,59.55l-0.02-0.06c0.01,0.01,0.02,0.01,0.04,0.02c0.01,0,0.02,0.01,0.04,0.01L34.9,59.55
		z M35.04,59.11l-2.46-6.25c0.01,0,0.01,0.01,0.01,0.01c0.06,0.04,0.12,0.07,0.17,0.11c0.1,0.06,0.19,0.12,0.29,0.18
		c0.04,0.02,0.09,0.05,0.13,0.07c0.12,0.07,0.23,0.14,0.34,0.2c0.03,0.02,0.06,0.03,0.09,0.05c0.13,0.07,0.26,0.14,0.39,0.21
		c0.02,0.01,0.05,0.02,0.07,0.03c0.14,0.07,0.28,0.14,0.42,0.2c0.02,0.01,0.04,0.02,0.07,0.03c0.14,0.07,0.29,0.13,0.43,0.19
		c0.02,0.01,0.05,0.02,0.07,0.03c0.14,0.06,0.29,0.12,0.44,0.17c0.03,0.01,0.05,0.02,0.08,0.03c0.14,0.05,0.29,0.1,0.43,0.15
		c0.03,0.01,0.06,0.02,0.09,0.03c0.14,0.04,0.28,0.09,0.42,0.13c0.04,0.01,0.08,0.02,0.12,0.03c0.13,0.04,0.27,0.07,0.41,0.1
		c0.04,0.01,0.09,0.02,0.13,0.03c0.13,0.03,0.26,0.06,0.39,0.09l0.16,0.03c0.13,0.02,0.25,0.04,0.38,0.07
		c0.06,0.01,0.12,0.02,0.17,0.03c0.12,0.02,0.24,0.04,0.36,0.05c0.06,0.01,0.13,0.02,0.19,0.02c0.12,0.01,0.24,0.02,0.36,0.03
		c0.07,0.01,0.13,0.01,0.19,0.02c0.13,0.01,0.25,0.02,0.38,0.02c0.06,0,0.12,0.01,0.17,0.01c0.19,0.01,0.37,0.01,0.55,0.01h0.02
		L35.04,59.11z M41.17,55.1c0.01-0.03,0.01-0.06,0-0.09c-0.01-0.03-0.03-0.06-0.06-0.08l0.32-0.01L41.17,55.1z"/>
	<path style="fill:#3FA9F5;" d="M59.98,36.09c-0.01-0.04-0.04-0.08-0.09-0.1l-5.09-2.34l-0.57-0.26l-2-0.92l-0.27-0.12
		c-0.06-0.03-0.14-0.01-0.18,0.04c-0.04,0.05-0.05,0.13-0.01,0.19l0.32,0.52l0.17,0.27c0.11,0.17,0.21,0.35,0.31,0.53
		c0.11,0.18,0.21,0.37,0.3,0.55c0.99,1.94,1.5,4.09,1.5,6.29c0,0.42-0.02,0.84-0.06,1.26l-0.08,0.93c-0.01,0.07,0.03,0.13,0.1,0.16
		c0.02,0.01,0.04,0.01,0.06,0.01c0.05,0,0.09-0.02,0.12-0.06l3.87-4.87l0.57-0.72l0.98-1.24C59.98,36.19,59.99,36.14,59.98,36.09z
		 M52.59,32.99c-0.02,0.01-0.04,0.02-0.06,0.04c-0.02,0.02-0.03,0.05-0.03,0.08c0,0.01,0,0.01,0,0.01l-0.17-0.27l0.29,0.13
		C52.61,32.99,52.6,32.99,52.59,32.99z M54.61,42.44l0.03-0.32c0,0,0,0,0,0c0.01,0.01,0.02,0.02,0.03,0.03c0,0,0,0,0,0
		c0.01,0.01,0.03,0.02,0.04,0.02c0.01,0,0.02,0.01,0.03,0.01c0.01,0,0.02,0.01,0.02,0.01h0.01c0.01,0,0.02,0,0.03,0L54.61,42.44z
		 M58.91,36.58l-0.57,0.72l-3.38,4.25c0-0.03,0-0.06,0-0.09c0.01-0.05,0.01-0.11,0.01-0.16c0-0.07,0.01-0.14,0.01-0.21v-0.14
		c0-0.07,0-0.14,0-0.2c0-0.17,0-0.34-0.01-0.52c0-0.02,0-0.05-0.01-0.07c-0.01-0.14-0.01-0.28-0.02-0.42
		c-0.01-0.06-0.01-0.12-0.02-0.17c-0.01-0.11-0.02-0.21-0.03-0.32c-0.01-0.07-0.02-0.15-0.02-0.22c-0.01-0.09-0.02-0.17-0.03-0.26
		c-0.01-0.08-0.02-0.17-0.04-0.25c-0.01-0.07-0.02-0.15-0.04-0.22c-0.02-0.09-0.03-0.18-0.05-0.27c-0.01-0.07-0.03-0.13-0.04-0.2
		c-0.02-0.09-0.04-0.19-0.06-0.28c-0.01-0.06-0.03-0.12-0.04-0.18c-0.02-0.1-0.05-0.2-0.07-0.3c-0.02-0.06-0.03-0.12-0.05-0.17
		c-0.03-0.1-0.06-0.2-0.08-0.3c-0.02-0.05-0.04-0.11-0.05-0.17c-0.03-0.1-0.06-0.2-0.09-0.29c-0.02-0.06-0.04-0.12-0.06-0.17
		c-0.03-0.09-0.07-0.19-0.1-0.28c-0.02-0.06-0.05-0.12-0.07-0.18c-0.03-0.09-0.07-0.17-0.1-0.26c-0.03-0.07-0.06-0.14-0.09-0.21
		c-0.03-0.08-0.06-0.15-0.1-0.22c-0.04-0.1-0.09-0.2-0.14-0.3c-0.02-0.05-0.04-0.09-0.07-0.14c-0.01-0.02-0.02-0.04-0.04-0.07
		c-0.09-0.19-0.19-0.37-0.29-0.55c-0.04-0.08-0.08-0.15-0.13-0.23l0.35,0.16l0.84,0.39l0.17,0.08l1.07,0.49l3.67,1.68L58.91,36.58z
		 M59.55,36.23c0-0.01,0-0.02,0-0.04c-0.01-0.01-0.01-0.03-0.02-0.04l0.06,0.03L59.55,36.23z M54.29,34.02l-0.06,0.02l0.17,0.08
		C54.36,34.08,54.33,34.05,54.29,34.02z"/>
	<path style="fill:#3FA9F5;" d="M63.94,44.01c-0.19,1.38-0.51,2.74-0.94,4.05c-0.28,0.86-0.61,1.71-0.99,2.54l0.55,0.23
		c0.82-1.79,1.42-3.69,1.78-5.63L63.94,44.01z M64.74,40.1c-0.01-0.27-0.02-0.54-0.03-0.8c-0.05-0.83-0.14-1.66-0.27-2.48
		l-0.07-0.41c-0.01-0.05-0.04-0.1-0.09-0.12c-0.05-0.02-0.1-0.02-0.15,0.01l-0.36,0.22c-0.66,0.4-1.28,0.85-1.86,1.33
		c-0.18,0.15-0.35,0.3-0.52,0.45c-3.24,2.94-5.11,7.1-5.11,11.59c0,2.42,0.54,4.74,1.59,6.89l0.18,0.37
		c0.01,0.02,0.03,0.04,0.05,0.06c0.02,0.02,0.04,0.03,0.07,0.03l0.02,0c0.04,0,0.09-0.02,0.12-0.05l0.01-0.01v0l0.27-0.3
		c0.99-1.11,1.87-2.29,2.63-3.54c0.1-0.17,0.21-0.34,0.31-0.52c0.28-0.49,0.54-0.98,0.79-1.48c0.08-0.17,0.16-0.34,0.24-0.51
		c0.82-1.79,1.42-3.69,1.78-5.63c0.07-0.39,0.14-0.79,0.19-1.19c0.1-0.7,0.16-1.41,0.19-2.12c0.01-0.25,0.02-0.49,0.03-0.74
		c0-0.14,0-0.28,0-0.42C64.76,40.53,64.75,40.32,64.74,40.1z M64.1,36.69l0.02,0.09c0,0-0.01,0-0.01,0
		c-0.01-0.01-0.02-0.02-0.03-0.02c0,0,0,0-0.01,0c0,0,0,0-0.01,0c-0.01-0.01-0.03-0.01-0.04-0.01c0,0,0,0-0.01,0L64.1,36.69z
		 M58.21,56.74C58.21,56.74,58.21,56.74,58.21,56.74c0.02,0.01,0.03,0.01,0.05,0.01c0.02,0,0.03,0,0.05,0c0,0,0,0,0.01,0l-0.06,0.07
		L58.21,56.74z M64.14,41.86c0,0.04-0.01,0.09-0.01,0.13c-0.01,0.14-0.02,0.27-0.02,0.4c-0.01,0.1-0.02,0.2-0.02,0.3v0.01
		c-0.01,0.07-0.01,0.14-0.02,0.21c-0.01,0.14-0.03,0.28-0.04,0.42c0,0.03-0.01,0.07-0.01,0.1c-0.02,0.17-0.04,0.34-0.06,0.51
		c0,0.02-0.01,0.05-0.01,0.07c-0.19,1.38-0.51,2.74-0.94,4.05c-0.28,0.86-0.61,1.71-0.99,2.54c-0.08,0.17-0.16,0.34-0.24,0.51
		c-0.14,0.28-0.28,0.56-0.43,0.83c0,0,0,0,0,0c-0.07,0.13-0.14,0.25-0.21,0.38c-0.01,0.02-0.02,0.04-0.03,0.06
		c-0.01,0.02-0.02,0.04-0.03,0.05c-0.07,0.13-0.15,0.26-0.22,0.38c-0.01,0.01-0.01,0.02-0.02,0.03c-0.02,0.03-0.03,0.05-0.04,0.08
		c-0.07,0.11-0.14,0.22-0.21,0.33c-0.03,0.05-0.06,0.09-0.09,0.14c-0.06,0.09-0.12,0.19-0.19,0.29c-0.04,0.06-0.08,0.12-0.12,0.17
		c-0.06,0.08-0.11,0.17-0.17,0.25c-0.05,0.07-0.09,0.14-0.14,0.21c-0.05,0.07-0.1,0.14-0.15,0.21c-0.06,0.08-0.11,0.15-0.16,0.23
		c-0.05,0.06-0.09,0.13-0.14,0.19c-0.06,0.08-0.12,0.16-0.19,0.24c-0.04,0.06-0.09,0.11-0.13,0.17c-0.07,0.08-0.13,0.16-0.2,0.25
		c-0.04,0.05-0.09,0.11-0.13,0.16c-0.07,0.08-0.14,0.17-0.21,0.25c-0.04,0.05-0.09,0.1-0.13,0.16c-0.04,0.04-0.08,0.09-0.12,0.13
		c-0.01-0.02-0.02-0.04-0.03-0.06c-0.03-0.07-0.07-0.15-0.1-0.22c-0.03-0.06-0.05-0.12-0.08-0.18c-0.03-0.06-0.05-0.12-0.08-0.18
		c-0.03-0.08-0.06-0.15-0.09-0.23c-0.02-0.04-0.04-0.09-0.05-0.13c-0.04-0.1-0.07-0.19-0.11-0.29c-0.01-0.03-0.02-0.05-0.03-0.08
		c-0.04-0.12-0.08-0.23-0.12-0.35c0-0.01-0.01-0.02-0.01-0.03c-0.26-0.8-0.45-1.63-0.58-2.48c0,0,0-0.01,0-0.01
		c-0.02-0.13-0.03-0.26-0.05-0.39c0-0.02-0.01-0.04-0.01-0.05c-0.01-0.11-0.02-0.22-0.03-0.33c0-0.04-0.01-0.08-0.01-0.12
		c-0.01-0.08-0.01-0.17-0.02-0.25c0-0.07-0.01-0.13-0.01-0.19c0-0.05,0-0.1-0.01-0.15c-0.01-0.23-0.02-0.47-0.02-0.71
		c0-0.28,0.01-0.57,0.03-0.85c0-0.04,0-0.09,0.01-0.13c0.01-0.08,0.01-0.16,0.02-0.25c0.01-0.09,0.01-0.17,0.02-0.26
		c0.01-0.05,0.01-0.1,0.02-0.16c0.01-0.12,0.03-0.23,0.04-0.35c0-0.02,0.01-0.05,0.01-0.07c0.5-3.68,2.33-6.94,4.99-9.28
		c0.17-0.15,0.35-0.3,0.53-0.44c0.12-0.09,0.23-0.18,0.35-0.27c0.01-0.01,0.02-0.02,0.04-0.03c0.1-0.07,0.2-0.15,0.3-0.22
		c0.04-0.03,0.09-0.07,0.14-0.1c0.07-0.05,0.15-0.1,0.22-0.15c0.07-0.05,0.14-0.09,0.21-0.14c0.03-0.02,0.06-0.04,0.09-0.06
		c0.01,0.06,0.02,0.11,0.03,0.17c0.01,0.04,0.01,0.08,0.02,0.12c0.02,0.11,0.03,0.22,0.04,0.33c0.01,0.05,0.01,0.09,0.02,0.14
		c0.01,0.11,0.03,0.21,0.04,0.32c0.01,0.05,0.01,0.1,0.02,0.15c0.01,0.11,0.02,0.21,0.03,0.32c0.01,0.05,0.01,0.1,0.01,0.14
		c0.01,0.11,0.02,0.23,0.02,0.35c0,0.04,0.01,0.08,0.01,0.11c0.01,0.14,0.02,0.28,0.02,0.42c0,0.01,0,0.03,0,0.04s0,0.03,0,0.04
		c0.01,0.27,0.02,0.54,0.02,0.8v0.12c0,0.21,0,0.43-0.01,0.64C64.15,41.54,64.15,41.7,64.14,41.86z M63.94,44.01
		c-0.19,1.38-0.51,2.74-0.94,4.05c-0.28,0.86-0.61,1.71-0.99,2.54l0.55,0.23c0.82-1.79,1.42-3.69,1.78-5.63L63.94,44.01z"/>
	<path style="fill:#3FA9F5;" d="M52,61.42c-0.06,0.03-0.12,0.07-0.18,0.1l0.2,0.22L52,61.42z M49.23,62.73l0.28,0.25l-0.06-0.33
		C49.38,62.67,49.3,62.7,49.23,62.73z M46.1,63.73l0.63,0.45h0c0.1-0.03,0.21-0.05,0.31-0.08l-0.17-0.57
		C46.61,63.6,46.35,63.67,46.1,63.73z M56.01,59.12l-0.37-0.2c-0.15-0.08-0.3-0.16-0.45-0.24c-0.15-0.08-0.3-0.15-0.45-0.22
		C52.68,57.5,50.41,57,48.13,57c-5.16,0-9.99,2.54-12.92,6.8l-0.24,0.34c-0.03,0.04-0.04,0.1-0.02,0.15
		c0.02,0.05,0.06,0.08,0.11,0.09l0.41,0.09c1.64,0.35,3.34,0.52,5.03,0.52c0.62,0,1.24-0.02,1.85-0.07
		c0.07-0.01,0.15-0.01,0.22-0.02h0c0.59-0.05,1.16-0.12,1.74-0.22c0.16-0.02,0.31-0.05,0.46-0.08c0.45-0.08,0.91-0.17,1.35-0.28
		c0.2-0.04,0.39-0.09,0.58-0.15h0c0.1-0.03,0.21-0.05,0.31-0.08c0.15-0.04,0.29-0.08,0.44-0.13c0.6-0.18,1.19-0.38,1.77-0.61
		c0.25-0.1,0.5-0.2,0.75-0.3c0.62-0.26,1.22-0.55,1.81-0.86c0.23-0.12,0.45-0.24,0.68-0.37c0.55-0.31,1.09-0.65,1.62-1
		c0.13-0.08,0.25-0.17,0.38-0.26c0.06-0.04,0.12-0.08,0.18-0.13c0.16-0.11,0.32-0.23,0.47-0.35c0.19-0.14,0.38-0.29,0.57-0.44
		l0.33-0.26c0.04-0.03,0.06-0.08,0.06-0.14C56.08,59.19,56.06,59.14,56.01,59.12z M35.44,64.15l-0.09-0.02l0.05-0.07
		c0,0.02,0.01,0.03,0.01,0.05C35.42,64.12,35.43,64.13,35.44,64.15C35.44,64.15,35.44,64.15,35.44,64.15z M55.03,59.42
		c-0.06,0.04-0.11,0.08-0.16,0.13c-0.06,0.04-0.12,0.09-0.18,0.14c-0.01,0.01-0.02,0.02-0.03,0.02c-0.07,0.05-0.14,0.1-0.21,0.16
		c-0.05,0.04-0.1,0.08-0.15,0.11c-0.05,0.04-0.1,0.07-0.15,0.11c-0.04,0.03-0.09,0.07-0.14,0.1c-0.02,0.02-0.05,0.03-0.07,0.05
		c-0.05,0.04-0.11,0.08-0.16,0.11c-0.43,0.29-0.87,0.57-1.32,0.83c-0.15,0.08-0.3,0.17-0.44,0.25c-0.06,0.03-0.12,0.07-0.18,0.1
		c-0.14,0.08-0.28,0.15-0.42,0.22c-0.5,0.26-1,0.5-1.51,0.72c-0.14,0.06-0.29,0.12-0.44,0.18c-0.07,0.03-0.15,0.06-0.22,0.09
		c-0.16,0.07-0.32,0.13-0.48,0.19c-0.47,0.18-0.96,0.34-1.44,0.48c-0.15,0.04-0.29,0.09-0.44,0.13c-0.26,0.07-0.51,0.14-0.77,0.2h0
		c-0.2,0.05-0.4,0.09-0.6,0.14c-0.32,0.07-0.63,0.13-0.95,0.18c-0.15,0.03-0.31,0.05-0.46,0.08c-1.02,0.16-2.04,0.25-3.08,0.27
		c-0.17,0-0.34,0.01-0.5,0.01h-0.01c-0.2,0-0.4,0-0.6-0.01c-0.09,0-0.18-0.01-0.27-0.01c-0.11-0.01-0.22-0.01-0.33-0.01
		c-0.11-0.01-0.22-0.01-0.33-0.02c-0.09-0.01-0.18-0.01-0.27-0.02c-0.11-0.01-0.23-0.02-0.35-0.03c-0.08-0.01-0.17-0.02-0.25-0.02
		c-0.11-0.01-0.23-0.03-0.34-0.04c-0.09-0.01-0.17-0.02-0.26-0.03c-0.11-0.02-0.22-0.03-0.33-0.05c-0.09-0.01-0.18-0.02-0.27-0.04
		c-0.1-0.02-0.21-0.03-0.31-0.05c-0.1-0.02-0.19-0.03-0.29-0.05c-0.1-0.02-0.19-0.04-0.29-0.05c-0.06-0.01-0.12-0.02-0.18-0.04
		c0.02-0.02,0.03-0.04,0.04-0.06c0.05-0.08,0.11-0.15,0.17-0.23c0.04-0.04,0.07-0.09,0.11-0.14c0.05-0.07,0.11-0.14,0.17-0.22
		c0.04-0.05,0.07-0.09,0.11-0.14c0.06-0.07,0.12-0.14,0.17-0.21c0.04-0.05,0.08-0.09,0.12-0.14c0.06-0.07,0.12-0.14,0.18-0.2
		c0.04-0.04,0.08-0.09,0.12-0.13c0.07-0.07,0.13-0.14,0.19-0.2c0.04-0.04,0.08-0.08,0.11-0.12c0.07-0.07,0.14-0.14,0.21-0.21
		c0.03-0.03,0.07-0.07,0.1-0.1c0.08-0.08,0.16-0.15,0.24-0.22c0.03-0.02,0.05-0.05,0.08-0.08c0.09-0.08,0.18-0.16,0.27-0.24
		c0.02-0.02,0.04-0.03,0.05-0.04c0.1-0.09,0.21-0.18,0.31-0.26c0.01-0.01,0.01-0.01,0.02-0.01c2.43-1.97,5.43-3.16,8.6-3.36
		c0.04,0,0.09,0,0.13-0.01c0.11-0.01,0.21-0.01,0.32-0.02c0.15-0.01,0.3-0.01,0.45-0.01h0.01c0.16,0,0.31,0,0.47,0.01
		c0.1,0,0.2,0.01,0.3,0.01c0.05,0,0.1,0.01,0.16,0.01c0.14,0.01,0.28,0.02,0.42,0.03h0.03c1.36,0.13,2.7,0.43,3.97,0.91
		c0.01,0.01,0.02,0.01,0.04,0.01c0.12,0.05,0.24,0.09,0.36,0.14c0.03,0.01,0.07,0.03,0.1,0.04c0.1,0.04,0.2,0.08,0.29,0.13
		c0.05,0.02,0.1,0.05,0.15,0.07c0.08,0.04,0.16,0.07,0.23,0.11c0.02,0.01,0.04,0.02,0.07,0.03c0.05,0.02,0.09,0.04,0.14,0.07
		c0.07,0.03,0.13,0.06,0.19,0.1c0.04,0.02,0.07,0.04,0.1,0.06C55.11,59.36,55.07,59.39,55.03,59.42z M55.58,59.33
		C55.58,59.33,55.58,59.33,55.58,59.33c0-0.02,0-0.02,0-0.03v-0.02c0-0.01,0-0.01,0-0.02c0-0.01-0.01-0.02-0.01-0.03c0,0,0,0,0-0.01
		l0.08,0.04L55.58,59.33z M46.87,63.53c-0.26,0.07-0.51,0.14-0.77,0.2l0.63,0.45h0c0.1-0.03,0.21-0.05,0.31-0.08L46.87,63.53z
		 M49.45,62.64c-0.07,0.03-0.15,0.06-0.22,0.09l0.28,0.25L49.45,62.64z M52,61.42c-0.06,0.03-0.12,0.07-0.18,0.1l0.2,0.22L52,61.42z
		"/>
	<path style="fill:#3FA9F5;" d="M68.08,41.9l-0.33-0.09l-0.01,0l-0.36-0.1c0-0.09,0.01-0.17,0.01-0.25c-0.03,0-0.06-0.01-0.09-0.01
		l-0.27-0.72l-0.1,0.02c-0.07,0.02-0.12,0.08-0.12,0.15l-0.01,0.22c0,0.21-0.01,0.43-0.02,0.68v0.02l-0.01,0.2
		c0,0.07,0.04,0.14,0.11,0.16l1.8,0.49c0.13-0.17,0.25-0.34,0.38-0.51L68.08,41.9z M67.69,43.84l0.23-0.03
		c0.14-0.22,0.29-0.43,0.44-0.65l-1.25,0.14L67.69,43.84z M61.94,58.05l-0.77-0.4l-0.25-0.13c-0.06-0.03-0.14-0.02-0.19,0.04
		l-0.02,0.02v0l-0.13,0.15c-0.14,0.16-0.28,0.33-0.45,0.51L60,58.41c-0.05,0.05-0.05,0.13-0.01,0.19l0.33,0.48l0.35,0.49v0
		l0.23,0.33l0.75,0.03l-0.78-1.11l-0.2-0.28c0.1-0.12,0.2-0.23,0.3-0.34l0.06,0.03l1.16,0.6l0.57,0.3l-0.24-0.79L61.94,58.05z
		 M59.62,59.72L59.62,59.72l-0.43-0.28c-0.06-0.04-0.14-0.03-0.19,0.02l-0.16,0.15c-0.06,0.06-0.12,0.12-0.19,0.18
		c-0.1,0.09-0.2,0.19-0.31,0.28l-0.16,0.15c-0.05,0.05-0.07,0.13-0.03,0.19l0.18,0.32l0.45,0.78l0.25,0.43
		c0.21-0.03,0.43-0.05,0.64-0.07l-0.25-0.43l-0.04-0.08l-0.54-0.94c0.01-0.01,0.02-0.02,0.03-0.03l-0.07-0.04l0.1,0.01
		c0.09-0.08,0.17-0.16,0.26-0.25l0.43,0.28l0.33,0.01l0.52,0.02l0.04-0.16l-0.66-0.43L59.62,59.72z M57.26,61.19
		c-0.06-0.05-0.14-0.05-0.19,0l-0.17,0.14c-0.13,0.1-0.33,0.26-0.54,0.42l-0.18,0.13c-0.05,0.04-0.07,0.1-0.06,0.17
		c0,0.01,0.01,0.02,0.01,0.02l0.18,0.4c0.19-0.05,0.39-0.1,0.58-0.14l-0.08-0.19c0.12-0.1,0.25-0.19,0.36-0.28l0.41,0.32
		c0.26-0.05,0.52-0.09,0.78-0.13l-0.49-0.39L57.26,61.19z M54.98,62.71l-0.19,0.12c-0.07,0.05-0.14,0.09-0.21,0.14
		c0.21-0.07,0.42-0.14,0.63-0.2l-0.04-0.04C55.12,62.68,55.04,62.68,54.98,62.71z M47.98,65.97l-0.21,0.06
		c-0.01,0-0.02,0.01-0.04,0.01c-0.22,0.06-0.43,0.12-0.62,0.17l-0.22,0.05c-0.07,0.02-0.12,0.08-0.11,0.16l0.01,0.36l0.02,0.59
		c0.19-0.16,0.38-0.32,0.57-0.48l0-0.14c0.09-0.02,0.18-0.05,0.27-0.08c0.2-0.15,0.4-0.31,0.61-0.46l-0.1-0.18
		C48.13,65.98,48.05,65.95,47.98,65.97z M45.76,66.95L45.76,66.95l-0.11-0.27c-0.03-0.07-0.1-0.1-0.17-0.09l-0.22,0.04
		c-0.13,0.02-0.26,0.05-0.4,0.07c-0.09,0.01-0.19,0.03-0.28,0.04l-0.22,0.04c-0.07,0.01-0.13,0.07-0.13,0.14l-0.12,1.59l-0.04,0.63
		c0.07,0.03,0.14,0.05,0.2,0.08c0.14-0.15,0.28-0.31,0.42-0.46l0-0.03l0.1-1.43c0.15-0.02,0.3-0.05,0.45-0.08l0.3,0.68l0.19,0.45
		c0.15-0.15,0.3-0.29,0.46-0.43l-0.19-0.44L45.76,66.95z M43.34,67.86L43.34,67.86l-0.26-0.81c-0.02-0.07-0.09-0.11-0.16-0.11
		l-0.09,0.01l-0.13,0.01c-0.12,0.01-0.25,0.02-0.37,0.03c-0.1,0.01-0.2,0.01-0.31,0.02l-0.22,0.01c-0.07,0-0.13,0.06-0.15,0.13
		l-0.08,0.46v0l-0.01,0.05l-0.07,0.41l0.56,0.23l0.08-0.46l0-0.02l0.04-0.24c0.07,0,0.15-0.01,0.22-0.01c0,0,0,0,0.01,0
		c0.08-0.01,0.15-0.01,0.22-0.02l0.15,0.47l0.03,0.1l0.18,0.57l0.52,0.22c0.06,0.02,0.12,0.04,0.17,0.07c0.01,0,0.01,0,0.01,0
		l-0.23-0.73L43.34,67.86z M40.62,67.8l-0.02-0.09l-0.11-0.54c0-0.01,0-0.01-0.01-0.01c-0.02-0.06-0.08-0.11-0.15-0.11l-0.22,0
		c-0.22,0-0.44-0.01-0.68-0.02l-0.22-0.01H39.2c-0.07,0-0.13,0.05-0.15,0.11l-0.37,1.35l-0.16,0.59l-0.22,0.8
		c0.04-0.06,0.08-0.13,0.13-0.2c0.04-0.06,0.11-0.08,0.17-0.06l0.35,0.1l0.15-0.54l0.16-0.59l0.27-0.97c0.07,0,0.14,0.01,0.21,0.01
		h0.02c0.05,0,0.1,0,0.14,0c0.03,0,0.05,0,0.08,0l0.23,1.05l0.07,0.33l0.02,0.09l0,0.01l0.07,0.34v0h0.01
		c0.07,0.02,0.13-0.01,0.17-0.07c0.01-0.01,0.01-0.01,0.01-0.02l0.21-0.46l0.06-0.14v0L40.62,67.8L40.62,67.8z M37.76,66.91
		l-0.22-0.02c-0.2-0.02-0.44-0.05-0.68-0.09l-0.03-0.01c-0.01,0-0.01,0-0.02,0l-0.17-0.02c-0.02,0-0.03,0-0.04,0h0
		c-0.06,0.01-0.1,0.04-0.12,0.1l-0.19,0.49c0.2,0.02,0.41,0.03,0.61,0.06l0-0.01c0.07,0.01,0.14,0.02,0.21,0.03
		c0.01,0,0.03,0,0.04,0.01c0.07,0.01,0.13,0.02,0.2,0.02v0.01c0.13,0.01,0.25,0.03,0.38,0.04l0.06,1.32c0,0.08,0.06,0.14,0.13,0.15
		l0.2,0.03l-0.22-1.96C37.89,66.98,37.83,66.92,37.76,66.91z M35.33,66.67c0-0.07-0.05-0.14-0.12-0.15l-0.22-0.05
		c-0.25-0.05-0.47-0.11-0.67-0.15l-0.22-0.05c-0.07-0.02-0.14,0.02-0.17,0.08l-0.16,0.31l-0.31,0.61c0.2-0.01,0.41-0.01,0.61-0.01
		h0.05l0.17-0.34c0.14,0.03,0.28,0.07,0.44,0.1l0.01,0.25c0.2,0.01,0.39,0.01,0.59,0.02l-0.01-0.61V66.67z M32.71,65.88l-0.21-0.07
		c-0.19-0.06-0.39-0.13-0.58-0.19l-0.28-0.1c-0.07-0.03-0.15,0-0.18,0.06l-1.63,2.58l0.55-3c0.01-0.07-0.02-0.14-0.09-0.17
		l-0.2-0.09c-0.2-0.09-0.41-0.18-0.63-0.28l-0.2-0.09c-0.07-0.03-0.14-0.01-0.19,0.04l-1.87,2.41l0.84-2.94
		c0.02-0.07-0.01-0.14-0.08-0.18l-0.19-0.11c-0.19-0.1-0.38-0.21-0.6-0.34l-0.19-0.11c-0.06-0.04-0.14-0.03-0.19,0.03l-1.15,1.22
		l-0.4,0.42l0,0L25.2,65l-0.52,0.55l0.31-0.79l0-0.01l0.12-0.3l0.4-1.01l0.11-0.29l0.17-0.44c0.03-0.07,0.01-0.14-0.05-0.19
		l-0.18-0.13c-0.15-0.1-0.29-0.2-0.43-0.31l0,0c-0.04-0.03-0.08-0.06-0.13-0.09l-0.18-0.13c-0.06-0.04-0.14-0.04-0.2,0.01
		l-0.04,0.04l-0.2,0.17l-0.52,0.45l-0.01,0.01l-0.58,0.5l-0.2,0.17l-0.24,0.21c0.1,0.17,0.2,0.35,0.29,0.53l0.24-0.21l0.47-0.4
		l0.32-0.28l0.01-0.01l0.03-0.03l0.29-0.25l0.26-0.23c0.12,0.09,0.25,0.17,0.37,0.26l-0.19,0.48l-0.13,0.32l-0.12,0.3l0,0.01
		l-0.41,1.03l0.53,0.1l-0.3,0.5c-0.01,0.01-0.01,0.02-0.02,0.03c-0.01,0.04-0.01,0.08,0.01,0.11c0.02,0.05,0.06,0.08,0.11,0.09
		l0.55,0.12l0.25-0.27l0-0.01l0.25-0.26l1.3-1.37c0.14,0.08,0.27,0.15,0.39,0.22l-0.85,2.97l-0.08,0.28
		c-0.02,0.07,0.01,0.15,0.08,0.18c0.02,0.01,0.04,0.02,0.06,0.03c0.01,0.01,0.03,0.01,0.04,0.02c0.14,0.08,0.29,0.15,0.43,0.22
		c0.02,0.01,0.03,0.01,0.05,0.02c0.05,0.01,0.11-0.02,0.14-0.06l0.36-0.47l1.72-2.2c0.14,0.07,0.28,0.13,0.41,0.19l-0.57,3.15
		l-0.03,0.19c-0.01,0.07,0.03,0.14,0.1,0.17c0.14,0.06,0.28,0.12,0.43,0.17c0.11-0.02,0.23-0.04,0.34-0.06l0.43-0.68l0.56-0.89v0
		l0.42-0.66v0l0.38-0.6c0.14,0.05,0.28,0.1,0.43,0.14l-0.03,0.39l-0.05,0.61c0.2-0.02,0.4-0.03,0.6-0.03l0.05-0.61l0.05-0.65
		C32.82,65.97,32.77,65.9,32.71,65.88z M23.03,62.51l0.16-0.3l0.07-0.13v0l0.46-0.9c0.01-0.01,0.01-0.02,0.01-0.02
		c0.02-0.06,0.01-0.13-0.04-0.17l-0.17-0.14c-0.07-0.06-0.14-0.12-0.2-0.17c-0.11-0.09-0.22-0.19-0.32-0.27l-0.06-0.06l-0.1-0.09
		c-0.05-0.05-0.14-0.05-0.2-0.01l-0.41,0.29l-0.04,0.03h0l-0.4,0.29l-0.15,0.1l-0.25,0.18c0.11,0.16,0.22,0.32,0.33,0.49l0.25-0.18
		l0.51-0.36l0.22-0.15c0.04,0.04,0.09,0.08,0.13,0.12c0,0,0,0,0.01,0c0.07,0.06,0.13,0.11,0.2,0.17l-0.11,0.21l0,0.01l-0.16,0.3
		l-0.26,0.51l-0.17,0.33c0.13,0.2,0.24,0.4,0.36,0.6l0.17-0.33L23.03,62.51z M21.72,59.55L21.72,59.55l0.08-0.13
		c0.03-0.05,0.03-0.1,0.01-0.15v0c0-0.01-0.01-0.02-0.01-0.02c0,0,0,0,0,0c0-0.01-0.01-0.01-0.01-0.02l-0.12-0.12l-0.01-0.01
		l-0.03-0.03c-0.16-0.17-0.31-0.32-0.44-0.46c0,0,0,0-0.01-0.01c-0.01-0.01-0.02-0.02-0.03-0.03l-0.1-0.11L21,58.41
		c-0.02-0.02-0.04-0.03-0.06-0.04c0,0-0.01,0-0.01-0.01c-0.03-0.01-0.07-0.01-0.1,0.01c-0.01,0-0.01,0.01-0.02,0.01l-0.4,0.23
		l-0.22,0.13c0.02,0.01,0.04,0.01,0.06,0.01l0.15-0.01c-0.02,0.16-0.05,0.31-0.08,0.47c0.03,0.03,0.05,0.07,0.08,0.1l0.32-0.18
		l0.09-0.05c0.04,0.04,0.08,0.09,0.13,0.14c0.06,0.06,0.12,0.13,0.18,0.19l-0.03,0.05l-0.25,0.39l-0.02,0.04
		c-0.02,0.11-0.05,0.23-0.08,0.34c0,0.01,0,0.02-0.01,0.03c0.1,0.13,0.2,0.26,0.3,0.39l0.01-0.02l0.18-0.28l0.11-0.16l0.39-0.6
		L21.72,59.55z M19.94,57.17L19.94,57.17l-0.03-0.03c-0.05-0.06-0.1-0.13-0.15-0.19c0,0-0.01-0.01-0.01-0.01
		c-0.09-0.11-0.18-0.23-0.26-0.34l-0.14-0.18c-0.02-0.02-0.04-0.04-0.06-0.05c-0.01-0.01-0.02-0.01-0.03-0.01
		c-0.03-0.01-0.07-0.01-0.1,0.01l-0.75,0.33l0.51-0.09l-0.1,0.55l0.26-0.12c0.07,0.09,0.14,0.19,0.21,0.28l0.27-0.04l-0.12,0.57
		c-0.01,0.05,0,0.1,0.04,0.14c0.03,0.03,0.07,0.05,0.12,0.05l0.27-0.34l0.04-0.05l0.12-0.15c0.04-0.05,0.04-0.14,0-0.19L19.94,57.17
		z M18.54,55.25c0-0.01-0.01-0.02-0.01-0.03l-0.12-0.19c-0.03-0.04-0.06-0.09-0.09-0.14c-0.02-0.03-0.04-0.06-0.07-0.09v0
		c-0.05-0.09-0.11-0.17-0.16-0.26c-0.02-0.03-0.03-0.05-0.05-0.08c0,0,0,0,0-0.01l-0.12-0.19c-0.04-0.06-0.11-0.09-0.18-0.07
		l-0.23,0.08l-0.32,0.11l-0.06,0.02l-1.05,0.35c0.01,0.04,0.02,0.08,0.06,0.1c0.04,0.03,0.09,0.04,0.14,0.03l0.57-0.16l-0.03,0.41
		l0.32-0.11l0.06-0.02l0.1-0.03l0.31-0.1l0.06,0.1c0,0,0,0,0.01,0.01c0.05,0.08,0.1,0.17,0.16,0.26c0,0.01,0.01,0.01,0.01,0.02
		l-0.31,0.32l0,0l-0.04,0.34c-0.01,0.05,0.01,0.1,0.05,0.13c0.04,0.03,0.09,0.05,0.14,0.04l0.23-0.05l0.39-0.4l0.01-0.01l0.2-0.2
		C18.56,55.37,18.57,55.3,18.54,55.25z M16.44,53.82l0.33-0.28l0.41-0.34c0.05-0.05,0.07-0.13,0.04-0.19l-0.1-0.2
		c-0.08-0.15-0.15-0.31-0.23-0.46c-0.02-0.05-0.05-0.1-0.07-0.15l-0.1-0.2c-0.02-0.05-0.07-0.08-0.12-0.09
		c-0.02-0.01-0.04-0.01-0.06,0l-1.4,0.32l-0.45,0.1h0l-0.27,0.06l-0.31,0.07l-0.01,0l0.02,0.43l0.55-0.22
		c0.05-0.02,0.1-0.01,0.14,0.01c0.04,0.03,0.07,0.08,0.07,0.13l0,0.07l0.01,0l0.31-0.07l0.66-0.15l0.46-0.1
		c0.01,0.01,0.01,0.02,0.02,0.03c0.05,0.1,0.1,0.2,0.15,0.31c0.01,0.02,0.02,0.05,0.03,0.07l-0.54,0.46l-0.32,0.27l-0.01,0
		l-0.32,0.27l0,0.2c0,0.05,0.02,0.1,0.06,0.13c0.04,0.03,0.09,0.04,0.14,0.02l0.48-0.15l0.38-0.32L16.44,53.82z M67.4,41.26
		l0.5-0.11l0.97-0.21l0.83-0.18l0.54-0.12l0.02-0.01l0.56-0.12c0.02,0,0.03-0.01,0.05-0.02c0.05-0.03,0.08-0.08,0.08-0.13
		c0-0.19-0.01-0.37-0.01-0.56c0-0.07-0.06-0.14-0.13-0.15l-0.52-0.09l-0.56-0.1l-2.38-0.41c-0.01-0.15-0.02-0.3-0.03-0.45l2.44-0.78
		l0.56-0.18l0.25-0.08h0.01l0.07-0.02c0.07-0.02,0.11-0.09,0.11-0.16c-0.01-0.14-0.03-0.28-0.05-0.42
		c-0.01-0.04-0.01-0.09-0.02-0.13c-0.01-0.07-0.07-0.13-0.14-0.14l-0.21-0.02l-0.56-0.04l-2.73-0.19c-0.02-0.15-0.05-0.29-0.07-0.43
		c0-0.01,0-0.01,0-0.02l0.93-0.4l1.91-0.83l0.38-0.16c0.07-0.03,0.1-0.1,0.09-0.17c-0.04-0.18-0.08-0.36-0.12-0.54
		c-0.01-0.02-0.01-0.03-0.02-0.05c-0.03-0.04-0.08-0.07-0.13-0.07l-0.17,0.01l-0.49,0.01l-2.61,0.07l-0.22,0.01
		c-0.03-0.14-0.08-0.28-0.12-0.44L68.97,32l0.48-0.27c0.07-0.04,0.09-0.12,0.07-0.19l-0.01-0.02c-0.03-0.08-0.06-0.17-0.08-0.25
		c-0.03-0.09-0.06-0.17-0.08-0.26c-0.02-0.05-0.06-0.09-0.11-0.1c-0.01,0-0.03,0-0.04,0h-0.01l-0.27,0.03l-3.19,0.4
		c-0.05-0.14-0.1-0.28-0.16-0.42l2.87-1.99c0.06-0.04,0.08-0.12,0.06-0.19l-0.04-0.09c-0.01-0.03-0.02-0.06-0.04-0.08
		c-0.03-0.07-0.06-0.15-0.1-0.22c-0.02-0.04-0.03-0.08-0.05-0.12c-0.03-0.06-0.08-0.09-0.14-0.09c-0.01,0-0.02,0-0.04,0l-3.4,0.77
		c-0.08-0.15-0.14-0.28-0.2-0.41l2.66-2.25c0.06-0.05,0.07-0.13,0.04-0.2l-0.03-0.05c-0.08-0.15-0.16-0.3-0.25-0.44
		c-0.03-0.05-0.08-0.08-0.13-0.08c-0.02,0-0.04,0-0.06,0.01l-3.3,1.1c-0.07-0.12-0.15-0.24-0.24-0.38l2.42-2.49
		c0.05-0.05,0.06-0.14,0.02-0.2c-0.11-0.15-0.21-0.31-0.33-0.46c-0.02-0.03-0.05-0.05-0.09-0.06c-0.03-0.01-0.07-0.01-0.1,0.01
		l-3.17,1.42c-0.1-0.13-0.19-0.24-0.28-0.36l0.83-1.05l0.61-0.77l0.71-0.9c0.05-0.06,0.04-0.14,0-0.2
		c-0.12-0.14-0.24-0.28-0.36-0.42c-0.01,0-0.01-0.01-0.01-0.01c-0.02-0.03-0.06-0.04-0.09-0.05c-0.03-0.01-0.07,0-0.1,0.02
		l-0.14,0.08l-2.87,1.63c-0.11-0.12-0.21-0.22-0.31-0.33l1.88-2.91c0.04-0.06,0.03-0.14-0.02-0.2c-0.14-0.13-0.28-0.27-0.42-0.4
		c-0.03-0.03-0.06-0.04-0.1-0.04c-0.04,0-0.07,0.01-0.1,0.03l-0.08,0.06l-0.74,0.53l-2,1.41c-0.12-0.1-0.23-0.2-0.34-0.29l1.58-3.07
		c0.03-0.07,0.02-0.15-0.04-0.19c-0.15-0.12-0.3-0.24-0.45-0.35c-0.03-0.02-0.07-0.03-0.1-0.03c-0.04,0-0.07,0.01-0.1,0.04
		l-2.61,2.26c-0.12-0.09-0.24-0.17-0.37-0.26l1.27-3.2c0.03-0.07,0-0.15-0.06-0.19c-0.16-0.1-0.33-0.21-0.49-0.31
		c-0.03-0.02-0.07-0.03-0.1-0.02c-0.03,0.01-0.07,0.02-0.09,0.05l-2.37,2.49c-0.12-0.07-0.25-0.14-0.39-0.22l0.21-0.73l0.08-0.27
		l0.66-2.3c0.02-0.07-0.01-0.15-0.08-0.18c-0.13-0.07-0.25-0.13-0.38-0.19l-0.14-0.07c-0.02-0.01-0.03-0.01-0.05-0.02
		c-0.05-0.01-0.1,0.02-0.14,0.06l-0.3,0.38l-0.43,0.55l-0.87,1.11l-0.51,0.66c-0.13-0.06-0.27-0.12-0.41-0.19l0.21-1.14l0.15-0.8
		l0.18-0.97l0.08-0.45c0.01-0.07-0.03-0.14-0.1-0.17c-0.03-0.01-0.07-0.03-0.1-0.04c-0.15-0.06-0.29-0.12-0.44-0.17
		c-0.02-0.01-0.03-0.01-0.05-0.01c-0.05,0-0.1,0.03-0.13,0.07l-1.03,1.63l-0.01,0.01l-0.5,0.8l-0.16,0.25l-0.13,0.2
		c-0.08-0.03-0.15-0.05-0.22-0.08c-0.07-0.02-0.14-0.05-0.21-0.07l0.18-2.15l0.07-0.84l0.02-0.2l0.02-0.22
		c0.01-0.07-0.04-0.14-0.11-0.16c-0.03-0.01-0.06-0.02-0.09-0.02c-0.16-0.05-0.32-0.09-0.48-0.13c-0.02-0.01-0.04-0.01-0.05,0
		c-0.05,0-0.1,0.03-0.13,0.08l-0.08,0.15l-0.27,0.54l-0.02,0.04l-0.18,0.36l-0.85,1.7l-0.13,0.25c-0.14-0.03-0.29-0.07-0.44-0.1
		l-0.05-3.4c0-0.08-0.06-0.14-0.13-0.15c-0.19-0.04-0.39-0.07-0.59-0.1c-0.01,0-0.02,0-0.02,0c-0.07,0-0.13,0.04-0.15,0.1
		l-0.03,0.09l-0.36,0.93l-0.36,0.93l-0.01,0.03l-0.23,0.61l-0.01,0.04l-0.21,0.56c-0.14-0.02-0.29-0.04-0.45-0.06l-0.01-0.05
		l-0.04-0.33l-0.04-0.37l-0.03-0.24l-0.13-1.11l-0.09-0.79l-0.05-0.47c-0.01-0.07-0.07-0.13-0.14-0.14
		c-0.16-0.01-0.33-0.03-0.49-0.04c-0.04,0-0.07-0.01-0.11-0.01h0c-0.07,0-0.14,0.04-0.16,0.12l-0.15,0.55l-0.57,2.1l-0.17,0.62
		c-0.15-0.01-0.3-0.01-0.45-0.01l-0.12-0.56l-0.59-2.74c-0.02-0.07-0.08-0.13-0.16-0.12c-0.2,0-0.4,0.01-0.6,0.02
		c-0.07,0-0.14,0.06-0.15,0.13l-0.46,2.72l-0.1,0.61c-0.03,0-0.06,0.01-0.09,0.01c-0.12,0.01-0.24,0.02-0.36,0.03l-0.01-0.04
		l-0.21-0.64l-0.81-2.53c-0.02-0.05-0.06-0.09-0.11-0.1c-0.01,0-0.03,0-0.04,0h-0.01c-0.2,0.02-0.4,0.04-0.6,0.07
		c-0.07,0.01-0.13,0.07-0.14,0.14l-0.16,2.2l-0.05,0.64l-0.04,0.52c-0.05,0.01-0.12,0.02-0.17,0.03c-0.03,0.01-0.06,0.01-0.09,0.01
		c-0.06,0.01-0.12,0.02-0.18,0.03l-0.32-0.73l-0.31-0.72l-0.71-1.64c-0.02-0.05-0.07-0.09-0.12-0.09c-0.02,0-0.04,0-0.05,0
		c-0.14,0.03-0.27,0.06-0.41,0.09c-0.06,0.01-0.12,0.03-0.18,0.04c-0.07,0.02-0.12,0.08-0.12,0.16l0.02,0.55l0.01,0.51l0.02,0.68
		l0.04,1.62c-0.16,0.04-0.3,0.08-0.44,0.12l-1.63-2.94c-0.02-0.03-0.05-0.06-0.08-0.07c-0.02-0.01-0.03-0.01-0.05-0.01
		c-0.02,0-0.04,0-0.05,0.01c-0.18,0.06-0.36,0.12-0.54,0.18c-0.01,0-0.03,0.01-0.04,0.01c-0.05,0.02-0.09,0.06-0.1,0.11
		c-0.01,0.02-0.01,0.04-0.01,0.06l0.4,3.13l0.02,0.2c-0.14,0.05-0.28,0.1-0.42,0.16l-0.05-0.08l-0.41-0.58l-1.45-2.09
		c-0.02-0.03-0.05-0.05-0.09-0.06c-0.03-0.01-0.07-0.01-0.1,0.01c-0.19,0.08-0.38,0.16-0.56,0.25c-0.07,0.03-0.1,0.1-0.09,0.17
		l0.19,0.83l0.17,0.76l0.38,1.67c-0.13,0.07-0.27,0.13-0.4,0.2l-1.77-2.09l-0.39-0.46c-0.04-0.04-0.09-0.06-0.14-0.05
		c-0.02,0-0.03,0.01-0.05,0.02c-0.01,0-0.02,0.01-0.02,0.01c-0.18,0.1-0.34,0.19-0.5,0.28c-0.01,0.01-0.02,0.01-0.02,0.01
		c-0.06,0.04-0.09,0.12-0.07,0.18l0.37,1.12l0.07,0.22l0.61,1.84c-0.01,0.01-0.02,0.01-0.03,0.02c-0.12,0.08-0.23,0.15-0.35,0.22
		l-2.39-2.32c-0.03-0.03-0.06-0.04-0.09-0.04c-0.04,0-0.07,0.01-0.1,0.03c-0.01,0.01-0.02,0.01-0.02,0.02
		c-0.08,0.06-0.17,0.12-0.25,0.18c-0.07,0.04-0.13,0.09-0.19,0.13c-0.02,0.01-0.03,0.02-0.05,0.03c-0.06,0.04-0.08,0.12-0.05,0.19
		L23,16.66l1.2,2.69c-0.11,0.08-0.22,0.17-0.36,0.28l-2.6-2.07c-0.03-0.03-0.08-0.03-0.12-0.03c-0.03,0-0.05,0.01-0.08,0.03
		c-0.01,0.01-0.03,0.02-0.04,0.04c-0.13,0.11-0.26,0.22-0.4,0.34c-0.01,0.01-0.02,0.02-0.04,0.03c-0.05,0.05-0.07,0.13-0.03,0.2
		l1.65,2.89c-0.12,0.11-0.23,0.21-0.33,0.31l-2.79-1.8c-0.03-0.02-0.07-0.03-0.1-0.02c-0.04,0.01-0.07,0.02-0.1,0.05
		c-0.02,0.02-0.03,0.03-0.05,0.05c-0.12,0.13-0.24,0.25-0.36,0.38c-0.01,0.01-0.02,0.02-0.02,0.02c-0.05,0.05-0.05,0.14-0.01,0.2
		l1.27,1.79c0,0,0,0,0,0l0.65,0.91c-0.04,0.05-0.09,0.09-0.13,0.14c-0.06,0.06-0.12,0.13-0.17,0.19l-1.86-0.95l-0.87-0.45
		l-0.22-0.12c-0.02-0.01-0.03-0.02-0.05-0.02c-0.05-0.01-0.11,0.01-0.14,0.05c-0.13,0.16-0.26,0.33-0.39,0.5
		c-0.05,0.06-0.04,0.14,0.01,0.2l2.17,2.5c-0.09,0.13-0.18,0.25-0.26,0.37l-3.08-1.22c-0.02-0.01-0.03-0.01-0.05-0.01
		c-0.05,0-0.1,0.03-0.14,0.07c-0.11,0.17-0.23,0.35-0.34,0.53c-0.04,0.06-0.03,0.15,0.02,0.2l2.4,2.28
		c-0.02,0.04-0.05,0.09-0.07,0.13c-0.05,0.09-0.1,0.18-0.15,0.27l-3.18-0.91c-0.01,0-0.01,0-0.02,0c-0.07-0.01-0.13,0.02-0.16,0.08
		c-0.1,0.19-0.19,0.37-0.28,0.56c-0.03,0.07-0.01,0.15,0.04,0.19l2.61,2.03c-0.06,0.13-0.12,0.26-0.19,0.41l-3.25-0.59c0,0,0,0,0,0
		c-0.07-0.01-0.14,0.03-0.17,0.09c-0.03,0.09-0.07,0.17-0.1,0.26c-0.04,0.11-0.09,0.22-0.13,0.32c-0.03,0.07,0,0.15,0.06,0.19
		l0.99,0.63l1.81,1.14c-0.02,0.04-0.03,0.09-0.04,0.13c-0.02,0.06-0.04,0.12-0.06,0.18c-0.01,0.04-0.03,0.08-0.04,0.12l-0.4-0.03
		l-0.27-0.02l-0.32-0.03l-0.32-0.03l-1.65-0.14l-0.33-0.03H11.6c-0.07,0-0.13,0.04-0.15,0.11c-0.01,0.03-0.02,0.07-0.03,0.1
		c-0.05,0.17-0.09,0.33-0.14,0.5c-0.02,0.07,0.01,0.15,0.08,0.18l0.98,0.49l0.86,0.43l1.12,0.56c-0.04,0.15-0.07,0.3-0.1,0.44
		l-0.52,0.01L13.14,35l-2.23,0.03c-0.07,0-0.13,0.05-0.15,0.11c0,0.01-0.01,0.01-0.01,0.02c-0.04,0.21-0.07,0.41-0.11,0.62
		c0,0.01,0,0.02,0,0.02v0c0,0.06,0.04,0.12,0.1,0.15l0.24,0.09l1.89,0.73l0.96,0.37c-0.02,0.15-0.04,0.3-0.05,0.45h-0.01l-0.79,0.09
		l-2.49,0.28c-0.08,0.01-0.13,0.07-0.14,0.14c-0.02,0.21-0.03,0.42-0.05,0.63c0,0.08,0.04,0.14,0.12,0.16l3.19,0.87
		c0,0.04,0,0.07,0,0.11c0,0.07,0,0.13-0.01,0.2c0,0.05,0,0.1,0,0.15l-3.24,0.7c-0.07,0.02-0.13,0.08-0.13,0.15
		c0,0.21,0.01,0.42,0.01,0.63c0,0.07,0.05,0.14,0.13,0.15l3.26,0.56c0.01,0.16,0.02,0.3,0.03,0.45l-3.16,1.01
		c-0.07,0.02-0.12,0.09-0.11,0.16c0.02,0.21,0.05,0.42,0.07,0.62c0.01,0.07,0.07,0.13,0.14,0.14l3.31,0.24
		c0.01,0.05,0.02,0.1,0.03,0.16c0.02,0.1,0.03,0.19,0.05,0.29l-0.81,0.35l-2.23,0.97c-0.07,0.03-0.11,0.1-0.09,0.17
		c0.03,0.13,0.05,0.26,0.08,0.38c0.02,0.08,0.03,0.15,0.05,0.23c0.01,0.05,0.04,0.08,0.09,0.1c0.01,0,0.01,0.01,0.01,0.01
		c0.01,0,0.02,0,0.03,0c0.01,0,0.02,0.01,0.03,0.01h0.01l0.23-0.01l3.08-0.08c0.04,0.16,0.08,0.3,0.12,0.44l-0.69,0.39l-2.21,1.23
		c-0.06,0.03-0.09,0.1-0.08,0.17c0,0,0,0.01,0,0.01c0.05,0.14,0.09,0.29,0.14,0.43c0.02,0.05,0.03,0.11,0.05,0.16
		c0.01,0.03,0.03,0.05,0.05,0.07c0.02,0.02,0.04,0.03,0.06,0.03h0c0.02,0,0.03,0,0.05,0l1.76-0.22l0.59-0.07l0.81-0.1l0.14-0.02
		c0.05,0.14,0.1,0.26,0.15,0.39c0.01,0.01,0.01,0.02,0.01,0.03l-0.57,0.39l-0.43,0.3l-0.84,0.58l-0.3,0.21l-0.01,0.01l-0.3,0.2
		l-0.29,0.2c-0.06,0.04-0.08,0.12-0.05,0.19c0.01,0.02,0.02,0.03,0.02,0.05v0c0.07,0.16,0.14,0.32,0.21,0.49
		c0,0.01,0.01,0.02,0.01,0.03c0,0.01,0.01,0.01,0.01,0.01c0.02,0.04,0.07,0.07,0.12,0.08h0.01c0.02,0,0.03,0,0.04,0l0.43-0.1h0
		l0.31-0.07l1.07-0.24l0.01,0l0.31-0.07l0.66-0.15l0.46-0.1c0.01,0.01,0.01,0.02,0.02,0.03c0.05,0.1,0.1,0.2,0.15,0.31
		c0.01,0.02,0.02,0.05,0.03,0.07l-0.54,0.46l-0.32,0.27l-0.01,0l-0.32,0.27l-0.31,0.26l-0.25,0.21l-0.02,0.02l-0.26,0.22l-0.09,0.08
		l-0.44,0.37c-0.06,0.05-0.07,0.13-0.04,0.2c0.1,0.18,0.2,0.36,0.3,0.54c0.03,0.05,0.08,0.08,0.13,0.08c0.02,0,0.04,0,0.05-0.01
		l1.2-0.4l0.37-0.12l0.03-0.01l0.35-0.12l0.42-0.14l0.32-0.11l0.06-0.02l0.1-0.03l0.31-0.1l0.06,0.1c0,0,0,0,0.01,0.01
		c0.05,0.08,0.1,0.17,0.16,0.26c0,0.01,0.01,0.01,0.01,0.02l-0.31,0.32l0,0l-0.36,0.37l-0.22,0.22l-0.02,0.02l-0.23,0.24l-1.19,1.23
		c-0.05,0.05-0.06,0.14-0.02,0.2c0.12,0.17,0.23,0.34,0.35,0.51c0.02,0.03,0.05,0.05,0.09,0.06c0.03,0.01,0.07,0.01,0.1-0.01
		l1.89-0.84l0.32-0.14l0.03-0.01h0l0.3-0.14l0.25-0.11l0.26-0.12c0.07,0.09,0.14,0.19,0.21,0.28c0.02,0.03,0.04,0.05,0.06,0.08
		l-0.31,0.38l-0.2,0.25l-0.02,0.02l-0.21,0.26l-1.36,1.71c-0.05,0.06-0.04,0.14,0,0.2c0.13,0.16,0.26,0.31,0.4,0.47
		c0.02,0.03,0.05,0.04,0.09,0.05c0.03,0.01,0.07,0,0.1-0.02l1.92-1.09l0.29-0.16l0.02-0.01l0.16-0.09l0.11-0.06l0.32-0.18l0.09-0.05
		c0.04,0.04,0.08,0.09,0.13,0.14c0.06,0.06,0.12,0.13,0.18,0.19l-0.03,0.05l-0.25,0.39l-0.02,0.04l-0.15,0.24l-0.02,0.02l-0.19,0.29
		l-0.66,1.02l-0.49,0.77c-0.04,0.06-0.03,0.15,0.02,0.2c0.04,0.04,0.08,0.08,0.13,0.13c0.1,0.1,0.21,0.2,0.31,0.3
		c0.04,0.04,0.1,0.05,0.15,0.04c0.02-0.01,0.03-0.01,0.05-0.02l0.03-0.02l1.44-1.02l0.27-0.19l0.02-0.01l0.25-0.18l0.51-0.36
		l0.22-0.15c0.04,0.04,0.09,0.08,0.13,0.12c0,0,0,0,0.01,0c0.07,0.06,0.13,0.11,0.2,0.17l-0.11,0.21l0,0.01l-0.16,0.3l-0.26,0.51
		l-0.17,0.33l-0.01,0.02l-0.18,0.34L21.5,64.2c-0.03,0.07-0.02,0.15,0.04,0.19c0.16,0.13,0.32,0.25,0.48,0.38
		c0.03,0.02,0.07,0.03,0.1,0.03c0.04,0,0.07-0.01,0.1-0.04l0.65-0.56l0.26-0.22l0.02-0.02l0.24-0.21l0.47-0.4l0.32-0.28l0.01-0.01
		l0.03-0.03l0.29-0.25l0.26-0.23c0.12,0.09,0.25,0.17,0.37,0.26l-0.19,0.48l-0.13,0.32l-0.12,0.3l0,0.01l-0.41,1.03l-0.14,0.34v0
		l-0.16,0.4l-0.01,0.04l-0.09,0.22c-0.03,0.07,0,0.15,0.06,0.19c0.09,0.06,0.19,0.13,0.28,0.19h0c0.01,0.01,0.03,0.02,0.04,0.03
		c0.06,0.04,0.12,0.08,0.18,0.12c0.03,0.02,0.07,0.03,0.1,0.02c0.04,0,0.07-0.02,0.09-0.05l0.52-0.55l0.25-0.27l0-0.01l0.25-0.26
		l1.3-1.37c0.14,0.08,0.27,0.15,0.39,0.22l-0.85,2.97l-0.08,0.28c-0.02,0.07,0.01,0.15,0.08,0.18c0.02,0.01,0.04,0.02,0.06,0.03
		c0.01,0.01,0.03,0.01,0.04,0.02c0.14,0.08,0.29,0.15,0.43,0.22c0.02,0.01,0.03,0.01,0.05,0.02c0.05,0.01,0.11-0.02,0.14-0.06
		l0.36-0.47l1.72-2.2c0.14,0.07,0.28,0.13,0.41,0.19l-0.57,3.15l-0.03,0.19c-0.01,0.07,0.03,0.14,0.1,0.17
		c0.14,0.06,0.28,0.12,0.43,0.17c0.04,0.02,0.08,0.03,0.13,0.05c0.02,0.01,0.04,0.01,0.05,0.01c0.05,0,0.11-0.03,0.14-0.07
		l0.03-0.04l0.43-0.68l0.56-0.89v0l0.42-0.66v0l0.38-0.6c0.14,0.05,0.28,0.1,0.43,0.14l-0.03,0.39l-0.05,0.61l-0.2,2.39
		c-0.01,0.07,0.04,0.14,0.11,0.16c0.19,0.05,0.38,0.11,0.57,0.16c0,0,0.01,0,0.01,0c0.07,0.01,0.14-0.02,0.17-0.08l1.35-2.7
		l0.17-0.34c0.14,0.03,0.28,0.07,0.44,0.1l0.01,0.25l0.04,2.76l0.01,0.4c0,0.07,0.05,0.14,0.13,0.15c0.14,0.03,0.28,0.05,0.42,0.08
		c0.05,0.01,0.11,0.02,0.17,0.03c0.01,0,0.02,0,0.02,0c0.02,0,0.05-0.01,0.07-0.02c0.04-0.02,0.06-0.04,0.08-0.08l0.2-0.51
		l1.02-2.67l0-0.01c0.07,0.01,0.14,0.02,0.21,0.03c0.01,0,0.03,0,0.04,0.01c0.07,0.01,0.13,0.02,0.2,0.02v0.01l0.32,2.81l0.07,0.58
		c0,0.02,0.01,0.03,0.01,0.05c0.02,0.05,0.07,0.08,0.13,0.09c0,0,0,0,0.01,0c0.11,0.01,0.22,0.02,0.33,0.03
		c0.09,0.01,0.17,0.01,0.25,0.02h0.01c0.02,0,0.03,0,0.04-0.01h0.01c0.05-0.02,0.09-0.05,0.1-0.11l0.03-0.1l0.1-0.37l0.08-0.29
		l0.12-0.44l0.15-0.54l0.16-0.59l0.27-0.97c0.07,0,0.14,0.01,0.21,0.01h0.02c0.05,0,0.1,0,0.14,0c0.03,0,0.05,0,0.08,0l0.23,1.05
		l0.07,0.33l0.02,0.09l0,0.01l0.07,0.34v0l0.15,0.72v0l0.11,0.51l0.04,0.2l0.02,0.09c0.01,0.05,0.04,0.09,0.09,0.11
		c0.01,0,0.01,0,0.01,0.01c0.01,0,0.02,0,0.03,0.01c0.01,0,0.02,0,0.02,0h0.07c0.13,0,0.25,0,0.38-0.01c0.03,0,0.05,0,0.08,0h0.06
		c0,0,0,0,0,0c0.07,0,0.13-0.05,0.15-0.13v0l0.13-0.74l0.31-1.8l0.02-0.12v0l0.08-0.46l0-0.02l0.04-0.24c0.07,0,0.15-0.01,0.22-0.01
		c0,0,0,0,0.01,0c0.08-0.01,0.15-0.01,0.22-0.02l0.15,0.47l0.03,0.1l0.18,0.57L43,68.75l0.45,1.42l0.17,0.53l0.05,0.14
		c0.02,0.07,0.09,0.12,0.16,0.11c0.19-0.02,0.38-0.04,0.57-0.07c0.05-0.01,0.09-0.03,0.11-0.08c0.02-0.02,0.02-0.04,0.02-0.07
		l0.07-0.95l0.02-0.3l0.01-0.13v0l0.04-0.61l0-0.03l0.1-1.43c0.15-0.02,0.3-0.05,0.45-0.08l0.3,0.68l0.19,0.45l0.44,1.02l0.37,0.86
		l0.07,0.16c0.03,0.07,0.1,0.1,0.17,0.09c0,0,0,0,0.01,0c0.01,0,0.02-0.01,0.03-0.01c0.16-0.03,0.31-0.07,0.47-0.1l0.06-0.01
		c0.07-0.02,0.13-0.08,0.12-0.16l-0.01-0.18l-0.09-3.14l0-0.14c0.09-0.02,0.18-0.05,0.27-0.08c0.05-0.01,0.11-0.03,0.16-0.04
		l1.68,3.03c0.03,0.05,0.09,0.08,0.15,0.08c0.01,0,0.02,0,0.03-0.01c0.18-0.05,0.36-0.11,0.54-0.17c0.07-0.02,0.11-0.09,0.1-0.17
		l-0.43-3.44c0.14-0.05,0.28-0.1,0.42-0.16l1.97,2.85c0.02,0.03,0.05,0.05,0.09,0.06c0.03,0.01,0.07,0.01,0.1-0.01
		c0.17-0.08,0.35-0.15,0.52-0.23c0.07-0.03,0.1-0.1,0.09-0.18l-0.32-1.4l-0.45-1.99c0.11-0.05,0.23-0.11,0.34-0.17
		c0.02-0.01,0.04-0.02,0.06-0.03l2.25,2.65c0.04,0.04,0.09,0.06,0.14,0.05c0.02,0,0.03-0.01,0.05-0.02
		c0.16-0.09,0.33-0.18,0.49-0.27c0.06-0.04,0.09-0.11,0.07-0.19l-1.1-3.3c0.12-0.07,0.24-0.15,0.38-0.24l2.5,2.42
		c0.03,0.03,0.06,0.04,0.1,0.04c0.03,0,0.07-0.01,0.1-0.03c0.16-0.11,0.31-0.21,0.46-0.32c0.06-0.04,0.08-0.12,0.05-0.19l-1.33-3
		l-0.08-0.19c0.12-0.1,0.25-0.19,0.36-0.28l0.41,0.32l2.32,1.84c0.03,0.02,0.06,0.03,0.1,0.03c0.03,0,0.07-0.01,0.1-0.04
		c0.14-0.12,0.29-0.24,0.43-0.36c0.06-0.05,0.07-0.13,0.03-0.2l-0.9-1.58l-0.25-0.43l-0.04-0.08l-0.54-0.94
		c0.01-0.01,0.02-0.02,0.03-0.03c0.01-0.01,0.02-0.02,0.04-0.03c0.09-0.08,0.17-0.16,0.26-0.25l0.43,0.28l0.45,0.29l0.24,0.15h0
		l0.75,0.49l0.69,0.44l0.38,0.24c0.02,0.01,0.03,0.02,0.05,0.02c0.05,0.01,0.11,0,0.15-0.04c0.07-0.07,0.14-0.14,0.21-0.22
		c0.06-0.06,0.12-0.12,0.17-0.19c0.05-0.05,0.06-0.14,0.01-0.2l-0.05-0.07l-0.58-0.82l-0.41-0.58l-0.78-1.11l-0.2-0.28
		c0.1-0.12,0.2-0.23,0.3-0.34l0.06,0.03l1.16,0.6l0.57,0.3h0l0.34,0.18l0.41,0.21l0.57,0.29c0.02,0.01,0.03,0.01,0.05,0.02
		c0.05,0.01,0.09-0.01,0.13-0.05c0.01,0,0.01-0.01,0.01-0.01l0.03-0.04c0.1-0.13,0.21-0.26,0.31-0.39c0.05-0.06,0.04-0.14-0.01-0.2
		l-0.47-0.54l-0.19-0.22l-0.34-0.39l-1.29-1.49c0.09-0.12,0.17-0.24,0.26-0.37l1.29,0.51l0.77,0.3l1.19,0.47
		c0.02,0.01,0.03,0.01,0.05,0.01c0.05,0,0.1-0.02,0.14-0.07c0.1-0.15,0.2-0.31,0.29-0.46l0.01-0.01c0.04-0.07,0.03-0.15-0.03-0.2
		l-2.54-2.41c0.09-0.15,0.16-0.27,0.22-0.39l3.37,0.96c0.02,0,0.04,0.01,0.06,0c0.05,0,0.1-0.03,0.13-0.08
		c0.08-0.16,0.17-0.33,0.25-0.49c0.03-0.07,0.01-0.15-0.04-0.19l-2.61-2.03l-0.16-0.12c0.06-0.14,0.12-0.27,0.19-0.42l0.09,0.02
		l3.36,0.61c0.02,0,0.04,0,0.05,0c0.05-0.01,0.1-0.04,0.12-0.09c0.07-0.17,0.14-0.34,0.2-0.51c0.03-0.07,0-0.15-0.06-0.19
		l-2.97-1.87c0.05-0.14,0.09-0.28,0.14-0.43l3.5,0.29c0.01,0,0.01,0,0.02,0c0.01,0,0.02,0,0.04,0c0.05-0.01,0.09-0.05,0.11-0.11
		c0.05-0.18,0.1-0.35,0.15-0.53c0.02-0.07-0.01-0.15-0.08-0.18l-3.14-1.57c0.03-0.15,0.07-0.3,0.1-0.44l3.51-0.05
		c0.08,0,0.14-0.05,0.15-0.13c0.03-0.18,0.06-0.36,0.09-0.55c0.01-0.07-0.03-0.15-0.1-0.17l-2.4-0.92l-0.48-0.18l-0.4-0.15
		c0.01-0.06,0.02-0.13,0.03-0.19c0.01-0.08,0.02-0.17,0.03-0.26l0.46-0.05l0.23-0.03l0.73-0.08l2.06-0.23
		c0.07-0.01,0.13-0.07,0.14-0.14c0.02-0.19,0.03-0.37,0.04-0.55c0.01-0.08-0.04-0.14-0.11-0.16l-1.1-0.3l-0.59-0.16l-1-0.27
		l-0.33-0.09l-0.01,0l-0.36-0.1c0-0.09,0.01-0.17,0.01-0.25C67.4,41.39,67.4,41.33,67.4,41.26z M68.7,42.68l0.58,0.16L69.85,43
		l-0.74,0.09l-0.75,0.08l-1.25,0.14l-0.3,0.03c-0.07,0.01-0.13,0.07-0.14,0.14l-0.02,0.18l-0.01,0.04
		c-0.03,0.24-0.06,0.46-0.09,0.68l-0.03,0.22c-0.01,0.07,0.03,0.14,0.1,0.17l2.85,1.09l-3.06,0.05c-0.07,0-0.14,0.05-0.15,0.13
		l-0.05,0.22c-0.05,0.23-0.1,0.45-0.15,0.67l-0.05,0.21c-0.02,0.07,0.02,0.14,0.08,0.18l2.73,1.37l-2.8-0.23l-0.25-0.02
		c-0.07-0.01-0.14,0.04-0.16,0.11l-0.07,0.21c-0.07,0.23-0.14,0.45-0.21,0.65l-0.07,0.21c-0.02,0.07,0,0.15,0.06,0.19l0.32,0.2
		l2.26,1.43l-2.53-0.46l-0.47-0.09c-0.03-0.01-0.07,0-0.1,0.02c-0.03,0.01-0.06,0.04-0.07,0.08l-0.09,0.2
		c-0.07,0.15-0.13,0.3-0.2,0.45c-0.03,0.06-0.05,0.12-0.08,0.18L64.29,52c-0.03,0.06-0.01,0.13,0.04,0.18
		c0,0.01,0.01,0.01,0.01,0.01l2.41,1.87l-2.93-0.84c-0.07-0.02-0.14,0.01-0.18,0.08l-0.11,0.19c-0.1,0.18-0.21,0.37-0.34,0.6
		l-0.11,0.19c-0.04,0.06-0.03,0.14,0.03,0.19l2.22,2.1l-1.13-0.45l-1.06-0.42l-0.65-0.26c-0.07-0.03-0.14-0.01-0.19,0.05l-0.12,0.18
		c-0.14,0.2-0.27,0.38-0.4,0.56l-0.13,0.18c-0.04,0.06-0.04,0.14,0.01,0.19l0.29,0.34l0.24,0.27l0,0l1.19,1.37l0.28,0.32l-0.33-0.17
		l-0.8-0.41l-0.57-0.29l-0.77-0.4l-0.25-0.13c-0.06-0.03-0.14-0.02-0.19,0.04l-0.02,0.02v0l-0.13,0.15
		c-0.14,0.16-0.28,0.33-0.45,0.51L60,58.41c-0.05,0.05-0.05,0.13-0.01,0.19l0.33,0.48l0.35,0.49v0l0.23,0.33l0.41,0.58l0.44,0.62
		l-1-0.65l-0.27-0.17l-0.66-0.43l-0.2-0.13h0l-0.43-0.28c-0.06-0.04-0.14-0.03-0.19,0.02l-0.16,0.15c-0.06,0.06-0.12,0.12-0.19,0.18
		c-0.1,0.09-0.2,0.19-0.31,0.28l-0.16,0.15c-0.05,0.05-0.07,0.13-0.03,0.19l0.18,0.32l0.45,0.78l0.25,0.43l0.64,1.12l-1.3-1.03
		l-0.49-0.39l-0.61-0.48c-0.06-0.05-0.14-0.05-0.19,0l-0.17,0.14c-0.13,0.1-0.33,0.26-0.54,0.42l-0.18,0.13
		c-0.05,0.04-0.07,0.1-0.06,0.17c0,0.01,0.01,0.02,0.01,0.02l0.18,0.4l1.07,2.39l-2.16-2.09l-0.04-0.04
		c-0.05-0.05-0.13-0.06-0.19-0.02l-0.19,0.12c-0.07,0.05-0.14,0.09-0.21,0.14c-0.13,0.08-0.25,0.16-0.37,0.23l-0.19,0.12
		c-0.06,0.04-0.09,0.11-0.07,0.18l0.96,2.9l-1.97-2.33c-0.05-0.05-0.13-0.07-0.19-0.04l-0.2,0.1c-0.05,0.03-0.1,0.05-0.16,0.08
		c-0.16,0.08-0.31,0.15-0.46,0.23l-0.2,0.1c-0.03,0.02-0.06,0.04-0.07,0.08c-0.01,0.03-0.02,0.06-0.01,0.1l0.67,2.97l-1.73-2.51
		c-0.04-0.06-0.12-0.08-0.19-0.05l-0.21,0.08c-0.21,0.08-0.43,0.16-0.64,0.25l-0.21,0.08c-0.07,0.02-0.11,0.09-0.1,0.16l0.38,3.03
		l-1.38-2.49l-0.1-0.18c-0.04-0.06-0.11-0.09-0.18-0.07l-0.21,0.06c-0.01,0-0.02,0.01-0.04,0.01c-0.22,0.06-0.43,0.12-0.62,0.17
		l-0.22,0.05c-0.07,0.02-0.12,0.08-0.11,0.16l0.01,0.36l0.02,0.59l0.06,2.1l-0.67-1.55l-0.19-0.44l-0.24-0.53v0l-0.11-0.27
		c-0.03-0.07-0.1-0.1-0.17-0.09l-0.22,0.04c-0.13,0.02-0.26,0.05-0.4,0.07c-0.09,0.01-0.19,0.03-0.28,0.04l-0.22,0.04
		c-0.07,0.01-0.13,0.07-0.13,0.14l-0.12,1.59l-0.04,0.63l-0.02,0.33l-0.04,0.49l-0.1-0.32L43.7,69v0l-0.23-0.73l-0.13-0.4v0
		l-0.26-0.81c-0.02-0.07-0.09-0.11-0.16-0.11l-0.09,0.01l-0.13,0.01c-0.12,0.01-0.25,0.02-0.37,0.03c-0.1,0.01-0.2,0.01-0.31,0.02
		l-0.22,0.01c-0.07,0-0.13,0.06-0.15,0.13l-0.08,0.46v0l-0.01,0.05l-0.07,0.41l-0.03,0.19l-0.22,1.29v0l-0.1,0.6l-0.23-1.06v0
		l-0.07-0.32v0l-0.21-0.98v0l-0.02-0.09l-0.11-0.54c0-0.01,0-0.01-0.01-0.01c-0.02-0.06-0.08-0.11-0.15-0.11l-0.22,0
		c-0.22,0-0.44-0.01-0.68-0.02l-0.22-0.01H39.2c-0.07,0-0.13,0.05-0.15,0.11l-0.37,1.35l-0.16,0.59l-0.22,0.8v0l-0.05,0.2l-0.01-0.1
		l-0.11-0.97l-0.22-1.96c-0.01-0.07-0.07-0.13-0.14-0.14l-0.22-0.02c-0.2-0.02-0.44-0.05-0.68-0.09l-0.03-0.01
		c-0.01,0-0.01,0-0.02,0l-0.17-0.02c-0.02,0-0.03,0-0.04,0h0c-0.06,0.01-0.1,0.04-0.12,0.1l-0.19,0.49l-0.91,2.36l-0.04-2.42
		l-0.01-0.61v-0.02c0-0.07-0.05-0.14-0.12-0.15l-0.22-0.05c-0.25-0.05-0.47-0.11-0.67-0.15l-0.22-0.05
		c-0.07-0.02-0.14,0.02-0.17,0.08l-0.16,0.31l-0.31,0.61l-0.9,1.8l0.15-1.77l0.05-0.61l0.05-0.65c0.01-0.07-0.04-0.14-0.11-0.16
		l-0.21-0.07c-0.19-0.06-0.39-0.13-0.58-0.19l-0.28-0.1c-0.07-0.03-0.15,0-0.18,0.06l-1.63,2.58l0.55-3
		c0.01-0.07-0.02-0.14-0.09-0.17l-0.2-0.09c-0.2-0.09-0.41-0.18-0.63-0.28l-0.2-0.09c-0.07-0.03-0.14-0.01-0.19,0.04l-1.87,2.41
		l0.84-2.94c0.02-0.07-0.01-0.14-0.08-0.18l-0.19-0.11c-0.19-0.1-0.38-0.21-0.6-0.34l-0.19-0.11c-0.06-0.04-0.14-0.03-0.19,0.03
		l-1.15,1.22l-0.4,0.42l0,0L25.2,65l-0.52,0.55l0.31-0.79l0-0.01l0.12-0.3l0.4-1.01l0.11-0.29l0.17-0.44
		c0.03-0.07,0.01-0.14-0.05-0.19l-0.18-0.13c-0.15-0.1-0.29-0.2-0.43-0.31l0,0c-0.04-0.03-0.08-0.06-0.13-0.09l-0.18-0.13
		c-0.06-0.04-0.14-0.04-0.2,0.01l-0.04,0.04l-0.2,0.17l-0.52,0.45l-0.01,0.01l-0.58,0.5l-0.2,0.17l-0.24,0.21l-0.02,0.02l-0.25,0.22
		l-0.25,0.21l0.17-0.34l0.18-0.35l0.01-0.03l0.17-0.33l0.17-0.33l0.16-0.3l0.07-0.13v0l0.46-0.9c0.01-0.01,0.01-0.02,0.01-0.02
		c0.02-0.06,0.01-0.13-0.04-0.17l-0.17-0.14c-0.07-0.06-0.14-0.12-0.2-0.17c-0.11-0.09-0.22-0.19-0.32-0.27l-0.06-0.06l-0.1-0.09
		c-0.05-0.05-0.14-0.05-0.2-0.01l-0.41,0.29l-0.04,0.03h0l-0.4,0.29l-0.15,0.1l-0.25,0.18l-0.02,0.01l-0.27,0.19l-0.8,0.57
		l-0.15,0.11l0.22-0.34l0.46-0.72l0.19-0.3l0.01-0.02l0.18-0.28l0.11-0.16l0.39-0.6l0.01-0.02l0,0l0.08-0.13
		c0.03-0.05,0.03-0.1,0.01-0.15v0c0-0.01-0.01-0.02-0.01-0.02c0,0,0,0,0,0c0-0.01-0.01-0.01-0.01-0.02l-0.12-0.12l-0.01-0.01
		l-0.03-0.03c-0.16-0.17-0.31-0.32-0.44-0.46c0,0,0,0-0.01-0.01c-0.01-0.01-0.02-0.02-0.03-0.03l-0.1-0.11L21,58.41
		c-0.02-0.02-0.04-0.03-0.06-0.04c0,0-0.01,0-0.01-0.01c-0.03-0.01-0.07-0.01-0.1,0.01c-0.01,0-0.01,0.01-0.02,0.01l-0.4,0.23
		l-0.22,0.13l-0.18,0.1h0l-0.27,0.16l-0.02,0.01l-0.29,0.16l-1.27,0.72l0.9-1.14l0.21-0.26l0.02-0.02l0.2-0.25l0.14-0.18l0.27-0.34
		l0.04-0.05l0.12-0.15c0.04-0.05,0.04-0.14,0-0.19l-0.12-0.14l-0.01-0.01l-0.02-0.03c-0.05-0.06-0.1-0.13-0.15-0.19
		c0,0-0.01-0.01-0.01-0.01c-0.09-0.11-0.18-0.23-0.26-0.34l-0.14-0.18c-0.02-0.02-0.04-0.04-0.06-0.05
		c-0.01-0.01-0.02-0.01-0.03-0.01c-0.03-0.01-0.07-0.01-0.1,0.01l-0.75,0.33l-0.01,0l-0.29,0.13l-0.31,0.14l-0.03,0.01l-0.32,0.14
		l-1.09,0.49l0.77-0.79l0.23-0.23l0.02-0.02l0.22-0.22l0.3-0.31l0.39-0.4l0.01-0.01l0.2-0.2c0.04-0.04,0.06-0.11,0.03-0.17
		c0-0.01-0.01-0.02-0.01-0.03l-0.12-0.19c-0.03-0.04-0.06-0.09-0.09-0.14c-0.02-0.03-0.04-0.06-0.07-0.09v0
		c-0.05-0.09-0.11-0.17-0.16-0.26c-0.02-0.03-0.03-0.05-0.05-0.08c0,0,0,0,0-0.01l-0.12-0.19c-0.04-0.06-0.11-0.09-0.18-0.07
		l-0.23,0.08l-0.32,0.11l-0.06,0.02l-1.05,0.35l-0.24,0.08l-0.36,0.12l-0.03,0.01l-0.38,0.13h0l-0.23,0.08l0.16-0.13l0.26-0.22
		l0.02-0.02l0.25-0.21l0.5-0.43l0.38-0.32l0.03-0.03l0.33-0.28l0.41-0.34c0.05-0.05,0.07-0.13,0.04-0.19l-0.1-0.2
		c-0.08-0.15-0.15-0.31-0.23-0.46c-0.02-0.05-0.05-0.1-0.07-0.15l-0.1-0.2c-0.02-0.05-0.07-0.08-0.12-0.09
		c-0.02-0.01-0.04-0.01-0.06,0l-1.4,0.32l-0.45,0.1h0l-0.27,0.06l-0.31,0.07l-0.01,0l-0.54,0.12l0.51-0.36v0l0.02-0.01L14.4,52
		l0.46-0.32l0.45-0.31l0.63-0.44l0.12-0.08c0.06-0.04,0.08-0.12,0.06-0.19l-0.08-0.21c-0.01-0.02-0.02-0.04-0.02-0.06
		c-0.08-0.19-0.15-0.38-0.22-0.59l-0.08-0.21c-0.01-0.02-0.02-0.04-0.03-0.05c-0.02-0.02-0.03-0.03-0.05-0.04
		c-0.03-0.01-0.05-0.02-0.08-0.01l-0.22,0.03l-0.59,0.07l-0.8,0.1l-0.56,0.07l-0.85,0.11l0.72-0.4l0.47-0.26l0.54-0.3l0.47-0.26
		l0.13-0.08h0l0.34-0.19c0.05-0.03,0.08-0.08,0.08-0.13c0-0.02,0-0.03-0.01-0.05l-0.08-0.23c-0.03-0.09-0.05-0.18-0.08-0.28
		c-0.03-0.12-0.06-0.24-0.09-0.36l-0.05-0.22c-0.01-0.05-0.05-0.09-0.11-0.11c-0.01-0.01-0.03-0.01-0.04-0.01h-0.01l-2.44,0.07
		c0,0,0,0,0,0l-0.61,0.02l1.47-0.64l1.33-0.58c0.07-0.03,0.1-0.1,0.09-0.17l-0.04-0.22l-0.03-0.17c-0.03-0.17-0.05-0.34-0.08-0.5
		l-0.02-0.12l-0.02-0.11c-0.01-0.07-0.07-0.13-0.14-0.13l-3.05-0.22l2.91-0.93c0.07-0.02,0.11-0.09,0.11-0.16l-0.02-0.22
		c-0.02-0.21-0.03-0.44-0.05-0.68l-0.01-0.22c-0.01-0.07-0.06-0.13-0.13-0.15l-3.01-0.51l2.99-0.65c0.07-0.02,0.12-0.08,0.12-0.15
		l0-0.22c0-0.21,0.01-0.42,0.02-0.68l0.01-0.22c0-0.07-0.04-0.14-0.12-0.16l-2.95-0.81l2.39-0.27l0.64-0.07
		c0.04-0.01,0.07-0.02,0.09-0.04v0c0.02-0.02,0.04-0.05,0.04-0.09l0-0.03l0.02-0.19c0.03-0.24,0.06-0.46,0.09-0.68l0.03-0.21l0-0.01
		c0.01-0.06-0.02-0.12-0.06-0.15c-0.01-0.01-0.02-0.02-0.04-0.02l-0.62-0.23l-2.24-0.86l1.88-0.03l0.56-0.01l0.62-0.01
		c0.07,0,0.13-0.05,0.15-0.12l0.05-0.22c0.03-0.17,0.07-0.33,0.11-0.5c0.01-0.05,0.03-0.11,0.04-0.17l0.05-0.22
		c0.02-0.07-0.02-0.14-0.08-0.17l-0.37-0.19l-1.91-0.95l-0.45-0.22l0.31,0.03l1.5,0.12L14.59,33l0.2,0.02l0.41,0.03
		c0.03,0,0.07-0.01,0.09-0.02c0.03-0.02,0.05-0.05,0.07-0.09l0.07-0.21c0.08-0.24,0.15-0.46,0.22-0.65l0.08-0.21
		c0.02-0.07,0-0.14-0.07-0.18l-2.58-1.63l3,0.55c0.07,0.02,0.14-0.02,0.17-0.09l0.09-0.2c0.11-0.25,0.2-0.45,0.28-0.63l0.09-0.2
		c0.03-0.07,0.01-0.14-0.04-0.19l-2.41-1.87l2.93,0.84c0.07,0.02,0.14-0.01,0.18-0.07L17.48,28c0.1-0.18,0.22-0.39,0.34-0.6
		l0.11-0.19c0.04-0.06,0.03-0.14-0.03-0.19l-2.22-2.1l2.84,1.12c0.07,0.03,0.15,0,0.19-0.05l0.13-0.18c0.07-0.1,0.15-0.21,0.22-0.31
		c0.06-0.08,0.12-0.16,0.18-0.25l0.13-0.18c0.04-0.06,0.04-0.14-0.01-0.19l-1.07-1.23l-0.93-1.08l0.51,0.26l0.8,0.41l1.41,0.72
		c0.07,0.03,0.14,0.02,0.19-0.04l0.14-0.17c0.02-0.02,0.04-0.05,0.06-0.07c0.12-0.14,0.25-0.29,0.38-0.43c0,0,0-0.01,0.01-0.01
		l0.15-0.16c0.05-0.05,0.05-0.14,0.01-0.2l-1.25-1.77l-0.52-0.73l0.12,0.08l2.45,1.58c0.06,0.04,0.14,0.03,0.19-0.02l0.16-0.16
		c0.15-0.14,0.31-0.29,0.5-0.47l0.16-0.15c0.05-0.05,0.07-0.13,0.03-0.19l-1.51-2.66l2.39,1.9c0.06,0.04,0.14,0.04,0.19,0l0.17-0.14
		c0.21-0.16,0.38-0.3,0.54-0.42l0.15-0.11l0.03-0.02c0.06-0.04,0.08-0.12,0.05-0.19l-1.2-2.69l-0.04-0.1l2.19,2.13
		c0.05,0.05,0.13,0.06,0.19,0.02l0.19-0.12c0.14-0.09,0.28-0.18,0.42-0.26c0.05-0.03,0.11-0.07,0.16-0.1l0.19-0.12
		c0.04-0.02,0.07-0.06,0.07-0.1c0-0.03,0-0.05-0.01-0.08l-0.89-2.67l-0.08-0.22l0.12,0.14l1.85,2.19c0.05,0.05,0.13,0.07,0.19,0.04
		l0.2-0.1c0.21-0.11,0.41-0.21,0.61-0.31l0.2-0.1c0.07-0.03,0.1-0.1,0.08-0.17l-0.01-0.04l-0.35-1.54l-0.17-0.74l-0.15-0.65
		l0.57,0.83l1.16,1.68c0.04,0.06,0.12,0.08,0.19,0.06l0.21-0.08c0.02-0.01,0.04-0.02,0.06-0.02c0.17-0.07,0.33-0.13,0.5-0.19
		c0.03-0.01,0.05-0.02,0.08-0.03l0.21-0.08c0.07-0.03,0.11-0.09,0.1-0.17l-0.03-0.26l-0.35-2.76l1.48,2.67
		c0.04,0.07,0.11,0.09,0.18,0.08l0.21-0.06c0.2-0.06,0.41-0.11,0.66-0.18l0.21-0.06c0.07-0.02,0.12-0.08,0.12-0.15l-0.05-1.8
		l-0.02-0.67l-0.02-0.58l0.28,0.64l0.32,0.74l0.62,1.42c0.03,0.07,0.1,0.1,0.17,0.09l0.22-0.04c0.24-0.04,0.48-0.08,0.68-0.11
		l0.22-0.03c0.07-0.01,0.13-0.07,0.13-0.14l0.06-0.83l0.04-0.63l0.11-1.58l0.53,1.66l0.21,0.65l0.19,0.6
		c0.02,0.07,0.09,0.11,0.16,0.11l0.22-0.02c0.22-0.02,0.44-0.03,0.68-0.05l0.22-0.01c0.07-0.01,0.13-0.06,0.15-0.13l0.07-0.41
		l0.1-0.62l0.34-1.98l0.43,1.98l0.13,0.62l0.08,0.39c0.02,0.07,0.08,0.12,0.15,0.13h0.22c0.22,0.01,0.45,0.01,0.68,0.02l0.22,0.01
		c0.07,0,0.14-0.04,0.16-0.12l0.14-0.52l0.17-0.64l0.47-1.71l0.02-0.08l0.01,0.1l0.19,1.61l0.06,0.55l0.01,0.06l0.07,0.64l0.01,0.08
		c0.01,0.07,0.07,0.13,0.14,0.14l0.22,0.03c0.22,0.03,0.45,0.05,0.68,0.09l0.22,0.03c0.07,0.01,0.14-0.03,0.17-0.1L45,13.39
		l0.57-1.49l0.05-0.14l0.01,0.32l0.02,1.16l0.02,1.57c0,0.07,0.05,0.13,0.12,0.15l0.22,0.05c0.24,0.05,0.46,0.1,0.67,0.15l0.22,0.05
		c0.06,0.01,0.11,0,0.15-0.04c0.01-0.01,0.02-0.03,0.03-0.04l0.83-1.67l0.53-1.06l-0.03,0.32l-0.11,1.28l-0.12,1.43
		c0,0.02,0,0.03,0.01,0.05c0.01,0.05,0.05,0.1,0.1,0.12l0.21,0.07c0.19,0.06,0.38,0.13,0.58,0.19c0.01,0,0.02,0.01,0.03,0.01
		c0.01,0.01,0.03,0.01,0.04,0.01l0.21,0.07c0.07,0.02,0.14,0,0.18-0.07l0.14-0.22l0.59-0.94l0.89-1.41l-0.08,0.43l-0.13,0.69
		l-0.14,0.79l-0.2,1.1c-0.01,0.07,0.02,0.14,0.09,0.17l0.2,0.09c0.23,0.1,0.43,0.19,0.63,0.28l0.2,0.09
		c0.07,0.03,0.15,0.01,0.19-0.04l0.55-0.71l0.86-1.11l0.46-0.59l-0.28,0.97l-0.4,1.42l-0.16,0.55c-0.02,0.07,0.01,0.14,0.08,0.18
		l0.19,0.11c0.25,0.13,0.43,0.24,0.6,0.34l0.19,0.11c0.06,0.04,0.14,0.03,0.19-0.03l2.1-2.21l-1.12,2.84
		c-0.03,0.07-0.01,0.14,0.05,0.19l0.18,0.13c0.18,0.13,0.37,0.26,0.56,0.4l0.18,0.13c0.06,0.04,0.14,0.04,0.2-0.01l2.31-2l-1.4,2.72
		c-0.03,0.07-0.02,0.14,0.04,0.19l0.17,0.14c0.16,0.14,0.33,0.28,0.51,0.45l0.16,0.15c0.06,0.05,0.14,0.05,0.19,0.01l1.56-1.1
		l0.92-0.65l0.01-0.01l-0.02,0.03l-1.64,2.54c-0.02,0.03-0.03,0.08-0.02,0.12c0.01,0.03,0.02,0.05,0.04,0.08l0.15,0.16
		c0.14,0.15,0.29,0.31,0.47,0.49L60,23.07c0.05,0.05,0.13,0.07,0.19,0.03l2.66-1.51l-0.71,0.9l-0.82,1.03l-0.38,0.47
		c-0.04,0.05-0.04,0.14,0,0.19l0.14,0.17c0.14,0.17,0.27,0.34,0.42,0.54l0.13,0.18c0.04,0.06,0.12,0.08,0.19,0.05l2.79-1.24
		l-2.12,2.19c-0.05,0.05-0.06,0.13-0.02,0.19l0.12,0.19c0.15,0.23,0.26,0.41,0.37,0.58l0.12,0.19c0.04,0.06,0.11,0.09,0.18,0.07
		l2.9-0.96l-2.33,1.97c-0.06,0.05-0.07,0.13-0.04,0.19l0.1,0.2c0.09,0.17,0.19,0.36,0.31,0.61l0.1,0.2c0.03,0.07,0.1,0.1,0.17,0.08
		l2.98-0.68l-2.51,1.74c-0.06,0.04-0.08,0.12-0.06,0.19l0.08,0.21c0.09,0.22,0.17,0.44,0.25,0.64l0.08,0.21
		c0.02,0.07,0.09,0.11,0.16,0.1l3.03-0.38l-2.66,1.47c-0.06,0.03-0.09,0.1-0.08,0.17l0.05,0.21c0.01,0.02,0.01,0.04,0.02,0.06
		c0.01,0.02,0.01,0.04,0.02,0.06c0.06,0.2,0.11,0.4,0.15,0.56l0.01,0.04l0.04,0.18c0.02,0.07,0.08,0.12,0.16,0.12l2.46-0.07
		l0.59-0.02l-1.99,0.86L66.9,35.4l-0.46,0.2c-0.07,0.03-0.1,0.1-0.09,0.17l0.04,0.22c0.01,0.07,0.03,0.15,0.04,0.23
		c0.01,0.03,0.01,0.07,0.02,0.1c0.02,0.11,0.04,0.22,0.06,0.34l0.04,0.22c0.01,0.05,0.04,0.09,0.08,0.11
		c0.02,0.01,0.04,0.02,0.06,0.02l0.04,0l3.01,0.21l-0.62,0.2l-2.29,0.73c-0.07,0.02-0.11,0.09-0.11,0.16l0.02,0.22
		c0.02,0.22,0.03,0.44,0.05,0.68l0.01,0.22c0,0.07,0.06,0.13,0.13,0.15l1.99,0.34l0.82,0.14l0.21,0.04l-0.21,0.04l-1.21,0.26
		l-1.47,0.32l-0.1,0.02c-0.07,0.02-0.12,0.08-0.12,0.15l-0.01,0.22c0,0.21-0.01,0.43-0.02,0.68v0.02l-0.01,0.2
		c0,0.07,0.04,0.14,0.11,0.16L68.7,42.68z M14.41,36.73c0.02,0.05,0.04,0.11,0.06,0.16l0-0.01C14.48,36.82,14.45,36.76,14.41,36.73z
		 M14.42,52.39l0,0.04l0.26-0.1L14.42,52.39z M14.89,34.17l-0.37-0.19l-1.91-0.95c0.22,0.31,0.42,0.63,0.59,0.96l1.12,0.56
		c-0.04,0.15-0.07,0.3-0.1,0.44l-0.52,0.01L13.14,35c0.09,0.19,0.17,0.38,0.26,0.57c0,0.01,0.01,0.01,0.01,0.02l0.56-0.01l0.62-0.01
		c0.07,0,0.13-0.05,0.15-0.12l0.05-0.22c0.03-0.17,0.07-0.33,0.11-0.5c0.01-0.05,0.03-0.11,0.04-0.17l0.05-0.22
		C14.99,34.27,14.96,34.2,14.89,34.17z M15.03,47.35l-0.05-0.22c-0.01-0.05-0.05-0.09-0.11-0.11c-0.02,0.02-0.05,0.04-0.07,0.06
		c-0.05,0.04-0.07,0.12-0.04,0.19l0.17,0.36c0.03,0.07,0.1,0.1,0.17,0.08c0.01,0,0.01,0,0.02,0C15.09,47.59,15.06,47.47,15.03,47.35
		z M15.27,48.25c-0.24-0.23-0.56-0.25-0.82-0.05c-0.14,0.1-0.22,0.25-0.24,0.4c-0.01,0.11,0,0.22,0.04,0.32l0.47-0.26l0.13-0.08h0
		l0.34-0.19c0.05-0.03,0.08-0.08,0.08-0.13C15.28,48.26,15.27,48.26,15.27,48.25z M16.12,50.66l-0.08-0.21
		c-0.01-0.02-0.02-0.04-0.02-0.06c-0.08-0.19-0.15-0.38-0.22-0.59l-0.08-0.21c-0.01-0.02-0.02-0.04-0.03-0.05
		c-0.02-0.02-0.03-0.03-0.05-0.04c-0.03-0.01-0.05-0.02-0.08-0.01l-0.22,0.03l-0.59,0.07l-0.8,0.1l-0.56,0.07
		c0.08,0.15,0.2,0.33,0.37,0.55l0.59-0.07l0.81-0.1l0.14-0.02c0.05,0.14,0.1,0.26,0.15,0.39c0.01,0.01,0.01,0.02,0.01,0.03
		l-0.57,0.39l-0.43,0.3l-0.84,0.58l0.01,0.1l0.56-0.24c0.05-0.02,0.1-0.02,0.14,0.01c0.04,0.03,0.07,0.07,0.08,0.12L14.4,52
		l0.46-0.32l0.45-0.31l0.63-0.44l0.12-0.08C16.13,50.8,16.15,50.73,16.12,50.66z M17.22,53l-0.1-0.2c-0.08-0.15-0.15-0.31-0.23-0.46
		c-0.02-0.05-0.05-0.1-0.07-0.15l-0.1-0.2c-0.02-0.05-0.07-0.08-0.12-0.09c-0.02-0.01-0.04-0.01-0.06,0l-1.4,0.32
		c0.01,0.01,0.02,0.02,0.03,0.02c0.02,0.03,0.04,0.06,0.04,0.1l0.01,0.46l0.66-0.15l0.46-0.1c0.01,0.01,0.01,0.02,0.02,0.03
		c0.05,0.1,0.1,0.2,0.15,0.31c0.01,0.02,0.02,0.05,0.03,0.07l-0.54,0.46l0,0.09l0.58-0.19c0.05-0.02,0.1-0.01,0.14,0.03h0
		c0.04,0.03,0.06,0.08,0.06,0.13l0,0.05l0.41-0.34C17.23,53.15,17.25,53.07,17.22,53z M18.05,54.46
		C18.05,54.46,18.04,54.46,18.05,54.46l-0.12-0.2c-0.04-0.06-0.11-0.09-0.18-0.07l-0.23,0.08l-0.03,0.42l0.35-0.09l0.24-0.06
		c0.01,0,0.02,0,0.02,0C18.08,54.52,18.06,54.49,18.05,54.46z M18.53,55.22l-0.12-0.19c-0.03-0.04-0.06-0.09-0.09-0.14
		c-0.02-0.03-0.04-0.06-0.07-0.09l-0.02,0.15l-0.04,0.37l0.34-0.08C18.54,55.24,18.54,55.23,18.53,55.22z M20.83,58.37l0.1-0.01
		C20.9,58.36,20.86,58.36,20.83,58.37z M21.65,59.1l-0.03-0.03c-0.16-0.17-0.31-0.32-0.44-0.46c0,0,0,0-0.01-0.01l-0.15,0.53
		l0.6-0.03c0.01,0,0.02,0,0.03,0L21.65,59.1z M21.8,59.27L21.8,59.27c0-0.01-0.01-0.02-0.01-0.02c0,0,0,0,0,0c0,0.01,0,0.02,0,0.03
		c0,0.01,0,0.02-0.01,0.03c0,0,0,0,0,0l-0.08,0.26l0.01-0.02l0,0l0.08-0.13C21.83,59.37,21.83,59.32,21.8,59.27z M23.68,60.97
		l-0.17-0.14c-0.07-0.06-0.14-0.12-0.2-0.17c-0.11-0.09-0.22-0.19-0.32-0.27l-0.06-0.06l-0.1-0.09c-0.05-0.05-0.14-0.05-0.2-0.01
		l-0.41,0.29l-0.04,0.03h0l-0.03,0.09l0.59,0.01c0.05,0,0.1,0.03,0.13,0.07c0.02,0.03,0.03,0.07,0.02,0.11c0,0.01,0,0.02-0.01,0.04
		l-0.07,0.17c0,0,0,0,0.01,0c0.07,0.06,0.13,0.11,0.2,0.17l-0.11,0.21l0,0.01l0.35,0.02c0.05,0,0.1,0.03,0.13,0.07
		c0.02,0.03,0.03,0.07,0.02,0.11c0,0.01-0.01,0.03-0.01,0.04l-0.23,0.55h0.01l0.07-0.13v0l0.46-0.9c0.01-0.01,0.01-0.02,0.01-0.02
		C23.75,61.08,23.73,61.02,23.68,60.97z M24.88,19.42l-1.2-2.69c-0.18-0.26-0.36-0.52-0.55-0.78c-0.07,0.04-0.13,0.09-0.19,0.13
		c-0.02,0.01-0.03,0.02-0.05,0.03c-0.06,0.04-0.08,0.12-0.05,0.19L23,16.66l1.2,2.69c-0.11,0.08-0.22,0.17-0.36,0.28l-2.6-2.07
		c-0.03-0.03-0.08-0.03-0.12-0.03c-0.03,0-0.05,0.01-0.08,0.03c-0.01,0.01-0.03,0.02-0.04,0.04c-0.13,0.11-0.26,0.22-0.4,0.34
		c-0.01,0.01-0.02,0.02-0.04,0.03c-0.05,0.05-0.07,0.13-0.03,0.2l1.65,2.89c-0.12,0.11-0.23,0.21-0.33,0.31l-2.79-1.8
		c-0.03-0.02-0.07-0.03-0.1-0.02c-0.04,0.01-0.07,0.02-0.1,0.05c-0.02,0.02-0.03,0.03-0.05,0.05c-0.12,0.13-0.24,0.25-0.36,0.38
		c0.45,0.65,0.86,1.32,1.23,2.02c0,0,0,0,0,0l0.65,0.91c-0.04,0.05-0.09,0.09-0.13,0.14c0.09,0.2,0.18,0.39,0.26,0.6
		c0.12-0.14,0.25-0.29,0.38-0.43c0,0,0-0.01,0.01-0.01l0.15-0.16c0.05-0.05,0.05-0.14,0.01-0.2l-1.25-1.77l-0.52-0.73l0.12,0.08
		l2.45,1.58c0.06,0.04,0.14,0.03,0.19-0.02l0.16-0.16c0.15-0.14,0.31-0.29,0.5-0.47l0.16-0.15c0.05-0.05,0.07-0.13,0.03-0.19
		l-1.51-2.66l2.39,1.9c0.06,0.04,0.14,0.04,0.19,0l0.17-0.14c0.21-0.16,0.38-0.3,0.54-0.42l0.15-0.11l0.03-0.02
		C24.89,19.56,24.9,19.48,24.88,19.42z M25.75,62.53l-0.18-0.13c-0.15-0.1-0.29-0.2-0.43-0.31l0,0c-0.04-0.03-0.08-0.06-0.13-0.09
		l-0.18-0.13c-0.06-0.04-0.14-0.04-0.2,0.01l-0.04,0.04l-0.2,0.17l-0.52,0.45l-0.12,0.26c-0.02,0.05-0.02,0.1,0.01,0.14
		c0.02,0.04,0.07,0.07,0.12,0.08l0.3,0.03l0.03-0.03l0.29-0.25l0.26-0.23c0.12,0.09,0.25,0.17,0.37,0.26l-0.19,0.48l-0.13,0.32
		l0.37,0.05c0.05,0.01,0.09,0.04,0.12,0.08c0.02,0.05,0.02,0.1,0,0.15L25,64.44l0.11,0.02l0.4-1.01l0.11-0.29l0.17-0.44
		C25.83,62.65,25.81,62.57,25.75,62.53z M42.32,66.99c-0.1,0.01-0.2,0.01-0.31,0.02l-0.22,0.01c-0.07,0-0.13,0.06-0.15,0.13
		l-0.08,0.46v0l0.42,0.17l0.14,0.06l0-0.02l0.04-0.24c0.07,0,0.15-0.01,0.22-0.01c0,0,0,0,0.01,0c0.08-0.01,0.15-0.01,0.22-0.02
		l0.15,0.47c0.05,0.02,0.11,0.03,0.16,0.05L42.32,66.99z M43.08,67.05c-0.02-0.07-0.09-0.11-0.16-0.11l-0.09,0.01l0.51,0.91
		L43.08,67.05z M45.64,66.68c-0.03-0.07-0.1-0.1-0.17-0.09l-0.22,0.04c-0.13,0.02-0.26,0.05-0.4,0.07l0.67,0.37
		c0.06,0.03,0.13,0.02,0.18-0.02c0.02-0.01,0.03-0.03,0.03-0.05c0.01-0.01,0.01-0.02,0.01-0.03c0-0.01,0.01-0.02,0.01-0.03v0
		L45.64,66.68z M47.45,14.34c-0.03-0.37-0.06-0.75-0.08-1.12l-0.54,1.09l-0.13,0.25c-0.14-0.03-0.29-0.07-0.44-0.1l-0.05-3.4
		c0-0.08-0.06-0.14-0.13-0.15c-0.19-0.04-0.39-0.07-0.59-0.1c-0.01,0-0.02,0-0.02,0c-0.07,0-0.13,0.04-0.15,0.1l-0.03,0.09
		l-0.36,0.93l-0.36,0.93l-0.01,0.03l-0.23,0.61l-0.01,0.04l-0.21,0.56c-0.14-0.02-0.29-0.04-0.45-0.06l-0.01-0.05l-0.04-0.33
		l-0.04-0.37l-0.03-0.24l-0.13-1.11l-0.09-0.79l-0.05-0.47c-0.01-0.07-0.07-0.13-0.14-0.14c-0.16-0.01-0.33-0.03-0.49-0.04
		c-0.04,0-0.07-0.01-0.11-0.01h0c-0.07,0-0.14,0.04-0.16,0.12l-0.15,0.55l-0.57,2.1l-0.17,0.62c-0.15-0.01-0.3-0.01-0.45-0.01
		l-0.12-0.56l-0.59-2.74c-0.02-0.07-0.08-0.13-0.16-0.12c-0.2,0-0.4,0.01-0.6,0.02c-0.07,0-0.14,0.06-0.15,0.13l-0.46,2.72
		l-0.1,0.61c-0.03,0-0.06,0.01-0.09,0.01c-0.12,0.01-0.24,0.02-0.36,0.03l-0.01-0.04l-0.21-0.64l-0.81-2.53
		c-0.02-0.05-0.06-0.09-0.11-0.1c-0.01,0-0.03,0-0.04,0h-0.01c-0.2,0.02-0.4,0.04-0.6,0.07c-0.07,0.01-0.13,0.07-0.14,0.14
		l-0.16,2.2l-0.05,0.64l-0.04,0.52c-0.05,0.01-0.12,0.02-0.17,0.03c-0.03,0.01-0.06,0.01-0.09,0.01c-0.06,0.01-0.12,0.02-0.18,0.03
		l-0.32-0.73l-0.31-0.72l-0.71-1.64c-0.02-0.05-0.07-0.09-0.12-0.09c-0.02,0-0.04,0-0.05,0c-0.14,0.03-0.27,0.06-0.41,0.09
		c-0.06,0.01-0.12,0.03-0.18,0.04c-0.07,0.02-0.12,0.08-0.12,0.16l0.02,0.55l0.01,0.51l0.02,0.68l0.04,1.62
		c-0.16,0.04-0.3,0.08-0.44,0.12l-1.63-2.94c-0.02-0.03-0.05-0.06-0.08-0.07c-0.02-0.01-0.03-0.01-0.05-0.01
		c-0.02,0-0.04,0-0.05,0.01c-0.18,0.06-0.36,0.12-0.54,0.18c-0.01,0-0.03,0.01-0.04,0.01c-0.05,0.02-0.09,0.06-0.1,0.11
		c-0.01,0.02-0.01,0.04-0.01,0.06l0.4,3.13l0.02,0.2c-0.14,0.05-0.28,0.1-0.42,0.16l-0.05-0.08l-0.41-0.58l-1.45-2.09
		c-0.02-0.03-0.05-0.05-0.09-0.06c-0.03-0.01-0.07-0.01-0.1,0.01c-0.19,0.08-0.38,0.16-0.56,0.25c-0.07,0.03-0.1,0.1-0.09,0.17
		l0.19,0.83l0.17,0.76l0.38,1.67c-0.13,0.07-0.27,0.13-0.4,0.2l-1.77-2.09l-0.39-0.46c-0.04-0.04-0.09-0.06-0.14-0.05
		c-0.02,0-0.03,0.01-0.05,0.02c-0.01,0-0.02,0.01-0.02,0.01c-0.18,0.1-0.34,0.19-0.5,0.28c-0.01,0.01-0.02,0.01-0.02,0.01
		c-0.06,0.04-0.09,0.12-0.07,0.18l0.37,1.12l0.07,0.22l0.61,1.84c-0.01,0.01-0.02,0.01-0.03,0.02c0.1,0.17,0.19,0.35,0.28,0.52
		c0.05-0.03,0.11-0.07,0.16-0.1l0.19-0.12c0.04-0.02,0.07-0.06,0.07-0.1c0-0.03,0-0.05-0.01-0.08l-0.89-2.67l-0.08-0.22l0.12,0.14
		l1.85,2.19c0.05,0.05,0.13,0.07,0.19,0.04l0.2-0.1c0.21-0.11,0.41-0.21,0.61-0.31l0.2-0.1c0.07-0.03,0.1-0.1,0.08-0.17l-0.01-0.04
		l-0.35-1.54l-0.17-0.74l-0.15-0.65l0.57,0.83l1.16,1.68c0.04,0.06,0.12,0.08,0.19,0.06l0.21-0.08c0.02-0.01,0.04-0.02,0.06-0.02
		c0.17-0.07,0.33-0.13,0.5-0.19c0.03-0.01,0.05-0.02,0.08-0.03l0.21-0.08c0.07-0.03,0.11-0.09,0.1-0.17l-0.03-0.26l-0.35-2.76
		l1.48,2.67c0.04,0.07,0.11,0.09,0.18,0.08l0.21-0.06c0.2-0.06,0.41-0.11,0.66-0.18l0.21-0.06c0.07-0.02,0.12-0.08,0.12-0.15
		l-0.05-1.8l-0.02-0.67l-0.02-0.58l0.28,0.64l0.32,0.74l0.62,1.42c0.03,0.07,0.1,0.1,0.17,0.09l0.22-0.04
		c0.24-0.04,0.48-0.08,0.68-0.11l0.22-0.03c0.07-0.01,0.13-0.07,0.13-0.14l0.06-0.83l0.04-0.63l0.11-1.58l0.53,1.66l0.21,0.65
		l0.19,0.6c0.02,0.07,0.09,0.11,0.16,0.11l0.22-0.02c0.22-0.02,0.44-0.03,0.68-0.05l0.22-0.01c0.07-0.01,0.13-0.06,0.15-0.13
		l0.07-0.41l0.1-0.62l0.34-1.98l0.43,1.98l0.13,0.62l0.08,0.39c0.02,0.07,0.08,0.12,0.15,0.13h0.22c0.22,0.01,0.45,0.01,0.68,0.02
		l0.22,0.01c0.07,0,0.14-0.04,0.16-0.12l0.14-0.52l0.17-0.64l0.47-1.71l0.02-0.08l0.01,0.1l0.19,1.61l0.06,0.55l0.01,0.06l0.07,0.64
		l0.01,0.08c0.01,0.07,0.07,0.13,0.14,0.14l0.22,0.03c0.22,0.03,0.45,0.05,0.68,0.09l0.22,0.03c0.07,0.01,0.14-0.03,0.17-0.1
		L45,13.39l0.57-1.49l0.05-0.14l0.01,0.32l0.02,1.16l0.02,1.57c0,0.07,0.05,0.13,0.12,0.15l0.22,0.05c0.24,0.05,0.46,0.1,0.67,0.15
		l0.22,0.05c0.06,0.01,0.11,0,0.15-0.04c0.01-0.01,0.02-0.03,0.03-0.04l0.83-1.67C47.74,13.75,47.59,14.04,47.45,14.34z
		 M49.41,15.07c-0.01,0.01-0.03,0.01-0.04,0.02l-0.13,0.2c-0.08-0.03-0.15-0.05-0.22-0.08c-0.07,0.03-0.14,0.05-0.21,0.07
		c-0.16,0.06-0.33,0.11-0.5,0.16l-0.11,0.04c0.01,0.05,0.05,0.1,0.1,0.12l0.21,0.07c0.19,0.06,0.38,0.13,0.58,0.19
		c0.01,0,0.02,0.01,0.03,0.01c0.01,0.01,0.03,0.01,0.04,0.01l0.21,0.07c0.07,0.02,0.14,0,0.18-0.07l0.14-0.22l0.59-0.94
		C50,14.85,49.7,14.97,49.41,15.07z M52.2,15.61l-0.51,0.66c-0.13-0.06-0.27-0.12-0.41-0.19l0.21-1.14
		c-0.22,0.1-0.43,0.19-0.65,0.28l-0.2,1.1c-0.01,0.07,0.02,0.14,0.09,0.17l0.2,0.09c0.23,0.1,0.43,0.19,0.63,0.28l0.2,0.09
		c0.07,0.03,0.15,0.01,0.19-0.04l0.55-0.71L52.2,15.61z M55.18,62.73c-0.05-0.05-0.13-0.06-0.19-0.02l-0.19,0.12
		c-0.07,0.05-0.14,0.09-0.21,0.14c0.21-0.07,0.42-0.14,0.63-0.2L55.18,62.73z M57.87,61.67l-0.61-0.48c-0.06-0.05-0.14-0.05-0.19,0
		l-0.17,0.14c-0.13,0.1-0.33,0.26-0.54,0.42l-0.18,0.13c-0.05,0.04-0.07,0.1-0.06,0.17c0,0.01,0.01,0.02,0.01,0.02l0.18,0.4
		c0.19-0.05,0.39-0.1,0.58-0.14l-0.08-0.19c0.12-0.1,0.25-0.19,0.36-0.28l0.41,0.32c0.26-0.05,0.52-0.09,0.78-0.13L57.87,61.67z
		 M59.36,61.38l-1.04-0.63l0.45,0.78c0.21-0.03,0.42-0.05,0.64-0.08L59.36,61.38z M62.13,57.07c-0.02-0.07-0.08-0.11-0.15-0.11
		h-0.04l0.24,0.27L62.13,57.07z M66.61,36.99c0.02,0.01,0.04,0.02,0.06,0.02l0.04,0C66.68,37.01,66.65,37,66.61,36.99z M67.04,40.74
		l0.27,0.72c0.03,0.01,0.06,0.01,0.09,0.01c0-0.07,0.01-0.14,0.01-0.2l0.5-0.11l0.61-0.74L67.04,40.74z"/>
	<path style="fill:#3FA9F5;" d="M32.47,63c-0.06-4.31-1.91-8.25-4.83-11.07c-0.12-0.11-0.23-0.22-0.35-0.32
		c-0.03-0.03-0.07-0.06-0.1-0.08c-0.11-0.1-0.22-0.19-0.33-0.29c-0.51-0.43-1.04-0.82-1.6-1.18c-0.12-0.08-0.24-0.15-0.36-0.23
		c-0.24-0.15-0.49-0.3-0.75-0.43c-0.15-0.08-0.31-0.16-0.47-0.24c-0.52-0.26-1.05-0.49-1.6-0.69c-0.17-0.06-0.35-0.12-0.52-0.18
		c-0.44-0.14-0.89-0.27-1.34-0.37c-0.22-0.05-0.45-0.1-0.68-0.14c-0.56-0.1-1.12-0.17-1.7-0.21l-0.41-0.03
		c-0.05,0-0.1,0.02-0.13,0.06c-0.03,0.04-0.04,0.09-0.03,0.14l0.13,0.39c0.18,0.57,0.39,1.14,0.62,1.69
		c0.26,0.63,0.54,1.26,0.85,1.86c0,0,0,0,0,0c0.26,0.51,0.53,1.01,0.83,1.5c0.09,0.15,0.18,0.3,0.27,0.44
		c0.23,0.37,0.47,0.72,0.72,1.08c0.19,0.27,0.39,0.55,0.6,0.81c1.1,1.43,2.36,2.73,3.74,3.88c0.09,0.08,0.19,0.15,0.28,0.23
		c1.96,1.59,4.18,2.87,6.56,3.78l0.38,0.15c0.02,0.01,0.04,0.01,0.05,0.01c0.03,0,0.06-0.01,0.09-0.03
		c0.04-0.03,0.07-0.08,0.07-0.13L32.47,63z M17.72,47.88c-0.01,0.01-0.03,0.02-0.03,0.03c-0.01,0.01-0.02,0.03-0.02,0.04l-0.03-0.08
		L17.72,47.88C17.72,47.88,17.72,47.88,17.72,47.88z M31.69,62.7c-0.11-0.04-0.23-0.09-0.34-0.14c-0.07-0.03-0.15-0.07-0.22-0.1
		c-0.14-0.06-0.28-0.12-0.42-0.18c-0.04-0.02-0.07-0.03-0.11-0.05c-1.87-0.87-3.61-1.97-5.18-3.28c-0.1-0.08-0.19-0.16-0.28-0.24
		c-1.44-1.23-2.73-2.63-3.84-4.17c-0.22-0.31-0.44-0.62-0.64-0.94c-0.08-0.12-0.15-0.24-0.23-0.36c-0.09-0.15-0.18-0.29-0.27-0.44
		c-0.3-0.49-0.57-0.99-0.83-1.5c-0.08-0.16-0.16-0.32-0.24-0.48c-0.22-0.45-0.42-0.91-0.6-1.38c-0.01-0.02-0.01-0.04-0.02-0.06
		c-0.06-0.15-0.12-0.31-0.18-0.47c-0.02-0.06-0.04-0.12-0.07-0.18c-0.05-0.13-0.09-0.26-0.14-0.39c-0.02-0.05-0.04-0.11-0.05-0.16
		c0.02,0,0.04,0.01,0.07,0.01c0.06,0.01,0.12,0.01,0.18,0.02c0.05,0.01,0.11,0.01,0.16,0.02c0.07,0.01,0.15,0.02,0.22,0.03
		c0.04,0.01,0.08,0.01,0.12,0.02c0.09,0.01,0.19,0.03,0.28,0.04c0.02,0,0.03,0.01,0.05,0.01c0.21,0.03,0.42,0.07,0.63,0.11
		c0.23,0.05,0.45,0.1,0.68,0.15c0.24,0.06,0.48,0.13,0.72,0.2c0.18,0.05,0.36,0.11,0.53,0.17c0.56,0.19,1.1,0.42,1.63,0.67
		c0.16,0.08,0.32,0.16,0.47,0.24c0.43,0.23,0.86,0.48,1.26,0.75c0.12,0.08,0.23,0.16,0.35,0.24c0.21,0.15,0.41,0.3,0.61,0.46
		c0.12,0.09,0.24,0.19,0.36,0.28c0.35,0.29,0.69,0.59,1.01,0.91c0.11,0.12,0.23,0.23,0.34,0.35c2.25,2.37,3.74,5.45,4.09,8.84
		c0,0.02,0,0.04,0.01,0.06c0.01,0.09,0.02,0.17,0.02,0.26c0,0.05,0.01,0.1,0.01,0.16c0.01,0.06,0.01,0.12,0.01,0.17
		c0,0.08,0.01,0.15,0.01,0.22c0,0.04,0,0.08,0.01,0.12c0,0.03,0,0.06,0,0.09C31.81,62.75,31.75,62.73,31.69,62.7z M32.16,63.19
		l-0.08-0.03c0,0,0,0,0.01,0c0.01,0,0.02-0.01,0.03-0.02c0,0,0,0,0.01,0c0,0,0,0,0.01-0.01c0.01-0.01,0.02-0.02,0.03-0.02
		c0,0,0,0,0.01-0.01V63.19z"/>
	<path style="fill:#3FA9F5;" d="M35.48,27.44l-5.48-0.82l-0.54-0.08l-1.76-0.26l-0.54-0.08l-0.29-0.04
		c-0.05-0.01-0.09,0.01-0.13,0.04c-0.03,0.03-0.05,0.08-0.05,0.13l0.8,8.6l0.01,0.08c0.01,0.07,0.06,0.13,0.13,0.14
		c0.01,0,0.02,0,0.03,0c0.05,0,0.11-0.03,0.14-0.08l0.27-0.5l0.17-0.32c0.46-0.87,1.03-1.7,1.67-2.45c0.16-0.2,0.34-0.39,0.52-0.57
		c1.21-1.28,2.66-2.33,4.26-3.07l0.85-0.39c0.06-0.03,0.1-0.1,0.09-0.16C35.6,27.5,35.54,27.45,35.48,27.44z M27.05,26.52
		c-0.01,0.01-0.02,0.02-0.03,0.03l-0.01-0.06l0.06,0.01C27.06,26.51,27.05,26.51,27.05,26.52z M27.76,34.44l-0.03-0.31h0
		c0.01,0.01,0.02,0.02,0.03,0.03c0,0,0.01,0,0.01,0c0.01,0.01,0.03,0.01,0.04,0.01h0c0.02,0.01,0.03,0.01,0.05,0c0,0,0,0,0,0
		c0.01,0,0.03-0.01,0.04-0.01L27.76,34.44z M33.94,27.83c-0.09,0.04-0.17,0.09-0.26,0.14c-0.08,0.04-0.15,0.08-0.22,0.12
		c-0.1,0.06-0.2,0.11-0.3,0.17c-0.06,0.03-0.11,0.06-0.16,0.09c-0.12,0.07-0.23,0.14-0.34,0.21c-0.03,0.02-0.07,0.04-0.1,0.07
		c-0.13,0.08-0.25,0.17-0.37,0.25c-0.01,0.01-0.03,0.02-0.04,0.03c-0.63,0.44-1.21,0.93-1.76,1.47c-0.17,0.16-0.34,0.33-0.5,0.51
		c-0.26,0.28-0.51,0.57-0.74,0.87c-0.01,0.01-0.02,0.02-0.02,0.03c-0.09,0.12-0.19,0.25-0.28,0.37c-0.02,0.03-0.04,0.05-0.06,0.08
		c-0.08,0.11-0.16,0.23-0.24,0.34c-0.03,0.04-0.06,0.09-0.09,0.13c-0.07,0.1-0.14,0.21-0.21,0.31c-0.02,0.04-0.05,0.08-0.07,0.11
		c-0.02,0.02-0.03,0.04-0.04,0.06c-0.06,0.1-0.12,0.19-0.17,0.29c-0.01,0.01-0.01,0.01-0.01,0.02l-0.25-2.7V30.8l-0.31-3.35
		l-0.06-0.63l0.49,0.07l1.74,0.26l0.53,0.08l3.88,0.58C33.96,27.82,33.95,27.82,33.94,27.83z M34.63,27.81
		c0.01-0.03,0.02-0.06,0.02-0.09c-0.01-0.03-0.02-0.06-0.04-0.09l0.31,0.05L34.63,27.81z"/>
	<path style="fill:#3FA9F5;" d="M23.2,43.33c0.02,0.04,0.03,0.08,0.05,0.12l0.18-0.22L23.2,43.33z M29.22,48.91l-0.5-0.79
		c-0.66-1.06-1.18-2.19-1.53-3.37c-0.08-0.25-0.14-0.5-0.2-0.76c-0.25-1.06-0.38-2.14-0.38-3.25c0-0.42,0.02-0.84,0.05-1.26
		l0.01-0.12l0.07-0.81c0.01-0.07-0.03-0.13-0.1-0.16c-0.07-0.03-0.14-0.01-0.18,0.05l-0.07,0.08l-0.32,0.41l-0.95,1.2l-0.34,0.43
		l-0.44,0.56l-0.43,0.54l0,0l-0.47,0.59l-0.24,0.31l-2.14,2.7c-0.03,0.04-0.04,0.09-0.03,0.14c0.01,0.04,0.04,0.08,0.09,0.1
		l1.92,0.88l0.48,0.22l0.69,0.32l0.38,0.17l0.48,0.22l0.48,0.22l3.49,1.6c0.02,0.01,0.04,0.02,0.07,0.02c0.04,0,0.09-0.02,0.11-0.05
		C29.25,49.04,29.26,48.96,29.22,48.91z M26.33,39.12l0.06-0.07l-0.01,0.11l-0.02,0.2c-0.02-0.03-0.04-0.05-0.07-0.06
		c0,0-0.01,0-0.01,0c-0.02-0.01-0.03-0.01-0.05-0.01c0,0,0,0-0.01,0c-0.01,0-0.02,0-0.04,0L26.33,39.12z M21.42,45.3l0.04-0.05
		c0,0.01,0,0.02,0,0.04c0,0.01,0.01,0.03,0.01,0.04L21.42,45.3z M25.87,47.03l-0.48-0.22l-1.03-0.48h0l-0.39-0.18l-0.12-0.05
		l-0.48-0.22l-1.51-0.69l1.17-1.47l0.22-0.28l0.18-0.22l0,0l0.28-0.36l0.8-1.01l0.21-0.27l0.66-0.83l0.34-0.43l0.31-0.39
		c0,0.01,0,0.01,0,0.02c-0.01,0.12-0.01,0.25-0.01,0.37c0,0.01,0,0.01,0,0.02v0.08c0,0.11-0.01,0.21-0.01,0.32
		c0,0.09,0,0.19,0.01,0.28c0,0.07,0,0.14,0,0.21c0.01,0.1,0.01,0.21,0.02,0.31c0.01,0.06,0.01,0.12,0.01,0.18
		c0.01,0.1,0.02,0.19,0.02,0.29c0,0.02,0,0.03,0,0.05c0.01,0.05,0.01,0.1,0.02,0.15c0.01,0.12,0.03,0.24,0.04,0.35
		c0.01,0.04,0.01,0.09,0.02,0.13c0.02,0.12,0.04,0.24,0.05,0.37c0.01,0.03,0.01,0.07,0.02,0.11c0.02,0.13,0.04,0.25,0.07,0.38
		c0.01,0.03,0.01,0.06,0.02,0.09c0.03,0.13,0.05,0.26,0.08,0.39c0.01,0.02,0.01,0.05,0.02,0.07c0.03,0.14,0.07,0.27,0.1,0.4
		c0.01,0.02,0.01,0.04,0.02,0.05c0.02,0.08,0.04,0.16,0.07,0.24c0.02,0.05,0.03,0.11,0.05,0.17c0.01,0.01,0.01,0.03,0.01,0.04
		c0.04,0.14,0.09,0.28,0.13,0.42c0,0.01,0.01,0.02,0.01,0.03c0.01,0.01,0.01,0.03,0.01,0.04c0.04,0.13,0.09,0.25,0.14,0.38
		c0,0,0,0.01,0,0.01c0.28,0.74,0.62,1.45,1.01,2.13L25.87,47.03z M28.39,48.5c0.03-0.01,0.06-0.02,0.08-0.05
		c0.02-0.03,0.04-0.06,0.04-0.09l0.17,0.27L28.39,48.5z M23.2,43.33c0.02,0.04,0.03,0.08,0.05,0.12l0.18-0.22L23.2,43.33z"/>
	<path style="fill:#3FA9F5;" d="M17.34,35.09c-0.06,0.06-0.06,0.16,0,0.22c0.04,0.04,0.07,0.07,0.11,0.11
		c0.04-0.2,0.09-0.39,0.14-0.58L17.34,35.09z M24.02,26.68c-0.05-0.16-0.1-0.33-0.16-0.49c-0.08-0.22-0.16-0.44-0.25-0.66
		c-0.06-0.16-0.13-0.32-0.2-0.48c-0.03-0.06-0.05-0.12-0.08-0.18c-0.04-0.09-0.08-0.18-0.12-0.27l-0.18-0.38
		c-0.02-0.04-0.05-0.07-0.1-0.08c-0.01,0-0.01-0.01-0.02-0.01c-0.05-0.01-0.1,0.01-0.14,0.05l-0.28,0.31
		c-0.04,0.04-0.08,0.09-0.12,0.13c-0.22,0.24-0.43,0.49-0.64,0.74c-0.56,0.69-1.09,1.4-1.57,2.14c-0.14,0.21-0.27,0.42-0.4,0.64
		c-0.98,1.62-1.77,3.34-2.35,5.14c-0.1,0.29-0.18,0.58-0.26,0.88c-0.02,0.05-0.03,0.1-0.04,0.16v0c-0.05,0.18-0.1,0.36-0.14,0.54
		c-0.15,0.58-0.27,1.18-0.37,1.77c-0.04,0.21-0.07,0.42-0.1,0.64c-0.11,0.72-0.18,1.46-0.22,2.19c-0.01,0.19-0.02,0.39-0.02,0.58
		c0,0.1-0.01,0.19-0.01,0.29c0,0.14,0,0.27,0,0.41c0,0.2,0,0.4,0.01,0.61c0.01,0.44,0.03,0.88,0.07,1.31
		c0.02,0.25,0.04,0.5,0.07,0.75c0.03,0.33,0.08,0.66,0.13,0.98l0.06,0.42c0.01,0.05,0.04,0.1,0.09,0.12
		c0.02,0.01,0.04,0.02,0.07,0.02c0.03,0,0.06-0.01,0.08-0.02l0.36-0.22c0.02-0.01,0.05-0.03,0.07-0.04c0.26-0.16,0.51-0.32,0.75-0.5
		c0.17-0.11,0.33-0.24,0.49-0.36c0.07-0.05,0.13-0.1,0.19-0.15c1.08-0.84,2.03-1.8,2.84-2.87c0.07-0.09,0.14-0.18,0.2-0.27
		c0.1-0.13,0.19-0.27,0.28-0.4c0.1-0.15,0.2-0.3,0.3-0.45c0.21-0.32,0.4-0.66,0.57-0.99c0.22-0.41,0.42-0.83,0.59-1.25
		c0.04-0.09,0.08-0.19,0.12-0.29c0.07-0.16,0.13-0.33,0.19-0.49c0.61-1.68,0.92-3.48,0.92-5.34C24.71,29.7,24.48,28.16,24.02,26.68z
		 M22.85,24.56l0.04,0.08c0,0,0,0-0.01,0c-0.01-0.01-0.02-0.01-0.04-0.01c0,0,0,0,0,0l-0.02,0l-0.01,0h-0.02L22.85,24.56z
		 M16.86,44.52l-0.02-0.09c0,0,0,0,0,0c0.01,0.01,0.03,0.02,0.04,0.03c0.02,0.01,0.03,0.01,0.04,0.01c0,0,0,0,0.01,0L16.86,44.52z
		 M23.21,36.44c-0.25,0.7-0.56,1.38-0.91,2.03c-0.12,0.21-0.24,0.42-0.36,0.62c-0.09,0.16-0.19,0.31-0.29,0.46
		c-0.08,0.13-0.17,0.26-0.26,0.38c-0.06,0.09-0.13,0.19-0.2,0.28c-0.39,0.54-0.83,1.05-1.29,1.53c-0.44,0.47-0.93,0.91-1.43,1.31
		c-0.09,0.07-0.17,0.14-0.26,0.2c-0.16,0.13-0.32,0.25-0.49,0.36c-0.01,0.01-0.01,0.01-0.02,0.01c-0.02,0.02-0.04,0.03-0.07,0.05
		c-0.1,0.07-0.19,0.13-0.29,0.2c-0.05,0.03-0.1,0.06-0.14,0.09c-0.04,0.03-0.08,0.05-0.13,0.08c0-0.02-0.01-0.03-0.01-0.05
		c-0.01-0.1-0.03-0.2-0.04-0.31c-0.01-0.04-0.01-0.07-0.01-0.11c-0.01-0.11-0.03-0.21-0.04-0.32c-0.01-0.03-0.01-0.06-0.01-0.09
		c-0.01-0.12-0.02-0.23-0.03-0.34c0-0.02-0.01-0.04-0.01-0.06c0-0.02,0-0.04-0.01-0.06c-0.01-0.1-0.02-0.2-0.02-0.3
		c0-0.01,0-0.03,0-0.04c0-0.04-0.01-0.08-0.01-0.12c-0.01-0.09-0.01-0.18-0.02-0.27v-0.01c0-0.03,0-0.05,0-0.08
		c-0.02-0.26-0.02-0.52-0.03-0.78c-0.01-0.13-0.01-0.25-0.01-0.38c0-0.16,0-0.31,0.01-0.47c0-0.19,0.01-0.37,0.02-0.55
		c0.03-0.66,0.08-1.32,0.16-1.97c0.03-0.21,0.05-0.42,0.09-0.62c0.09-0.57,0.2-1.14,0.33-1.71c0.04-0.2,0.09-0.39,0.14-0.58
		c0.16-0.6,0.33-1.19,0.54-1.78v0c0.04-0.11,0.07-0.21,0.11-0.32v0c0.46-1.27,1.02-2.5,1.69-3.68c0.01-0.02,0.02-0.04,0.03-0.06
		c0.01-0.01,0.01-0.01,0.01-0.02c0.08-0.14,0.16-0.28,0.25-0.42c0.01-0.02,0.02-0.04,0.03-0.06c0.03-0.05,0.06-0.09,0.09-0.14
		c0.05-0.08,0.1-0.16,0.15-0.24c0.02-0.03,0.04-0.06,0.06-0.09c0.07-0.12,0.15-0.23,0.23-0.35c0.02-0.04,0.05-0.08,0.08-0.12
		c0.07-0.11,0.14-0.21,0.22-0.32c0.03-0.04,0.06-0.09,0.09-0.13c0.07-0.1,0.14-0.2,0.21-0.3c0.03-0.04,0.07-0.09,0.1-0.14l0.01-0.01
		c0.07-0.09,0.14-0.19,0.21-0.28c0.04-0.05,0.08-0.1,0.12-0.15c0.02-0.03,0.05-0.06,0.07-0.09c0.05-0.06,0.09-0.12,0.14-0.17
		c0.03-0.04,0.07-0.09,0.1-0.13c0.01-0.01,0.01-0.01,0.02-0.02c0.07-0.09,0.14-0.17,0.22-0.26c0.04-0.05,0.08-0.1,0.13-0.15
		c0.03-0.03,0.05-0.06,0.08-0.09c0.05-0.05,0.09-0.11,0.14-0.16c0.02-0.03,0.05-0.05,0.07-0.08c0.02,0.03,0.03,0.07,0.05,0.1
		c0.01,0.02,0.02,0.04,0.03,0.06c0.01,0.02,0.01,0.03,0.02,0.05c0.04,0.09,0.08,0.19,0.12,0.28c0.01,0.02,0.02,0.04,0.03,0.07
		c0.01,0.03,0.02,0.05,0.03,0.08h0c0.03,0.08,0.07,0.17,0.1,0.25c0,0.01,0.01,0.02,0.01,0.02c0.05,0.13,0.09,0.26,0.14,0.39
		c0.06,0.16,0.11,0.33,0.16,0.49c0.43,1.4,0.66,2.88,0.66,4.42C24.12,33.1,23.8,34.83,23.21,36.44z M17.34,35.09
		c-0.06,0.06-0.06,0.16,0,0.22c0.04,0.04,0.07,0.07,0.11,0.11c0.04-0.2,0.09-0.39,0.14-0.58L17.34,35.09z M23.21,24.6l-0.18-0.38
		c-0.02-0.04-0.05-0.07-0.1-0.08c-0.01,0-0.01-0.01-0.02-0.01c-0.05-0.01-0.1,0.01-0.14,0.05l-0.28,0.31
		c-0.04,0.04-0.08,0.09-0.12,0.13c-0.22,0.24-0.43,0.49-0.64,0.74c-0.56,0.69-1.09,1.4-1.57,2.14c-0.14,0.21-0.27,0.42-0.4,0.64
		c0.06,0.3,0.11,0.61,0.15,0.91c0.01-0.02,0.02-0.04,0.03-0.06c0.01-0.01,0.01-0.01,0.01-0.02c0.08-0.14,0.16-0.28,0.25-0.42
		c0.01-0.02,0.02-0.04,0.03-0.06c0.03-0.05,0.06-0.09,0.09-0.14c0.05-0.08,0.1-0.16,0.15-0.24c0.02-0.03,0.04-0.06,0.06-0.09
		c0.07-0.12,0.15-0.23,0.23-0.35c0.02-0.04,0.05-0.08,0.08-0.12c0.07-0.11,0.14-0.21,0.22-0.32c0.03-0.04,0.06-0.09,0.09-0.13
		c0.07-0.1,0.14-0.2,0.21-0.3c0.03-0.04,0.07-0.09,0.1-0.14l0.01-0.01c0.07-0.09,0.14-0.19,0.21-0.28c0.04-0.05,0.08-0.1,0.12-0.15
		c0.02-0.03,0.05-0.06,0.07-0.09c0.05-0.06,0.09-0.12,0.14-0.17c0.03-0.04,0.07-0.09,0.1-0.13c0.01-0.01,0.01-0.01,0.02-0.02
		c0.07-0.09,0.14-0.17,0.22-0.26c0.04-0.05,0.08-0.1,0.13-0.15c0.03-0.03,0.05-0.06,0.08-0.09c-0.02,0.01-0.04,0.01-0.05,0.01
		c-0.1,0.02-0.17,0.03-0.2,0.03h-0.01l-0.01,0c-0.01,0-0.02-0.01-0.03-0.02l0-0.01c0-0.01-0.01-0.02-0.01-0.03v0
		c-0.01-0.01-0.01-0.02-0.01-0.03v-0.01l0-0.01v-0.01l0,0v0c0,0,0.01-0.01,0.03-0.02c0.02-0.01,0.03-0.02,0.05-0.03h0
		c0.02-0.01,0.05-0.02,0.08-0.03h0c0.01-0.01,0.03-0.01,0.04-0.02l0.01-0.01c0.01,0,0.02-0.01,0.03-0.01l0.02-0.01l0.02-0.01
		c0.01-0.01,0.02-0.01,0.03-0.01c0.02-0.01,0.04-0.01,0.05-0.02l0.71-0.22C23.3,24.78,23.26,24.69,23.21,24.6z M22.89,24.64
		c-0.01-0.01-0.02-0.01-0.04-0.01c0,0,0,0,0,0l-0.02,0l-0.01,0h-0.02l0.06-0.07L22.89,24.64C22.89,24.64,22.89,24.64,22.89,24.64z"
		/>
	<path style="fill:#3FA9F5;" d="M51.34,40.68c0-0.06-0.04-0.11-0.1-0.14l-3.07-1.1c-0.04-0.26-0.1-0.52-0.17-0.77l2.32-2.3
		c0.05-0.05,0.06-0.12,0.03-0.18c-0.08-0.18-0.17-0.36-0.26-0.53c-0.03-0.06-0.09-0.09-0.16-0.08l-3.26,0.45
		c-0.16-0.2-0.32-0.39-0.49-0.57l0.99-3.15c0.02-0.06,0-0.13-0.05-0.17c-0.15-0.12-0.32-0.24-0.49-0.35c-0.05-0.04-0.12-0.04-0.18,0
		l-2.72,1.95c-0.21-0.1-0.43-0.18-0.65-0.26l-0.59-3.3c-0.01-0.07-0.06-0.12-0.12-0.13c-0.19-0.03-0.39-0.06-0.59-0.08
		c-0.06-0.01-0.13,0.03-0.16,0.08l-1.53,3.03c-0.21,0.02-0.42,0.04-0.63,0.07l-2.09-2.69c-0.04-0.05-0.11-0.07-0.17-0.05
		c-0.2,0.06-0.39,0.13-0.56,0.2c-0.06,0.02-0.1,0.08-0.1,0.15l0.06,3.44c-0.16,0.1-0.33,0.21-0.49,0.33l-3.14-1.43
		c-0.06-0.03-0.13-0.02-0.18,0.03c-0.14,0.15-0.28,0.29-0.41,0.44c-0.04,0.05-0.05,0.12-0.02,0.18l1.67,3.05
		c-0.1,0.16-0.19,0.32-0.27,0.49l-3.47,0.2c-0.07,0-0.12,0.05-0.14,0.11c-0.05,0.16-0.09,0.32-0.13,0.48
		c-0.01,0.03-0.02,0.07-0.03,0.1c0,0.02-0.01,0.03,0,0.05c0,0.05,0.03,0.09,0.07,0.12l2.9,1.93c-0.01,0.18-0.02,0.33-0.02,0.48
		c0,0.03,0,0.05,0,0.08l-2.98,1.79c-0.05,0.03-0.09,0.1-0.07,0.16c0.01,0.05,0.02,0.09,0.03,0.14c0.03,0.15,0.06,0.29,0.1,0.44
		c0.02,0.07,0.07,0.11,0.14,0.12l3.44,0.36c0.08,0.18,0.16,0.36,0.26,0.53l-1.79,2.94c-0.04,0.06-0.03,0.13,0.01,0.18
		c0.07,0.08,0.13,0.16,0.2,0.24c0.06,0.07,0.13,0.15,0.19,0.22c0.03,0.04,0.08,0.05,0.13,0.05c0.02,0,0.03-0.01,0.05-0.01l3.17-1.26
		c0.16,0.13,0.33,0.26,0.51,0.38l-0.22,3.4c-0.01,0.07,0.03,0.13,0.09,0.15c0.2,0.09,0.38,0.16,0.55,0.22
		c0.02,0.01,0.03,0.01,0.05,0.01c0.05,0,0.09-0.02,0.13-0.05l2.19-2.55c0.1,0.02,0.21,0.04,0.32,0.06c0.12,0.02,0.24,0.04,0.36,0.05
		l1.36,3.06c0.02,0.06,0.08,0.09,0.14,0.09h0.01c0.2-0.01,0.4-0.03,0.59-0.06c0.07-0.01,0.12-0.05,0.13-0.12l0.74-3.23
		c0.24-0.07,0.48-0.15,0.71-0.24l2.59,2.05c0.05,0.04,0.12,0.04,0.18,0.01c0.17-0.1,0.33-0.21,0.5-0.33
		c0.05-0.04,0.08-0.1,0.06-0.17l-0.84-3.16c0.19-0.18,0.37-0.38,0.54-0.57l3.21,0.6c0.07,0.01,0.13-0.02,0.16-0.07
		c0.1-0.17,0.2-0.35,0.29-0.52c0.03-0.06,0.02-0.13-0.02-0.18l-2.2-2.4c0.09-0.26,0.16-0.52,0.21-0.77l3.1-0.96
		c0.06-0.02,0.11-0.08,0.11-0.14c0.01-0.19,0.01-0.37,0.01-0.55C51.34,40.72,51.34,40.7,51.34,40.68z M47.69,41.9
		c-0.06,0.02-0.1,0.06-0.11,0.12l-0.03,0.16c-0.06,0.28-0.14,0.58-0.24,0.88l-0.05,0.16c-0.02,0.05-0.01,0.12,0.03,0.16l2.12,2.31
		l-3.09-0.58c-0.06-0.01-0.11,0.01-0.15,0.05l-0.1,0.13c-0.19,0.22-0.39,0.44-0.61,0.65l-0.12,0.12c-0.04,0.04-0.06,0.1-0.04,0.15
		l0.81,3.05l-2.49-1.97c-0.04-0.03-0.1-0.04-0.16-0.02l-0.15,0.06c-0.26,0.11-0.53,0.2-0.81,0.28l-0.16,0.04
		c-0.06,0.01-0.1,0.06-0.11,0.12l-0.71,3.11l-1.31-2.95c-0.02-0.05-0.07-0.09-0.13-0.09l-0.16-0.02c-0.26-0.03-0.53-0.07-0.8-0.13
		l-0.16-0.04c-0.01,0-0.02,0-0.03,0c-0.05,0-0.09,0.02-0.12,0.05l-2.11,2.47l0.21-3.28c0-0.05-0.02-0.11-0.07-0.14l-0.14-0.09
		c-0.21-0.14-0.41-0.29-0.6-0.45l-0.13-0.1c-0.04-0.04-0.1-0.05-0.16-0.03l-3.06,1.22l1.73-2.84c0.03-0.05,0.03-0.11,0-0.16
		l-0.08-0.14c-0.12-0.21-0.22-0.42-0.31-0.64L34,43.39c-0.02-0.05-0.07-0.09-0.13-0.09l-3.32-0.34l2.88-1.73
		c0.05-0.03,0.08-0.08,0.08-0.14l-0.01-0.21c0-0.03,0-0.07,0-0.11c0-0.16,0.01-0.32,0.02-0.52l0.01-0.16c0-0.05-0.02-0.11-0.07-0.14
		l-2.8-1.86l3.35-0.19c0.06-0.01,0.11-0.04,0.13-0.09l0.07-0.15c0.1-0.21,0.22-0.41,0.33-0.6l0.09-0.14
		c0.03-0.05,0.03-0.11,0.01-0.16l-1.61-2.94l3.03,1.38c0.05,0.02,0.11,0.02,0.16-0.02l0.13-0.1c0.2-0.14,0.4-0.28,0.6-0.4l0.14-0.08
		c0.05-0.03,0.08-0.08,0.08-0.14l-0.06-3.32l2.02,2.6c0.03,0.04,0.09,0.07,0.15,0.06l0.16-0.03c0.26-0.04,0.51-0.07,0.75-0.08
		l0.16-0.01c0.05,0,0.11-0.04,0.13-0.09l1.47-2.93l0.57,3.19c0.01,0.06,0.05,0.1,0.1,0.12l0.16,0.05c0.26,0.08,0.51,0.18,0.76,0.3
		l0.15,0.07c0.05,0.02,0.11,0.02,0.16-0.02l2.62-1.88l-0.96,3.04c-0.02,0.05-0.01,0.11,0.04,0.16l0.12,0.12
		c0.2,0.2,0.39,0.42,0.56,0.65l0.1,0.13c0.03,0.04,0.09,0.07,0.14,0.06l3.14-0.44l-2.24,2.22c-0.04,0.04-0.06,0.1-0.04,0.16
		l0.05,0.16c0.09,0.28,0.15,0.58,0.2,0.88l0.03,0.16c0.01,0.06,0.05,0.1,0.1,0.12l2.96,1.06L47.69,41.9z"/>
</g>
<g>
	<path style="fill:#4D4D4D;" d="M84.92,29.18c0.03-0.26,0.22-0.48,0.58-0.48H86c0.26,0,0.45,0.13,0.54,0.32l7.04,15.1
		c0.06,0,0.06,0,0.1,0l7.04-15.1c0.1-0.19,0.26-0.32,0.54-0.32h0.51c0.35,0,0.54,0.22,0.58,0.48l3.78,21.5
		c0.1,0.45-0.16,0.74-0.58,0.74h-2.91c-0.29,0-0.54-0.26-0.61-0.48l-1.89-12.13c-0.03,0-0.1,0-0.1,0l-5.6,12.58
		c-0.06,0.19-0.26,0.35-0.54,0.35h-0.58c-0.29,0-0.45-0.16-0.54-0.35l-5.66-12.58c0,0-0.06,0-0.1,0l-1.86,12.13
		c-0.03,0.22-0.29,0.48-0.58,0.48h-2.88c-0.42,0-0.67-0.29-0.61-0.74L84.92,29.18z"/>
	<path style="fill:#4D4D4D;" d="M107.6,50.59l9.95-21.53c0.1-0.19,0.26-0.35,0.54-0.35h0.32c0.32,0,0.45,0.16,0.54,0.35l9.86,21.53
		c0.19,0.42-0.06,0.83-0.54,0.83h-2.78c-0.48,0-0.7-0.19-0.93-0.64l-1.57-3.46h-9.57l-1.57,3.46c-0.13,0.32-0.42,0.64-0.93,0.64
		h-2.78C107.67,51.42,107.41,51,107.6,50.59z M121.43,43.77l-3.2-7.04h-0.1l-3.14,7.04H121.43z"/>
	<path style="fill:#4D4D4D;" d="M131.73,29.63c0-0.32,0.29-0.61,0.61-0.61h2.98c0.32,0,0.61,0.29,0.61,0.61v21.18
		c0,0.32-0.29,0.61-0.61,0.61h-2.98c-0.32,0-0.61-0.29-0.61-0.61V29.63z"/>
	<path style="fill:#4D4D4D;" d="M141.75,29.28c0-0.32,0.29-0.58,0.61-0.58h0.8l13.31,14.14h0.03V29.63c0-0.32,0.26-0.61,0.61-0.61
		h2.94c0.32,0,0.61,0.29,0.61,0.61v21.53c0,0.32-0.29,0.58-0.61,0.58h-0.77l-13.38-14.69h-0.03v13.76c0,0.32-0.26,0.61-0.61,0.61
		h-2.91c-0.32,0-0.61-0.29-0.61-0.61V29.28z"/>
	<path style="fill:#4D4D4D;" d="M172.24,48.28l1.15-1.98c0.26-0.45,0.8-0.45,1.09-0.22c0.16,0.1,2.75,1.98,4.83,1.98
		c1.66,0,2.91-1.09,2.91-2.46c0-1.63-1.38-2.75-4.06-3.84c-3.01-1.22-6.02-3.14-6.02-6.91c0-2.85,2.11-6.14,7.2-6.14
		c3.26,0,5.76,1.66,6.4,2.14c0.32,0.19,0.42,0.74,0.19,1.06l-1.22,1.82c-0.26,0.38-0.74,0.64-1.12,0.38
		c-0.26-0.16-2.69-1.76-4.45-1.76c-1.82,0-2.82,1.22-2.82,2.24c0,1.5,1.18,2.53,3.78,3.58c3.1,1.25,6.69,3.1,6.69,7.23
		c0,3.3-2.85,6.34-7.36,6.34c-4.03,0-6.4-1.89-7.04-2.5C172.11,48.96,171.95,48.8,172.24,48.28z"/>
	<path style="fill:#4D4D4D;" d="M190.9,29.63c0-0.32,0.26-0.61,0.61-0.61h7.52c3.94,0,7.17,3.2,7.17,7.07c0,3.97-3.23,7.2-7.14,7.2
		h-4v7.52c0,0.32-0.29,0.61-0.61,0.61h-2.94c-0.35,0-0.61-0.29-0.61-0.61V29.63z M198.77,39.39c1.79,0,3.3-1.44,3.3-3.33
		c0-1.76-1.5-3.1-3.3-3.1h-3.71v6.43H198.77z"/>
	<path style="fill:#4D4D4D;" d="M209.84,29.63c0-0.32,0.26-0.61,0.61-0.61h9.15c3.84,0,6.98,3.07,6.98,6.88
		c0,2.94-1.95,5.34-4.74,6.46l4.38,8.13c0.22,0.42,0,0.93-0.54,0.93h-3.36c-0.29,0-0.45-0.16-0.51-0.29l-4.26-8.48H214v8.16
		c0,0.32-0.29,0.61-0.61,0.61h-2.94c-0.35,0-0.61-0.29-0.61-0.61V29.63z M219.25,39.23c1.7,0,3.17-1.47,3.17-3.26
		c0-1.7-1.47-3.1-3.17-3.1h-5.22v6.37H219.25z"/>
	<path style="fill:#4D4D4D;" d="M231.15,29.63c0-0.32,0.29-0.61,0.61-0.61h2.98c0.32,0,0.61,0.29,0.61,0.61v21.18
		c0,0.32-0.29,0.61-0.61,0.61h-2.98c-0.32,0-0.61-0.29-0.61-0.61V29.63z"/>
	<path style="fill:#4D4D4D;" d="M241.17,29.28c0-0.32,0.29-0.58,0.61-0.58h0.8l13.31,14.14h0.03V29.63c0-0.32,0.26-0.61,0.61-0.61
		h2.94c0.32,0,0.61,0.29,0.61,0.61v21.53c0,0.32-0.29,0.58-0.61,0.58h-0.77l-13.38-14.69h-0.03v13.76c0,0.32-0.26,0.61-0.61,0.61
		h-2.91c-0.32,0-0.61-0.29-0.61-0.61V29.28z"/>
	<path style="fill:#4D4D4D;" d="M275.79,28.7c2.88,0,5.63,1.12,7.81,2.98c0.26,0.26,0.29,0.64,0.03,0.9l-1.98,2.08
		c-0.26,0.26-0.54,0.26-0.83,0c-1.38-1.22-3.07-1.86-4.83-1.86c-4,0-7.17,3.42-7.17,7.42c0,3.97,3.17,7.33,7.2,7.33
		c1.79,0,3.17-0.54,3.81-0.8v-2.72h-2.56c-0.35,0-0.61-0.26-0.61-0.58v-2.53c0-0.35,0.26-0.61,0.61-0.61h6.14
		c0.32,0,0.58,0.29,0.58,0.61v8.19c0,0.26-0.13,0.42-0.26,0.51c0,0-3.3,2.08-7.94,2.08c-6.37,0-11.49-5.06-11.49-11.46
		S269.42,28.7,275.79,28.7z"/>
</g>
</svg>
